<svg xmlns="http://www.w3.org/2000/svg" width="26" height="48" viewBox="0 0 26 48" fill="none">
  <path fill-rule="evenodd" clip-rule="evenodd" d="M3.49355 24.5218C3.17635 24.875 3 25.3211 3 25.7083V34.1666C3 34.5615 3.18251 35.0474 3.5129 35.4379C3.8454 35.8309 4.21367 36 4.5 36H21.5C21.7597 36 22.2335 35.8647 22.5 35.5C22.7695 35.1312 23 34.6298 23 34.1728V25.7144C23 25.3888 22.7455 24.9543 22.3575 24.574C21.97 24.1943 21.3389 24 21 24H4.5C4.18179 24 3.81051 24.1688 3.49355 24.5218ZM2.00544 23.1855C2.6048 22.518 3.48352 22 4.5 22H21C21.9957 22 23.1035 22.5048 23.7573 23.1456C24.4107 23.7858 25 24.7054 25 25.7144V34.1728C25 35.0504 24.6367 35.9657 24.1149 36.6799C23.59 37.3982 22.575 38 21.5 38H4.5C3.45164 38 2.56991 37.4198 1.98608 36.7297C1.40015 36.0372 1 35.1065 1 34.1666V25.7083C1 24.7608 1.4063 23.8527 2.00544 23.1855Z" fill="#282828"></path>
  <path d="M8.75096 13.7271C9.87485 12.6233 11.4029 12 13 12C14.5971 12 16.1251 12.6233 17.249 13.7271C18.3723 14.8303 19 16.3227 19 17.875V20H21V17.875C21 15.7805 20.1527 13.7756 18.6505 12.3002C17.1488 10.8254 15.116 10 13 10C10.884 10 8.85116 10.8254 7.34954 12.3002C5.84731 13.7756 5 15.7805 5 17.875V20H7V17.875C7 16.3227 7.62768 14.8303 8.75096 13.7271Z" fill="#0078db"></path>
  <path d="M14.5343 28.3333C14.5343 28.7225 14.3861 29.0771 14.143 29.3437L15 32H11L11.9255 29.3436C11.6825 29.077 11.5343 28.7225 11.5343 28.3333C11.5343 27.5049 12.2059 26.8333 13.0343 26.8333C13.8627 26.8333 14.5343 27.5049 14.5343 28.3333Z" fill="#0078db"></path>
</svg>