<svg xmlns="http://www.w3.org/2000/svg" width="40" height="48" viewBox="0 0 40 48" fill="none">
  <path fill-rule="evenodd" clip-rule="evenodd" d="M13 10C12.4477 10 12 10.4477 12 11V15H23C24.6569 15 26 16.3431 26 18V24H32C32.5523 24 33 23.5523 33 23V11C33 10.4477 32.5523 10 32 10H13ZM26 26V29C26 31 25.5 33 23 33H15.8174L6 38.9299V33H4C2.34315 33 1 31.6569 1 30V18C1 16.3431 2.34315 15 4 15H10V11C10 9.34315 11.3431 8 13 8H32C33.6569 8 35 9.34315 35 11V22H36C37.6569 22 39 23.3431 39 25V37C39 38.6569 37.6569 40 36 40H34V45.6995L23.7409 40H17.5C15.8431 40 15 38.6569 15 37V36.5L17 35V37C17 37.5523 17.4477 38 18 38H24.2591L32 42.3005V38H36C36.5523 38 37 37.5523 37 37V25C37 24.4477 36.5523 24 36 24H34.8293C34.4175 25.1652 33.3062 26 32 26H26ZM4 17C3.44772 17 3 17.4477 3 18V30C3 30.5523 3.44772 31 4 31H8V35.0701L15.1826 31H23C24 31 24 30.5 24 29V18C24 17.4477 23.5523 17 23 17H4Z" fill="#282828"></path>
  <path d="M5 22C5 21.4477 5.44772 21 6 21H21C21.5523 21 22 21.4477 22 22C22 22.5523 21.5523 23 21 23H6C5.44772 23 5 22.5523 5 22Z" fill="#0078db"></path>
  <path d="M30 31.5C30 32.3284 29.3284 33 28.5 33C27.6716 33 27 32.3284 27 31.5C27 30.6716 27.6716 30 28.5 30C29.3284 30 30 30.6716 30 31.5Z" fill="#0078db"></path>
  <path d="M34 31.5C34 32.3284 33.3284 33 32.5 33C31.6716 33 31 32.3284 31 31.5C31 30.6716 31.6716 30 32.5 30C33.3284 30 34 30.6716 34 31.5Z" fill="#0078db"></path>
  <path d="M6 25C5.44772 25 5 25.4477 5 26C5 26.5523 5.44772 27 6 27H21C21.5523 27 22 26.5523 22 26C22 25.4477 21.5523 25 21 25H6Z" fill="#0078db"></path>
</svg>