<svg width="76" height="124" viewBox="0 0 76 124" fill="none" xmlns="http://www.w3.org/2000/svg">
<path d="M30.6692 109.192C30.6692 109.192 15.9285 11.0641 33.5207 9.34115C51.1129 7.61822 55.3659 8.68801 48.5675 107.311L30.6692 109.192Z" fill="#F5F5F5"></path>
<path d="M10 98.1111H67.8835L63.0505 124H14.833L10 98.1111Z" fill="#F5F5F5"></path>
<path d="M41.2394 47.1591C41.2394 47.1591 58.3678 48.2396 58.8842 47.1591C59.4006 46.0787 59.4006 22.6686 66.6651 24.0596C73.9296 25.4505 70.7449 53.6047 66.6651 56.8833C62.5853 60.162 41.2394 62 41.2394 62C41.2394 62 38.4507 51.5431 41.2394 47.1591Z" fill="#F5F5F5"></path>
<path d="M24.8727 63.5766C24.8727 63.5766 16.2164 65.2042 12.5186 63.5766C8.82072 61.949 10.2074 38.2583 6.42553 37.8001C-2.25877 36.6668 -0.774037 68.1098 2.92379 74.7287C6.62163 81.3476 25.6571 78.5385 25.6571 78.5385L24.8727 63.5766Z" fill="#6A8EF3"></path>
<path opacity="0.2" d="M24.8727 63.5766C24.8727 63.5766 16.2164 65.2042 12.5186 63.5766C8.82072 61.949 10.2074 38.2583 6.42553 37.8001C-2.25877 36.6668 -0.774037 68.1098 2.92379 74.7287C6.62163 81.3476 25.6571 78.5385 25.6571 78.5385L24.8727 63.5766Z" fill="white"></path>
<path d="M25.587 107.269C25.587 107.269 12.7707 2.20986 28.0663 0.365242C43.3618 -1.47938 47.0597 -0.334026 41.1487 105.255L25.587 107.269Z" fill="#6A8EF3"></path>
<path opacity="0.3" d="M25.587 107.269C25.587 107.269 12.7707 2.20986 28.0663 0.365242C43.3618 -1.47938 47.0597 -0.334026 41.1487 105.255L25.587 107.269Z" fill="white"></path>
<path d="M7.61612 95.4053H57.9431L53.741 123.123H11.8182L7.61612 95.4053Z" fill="#263238"></path>
<path d="M40.7846 42.1403C40.7846 42.1403 54.7215 43.1892 55.1417 42.1403C55.5619 41.0914 55.5619 18.3653 61.4728 19.7156C67.3837 21.0659 64.7924 48.3976 61.4728 51.5805C58.1532 54.7634 40.7846 56.5477 40.7846 56.5477C40.7846 56.5477 38.5154 46.3962 40.7846 42.1403Z" fill="#6A8EF3"></path>
<path opacity="0.4" d="M40.7846 42.1403C40.7846 42.1403 54.7215 43.1892 55.1417 42.1403C55.5619 41.0914 55.5619 18.3653 61.4728 19.7156C67.3837 21.0659 64.7924 48.3976 61.4728 51.5805C58.1532 54.7634 40.7846 56.5477 40.7846 56.5477C40.7846 56.5477 38.5154 46.3962 40.7846 42.1403Z" fill="white"></path>
<path d="M31.9462 92.6086C30.9283 85.0131 29.9945 77.4095 29.1448 69.7979C28.295 62.1864 27.59 54.5507 27.0298 46.8909C26.4415 39.2592 26.0353 31.6155 25.9232 23.9838C25.9232 20.1499 25.9232 16.316 26.1753 12.4821C26.2981 10.5508 26.5459 8.62679 26.9177 6.71919C27.1064 5.73705 27.4018 4.77231 27.8001 3.83771C28.0145 3.32014 28.3321 2.83872 28.7386 2.41507C28.8737 2.29367 29.0188 2.18086 29.1728 2.07749C29.3871 1.96337 29.6249 1.88561 29.8732 1.84842C30.1198 1.8394 30.3655 1.87927 30.5914 1.96498C30.8172 2.05069 31.0172 2.17994 31.1758 2.34273C31.8743 3.21154 32.3516 4.19758 32.5765 5.23625C32.8566 6.1887 33.0807 7.14114 33.2628 8.0936C33.627 9.98644 33.9072 11.9034 34.1313 13.8083C34.5935 17.6181 34.9157 21.44 35.1818 25.2618C35.6954 32.9055 36.0456 40.5412 36.2323 48.1689C36.4191 55.7965 36.5311 63.4322 36.5685 71.0759C36.5685 78.7196 36.5124 86.3553 36.4004 93.983C36.2883 86.3392 36.1156 78.7036 35.8821 71.0759C35.7 63.4322 35.4759 55.7885 35.1538 48.1689C34.8316 40.5493 34.4954 32.8935 33.9212 25.2618C33.627 21.452 33.2908 17.6422 32.8006 13.8565C32.5625 11.9637 32.2823 10.0829 31.9042 8.21417C31.7221 7.28583 31.498 6.35748 31.2318 5.45325C31.0471 4.5956 30.6713 3.77681 30.1253 3.04199C30.0132 2.90937 29.9572 2.94553 29.9992 2.92141L29.8311 3.05405C29.5341 3.37807 29.2978 3.74011 29.1308 4.12705C28.7617 4.98668 28.4896 5.87493 28.3184 6.77946C27.9449 8.63862 27.6923 10.5143 27.562 12.3977C27.2819 16.1955 27.2258 20.0053 27.2539 23.8151C27.2539 31.4467 27.7301 39.0784 28.1643 46.7221C28.5985 54.3658 29.2148 61.9734 29.8732 69.6292C30.5315 77.285 31.1618 85.001 31.9462 92.6086Z" fill="#6A8EF3"></path>
<path d="M42.5354 47.5298C44.3423 47.3851 46.1352 47.2766 47.9281 47.1078C49.721 46.9391 51.4999 46.7944 53.2647 46.5412C54.1286 46.4149 54.9841 46.2499 55.828 46.0469C56.6124 45.9022 57.5509 45.4199 57.2287 45.3476C57.1538 44.5451 57.1538 43.7388 57.2287 42.9363C57.2287 42.1527 57.3408 41.381 57.4248 40.5974C57.747 37.4989 58.1672 34.4125 58.7274 31.3381C59.2198 28.2548 59.9024 25.1962 60.7725 22.1753C60.5764 23.7185 60.4223 25.2617 60.2822 26.817L59.792 31.4466L58.8115 40.7059C58.6248 42.2035 58.5313 43.7087 58.5313 45.215V45.3838C58.5381 45.4882 58.5381 45.5928 58.5313 45.6972C58.4824 45.8804 58.3814 46.0503 58.2372 46.1915C58.0415 46.4041 57.786 46.5701 57.4948 46.6738C57.0488 46.8642 56.5788 47.0098 56.0941 47.1078C55.1728 47.2964 54.2364 47.4253 53.2928 47.4936C49.7142 47.7594 46.1163 47.7715 42.5354 47.5298Z" fill="#6A8EF3"></path>
<path d="M42.5354 52.7743L48.4884 51.641C50.4633 51.2793 52.4523 50.9176 54.4133 50.5077C56.3476 50.1511 58.2521 49.6839 60.1141 49.1092C60.2405 49.0639 60.3585 49.003 60.4643 48.9283C60.56 48.7838 60.6352 48.63 60.6884 48.4702C60.8394 48.0763 60.9564 47.6733 61.0386 47.2645C61.2207 46.4327 61.3467 45.5767 61.4588 44.7207C61.935 41.2846 62.1591 37.8003 62.4533 34.316L62.8595 29.0957L63.3217 23.8752C63.5598 27.3716 63.5878 30.8679 63.5318 34.3643C63.4758 37.8606 63.2937 41.3569 62.8595 44.8533C62.7334 45.7334 62.5934 46.6135 62.3833 47.4936C62.2807 47.9478 62.1402 48.3951 61.963 48.8319C61.8688 49.0924 61.732 49.34 61.5568 49.5673C61.3294 49.8174 61.023 50.0058 60.6744 50.1099C58.7076 50.6957 56.6819 51.1235 54.6234 51.3878C50.6174 52.0148 46.5834 52.485 42.5354 52.7743Z" fill="#6A8EF3"></path>
<path d="M20.5585 67.9652C16.9665 68.1157 13.3702 67.7573 9.91326 66.9042C9.45292 66.7698 9.01133 66.5919 8.5966 66.3737C8.33639 66.2482 8.11532 66.0703 7.95228 65.8553C7.79864 65.6744 7.67599 65.4755 7.5881 65.2645C7.24751 64.5164 6.99414 63.741 6.83172 62.9497C6.51812 61.4292 6.29373 59.8961 6.1594 58.3562C5.87926 55.2939 5.7672 52.2316 5.79521 49.1814C5.82323 46.1311 5.92127 43.0688 6.24343 40.0186L6.59361 44.5879L6.87375 49.1572C7.09786 52.1954 7.25193 55.1854 7.54608 58.2598C7.68615 59.7669 7.85423 61.2739 8.13437 62.7448C8.25322 63.4612 8.4454 64.1673 8.70866 64.8546C8.77106 65.0058 8.85083 65.1511 8.94677 65.2886C9.02231 65.3904 9.12268 65.4768 9.24092 65.5418C9.57803 65.7369 9.93422 65.9063 10.3054 66.0482C11.9225 66.6022 13.6035 67.0063 15.3199 67.2538C17.0428 67.5432 18.8077 67.7481 20.5585 67.9652Z" fill="#6A8EF3"></path>
<path d="M3.66617 42.876C3.86226 44.6603 3.98833 46.4929 4.17042 48.2169L4.59062 53.5699C4.88476 57.1869 5.12288 60.6832 5.44504 64.2278C5.61313 66 5.78121 67.7844 6.04734 69.5205C6.14231 70.3618 6.32991 71.1934 6.60762 72.0041C6.83173 72.7034 7.65813 73.1012 8.52656 73.487C10.4193 74.1365 12.3936 74.5938 14.4095 74.8494C16.4405 75.187 18.4995 75.3919 20.5585 75.5969C16.3582 75.8122 12.1461 75.4044 8.10636 74.3912C7.58044 74.2075 7.07815 73.9773 6.60762 73.7041C6.09068 73.4188 5.69696 72.9951 5.48706 72.4984C5.12839 71.6112 4.87956 70.6938 4.7447 69.7616C4.40853 67.9652 4.24045 66.1447 4.05836 64.3966C3.75021 60.7797 3.56812 57.2471 3.51209 53.6784C3.45606 50.1098 3.49808 46.4567 3.66617 42.876Z" fill="#6A8EF3"></path>
</svg>
