<svg width="234" height="24" viewBox="0 0 234 24" fill="none" xmlns="http://www.w3.org/2000/svg">
<path d="M19.85 12.2V22.7C18.73 22.88 17.7 23.01 16.76 23.09C15.83 23.17 14.86 23.21 13.85 23.21C9.51 23.21 6.245 22.27 4.055 20.39C1.865 18.5 0.765 15.69 0.755 11.96C0.755 9.45 1.265 7.345 2.285 5.645C3.305 3.935 4.765 2.655 6.665 1.805C8.575 0.944999 10.855 0.514999 13.505 0.514999C15.335 0.514999 17.215 0.744999 19.145 1.205V4.01C17.305 3.56 15.51 3.335 13.76 3.335C10.7 3.345 8.355 4.05 6.725 5.45C5.105 6.84 4.295 9 4.295 11.93C4.295 17.58 7.425 20.405 13.685 20.405C14.755 20.405 15.74 20.36 16.64 20.27V12.2H19.85ZM25.2411 23V0.8H28.6311V20.255H40.8411V23H25.2411ZM53.0872 23.285C50.8572 23.285 48.9172 22.86 47.2672 22.01C45.6272 21.16 44.3572 19.885 43.4572 18.185C42.5672 16.485 42.1222 14.39 42.1222 11.9C42.1222 9.41 42.5722 7.315 43.4722 5.615C44.3822 3.915 45.6572 2.64 47.2972 1.79C48.9372 0.939999 50.8672 0.514999 53.0872 0.514999C55.3272 0.514999 57.2672 0.939999 58.9072 1.79C60.5472 2.64 61.8122 3.92 62.7022 5.63C63.6022 7.33 64.0522 9.42 64.0522 11.9C64.0522 14.38 63.5972 16.47 62.6872 18.17C61.7872 19.87 60.5172 21.15 58.8772 22.01C57.2372 22.86 55.3072 23.285 53.0872 23.285ZM53.0872 20.51C55.4572 20.51 57.2972 19.815 58.6072 18.425C59.9172 17.025 60.5722 14.88 60.5722 11.99C60.5722 9.03 59.9122 6.84 58.5922 5.42C57.2822 4 55.4472 3.29 53.0872 3.29C50.7372 3.29 48.9022 3.99 47.5822 5.39C46.2622 6.78 45.6022 8.92 45.6022 11.81C45.6022 14.79 46.2572 16.985 47.5672 18.395C48.8772 19.805 50.7172 20.51 53.0872 20.51ZM81.2469 11.555C82.7469 11.815 83.8819 12.4 84.6519 13.31C85.4319 14.22 85.8219 15.39 85.8219 16.82C85.8219 18.22 85.4669 19.39 84.7569 20.33C84.0569 21.27 82.9069 21.985 81.3069 22.475C79.7069 22.965 77.5869 23.21 74.9469 23.21C72.8469 23.21 70.7119 23.07 68.5419 22.79V1.325C70.8819 0.814999 73.2919 0.559999 75.7719 0.559999C79.0419 0.559999 81.4269 1.065 82.9269 2.075C84.4369 3.085 85.1919 4.6 85.1919 6.62C85.1919 7.87 84.8569 8.925 84.1869 9.785C83.5169 10.645 82.5369 11.235 81.2469 11.555ZM76.1019 3.02C74.5819 3.02 73.1719 3.145 71.8719 3.395V10.37H76.7619C78.5619 10.37 79.8819 10.08 80.7219 9.5C81.5719 8.91 81.9969 7.99 81.9969 6.74C81.9969 5.86 81.7969 5.15 81.3969 4.61C81.0069 4.06 80.3819 3.66 79.5219 3.41C78.6619 3.15 77.5219 3.02 76.1019 3.02ZM75.7269 20.735C77.4969 20.735 78.8869 20.585 79.8969 20.285C80.9169 19.985 81.6369 19.545 82.0569 18.965C82.4769 18.385 82.6869 17.63 82.6869 16.7C82.6869 15.37 82.2419 14.4 81.3519 13.79C80.4619 13.18 79.0519 12.875 77.1219 12.875H71.8719V20.495C72.9919 20.655 74.2769 20.735 75.7269 20.735ZM106.524 23L103.884 16.205H93.5185L90.8785 23H87.5185L96.3235 0.8H101.124L109.929 23H106.524ZM94.5535 13.565H102.849L98.7085 2.915L94.5535 13.565ZM113.22 23V0.8H116.61V10.145H129.255V0.8H132.645V23H129.255V13.1H116.61V23H113.22ZM147.617 23.285C144.317 23.285 141.887 22.505 140.327 20.945C138.777 19.375 138.002 16.98 138.002 13.76V0.8H141.407V14.075C141.407 16.305 141.912 17.93 142.922 18.95C143.932 19.97 145.497 20.48 147.617 20.48C149.737 20.48 151.302 19.97 152.312 18.95C153.322 17.93 153.827 16.305 153.827 14.075V0.8H157.157V13.76C157.157 16.98 156.382 19.375 154.832 20.945C153.292 22.505 150.887 23.285 147.617 23.285ZM175.261 11.555C176.761 11.815 177.896 12.4 178.666 13.31C179.446 14.22 179.836 15.39 179.836 16.82C179.836 18.22 179.481 19.39 178.771 20.33C178.071 21.27 176.921 21.985 175.321 22.475C173.721 22.965 171.601 23.21 168.961 23.21C166.861 23.21 164.726 23.07 162.556 22.79V1.325C164.896 0.814999 167.306 0.559999 169.786 0.559999C173.056 0.559999 175.441 1.065 176.941 2.075C178.451 3.085 179.206 4.6 179.206 6.62C179.206 7.87 178.871 8.925 178.201 9.785C177.531 10.645 176.551 11.235 175.261 11.555ZM170.116 3.02C168.596 3.02 167.186 3.145 165.886 3.395V10.37H170.776C172.576 10.37 173.896 10.08 174.736 9.5C175.586 8.91 176.011 7.99 176.011 6.74C176.011 5.86 175.811 5.15 175.411 4.61C175.021 4.06 174.396 3.66 173.536 3.41C172.676 3.15 171.536 3.02 170.116 3.02ZM169.741 20.735C171.511 20.735 172.901 20.585 173.911 20.285C174.931 19.985 175.651 19.545 176.071 18.965C176.491 18.385 176.701 17.63 176.701 16.7C176.701 15.37 176.256 14.4 175.366 13.79C174.476 13.18 173.066 12.875 171.136 12.875H165.886V20.495C167.006 20.655 168.291 20.735 169.741 20.735ZM208.975 23L206.335 16.205H195.97L193.33 23H189.97L198.775 0.8H203.575L212.38 23H208.975ZM197.005 13.565H205.3L201.16 2.915L197.005 13.565ZM233.248 12.2V22.7C232.128 22.88 231.098 23.01 230.158 23.09C229.228 23.17 228.258 23.21 227.248 23.21C222.908 23.21 219.643 22.27 217.453 20.39C215.263 18.5 214.163 15.69 214.153 11.96C214.153 9.45 214.663 7.345 215.683 5.645C216.703 3.935 218.163 2.655 220.063 1.805C221.973 0.944999 224.253 0.514999 226.903 0.514999C228.733 0.514999 230.613 0.744999 232.543 1.205V4.01C230.703 3.56 228.908 3.335 227.158 3.335C224.098 3.345 221.753 4.05 220.123 5.45C218.503 6.84 217.693 9 217.693 11.93C217.693 17.58 220.823 20.405 227.083 20.405C228.153 20.405 229.138 20.36 230.038 20.27V12.2H233.248Z" fill="#fff"></path>
</svg>
