<svg width="236" height="344" viewBox="0 0 236 344" fill="none" xmlns="http://www.w3.org/2000/svg">
<path d="M181.283 8.47344C176.413 4.45153 170.106 1.81759 162.363 0.571638C154.619 -0.674316 146.434 0.11651 137.807 2.94412C129.208 5.77173 121.343 10.8782 114.212 18.2636C107.581 25.1324 103.101 32.3273 100.77 39.8483C98.4454 46.8031 98.2323 54.2181 100.155 61.278C101.981 67.822 105.869 73.712 111.321 78.1953C115.201 81.5708 119.935 83.9852 125.086 85.2159C129.685 86.2788 134.433 86.6837 139.164 86.4166C143.707 86.1455 151.59 85.4257 162.812 84.2572C165.439 83.992 168.079 83.8562 170.722 83.8505C172.532 83.8394 174.336 84.0312 176.096 84.4218C177.493 84.7521 178.849 85.2129 180.146 85.7969C181.398 86.3682 183.516 87.4237 186.522 88.9828C192.7 92.4882 198.071 91.875 202.635 87.1429C203.769 86.024 204.652 84.7076 205.234 83.2698C205.817 81.8321 206.086 80.3015 206.027 78.7666C205.908 75.6485 204.141 72.6692 200.725 69.8287C193.767 63.642 184.447 60.2706 174.813 60.4549C169.328 60.6248 163.856 61.0514 158.418 61.7332C152.637 62.382 148.368 62.7887 145.613 62.9243C142.878 63.0693 140.135 62.8574 137.463 62.2948C134.798 61.7469 132.333 60.5618 130.314 58.8571C128.338 57.2656 126.756 55.297 125.676 53.086C124.595 50.875 124.041 48.4735 124.053 46.0458C123.969 40.8812 126.056 36.0813 130.314 31.6463C135.344 26.4365 140.461 23.78 145.665 23.6767C150.869 23.5734 157.065 24.9614 164.252 27.8406C171.564 31.0233 177.39 30.3777 181.732 25.9039C182.967 24.6749 183.913 23.2202 184.507 21.6328C185.102 20.0454 185.333 18.3602 185.186 16.6851C185.155 15.1446 184.793 13.6253 184.123 12.2155C183.453 10.8058 182.488 9.53374 181.283 8.47344ZM231.73 112.756C234.457 110.007 235.979 106.412 235.998 102.675C236.061 98.8536 234.283 95.4353 230.666 92.4205C229.177 91.1427 227.419 90.1654 225.502 89.5503C223.585 88.9353 221.552 88.6959 219.531 88.8472C217.483 88.9621 215.482 89.4586 213.646 90.3071C211.81 91.1557 210.177 92.3388 208.844 93.7859C207.474 95.1621 206.416 96.7798 205.733 98.5428C205.05 100.306 204.756 102.178 204.868 104.049C204.98 105.92 205.496 107.75 206.385 109.432C207.274 111.114 208.519 112.614 210.044 113.841C213.613 116.804 217.44 118.069 221.524 117.637C225.469 117.268 229.117 115.524 231.73 112.756Z" fill="#FF8AB4"></path>
<g opacity="0.7" filter="url('#filter0_d_20_99')">
<path d="M95.7538 91.5701C94.2884 88.3393 91.8589 85.5642 88.7513 83.5714C85.0991 81.1571 80.8347 79.6624 76.3744 79.2332C71.1781 78.7144 65.9251 79.4274 61.1067 81.3054C56.5553 82.8679 52.4448 85.3676 49.0845 88.6166C46.1726 91.4281 44.1508 94.9291 43.2404 98.7359C42.4012 102.294 42.7283 106.004 44.1797 109.388C45.1644 111.87 46.8083 114.082 48.9593 115.818C50.8855 117.354 53.0534 118.608 55.3878 119.536C57.6281 120.421 61.5902 121.834 67.2743 123.778C68.6035 124.23 69.9032 124.754 71.1669 125.346C72.0364 125.742 72.8497 126.237 73.588 126.818C74.1749 127.284 74.7066 127.807 75.1742 128.377C75.623 128.929 76.3639 129.907 77.3971 131.282C79.4843 134.342 82.215 135.246 85.5893 133.994C86.4223 133.711 87.1867 133.277 87.8386 132.719C88.4905 132.16 89.0171 131.488 89.3879 130.74C89.7603 129.865 89.9322 128.927 89.8927 127.987C89.8531 127.047 89.603 126.124 89.1583 125.279C87.4283 120.766 83.8404 117.075 79.1816 115.014C76.515 113.861 73.7878 112.834 71.0103 111.935C68.0779 110.966 65.928 110.201 64.5714 109.659C63.2256 109.117 61.9681 108.403 60.8353 107.538C59.7012 106.679 58.8273 105.561 58.2994 104.294C57.765 103.093 57.5171 101.798 57.573 100.499C57.6288 99.2005 57.987 97.9283 58.6229 96.7701C60.0197 94.221 62.4238 92.2712 65.3332 91.328C69.0901 89.9529 72.2209 89.8206 74.7255 90.9309C77.7668 92.4328 80.428 94.5192 82.5316 97.051C85.2171 100.208 88.1808 101.176 91.4229 99.956C92.332 99.6405 93.1605 99.153 93.8557 98.5245C94.551 97.8961 95.0978 97.1403 95.4616 96.3053C95.8463 95.5735 96.0702 94.7779 96.1204 93.9649C96.1706 93.152 96.0459 92.3379 95.7538 91.5701ZM92.9048 152.77C94.9213 152.061 96.5807 150.68 97.5592 148.897C98.0603 147.959 98.3314 146.93 98.3531 145.884C98.3747 144.837 98.1464 143.799 97.6844 142.845C97.3083 141.897 96.7233 141.034 95.9668 140.308C95.2102 139.583 94.2988 139.012 93.2909 138.632C92.2798 138.232 91.1917 138.026 90.0923 138.026C88.993 138.026 87.9049 138.232 86.8937 138.632C85.8817 138.986 84.9564 139.524 84.1729 140.216C83.3893 140.908 82.7634 141.738 82.3322 142.658C81.9011 143.579 81.6735 144.57 81.6629 145.573C81.6523 146.577 81.859 147.572 82.2707 148.5C82.6313 149.494 83.2244 150.402 84.0073 151.159C84.7903 151.915 85.7439 152.502 86.7998 152.877C88.7763 153.558 90.9573 153.52 92.9048 152.77Z" fill="#FFB6D0"></path>
</g>
<path d="M206.997 337.347L214.887 335.449L210.18 318.706L202.291 320.604L206.997 337.347Z" fill="#FFC3BD"></path>
<path d="M214.97 333.513L206.162 336.098C206.089 336.115 206.02 336.145 205.96 336.187C205.9 336.229 205.849 336.282 205.811 336.343C205.773 336.403 205.748 336.47 205.739 336.54C205.729 336.609 205.735 336.68 205.755 336.747L207.613 343.09C207.743 343.423 208.007 343.696 208.349 343.853C208.691 344.01 209.085 344.038 209.45 343.932C212.497 342.964 213.906 342.402 217.798 341.26C220.188 340.562 225.949 338.984 229.278 338.016C232.607 337.047 231.365 334.142 229.914 334.326C223.215 334.975 219.322 334.452 216.536 333.551C216.033 333.379 215.482 333.365 214.97 333.513Z" fill="#263238"></path>
<path opacity="0.2" d="M202.291 320.614L210.18 318.716L212.601 327.344L204.712 329.242L202.291 320.614Z" fill="black"></path>
<path d="M182.41 149.399C182.41 149.399 196.853 213.088 200.694 233.936C204.868 256.77 214.041 322.144 214.041 322.144L200.631 326.666C200.631 326.666 179.645 257.342 176.462 235.389C169.793 213.93 152.897 149.399 152.897 149.399H182.41Z" fill="#FF8AB4"></path>
<path opacity="0.3" d="M163.866 170.189C168.551 180.628 170.252 199.637 169.438 211.006C165.723 197.584 161.601 182.255 158.408 170.247C159.441 166.945 160.86 163.479 163.866 170.189Z" fill="black"></path>
<path d="M200.903 328.138L215.283 324.284L214.741 318.639L197.626 323.103L200.903 328.138Z" fill="#263238"></path>
<path d="M218.205 333.919C217.494 334.109 216.763 334.229 216.024 334.278C215.987 334.284 215.949 334.278 215.915 334.263C215.881 334.247 215.854 334.222 215.836 334.191C215.817 334.163 215.806 334.131 215.806 334.099C215.806 334.066 215.817 334.034 215.836 334.007C216.035 333.774 217.757 331.77 218.832 331.828C218.955 331.832 219.075 331.865 219.181 331.925C219.287 331.984 219.375 332.067 219.437 332.167C219.543 332.306 219.608 332.469 219.624 332.639C219.641 332.809 219.608 332.98 219.531 333.135C219.207 333.538 218.736 333.817 218.205 333.919ZM216.431 333.919C217.934 333.755 218.946 333.416 219.197 332.951C219.245 332.851 219.263 332.74 219.249 332.63C219.234 332.521 219.187 332.418 219.113 332.331C219.084 332.282 219.042 332.24 218.991 332.21C218.94 332.179 218.882 332.161 218.821 332.157C218.258 332.138 217.151 333.116 216.431 333.9V333.919Z" fill="#FF8AB4"></path>
<path d="M216.066 334.278H215.972C215.941 334.273 215.912 334.262 215.886 334.246C215.861 334.229 215.84 334.207 215.826 334.181C215.826 334.094 214.866 332.128 215.408 331.218C215.483 331.101 215.582 331.001 215.701 330.923C215.82 330.844 215.955 330.79 216.097 330.763C216.254 330.721 216.422 330.727 216.574 330.781C216.727 330.835 216.856 330.934 216.943 331.063C217.412 331.779 216.776 333.581 216.149 334.22C216.129 334.247 216.1 334.267 216.066 334.278ZM216.066 331.121C215.994 331.141 215.927 331.175 215.87 331.22C215.813 331.265 215.766 331.32 215.732 331.382C215.543 332.182 215.65 333.018 216.035 333.755C216.525 333.038 216.901 331.702 216.588 331.237C216.588 331.15 216.431 331.053 216.16 331.102L216.066 331.121Z" fill="#FF8AB4"></path>
<path d="M171.233 94.851C171.933 96.4198 172.601 97.8142 173.321 99.2474C174.041 100.681 174.813 102.085 175.596 103.489C177.182 106.287 178.852 109.047 180.688 111.739C184.343 117.335 188.763 122.468 193.838 127.01L194.025 127.185C194.292 127.407 194.586 127.599 194.902 127.756C195.771 128.191 196.726 128.457 197.709 128.54C198.272 128.578 198.837 128.578 199.4 128.54C200.242 128.49 201.079 128.383 201.904 128.221C203.386 127.93 204.701 127.572 205.995 127.194C208.563 126.439 210.952 125.519 213.3 124.589C215.649 123.66 217.965 122.653 220.24 121.558C222.515 120.464 224.749 119.37 226.961 118.13C227.474 117.84 227.859 117.389 228.045 116.859C228.232 116.328 228.209 115.754 227.98 115.238C227.751 114.722 227.332 114.299 226.797 114.045C226.262 113.79 225.647 113.721 225.062 113.85C220.219 114.935 215.388 116.145 210.629 117.22C208.26 117.772 205.891 118.256 203.616 118.663C202.544 118.864 201.46 119.01 200.37 119.099C199.96 119.121 199.549 119.121 199.139 119.099C198.982 119.099 198.92 119.099 198.962 119.099C199.332 119.108 199.693 119.212 200.005 119.399L201.049 120.145C199.03 118.071 197.158 115.878 195.445 113.579C193.691 111.226 192.032 108.737 190.435 106.239C188.839 103.741 187.305 101.116 185.854 98.4921C184.403 95.8678 182.963 93.1661 181.68 90.6387L181.617 90.5128C181.001 89.2287 179.861 88.2241 178.447 87.7202C177.033 87.2162 175.461 87.2542 174.077 87.8256C172.693 88.397 171.611 89.4552 171.068 90.7672C170.525 92.0793 170.565 93.5379 171.181 94.822L171.233 94.851Z" fill="#FFC3BD"></path>
<path d="M172.841 84.6058C179.561 84.7801 184.174 91.5489 188.578 99.9833C185.202 105.398 180.365 109.904 174.542 113.056C174.542 113.056 156.884 84.1894 172.841 84.6058Z" fill="#E0E0E0"></path>
<path d="M227.295 118.169L233.348 116.736L228.631 111.11C228.631 111.11 223.413 111.875 221.43 115.952L223.58 117.375C224.101 117.747 224.703 118.011 225.344 118.148C225.985 118.285 226.65 118.292 227.295 118.169Z" fill="#FFC3BD"></path>
<path d="M234.819 110.984L233.65 110.016C233.172 109.627 232.562 109.407 231.926 109.395C231.291 109.382 230.671 109.578 230.175 109.948L228.631 111.1L233.348 116.726L235.278 113.937C235.598 113.476 235.728 112.924 235.643 112.381C235.559 111.838 235.266 111.342 234.819 110.984Z" fill="#FFC3BD"></path>
<path d="M136.378 336.476H144.632L146.605 319.413H138.35L136.378 336.476Z" fill="#FFC3BD"></path>
<path d="M145.352 335.624H136.075C135.921 335.616 135.771 335.664 135.656 335.758C135.54 335.853 135.47 335.985 135.459 336.127L135.01 342.673C135.019 343.025 135.175 343.36 135.446 343.606C135.717 343.853 136.082 343.99 136.461 343.99C139.686 343.932 141.23 343.768 145.311 343.768C147.815 343.768 154.703 344 158.199 344C161.695 344 161.57 340.94 160.098 340.669C153.513 339.42 149.109 337.706 146.772 336.079C146.365 335.786 145.867 335.626 145.352 335.624Z" fill="#263238"></path>
<path opacity="0.2" d="M138.35 319.413H146.605L145.582 328.216H137.327L138.35 319.413Z" fill="black"></path>
<path d="M166.276 149.399C166.276 149.399 164.45 213.427 163.146 234.527C161.685 257.632 149.318 326.085 149.318 326.085H134.186C134.186 326.085 137.505 256.761 140.009 234.091C138.966 209.263 138.277 149.379 138.277 149.379L166.276 149.399Z" fill="#FF8AB4"></path>
<path d="M133.581 326.085H150.737L151.551 320.963L133.122 321.253L133.581 326.085Z" fill="#263238"></path>
<path d="M148.275 336.902C147.533 336.887 146.795 336.799 146.073 336.64C146.037 336.634 146.005 336.618 145.981 336.594C145.956 336.569 145.941 336.538 145.937 336.505C145.927 336.472 145.929 336.438 145.942 336.406C145.955 336.375 145.979 336.348 146.01 336.331C146.271 336.176 148.608 334.742 149.621 335.101C149.734 335.14 149.834 335.204 149.913 335.289C149.991 335.374 150.045 335.476 150.069 335.585C150.135 335.751 150.147 335.93 150.104 336.102C150.062 336.274 149.966 336.431 149.829 336.553C149.373 336.838 148.821 336.962 148.275 336.902ZM146.605 336.398C148.087 336.66 149.172 336.611 149.558 336.272C149.638 336.191 149.692 336.092 149.716 335.985C149.74 335.877 149.732 335.766 149.694 335.662C149.684 335.609 149.66 335.559 149.623 335.516C149.587 335.474 149.539 335.441 149.485 335.42C148.942 335.227 147.565 335.846 146.605 336.398Z" fill="#FF8AB4"></path>
<path d="M146.125 336.65H146.031C146.003 336.635 145.979 336.614 145.961 336.588C145.943 336.563 145.931 336.535 145.926 336.505C145.926 336.418 145.738 334.297 146.573 333.6C146.68 333.505 146.809 333.435 146.951 333.394C147.092 333.354 147.241 333.345 147.387 333.367C147.549 333.369 147.705 333.421 147.831 333.514C147.958 333.606 148.047 333.736 148.087 333.881C148.274 334.684 147.043 336.224 146.218 336.66L146.125 336.65ZM147.293 333.658C147.216 333.656 147.139 333.668 147.067 333.695C146.995 333.722 146.93 333.762 146.876 333.813C146.419 334.516 146.228 335.341 146.333 336.156C147.053 335.614 147.878 334.442 147.753 333.919C147.753 333.813 147.659 333.697 147.377 333.668L147.293 333.658Z" fill="#FF8AB4"></path>
<path d="M178.935 89.5348C178.49 88.2811 177.689 87.1617 176.617 86.2944C175.544 85.4271 174.24 84.8438 172.841 84.6058C170.801 84.1644 168.735 83.841 166.652 83.6374C160.395 83.3169 154.124 83.3169 147.868 83.6374C144.591 83.773 141.251 84.1313 138.59 84.4799H138.496C137.812 84.5537 137.152 84.7559 136.555 85.0741C135.958 85.3923 135.438 85.8199 135.025 86.3309C134.612 86.8418 134.315 87.4254 134.153 88.0462C133.991 88.6669 133.967 89.3118 134.082 89.9415C136.165 99.8094 137.528 109.796 138.162 119.835C138.809 134.418 137.933 145.864 138.246 149.379H182.41C185.092 113.811 181.628 97.6399 178.935 89.5348Z" fill="#E0E0E0"></path>
<path d="M144.872 61.9365C144.102 62.4528 143.489 63.1457 143.094 63.9476C142.699 64.7496 142.535 65.6329 142.618 66.5114C142.701 67.3898 143.028 68.2331 143.568 68.9589C144.108 69.6846 144.841 70.268 145.697 70.6518C143.912 73.3922 148.661 78.234 153.44 75.1933C158.22 72.1527 151.468 59.351 144.872 61.9365Z" fill="#263238"></path>
<path d="M164.638 58.9927C165.294 59.0107 165.943 58.8704 166.523 58.5855C167.103 58.3006 167.593 57.8808 167.945 57.3674C168.297 56.8539 168.5 56.2644 168.533 55.6564C168.566 55.0484 168.429 54.4429 168.134 53.8992C170.357 53.0954 169.96 48.5925 165.953 48.3989C161.945 48.2052 159.879 57.8597 164.638 58.9927Z" fill="#263238"></path>
<path d="M165.942 87.4431C166.241 87.1887 166.463 86.8666 166.587 86.5084C166.711 86.1502 166.733 85.7683 166.65 85.4C166.567 85.0318 166.382 84.69 166.113 84.4081C165.845 84.1263 165.502 83.9141 165.118 83.7924C161.09 82.4173 160.359 79.7059 160.683 76.7524C160.775 75.9219 160.922 75.0973 161.121 74.2831L154.285 69.2186L149.255 65.5001C150.508 70.3419 151.906 78.7763 149.255 83.0467C148.958 83.4936 148.843 84.0243 148.931 84.543C149.019 85.0616 149.305 85.5339 149.735 85.8743C151.468 87.2978 155.016 89.1377 160.86 88.8472C163.542 88.7213 165.034 88.15 165.942 87.4431Z" fill="#FFC3BD"></path>
<path d="M181.2 89.7091C180.702 88.3148 179.824 87.0634 178.653 86.076C177.481 85.0887 176.054 84.3988 174.51 84.0732C172.53 83.7814 170.533 83.5874 168.531 83.4922C168.321 83.4643 168.108 83.4852 167.91 83.5529C167.712 83.6206 167.535 83.733 167.395 83.88C167.255 84.0269 167.157 84.2039 167.109 84.3948C167.062 84.5858 167.066 84.7847 167.122 84.9738C170.618 97.0202 175.606 121.123 174.062 150.977C174.054 151.163 174.088 151.348 174.161 151.521C174.234 151.695 174.344 151.852 174.484 151.985C174.625 152.117 174.793 152.221 174.979 152.291C175.165 152.361 175.364 152.395 175.564 152.391H184.33C184.711 152.397 185.079 152.268 185.36 152.03C185.642 151.793 185.814 151.465 185.844 151.113C188.484 114.635 183.819 96.4585 181.2 89.7091Z" fill="#263238"></path>
<path d="M138.83 83.7536C141.636 83.3807 144.461 83.1415 147.294 83.0371C147.806 83.0024 148.316 83.1369 148.732 83.4169C149.148 83.6968 149.444 84.1042 149.569 84.5671C152.814 97.8336 155.705 127.31 155.83 151.026C155.826 151.206 155.784 151.384 155.705 151.55C155.627 151.715 155.515 151.864 155.374 151.989C155.233 152.114 155.068 152.213 154.886 152.278C154.705 152.344 154.511 152.375 154.317 152.372H138.663C138.275 152.379 137.9 152.246 137.617 152C137.334 151.754 137.166 151.414 137.15 151.055C137.045 146.281 137.755 135.096 137.15 121.21C136.571 111.315 135.232 101.47 133.142 91.7523C132.6 89.0312 135.731 84.1604 138.83 83.7536Z" fill="#263238"></path>
<path d="M133.33 87.966C129.98 92.6529 126.933 97.3494 124.053 102.278C122.633 104.748 121.235 107.256 119.972 109.89C119.346 111.207 118.73 112.553 118.156 113.976C117.524 115.516 117.035 117.104 116.695 118.721C116.438 119.9 116.382 121.109 116.528 122.304C116.699 123.271 116.968 124.221 117.332 125.141C117.927 126.641 118.657 128.092 119.513 129.48C121.049 131.995 122.761 134.415 124.637 136.723C128.247 141.193 132.195 145.419 136.45 149.37C136.942 149.827 137.598 150.101 138.293 150.139C138.988 150.177 139.673 149.976 140.22 149.576C140.766 149.176 141.135 148.603 141.255 147.967C141.376 147.33 141.241 146.675 140.875 146.126V146.068C137.838 141.526 134.77 136.897 131.994 132.307C130.617 130.022 129.302 127.698 128.248 125.451C127.194 123.205 126.422 120.745 126.964 120.677C127.297 119.647 127.701 118.638 128.175 117.656C128.697 116.552 129.291 115.409 129.918 114.276C131.191 112.001 132.558 109.686 133.988 107.411C136.847 102.84 139.894 98.2306 142.91 93.7665V93.7084C143.731 92.5296 144.013 91.0965 143.695 89.7245C143.377 88.3525 142.485 87.1539 141.214 86.3924C139.944 85.6309 138.4 85.3689 136.921 85.664C135.442 85.9591 134.151 86.7872 133.33 87.966Z" fill="#FFC3BD"></path>
<path d="M139.821 83.6278C133.101 83.5116 129.542 88.7891 125.138 97.1848C130.126 105.755 139.644 109.464 139.644 109.464C139.644 109.464 153.033 83.8408 139.821 83.6278Z" fill="#E0E0E0"></path>
<path d="M143.265 145.874L147.137 147.017L139.968 152.071C139.968 152.071 134.103 149.244 135.939 146.678L137.129 146.184C139.065 145.391 141.247 145.28 143.265 145.874Z" fill="#FFC3BD"></path>
<path d="M149.308 151.452L144.956 155.509C144.815 155.636 144.647 155.735 144.464 155.799C144.28 155.863 144.083 155.891 143.887 155.881C143.691 155.871 143.499 155.823 143.324 155.741C143.148 155.659 142.993 155.543 142.869 155.402L139.978 152.071L147.147 147.017L149.381 149.854C149.587 150.08 149.693 150.37 149.68 150.666C149.666 150.962 149.533 151.242 149.308 151.452Z" fill="#FFC3BD"></path>
<path opacity="0.2" d="M161.121 74.3218C160.922 75.136 160.775 75.9606 160.683 76.7911C158.095 77.4012 154.421 74.6511 154.077 72.3173C154.033 71.2934 154.103 70.2679 154.286 69.2573L161.121 74.3218Z" fill="black"></path>
<path d="M144.966 58.6247C146.73 65.7712 147.356 70.032 152.094 73.2179C153.644 74.2698 155.467 74.9217 157.376 75.1072C159.286 75.2927 161.215 75.0052 162.966 74.274C164.717 73.5428 166.228 72.3939 167.345 70.9445C168.461 69.4952 169.144 67.797 169.324 66.023C169.929 59.3219 166.944 48.7572 158.512 46.8786C150.08 44.9999 143.203 51.4686 144.966 58.6247Z" fill="#FFC3BD"></path>
<path d="M148.535 64.8803C150.769 64.9869 153.148 57.6757 148.222 54.1509C149.005 54.5479 151.144 53.8217 150.769 52.4563C152.219 53.0179 158.564 52.7759 157.03 50.384C160.255 51.1587 167.289 49.8611 168.04 47.0044C168.791 44.1478 165.16 44.0509 164.596 44.4286C166.193 42.3563 166.161 39.3157 161.925 38.2117C157.688 37.1078 151.301 42.7921 151.301 42.7921C151.969 41.2911 149.621 40.0807 147.189 41.3686C144.757 42.6565 143.62 46.3169 143.62 46.3169C143.62 45.213 137.943 46.6946 140.635 51.3233C137.849 52.2917 136.576 53.6667 136.753 56.0586C136.931 58.4504 138.694 58.586 138.694 58.586C138.321 59.4471 138.269 60.3995 138.547 61.2911C138.825 62.1827 139.417 62.9622 140.228 63.5053C143.119 65.6647 145.645 63.1276 148.535 64.8803Z" fill="#263238"></path>
<path d="M144.111 65.4323C145.092 66.7651 146.542 67.7405 148.212 68.1921C150.362 68.7247 151.092 66.9429 150.216 65.0837C149.422 63.4084 147.356 61.1037 145.332 61.3942C143.307 61.6847 142.9 63.7667 144.111 65.4323Z" fill="#FFC3BD"></path>
<path d="M157.729 58.3342C157.834 58.9152 158.272 59.351 158.7 59.3026C159.128 59.2542 159.399 58.7313 159.295 58.1406C159.19 57.5499 158.752 57.1722 158.324 57.1722C157.896 57.1722 157.677 57.7435 157.729 58.3342Z" fill="#263238"></path>
<path d="M165.368 57.0463C165.473 57.637 165.901 58.0728 166.329 58.0147C166.756 57.9566 167.028 57.4433 166.923 56.8526C166.819 56.2619 166.391 55.8843 165.963 55.8843C165.535 55.8843 165.264 56.4653 165.368 57.0463Z" fill="#263238"></path>
<path d="M162.352 58.3633C163.464 60.0674 164.823 61.6216 166.391 62.9824C165.985 63.3364 165.502 63.606 164.975 63.773C164.448 63.94 163.888 64.0006 163.333 63.9507L162.352 58.3633Z" fill="#ED847E"></path>
<path d="M161.977 66.8364C161.218 66.916 160.449 66.8542 159.716 66.6547C158.984 66.4551 158.301 66.1219 157.709 65.6744C157.674 65.6403 157.655 65.5953 157.655 65.5485C157.655 65.5017 157.674 65.4567 157.709 65.4226C157.746 65.3926 157.794 65.3761 157.844 65.3761C157.894 65.3761 157.942 65.3926 157.98 65.4226C158.631 65.9022 159.391 66.2385 160.203 66.4062C161.014 66.574 161.856 66.5687 162.666 66.391C162.69 66.3853 162.716 66.3843 162.741 66.3881C162.766 66.3919 162.79 66.4004 162.812 66.4131C162.833 66.4258 162.852 66.4424 162.866 66.4619C162.88 66.4814 162.89 66.5034 162.895 66.5265C162.901 66.5489 162.902 66.5721 162.898 66.5949C162.894 66.6176 162.885 66.6392 162.871 66.6584C162.857 66.6775 162.839 66.6938 162.818 66.7061C162.797 66.7184 162.774 66.7265 162.749 66.7299C162.495 66.7829 162.237 66.8185 161.977 66.8364Z" fill="#263238"></path>
<path d="M157.416 54.3059C157.479 54.3214 157.536 54.3514 157.583 54.393C157.62 54.4247 157.648 54.463 157.668 54.5054C157.688 54.5479 157.698 54.5937 157.698 54.6399C157.698 54.6862 157.688 54.732 157.668 54.7745C157.648 54.8169 157.62 54.8552 157.583 54.8869C157.177 55.3085 156.667 55.6327 156.096 55.8316C155.525 56.0306 154.911 56.0985 154.306 56.0295C154.256 56.0249 154.208 56.0107 154.164 55.9879C154.12 55.965 154.081 55.934 154.051 55.8967C154.021 55.8594 153.999 55.8167 153.987 55.7712C153.975 55.7257 153.974 55.6785 153.983 55.6325C153.992 55.586 154.01 55.5417 154.038 55.5019C154.065 55.4621 154.1 55.4278 154.142 55.4008C154.184 55.3738 154.231 55.3547 154.281 55.3446C154.33 55.3345 154.382 55.3336 154.432 55.342C154.91 55.3812 155.392 55.3138 155.836 55.1453C156.281 54.9769 156.676 54.7123 156.988 54.3736C157.046 54.327 157.117 54.296 157.192 54.2841C157.267 54.2721 157.345 54.2797 157.416 54.3059Z" fill="#263238"></path>
<path d="M167.529 52.5531C167.471 52.5769 167.409 52.5892 167.346 52.5892C167.283 52.5892 167.221 52.5769 167.163 52.5531C166.718 52.347 166.229 52.234 165.731 52.2223C165.234 52.2106 164.739 52.3004 164.283 52.4853C164.194 52.5322 164.089 52.5452 163.99 52.5217C163.891 52.4983 163.805 52.4401 163.751 52.3595C163.705 52.2755 163.696 52.1785 163.725 52.0885C163.755 51.9984 163.82 51.9222 163.907 51.8753C164.471 51.6245 165.088 51.4943 165.713 51.4943C166.338 51.4943 166.955 51.6245 167.518 51.8753C167.564 51.8937 167.605 51.9208 167.639 51.9549C167.672 51.989 167.698 52.0293 167.713 52.0731C167.729 52.117 167.735 52.1634 167.73 52.2094C167.725 52.2554 167.71 52.2999 167.685 52.3401C167.662 52.4259 167.606 52.5014 167.529 52.5531Z" fill="#263238"></path>
<g opacity="0.7" filter="url('#filter1_d_20_99')">
<path d="M34.3688 23.239C33.5546 21.2139 32.2048 19.4745 30.4782 18.2253C28.4489 16.712 26.0797 15.7751 23.6014 15.5061C20.7144 15.1809 17.7958 15.6278 15.1186 16.805C12.5898 17.7844 10.3061 19.3512 8.43907 21.3877C6.8212 23.15 5.69784 25.3444 5.19206 27.7306C4.72578 29.9608 4.90753 32.2861 5.71391 34.4073C6.26101 35.9633 7.17441 37.3496 8.3695 38.4377C9.43971 39.4005 10.6442 40.1865 11.9412 40.7684C13.1859 41.3228 15.3873 42.209 18.5454 43.427C19.2839 43.7106 20.006 44.0389 20.7081 44.4103C21.1913 44.6584 21.6431 44.9683 22.0533 45.3329C22.3794 45.625 22.6748 45.9526 22.9346 46.3101C23.184 46.6561 23.5957 47.2692 24.1697 48.1311C25.3293 50.0491 26.8465 50.6156 28.7213 49.8306C29.1841 49.653 29.6088 49.3814 29.9711 49.0314C30.3333 48.6814 30.6258 48.2599 30.8318 47.7912C31.0387 47.2425 31.1342 46.6548 31.1123 46.0654C31.0903 45.476 30.9514 44.8979 30.7043 44.3678C29.743 41.5396 27.7496 39.2258 25.1612 37.9339C23.6796 37.2115 22.1644 36.5673 20.6212 36.0037C18.9919 35.3967 17.7974 34.9172 17.0436 34.5773C16.2959 34.2376 15.5972 33.7902 14.9679 33.248C14.3378 32.7096 13.8522 32.0089 13.5589 31.2146C13.262 30.4615 13.1243 29.65 13.1553 28.8359C13.1863 28.0218 13.3853 27.2244 13.7387 26.4984C14.5147 24.9006 15.8504 23.6785 17.4669 23.0872C19.5543 22.2253 21.2938 22.1424 22.6853 22.8384C24.3751 23.7798 25.8537 25.0876 27.0224 26.6745C28.5145 28.6532 30.1612 29.2602 31.9625 28.4954C32.4676 28.2976 32.9279 27.992 33.3142 27.5981C33.7005 27.2042 34.0043 26.7305 34.2064 26.2071C34.4201 25.7483 34.5446 25.2497 34.5724 24.7401C34.6003 24.2305 34.5311 23.7203 34.3688 23.239ZM32.7859 61.5999C33.9062 61.1553 34.8282 60.2897 35.3719 59.172C35.6503 58.5842 35.8009 57.9392 35.8129 57.2833C35.825 56.6274 35.6981 55.9769 35.4414 55.3784C35.2325 54.7847 34.9074 54.2432 34.4871 53.7885C34.0667 53.3339 33.5604 52.9761 33.0004 52.738C32.4386 52.4871 31.8341 52.3577 31.2232 52.3577C30.6124 52.3577 30.0079 52.4871 29.4461 52.738C28.8838 52.9596 28.3697 53.2972 27.9343 53.7307C27.499 54.1642 27.1512 54.6848 26.9117 55.2616C26.6721 55.8385 26.5456 56.4598 26.5398 57.0887C26.5339 57.7177 26.6487 58.3415 26.8775 58.9231C27.0778 59.5463 27.4073 60.1154 27.8424 60.5897C28.2774 61.064 28.8072 61.4317 29.3939 61.6666C30.492 62.0935 31.7038 62.0697 32.7859 61.5999Z" fill="#FFB6D0"></path>
</g>
<defs>
<filter id="filter0_d_20_99" x="38.7856" y="79.0687" width="63.5688" height="82.2928" filterUnits="userSpaceOnUse" color-interpolation-filters="sRGB">
<feFlood flood-opacity="0" result="BackgroundImageFix"></feFlood>
<feColorMatrix in="SourceAlpha" type="matrix" values="0 0 0 0 0 0 0 0 0 0 0 0 0 0 0 0 0 0 127 0" result="hardAlpha"></feColorMatrix>
<feOffset dy="4"></feOffset>
<feGaussianBlur stdDeviation="2"></feGaussianBlur>
<feComposite in2="hardAlpha" operator="out"></feComposite>
<feColorMatrix type="matrix" values="0 0 0 0 0 0 0 0 0 0 0 0 0 0 0 0 0 0 0.25 0"></feColorMatrix>
<feBlend mode="normal" in2="BackgroundImageFix" result="effect1_dropShadow_20_99"></feBlend>
<feBlend mode="normal" in="SourceGraphic" in2="effect1_dropShadow_20_99" result="shape"></feBlend>
</filter>
<filter id="filter1_d_20_99" x="0.939209" y="15.403" width="38.8745" height="54.5674" filterUnits="userSpaceOnUse" color-interpolation-filters="sRGB">
<feFlood flood-opacity="0" result="BackgroundImageFix"></feFlood>
<feColorMatrix in="SourceAlpha" type="matrix" values="0 0 0 0 0 0 0 0 0 0 0 0 0 0 0 0 0 0 127 0" result="hardAlpha"></feColorMatrix>
<feOffset dy="4"></feOffset>
<feGaussianBlur stdDeviation="2"></feGaussianBlur>
<feComposite in2="hardAlpha" operator="out"></feComposite>
<feColorMatrix type="matrix" values="0 0 0 0 0 0 0 0 0 0 0 0 0 0 0 0 0 0 0.25 0"></feColorMatrix>
<feBlend mode="normal" in2="BackgroundImageFix" result="effect1_dropShadow_20_99"></feBlend>
<feBlend mode="normal" in="SourceGraphic" in2="effect1_dropShadow_20_99" result="shape"></feBlend>
</filter>
</defs>
</svg>
