<svg width="398" height="319" viewBox="0 0 398 319" fill="none" xmlns="http://www.w3.org/2000/svg">
<path d="M153.628 191.033C153.001 187.221 151.033 183.75 148.07 181.231C145.107 178.713 141.339 177.307 137.429 177.263C102.46 176.803 13.4287 176.013 8.65012 179.753C2.69712 184.423 -0.461608 186.813 0.0547235 194.223C0.490062 201.023 7.99208 318.51 7.99208 318.51H174.646L153.628 191.033Z" fill="#455A64"></path>
<path d="M27.0052 318.57C27.0304 318.455 27.0473 318.338 27.0558 318.22C27.0558 317.97 27.0558 317.63 27.1368 317.22C27.2077 316.3 27.3089 314.98 27.4304 313.31C27.5519 311.64 27.6936 309.52 27.7746 307.1C27.8556 304.68 28.0176 301.92 28.0176 298.87C28.0176 297.34 28.0176 295.741 28.0682 294.081C28.1188 292.421 28.0682 290.681 28.0075 288.891C28.0075 285.301 27.7949 281.471 27.6227 277.441C27.157 269.381 26.3876 260.541 25.1424 251.311C23.8971 242.082 22.1963 233.312 20.465 225.462C19.5437 221.532 18.6933 217.792 17.7416 214.322C17.2759 212.592 16.8608 210.912 16.3951 209.322C15.9294 207.732 15.4738 206.192 15.0486 204.722C14.2184 201.782 13.3173 199.173 12.5884 196.853C11.8595 194.533 11.1609 192.573 10.5636 190.963C9.96625 189.353 9.55115 188.143 9.22718 187.263L8.86272 186.263C8.78173 186.053 8.7311 185.943 8.7311 185.943C8.7453 186.059 8.77248 186.173 8.81211 186.283L9.12596 187.283C9.41956 188.173 9.83463 189.423 10.3712 191.023C10.9078 192.623 11.5963 194.613 12.2948 196.933C12.9934 199.253 13.8742 201.872 14.674 204.812C15.0992 206.282 15.5345 207.812 15.9901 209.422C16.4457 211.032 16.8506 212.712 17.3062 214.422C18.2377 217.882 19.0678 221.632 19.979 225.552C21.69 233.432 23.3099 242.152 24.6058 251.371C25.9017 260.591 26.6306 269.371 27.1267 277.451C27.3089 281.451 27.5316 285.301 27.562 288.891C27.562 290.681 27.6531 292.411 27.6531 294.071C27.6531 295.73 27.6531 297.33 27.6531 298.85C27.6531 301.9 27.5418 304.66 27.4811 307.08C27.4203 309.5 27.3292 311.58 27.2381 313.28C27.147 314.98 27.0862 316.28 27.0457 317.21C27.0457 317.63 27.0457 317.97 27.0457 318.21C27.0205 318.328 27.0069 318.449 27.0052 318.57Z" fill="#263238"></path>
<path d="M120.704 236.402C120.704 236.402 120.623 236.402 120.451 236.302C120.196 236.262 119.937 236.262 119.682 236.302C119.197 236.356 118.729 236.51 118.308 236.755C117.888 237 117.525 237.329 117.242 237.722C116.822 238.317 116.578 239.014 116.535 239.738C116.492 240.461 116.653 241.183 116.999 241.822C117.373 242.585 117.929 243.247 118.619 243.752C119.38 244.277 120.273 244.584 121.2 244.642C122.141 244.714 123.079 244.471 123.863 243.952C124.225 243.703 124.533 243.386 124.769 243.018C125.006 242.651 125.166 242.241 125.24 241.812C125.364 241.102 125.313 240.373 125.091 239.687C124.869 239.001 124.482 238.378 123.964 237.872C122.091 236.292 120.441 236.242 120.471 236.392C120.502 236.542 120.562 236.392 120.724 236.392C120.967 236.451 121.205 236.531 121.433 236.632C122.274 236.972 123.043 237.464 123.701 238.082C124.15 238.557 124.479 239.129 124.664 239.752C124.849 240.375 124.883 241.033 124.764 241.672C124.697 242.037 124.556 242.385 124.351 242.696C124.146 243.006 123.88 243.274 123.569 243.482C122.882 243.931 122.062 244.139 121.241 244.072C120.409 244.023 119.607 243.75 118.922 243.282C118.288 242.841 117.776 242.25 117.434 241.562C117.114 240.996 116.955 240.355 116.974 239.706C116.994 239.058 117.191 238.428 117.545 237.882C118.048 237.146 118.822 236.633 119.702 236.452C120.035 236.415 120.369 236.398 120.704 236.402Z" fill="#263238"></path>
<path d="M94.5738 221.472C94.5738 221.582 96.2949 221.272 99.0487 221.522C102.641 221.836 106.087 223.08 109.037 225.129C111.988 227.178 114.34 229.959 115.855 233.192C117.039 235.662 117.323 237.352 117.434 237.332C117.422 236.929 117.357 236.529 117.242 236.142C117.006 235.079 116.667 234.041 116.229 233.042C114.764 229.693 112.385 226.811 109.359 224.719C106.332 222.627 102.777 221.406 99.0892 221.192C97.9852 221.121 96.8769 221.152 95.7786 221.282C95.3703 221.293 94.9652 221.357 94.5738 221.472Z" fill="#263238"></path>
<path d="M142.906 252.041C142.814 251.742 142.682 251.456 142.512 251.191C142.093 250.452 141.602 249.755 141.044 249.112C139.209 246.94 136.805 245.308 134.094 244.394C131.384 243.481 128.471 243.321 125.675 243.932C124.836 244.113 124.016 244.37 123.225 244.702C122.927 244.808 122.645 244.953 122.385 245.132C122.385 245.232 123.64 244.662 125.746 244.292C128.479 243.799 131.295 244.005 133.925 244.89C136.555 245.776 138.911 247.312 140.77 249.352C142.198 250.911 142.815 252.091 142.906 252.041Z" fill="#263238"></path>
<path d="M110.661 256.131C111.295 255.82 111.873 255.408 112.372 254.911C113.645 253.78 114.759 252.485 115.683 251.061C116.61 249.643 117.335 248.105 117.839 246.492C118.098 245.837 118.238 245.144 118.254 244.442C117.448 246.645 116.431 248.768 115.217 250.781C113.865 252.697 112.34 254.487 110.661 256.131Z" fill="#263238"></path>
<path d="M64.4342 237.792C64.4342 237.792 64.3532 237.742 64.1811 237.692C63.9262 237.652 63.6665 237.652 63.4117 237.692C62.9275 237.748 62.4605 237.904 62.0404 238.148C61.6203 238.393 61.2564 238.721 60.9717 239.112C60.5581 239.709 60.3162 240.405 60.2716 241.127C60.2271 241.849 60.3815 242.569 60.7186 243.212C61.0967 243.975 61.6559 244.637 62.3486 245.142C63.1102 245.667 64.0034 245.974 64.9303 246.032C65.8712 246.104 66.8093 245.861 67.5929 245.342C68.3205 244.836 68.8156 244.067 68.9698 243.202C69.1076 242.482 69.0643 241.74 68.8436 241.041C68.6229 240.341 68.2317 239.707 67.7043 239.192C65.8313 237.622 64.1811 237.562 64.2114 237.712C64.2418 237.862 64.3026 237.712 64.4645 237.762C64.7075 237.821 64.9447 237.901 65.1732 238.002C66.0137 238.342 66.7827 238.834 67.441 239.452C67.8808 239.931 68.2013 240.505 68.377 241.128C68.5528 241.752 68.5789 242.407 68.4535 243.042C68.3133 243.777 67.8837 244.428 67.2588 244.852C66.5719 245.301 65.7515 245.509 64.9303 245.442C64.0988 245.393 63.2967 245.12 62.6118 244.652C61.977 244.211 61.4651 243.62 61.1236 242.932C60.803 242.366 60.644 241.725 60.6637 241.076C60.6833 240.428 60.8807 239.798 61.2349 239.252C61.7379 238.516 62.5115 238.003 63.3914 237.822C63.738 237.79 64.0863 237.78 64.4342 237.792Z" fill="#263238"></path>
<path d="M38.3442 222.862C38.3442 222.972 40.0653 222.662 42.8191 222.912C46.4041 223.226 49.8424 224.465 52.7888 226.507C55.7352 228.548 58.086 231.319 59.605 234.542C60.7895 237.012 61.073 238.702 61.1843 238.682C61.1719 238.279 61.1073 237.879 60.992 237.492C60.7557 236.429 60.4167 235.391 59.9795 234.392C58.5154 231.046 56.1399 228.166 53.1174 226.074C50.0949 223.982 46.5439 222.759 42.8596 222.542C41.7557 222.471 40.6474 222.501 39.549 222.632C39.1389 222.656 38.7338 222.733 38.3442 222.862Z" fill="#263238"></path>
<path d="M86.6365 253.431C86.5444 253.132 86.4116 252.846 86.2416 252.581C85.8197 251.844 85.3282 251.148 84.7736 250.501C82.9352 248.334 80.5309 246.705 77.8216 245.792C75.1123 244.879 72.2015 244.716 69.4052 245.322C68.5632 245.504 67.7398 245.762 66.945 246.092C66.6468 246.195 66.3667 246.343 66.1148 246.532C66.1148 246.622 67.3702 246.052 69.476 245.682C72.2078 245.188 75.022 245.394 77.6502 246.28C80.2785 247.166 82.6333 248.702 84.4902 250.741C85.9278 252.301 86.5454 253.481 86.6365 253.431Z" fill="#263238"></path>
<path d="M54.391 257.521C55.0252 257.21 55.6032 256.798 56.102 256.301C57.3725 255.168 58.4857 253.873 59.4126 252.451C60.3399 251.033 61.0655 249.495 61.5691 247.882C61.8221 247.243 61.9625 246.567 61.9841 245.882C61.1767 248.082 60.1597 250.201 58.9469 252.211C57.5928 254.113 56.068 255.89 54.391 257.521Z" fill="#263238"></path>
<path d="M371.307 308.4C371.641 308.47 373.069 309.9 371.034 312.17C368.999 314.44 356.729 320.65 354.471 316.94C352.213 313.23 357.66 310.65 357.66 310.65L371.307 308.4Z" fill="#FFBE9D"></path>
<path d="M357.832 304.4C357.832 304.4 345.177 303.02 340.014 303.67C334.415 304.38 328.472 301.59 324.949 297.77C322.743 295.237 321.215 292.198 320.504 288.931L312.405 283.371C312.405 283.371 311.534 264.461 324.301 267.511L339.214 268.031C339.214 268.031 368.574 272.831 373.109 276.441C373.109 276.441 378.637 281.751 380.247 283.801C380.854 284.581 381.371 292.371 375.762 295.031C375.762 295.031 379.073 299.2 376.157 301.56L374.79 302.56C374.79 302.56 376.683 306.73 374.901 307.92C373.12 309.11 359.037 313.33 355.038 310.58C351.039 307.83 355.676 304.66 357.792 304.38" fill="#FFBE9D"></path>
<path d="M373.606 294.291C373.052 294.315 372.501 294.375 371.955 294.471C370.892 294.601 369.353 294.791 367.44 294.93C366.488 294.99 365.415 295.051 364.322 295.071C363.228 295.091 362.003 295.071 360.718 295.161C359.336 295.199 357.993 295.618 356.84 296.37C356.207 296.789 355.698 297.366 355.365 298.042C355.033 298.719 354.888 299.47 354.947 300.22C355.068 301 355.471 301.711 356.081 302.22C356.644 302.689 357.294 303.046 357.994 303.27C359.28 303.665 360.609 303.91 361.953 304C364.209 304.169 366.477 304.126 368.726 303.87C370.639 303.67 372.168 303.42 373.221 303.24C373.777 303.177 374.326 303.063 374.861 302.9C374.305 302.908 373.75 302.954 373.201 303.04C372.127 303.16 370.589 303.35 368.685 303.5C366.462 303.692 364.226 303.692 362.003 303.5C360.701 303.401 359.413 303.156 358.166 302.77C357.532 302.562 356.941 302.24 356.425 301.82C355.919 301.392 355.582 300.8 355.473 300.15C355.427 299.493 355.558 298.836 355.851 298.244C356.144 297.653 356.59 297.148 357.144 296.78C358.222 296.083 359.47 295.686 360.758 295.63C361.993 295.52 363.208 295.56 364.332 295.5C365.456 295.44 366.519 295.391 367.48 295.291C369.394 295.111 370.923 294.871 371.986 294.671C372.537 294.599 373.08 294.472 373.606 294.291Z" fill="#EB996E"></path>
<path d="M374.638 285.261C374.084 285.278 373.532 285.338 372.988 285.441C371.975 285.581 370.396 285.781 368.503 285.941C366.61 286.101 364.342 286.231 361.821 286.231C360.46 286.123 359.092 286.325 357.822 286.821C357.136 287.16 356.597 287.731 356.303 288.431C356.021 289.143 355.947 289.919 356.091 290.671C356.254 291.392 356.565 292.072 357.006 292.669C357.446 293.266 358.007 293.767 358.652 294.14C359.82 294.84 361.138 295.261 362.499 295.37C364.748 295.463 367.001 295.36 369.232 295.06L373.727 294.61C374.283 294.578 374.835 294.498 375.377 294.37C374.825 294.329 374.269 294.329 373.717 294.37L369.201 294.66C366.993 294.897 364.769 294.961 362.55 294.85C361.265 294.735 360.024 294.328 358.925 293.66C358.345 293.324 357.84 292.874 357.443 292.337C357.046 291.801 356.765 291.189 356.617 290.541C356.463 289.908 356.52 289.244 356.781 288.647C357.043 288.05 357.493 287.553 358.065 287.231C359.258 286.766 360.542 286.575 361.821 286.671C364.362 286.671 366.63 286.481 368.533 286.271C370.437 286.061 371.965 285.801 373.018 285.601C373.567 285.535 374.109 285.421 374.638 285.261Z" fill="#EB996E"></path>
<path d="M368.108 286.361C368.55 285.622 368.933 284.849 369.252 284.051C369.725 283.332 370.132 282.572 370.467 281.781C370.366 281.681 369.455 282.501 368.786 283.781C368.29 284.548 368.053 285.452 368.108 286.361Z" fill="#EB996E"></path>
<path d="M329.393 268.271L341.36 266.701C341.36 266.701 375.175 259.891 375.509 260.771C375.843 261.651 377.534 261.961 376.258 265.541C374.982 269.121 355.493 272.291 354.623 273.431C353.752 274.571 353.124 281.201 345.511 284.251C337.898 287.301 333.099 286.251 333.099 286.251" fill="#FFBE9D"></path>
<path d="M333.058 286.271L333.311 286.341L334.091 286.451C335.102 286.534 336.118 286.534 337.128 286.451C338.712 286.317 340.281 286.043 341.816 285.631C343.863 285.118 345.838 284.359 347.698 283.371C349.943 282.088 351.772 280.202 352.972 277.931C353.602 276.673 354.144 275.373 354.592 274.041C354.656 273.889 354.731 273.742 354.815 273.601C354.917 273.505 355.038 273.431 355.169 273.381C355.501 273.247 355.838 273.13 356.182 273.031C356.891 272.811 357.619 272.621 358.369 272.431C361.345 271.661 364.494 270.921 367.713 269.991C369.323 269.521 370.953 268.991 372.573 268.361C373.397 268.039 374.192 267.651 374.952 267.201C375.35 266.963 375.717 266.677 376.045 266.351C376.215 266.17 376.355 265.964 376.461 265.741C376.572 265.511 376.602 265.301 376.683 265.091C377.001 264.215 377.057 263.268 376.845 262.361C376.692 261.92 376.443 261.518 376.116 261.181C375.986 261.042 375.873 260.888 375.782 260.721C375.782 260.721 375.782 260.721 375.701 260.591C375.652 260.531 375.585 260.489 375.509 260.471C375.435 260.464 375.36 260.464 375.286 260.471H374.932C373.17 260.581 371.5 260.871 369.87 261.131C366.559 261.671 363.38 262.251 360.353 262.821C354.278 263.951 348.872 265.031 344.306 265.961C343.172 266.181 342.079 266.441 341.056 266.611L338.12 267.011L333.433 267.671L330.466 268.111L329.697 268.241L329.434 268.301C329.524 268.317 329.617 268.317 329.707 268.301L330.477 268.231L333.463 267.881L338.171 267.311L341.117 266.941C342.13 266.781 343.233 266.541 344.377 266.331L360.444 263.331C363.481 262.781 366.65 262.201 369.951 261.671C371.601 261.421 373.302 261.131 375.013 261.021H375.316H375.418C375.418 261.021 375.418 260.941 375.468 260.901C375.073 261.041 375.367 260.901 375.276 260.991C375.378 261.21 375.519 261.41 375.691 261.581C375.97 261.866 376.184 262.207 376.319 262.581C376.492 263.388 376.432 264.226 376.147 265.001C376.07 265.394 375.888 265.76 375.62 266.061C375.315 266.353 374.975 266.609 374.608 266.821C373.872 267.252 373.104 267.626 372.31 267.941C370.72 268.581 369.11 269.091 367.501 269.561C364.301 270.501 361.163 271.241 358.186 272.021C357.437 272.221 356.698 272.421 355.979 272.641C355.613 272.744 355.255 272.871 354.906 273.021C354.693 273.097 354.504 273.228 354.359 273.401C354.247 273.566 354.155 273.744 354.086 273.931C353.647 275.252 353.116 276.542 352.497 277.791C351.356 280.003 349.6 281.849 347.435 283.111C345.612 284.104 343.674 284.876 341.664 285.411C340.151 285.842 338.603 286.14 337.037 286.301C336.049 286.405 335.054 286.439 334.061 286.401C333.716 286.401 333.453 286.401 333.281 286.401L333.058 286.271Z" fill="#EB996E"></path>
<path d="M361.517 303.81C361.102 303.764 360.681 303.784 360.272 303.87C359.145 304.032 358.047 304.352 357.012 304.82C356.294 305.146 355.615 305.548 354.987 306.02C354.594 306.289 354.259 306.633 354.002 307.031C353.745 307.43 353.57 307.875 353.489 308.34C353.465 308.874 353.592 309.405 353.857 309.871C354.122 310.338 354.513 310.722 354.987 310.98C355.97 311.512 357.091 311.742 358.207 311.64C361.931 311.442 365.629 310.903 369.252 310.03C370.639 309.68 371.743 309.32 372.492 309.03C372.89 308.908 373.274 308.744 373.636 308.54C373.225 308.594 372.821 308.691 372.431 308.83C371.662 309.05 370.558 309.35 369.171 309.65C365.553 310.413 361.88 310.898 358.186 311.1C357.176 311.197 356.158 310.999 355.261 310.53C354.863 310.322 354.533 310.009 354.305 309.626C354.078 309.242 353.964 308.804 353.975 308.36C354.122 307.553 354.583 306.835 355.261 306.36C355.857 305.89 356.506 305.487 357.194 305.16C358.571 304.529 360.024 304.075 361.517 303.81Z" fill="#EB996E"></path>
<path d="M273.488 235.542C273.488 235.542 258.494 211.162 255.123 195.073C251.751 178.983 234.338 153.454 228.678 146.794C223.019 140.134 200.584 132.374 200.584 132.374L192.302 127.954L128.125 122.384C128.125 122.384 85.4317 126.824 72.5032 138.474C59.5746 150.124 49.4809 176.763 49.4809 190.073C49.4809 203.382 36.4308 318.71 36.4308 318.71L194.58 318.51L191.037 261.651C191.037 261.651 210.141 248.891 215.193 237.792C220.245 226.692 217.441 232.242 217.441 232.242C217.441 232.242 235.37 269.891 241.546 274.331C247.722 278.771 319.553 300.54 319.553 300.54L329.383 263.311L273.488 235.542Z" fill="#FFEE33"></path>
<path d="M86.7681 143.124C88.4994 143.654 109.922 198.303 111.431 203.272C112.939 208.242 111.431 239.562 111.431 239.562L104.344 252.491C104.344 252.491 106.368 261.931 104.85 266.411L136.559 272.411C136.559 272.411 144.607 266.941 152.16 272.411L189.619 275.541C189.619 275.541 178.635 275.661 181.905 292.301C185.104 308.6 187.544 312.18 187.544 312.18L56.0818 309.18C56.0818 309.18 41.4727 308.46 43.7 280.721C45.9273 252.981 52.1941 176.463 52.1941 176.463C52.1941 176.463 61.7716 135.464 86.7681 143.124Z" fill="#FFEE33"></path>
<path d="M111.724 235.192C111.857 234.983 111.963 234.757 112.038 234.522L112.838 232.522C113.182 231.672 113.597 230.622 114.002 229.372C114.407 228.122 114.944 226.732 115.369 225.142C115.794 223.552 116.381 221.822 116.776 219.932C117.171 218.042 117.647 216.022 118.052 213.932C118.873 209.273 119.39 204.567 119.601 199.843C119.755 195.115 119.61 190.382 119.165 185.673C118.902 183.513 118.69 181.453 118.335 179.543C118.173 178.543 118.042 177.663 117.859 176.773C117.677 175.883 117.495 175.053 117.323 174.243C116.999 172.633 116.584 171.243 116.25 169.923C115.916 168.603 115.602 167.583 115.308 166.703C115.014 165.823 114.812 165.203 114.65 164.703C114.574 164.466 114.487 164.232 114.387 164.003C114.41 164.252 114.464 164.498 114.549 164.733C114.69 165.243 114.883 165.923 115.116 166.733C115.349 167.543 115.683 168.733 115.966 169.973C116.25 171.213 116.665 172.673 116.979 174.293C117.141 175.103 117.303 175.943 117.475 176.823C117.647 177.703 117.768 178.623 117.92 179.573C118.254 181.483 118.457 183.573 118.7 185.693C119.596 195.073 119.225 204.529 117.596 213.812C117.201 215.952 116.837 217.982 116.371 219.812C115.905 221.642 115.47 223.432 115.035 225.022C114.599 226.612 114.124 228.022 113.739 229.262C113.354 230.502 112.979 231.572 112.666 232.432L111.957 234.432C111.862 234.68 111.785 234.934 111.724 235.192Z" fill="#263238"></path>
<path d="M65.9832 294.46C65.9832 294.46 66.1148 294.34 66.3274 294.08L67.1981 292.93C67.5727 292.42 68.0384 291.811 68.6054 291.131C69.1723 290.451 69.7899 289.641 70.5492 288.811C71.3085 287.981 72.1083 287.051 73.0398 286.121C73.9712 285.191 74.9836 284.201 76.077 283.191C78.4677 281.032 80.9972 279.027 83.6498 277.191C86.3225 275.39 89.109 273.76 91.9921 272.311C93.3386 271.671 94.6041 271.041 95.8393 270.551C97.0744 270.061 98.2084 269.551 99.2613 269.201C100.314 268.851 101.286 268.511 102.147 268.201C103.007 267.891 103.736 267.701 104.344 267.541L105.741 267.131C105.911 267.094 106.074 267.034 106.227 266.951C106.055 266.959 105.886 266.985 105.72 267.031L104.293 267.341C103.675 267.481 102.926 267.661 102.056 267.921C101.185 268.181 100.203 268.441 99.1398 268.841C98.0767 269.241 96.8922 269.611 95.6672 270.131C94.4422 270.651 93.1362 271.231 91.7796 271.861C88.8568 273.292 86.0388 274.922 83.3461 276.741C80.6795 278.589 78.1426 280.614 75.753 282.801C74.6697 283.801 73.6371 284.801 72.7158 285.801C71.7945 286.801 70.9845 287.691 70.2556 288.551C69.5267 289.411 68.9192 290.231 68.3624 290.931C67.8056 291.631 67.35 292.271 67.026 292.79C66.702 293.31 66.4388 293.67 66.2262 294C66.1259 294.143 66.0442 294.298 65.9832 294.46Z" fill="#263238"></path>
<path d="M54.9175 287.191C54.9985 287.261 56.1628 285.951 58.3496 284.191C59.6305 283.164 60.9838 282.228 62.3992 281.391C64.146 280.381 65.9707 279.508 67.8562 278.781C69.7534 278.089 71.7034 277.547 73.6876 277.161C75.3121 276.857 76.9564 276.666 78.608 276.591C81.4326 276.481 83.1841 276.691 83.1942 276.591C82.7949 276.478 82.384 276.411 81.9692 276.391C81.4896 276.32 81.0062 276.277 80.5214 276.261C79.9545 276.261 79.3167 276.191 78.5979 276.261C76.9209 276.289 75.2487 276.446 73.5965 276.731C71.5784 277.095 69.5966 277.634 67.6739 278.341C65.7545 279.071 63.9046 279.967 62.1461 281.021C60.7209 281.888 59.3669 282.864 58.0965 283.941C57.5396 284.391 57.084 284.851 56.6892 285.241C56.3308 285.553 55.9927 285.887 55.6768 286.241C55.3897 286.529 55.1351 286.848 54.9175 287.191Z" fill="#263238"></path>
<path d="M67.0766 268.901C67.1374 268.991 68.6864 267.771 71.5212 266.391C72.2913 266.014 73.0822 265.681 73.8902 265.391C74.7406 265.031 75.6923 264.761 76.6845 264.451C81.0469 263.212 85.6263 262.901 90.1192 263.541C91.1316 263.711 92.144 263.851 93.0147 264.091C93.857 264.28 94.6885 264.514 95.5053 264.791C98.5425 265.791 100.203 266.791 100.253 266.671C99.8849 266.394 99.4879 266.156 99.0689 265.961C98.6034 265.689 98.1198 265.448 97.6212 265.241C96.9609 264.94 96.285 264.673 95.5964 264.441C94.7791 264.138 93.9441 263.884 93.0957 263.681C92.1289 263.423 91.1488 263.216 90.1597 263.061C85.6007 262.36 80.9407 262.678 76.5225 263.991C75.5613 264.268 74.618 264.602 73.6978 264.991C72.8825 265.305 72.0879 265.669 71.3187 266.081C70.6786 266.404 70.0567 266.761 69.4558 267.151C68.9881 267.418 68.5414 267.718 68.1194 268.051C67.7398 268.294 67.3899 268.579 67.0766 268.901Z" fill="#263238"></path>
<path d="M143.959 309.88C143.536 308.047 143.225 306.19 143.028 304.32C142.869 302.286 142.886 300.242 143.079 298.21C143.326 295.724 143.766 293.26 144.395 290.841C145.064 288.451 145.906 286.111 146.916 283.841C147.784 281.984 148.799 280.199 149.953 278.501C151.061 276.967 152.254 275.495 153.527 274.091C153.112 274.393 152.723 274.728 152.362 275.091C151.92 275.502 151.507 275.943 151.127 276.411L150.398 277.261C150.145 277.581 149.912 277.921 149.649 278.261C148.444 279.948 147.393 281.739 146.511 283.611C144.36 288.208 143.044 293.143 142.623 298.19C142.452 300.248 142.473 302.316 142.684 304.37C142.734 304.81 142.785 305.22 142.826 305.62L143.048 306.72C143.144 307.31 143.286 307.892 143.473 308.46C143.597 308.945 143.76 309.42 143.959 309.88Z" fill="#263238"></path>
<path d="M166 272.351C166.034 272.258 166.055 272.16 166.06 272.061C166.06 271.841 166.141 271.561 166.202 271.211C166.314 270.421 166.476 269.321 166.678 267.921C167.093 265.061 167.63 260.921 168.257 255.781C169.503 245.532 170.991 231.332 172.155 215.612C173.319 199.893 173.927 185.613 174.18 175.303C174.322 170.143 174.393 165.963 174.413 163.073C174.413 161.663 174.413 160.543 174.413 159.753V158.883C174.45 158.876 174.483 158.855 174.505 158.825C174.527 158.795 174.537 158.758 174.534 158.721C174.53 158.684 174.512 158.65 174.484 158.625C174.456 158.6 174.42 158.586 174.383 158.586C174.345 158.586 174.309 158.6 174.281 158.625C174.253 158.65 174.235 158.684 174.231 158.721C174.228 158.758 174.238 158.795 174.26 158.825C174.282 158.855 174.315 158.876 174.352 158.883C174.352 159.113 174.352 159.393 174.352 159.753C174.352 160.543 174.291 161.653 174.241 163.073C174.15 165.993 174.018 170.163 173.856 175.293C173.481 185.613 172.844 199.863 171.659 215.582C170.475 231.302 169.067 245.482 167.913 255.741C167.326 260.841 166.84 264.981 166.506 267.891C166.344 269.301 166.222 270.401 166.131 271.201C166.131 271.551 166.06 271.831 166.04 272.061C166.018 272.156 166.004 272.253 166 272.351Z" fill="#263238"></path>
<path d="M217.643 232.962C217.91 232.469 218.14 231.958 218.331 231.432C218.736 230.432 219.344 229.002 220.103 227.232C221.622 223.702 223.89 218.892 226.603 213.672C229.316 208.452 231.766 203.822 233.599 200.342C234.479 198.623 235.188 197.233 235.623 196.263C235.889 195.767 236.116 195.252 236.302 194.723C235.972 195.176 235.684 195.658 235.441 196.163L233.244 200.162C231.402 203.542 228.81 208.162 226.097 213.432C223.383 218.702 221.166 223.502 219.729 227.082C219.01 228.872 218.453 230.332 218.109 231.352C217.911 231.876 217.755 232.414 217.643 232.962Z" fill="#263238"></path>
<path d="M225.722 214.482C226.036 214.472 226.347 214.415 226.643 214.312C227.22 214.172 228.051 213.932 229.073 213.602C234.382 211.863 239.419 209.4 244.037 206.282C244.917 205.682 245.616 205.172 246.062 204.802C246.317 204.629 246.548 204.424 246.75 204.192C245.737 204.735 244.754 205.329 243.804 205.972C242.002 207.092 239.471 208.562 236.555 209.972C233.639 211.382 230.926 212.492 228.931 213.232C227.841 213.595 226.77 214.013 225.722 214.482Z" fill="#263238"></path>
<path d="M239.299 248.631C239.687 248.458 240.054 248.24 240.392 247.982C241.06 247.532 242.052 246.892 243.298 246.152C249.787 242.238 256.971 239.58 264.467 238.322C265.905 238.072 267.069 237.912 267.879 237.812C268.304 237.789 268.725 237.719 269.134 237.602C268.711 237.554 268.283 237.554 267.859 237.602C267.049 237.602 265.834 237.742 264.406 237.942C260.603 238.475 256.869 239.414 253.27 240.742C249.688 242.071 246.26 243.774 243.044 245.822C241.819 246.622 240.858 247.302 240.22 247.822C239.889 248.064 239.581 248.335 239.299 248.631Z" fill="#263238"></path>
<path d="M129.836 122.474C129.843 122.745 129.863 123.015 129.897 123.284C129.968 123.864 130.059 124.634 130.17 125.604C130.434 127.604 130.798 130.524 131.416 134.104C132.111 138.302 133.058 142.456 134.25 146.544C135.706 151.564 137.841 156.367 140.598 160.823C142.134 163.213 143.9 165.45 145.873 167.503L146.075 167.723L146.268 167.473C148.798 164.139 152.09 161.443 155.876 159.603C157.492 158.815 159.189 158.198 160.938 157.763C162.448 157.403 163.991 157.198 165.544 157.153C167.768 157.075 169.989 157.383 172.105 158.063C173.573 158.573 174.352 158.953 174.372 158.903C174.196 158.791 174.009 158.694 173.816 158.613C173.282 158.338 172.731 158.097 172.165 157.893C170.04 157.137 167.792 156.775 165.534 156.823C163.953 156.845 162.378 157.033 160.836 157.383C159.055 157.807 157.324 158.417 155.673 159.203C151.8 161.058 148.433 163.801 145.853 167.203H146.247C144.307 165.17 142.565 162.96 141.044 160.603C138.308 156.186 136.173 151.432 134.696 146.464C133.492 142.399 132.512 138.273 131.76 134.104C131.092 130.544 130.677 127.634 130.353 125.634C130.201 124.634 130.069 123.904 129.978 123.334C129.967 123.043 129.919 122.754 129.836 122.474Z" fill="#263238"></path>
<path d="M128.976 123.104L138.725 110.334L149.325 110.664L183.768 128.634L128.976 123.104Z" fill="#FFEE33"></path>
<path d="M174.393 158.903C174.578 158.925 174.765 158.925 174.949 158.903C175.484 158.851 176.015 158.764 176.539 158.643C178.458 158.151 180.291 157.375 181.976 156.343C183.113 155.638 184.362 155.128 185.671 154.833C187.179 154.513 188.739 154.513 190.247 154.833C191.972 155.22 193.572 156.022 194.906 157.168C196.24 158.315 197.265 159.77 197.891 161.403L198.438 162.863V161.303C198.438 160.913 198.438 160.503 198.438 160.083C198.316 152.204 198.306 145.084 197.982 139.894C197.83 137.314 197.628 135.224 197.405 133.794C197.314 133.074 197.202 132.524 197.121 132.154C197.09 131.964 197.043 131.776 196.98 131.594C196.929 131.594 197.071 132.384 197.202 133.824C197.334 135.264 197.506 137.334 197.607 139.914C197.84 145.074 197.779 152.203 197.911 160.093C197.911 160.513 197.911 160.933 197.911 161.323L198.417 161.223C197.76 159.511 196.681 157.988 195.278 156.791C193.874 155.595 192.19 154.764 190.379 154.373C188.913 154.083 187.404 154.081 185.938 154.367C184.471 154.654 183.077 155.223 181.834 156.043C180.186 157.086 178.401 157.9 176.529 158.463C175.162 158.803 174.383 158.853 174.393 158.903Z" fill="#263238"></path>
<path d="M138.725 48.4957V125.194C138.72 129.584 140.287 133.835 143.149 137.194C147.537 142.326 152.817 146.644 158.741 149.944L174.393 158.653L187.352 147.194C189.235 145.528 190.76 143.506 191.837 141.247C192.913 138.988 193.519 136.539 193.618 134.044C193.841 128.464 193.841 122.834 193.841 122.834C193.841 122.834 215.78 121.274 217.845 99.9046C218.858 89.8448 219.121 69.2353 219.172 50.2357C219.195 39.7861 215.234 29.711 208.077 22.0156C200.92 14.3201 191.092 9.56852 180.548 8.70655L179.931 8.65656C174.557 8.52829 169.212 9.46472 164.212 11.4106C159.211 13.3564 154.655 16.2722 150.815 19.9858C146.974 23.6995 143.925 28.1356 141.849 33.0323C139.772 37.9289 138.71 43.1869 138.725 48.4957Z" fill="#FFBE9D"></path>
<path d="M193.902 122.514C193.902 122.514 180.123 122.514 166.324 112.274C166.324 112.274 171.71 128.214 193.487 128.054L193.902 122.514Z" fill="#EB996E"></path>
<path d="M211.882 64.5854C211.823 65.382 211.451 66.1243 210.846 66.6546C210.241 67.1848 209.451 67.4613 208.643 67.4253C208.248 67.4241 207.857 67.3451 207.494 67.1929C207.131 67.0407 206.802 66.8184 206.526 66.539C206.251 66.2596 206.035 65.9287 205.891 65.5658C205.746 65.2029 205.677 64.8152 205.686 64.4254C205.744 63.6296 206.113 62.8873 206.717 62.3568C207.32 61.8263 208.109 61.5495 208.916 61.5854C209.312 61.5853 209.703 61.6634 210.068 61.815C210.432 61.9666 210.763 62.1887 211.039 62.4682C211.315 62.7477 211.532 63.079 211.677 63.4426C211.822 63.8062 211.892 64.1948 211.882 64.5854Z" fill="#263238"></path>
<path d="M213.644 58.8455C213.229 59.2055 211.032 57.3055 207.701 57.0455C204.37 56.7855 201.789 58.2255 201.465 57.7955C201.303 57.5955 201.748 56.9155 202.882 56.2355C204.413 55.3591 206.183 54.978 207.944 55.1456C209.676 55.2759 211.319 55.9525 212.632 57.0755C213.563 57.9355 213.846 58.6755 213.644 58.8455Z" fill="#263238"></path>
<path d="M180.214 63.2554C180.154 64.052 179.782 64.7943 179.178 65.3246C178.573 65.8549 177.782 66.1313 176.974 66.0953C176.579 66.0941 176.188 66.0151 175.824 65.863C175.46 65.711 175.131 65.4888 174.854 65.2096C174.578 64.9303 174.361 64.5995 174.216 64.2366C174.071 63.8736 174 63.4856 174.008 63.0954C174.068 62.2987 174.44 61.5564 175.044 61.0262C175.649 60.4959 176.44 60.2194 177.248 60.2554C177.643 60.2567 178.034 60.3357 178.398 60.4877C178.762 60.6398 179.091 60.8619 179.368 61.1412C179.644 61.4204 179.861 61.7512 180.006 62.1142C180.151 62.4772 180.222 62.8651 180.214 63.2554Z" fill="#263238"></path>
<path d="M180.872 56.7855C180.457 57.1455 178.25 55.2456 174.929 54.9856C171.608 54.7256 169.017 56.1655 168.693 55.7255C168.531 55.5356 168.976 54.8456 170.11 54.1756C171.641 53.3001 173.41 52.9158 175.172 53.0756C176.903 53.2101 178.545 53.8862 179.86 55.0056C180.791 55.8655 181.095 56.6155 180.872 56.7855Z" fill="#263238"></path>
<path d="M190.915 82.195C190.915 82.005 193.011 81.815 196.403 81.665C197.253 81.665 198.073 81.555 198.265 80.995C198.41 80.1325 198.287 79.2468 197.911 78.4551C197.273 76.3551 196.615 74.1652 195.886 71.8552C193.163 62.4654 191.259 54.7756 191.644 54.6756C192.029 54.5756 194.55 62.0954 197.273 71.4752C197.931 73.7952 198.559 75.9951 199.146 78.1051C199.599 79.1609 199.656 80.3412 199.308 81.435C199.162 81.7226 198.951 81.9732 198.691 82.1674C198.431 82.3616 198.13 82.4942 197.81 82.555C197.329 82.6431 196.839 82.6699 196.352 82.635C193.001 82.495 190.905 82.335 190.915 82.195Z" fill="#263238"></path>
<path d="M180.923 83.6249C181.469 83.6249 181.176 87.2049 184.061 89.9948C186.947 92.7848 190.814 92.7048 190.804 93.2047C190.804 93.4247 189.883 93.8247 188.253 93.7347C186.136 93.5905 184.138 92.7122 182.613 91.2548C181.141 89.8589 180.28 87.9496 180.214 85.9349C180.204 84.4349 180.68 83.5849 180.923 83.6249Z" fill="#263238"></path>
<path d="M182.816 43.9658C182.411 44.8358 179.121 44.1358 175.182 44.2858C171.244 44.4358 167.984 45.2258 167.539 44.3758C167.336 43.9758 167.954 43.1858 169.3 42.3758C171.09 41.4554 173.068 40.9492 175.085 40.8955C177.103 40.8418 179.106 41.242 180.943 42.0658C182.33 42.7958 182.988 43.5558 182.816 43.9658Z" fill="#263238"></path>
<path d="M213.219 49.1957C212.571 49.8957 210.344 48.9357 207.59 48.6757C204.836 48.4157 202.457 48.7557 201.981 47.9357C201.778 47.5357 202.204 46.8157 203.287 46.1958C204.723 45.4399 206.361 45.1429 207.974 45.3458C209.592 45.5009 211.118 46.1552 212.338 47.2157C213.249 48.0857 213.492 48.8857 213.219 49.1957Z" fill="#263238"></path>
<path d="M164.208 26.9562L164.086 27.0362C160.394 29.4352 157.782 33.1504 156.797 37.406L156.706 37.8359C155.349 43.8358 154.975 50.0857 153.557 56.1056C152.14 62.1254 152.403 66.7253 146.298 68.1053C144.699 68.4512 143.032 68.3106 141.515 67.7018C139.999 67.0931 138.705 66.0449 137.804 64.6954C137.35 63.813 137.164 62.8199 137.267 61.8354C137.338 47.0157 134.321 41.2559 135.648 25.8362C135.812 23.7729 136.473 21.7782 137.575 20.018C138.678 18.2578 140.19 16.7831 141.985 15.7164C145.448 13.6665 149.639 11.5965 153.122 13.5865C156.605 15.5764 160.745 22.6763 163.327 25.7562" fill="#263238"></path>
<path d="M145.225 58.7655C144.861 58.5855 130.707 53.2056 129.948 67.8753C129.188 82.545 144.263 80.255 144.304 79.875C144.344 79.495 145.225 58.7655 145.225 58.7655Z" fill="#FFBE9D"></path>
<path d="M140.051 74.0552C139.991 74.0052 139.788 74.2251 139.343 74.3951C138.715 74.6245 138.021 74.603 137.409 74.3351C135.87 73.6952 134.676 71.1652 134.736 68.5153C134.762 67.2565 135.073 66.0194 135.647 64.8953C135.807 64.4466 136.075 64.043 136.428 63.719C136.781 63.3951 137.208 63.1605 137.672 63.0354C137.974 62.9709 138.288 63.0139 138.561 63.1567C138.833 63.2994 139.046 63.5327 139.161 63.8154C139.343 64.2354 139.231 64.5154 139.312 64.5454C139.393 64.5754 139.636 64.3154 139.555 63.7054C139.488 63.3387 139.299 63.0045 139.019 62.7554C138.62 62.4366 138.113 62.2794 137.601 62.3154C136.987 62.4054 136.405 62.6493 135.912 63.0238C135.42 63.3984 135.032 63.8912 134.787 64.4553C134.096 65.6803 133.717 67.0532 133.683 68.4553C133.623 71.4552 135.01 74.2551 137.126 74.9751C137.519 75.1108 137.938 75.157 138.352 75.1103C138.765 75.0635 139.163 74.925 139.515 74.7051C140.011 74.4051 140.102 74.0852 140.051 74.0552Z" fill="#EB996E"></path>
<path d="M152.474 15.7964C149.315 9.64654 160.006 2.05669 167.508 0.376722C175.01 -1.30324 184.345 3.00667 191.411 5.9866C195.876 7.86656 200.27 10.3365 205.119 10.5265C208.369 10.6665 211.558 9.75654 214.707 8.93655C217.856 8.11657 221.116 7.37658 224.335 7.86657C227.555 8.35656 230.744 10.3165 231.716 13.3865C232.688 16.4564 230.602 20.3863 227.352 20.5463C231.635 18.6563 237.324 22.0563 237.598 26.6862C237.871 31.3161 232.657 35.366 228.172 34.016C230.41 32.6061 233.427 35.476 232.941 38.0159C232.455 40.5559 229.903 42.2958 227.423 43.1458C221.014 45.3158 213.887 43.8758 207.671 41.2259C201.455 38.5759 195.815 34.786 189.67 31.9861C183.525 29.1861 173.249 24.2262 166.708 25.9162C161.889 27.1662 158.164 32.4761 155.572 31.0261C154.377 30.2595 153.381 29.2269 152.664 28.0112C151.947 26.7956 151.528 25.4307 151.441 24.0262C151.318 21.2236 151.66 18.4199 152.454 15.7264" fill="#263238"></path>
<path d="M229.174 20.2863C229.053 20.2063 228.324 21.2863 226.583 22.8863C224.11 25.0749 221.136 26.6364 217.916 27.4362C213.179 28.6999 208.13 28.0863 203.844 25.7262C198.994 23.0862 195.056 18.2664 190.45 13.6665C185.843 9.06655 180.275 5.40663 174.464 4.40665C168.652 3.40667 163.145 5.04663 159.905 8.08657C158.622 9.26169 157.592 10.6803 156.877 12.2577C156.162 13.835 155.777 15.5385 155.744 17.2664C155.754 18.1975 155.894 19.1227 156.159 20.0163C156.382 20.6063 156.524 20.9063 156.574 20.8863C156.394 19.6948 156.309 18.4911 156.321 17.2864C156.588 14.0336 158.119 11.009 160.593 8.84655C163.631 6.1466 168.834 4.69664 174.221 5.71662C179.607 6.7366 184.922 10.1565 189.407 14.7164C193.892 19.2763 197.982 24.1662 203.176 26.9262C207.012 28.9202 211.394 29.6457 215.679 28.9959C219.964 28.346 223.924 26.3552 226.977 23.3162C227.623 22.656 228.203 21.9361 228.709 21.1663C229.063 20.6063 229.215 20.3163 229.174 20.2863Z" fill="#455A64"></path>
<path d="M141.499 57.8255C141.55 57.8755 142.178 57.4755 142.836 56.3555C143.711 54.7501 144.118 52.936 144.01 51.1156C144.081 46.3757 140.284 40.9758 140.294 34.426C140.168 31.3867 140.996 28.3832 142.664 25.8262C144.107 23.8095 146.18 22.3165 148.566 21.5763C150.181 21.0568 151.906 20.9671 153.567 21.3163C154.742 21.6063 155.349 21.9263 155.42 21.8163C155.491 21.7063 154.934 21.2563 153.729 20.8163C151.973 20.2204 150.077 20.1542 148.282 20.6263C145.586 21.3041 143.21 22.8836 141.56 25.0962C139.655 27.8526 138.696 31.1408 138.826 34.476C138.934 37.725 139.641 40.9274 140.912 43.9258C141.919 46.2538 142.6 48.7062 142.937 51.2156C143.403 55.5255 141.297 57.7355 141.499 57.8255Z" fill="#455A64"></path>
<path d="M132.894 66.6147L135.307 64.4057C136.185 63.6024 137.555 63.654 138.369 64.5208L147.418 74.1661C148.231 75.033 148.179 76.3869 147.301 77.1902L144.888 79.3992C144.01 80.2025 142.639 80.151 141.826 79.2841L132.777 69.6389C131.964 68.772 132.016 67.418 132.894 66.6147Z" fill="#263238"></path>
<path d="M49.4201 193.363C49.4201 193.363 49.4201 193.563 49.3594 193.953C49.2987 194.343 49.2885 194.953 49.2278 195.673C49.1164 197.203 48.9646 199.452 48.752 202.372C48.347 208.252 47.7395 216.842 47.0207 227.732C46.3019 238.622 45.4312 251.811 44.4188 266.881C44.1758 270.648 43.9193 274.531 43.6494 278.531C43.4975 280.531 43.4165 282.531 43.3254 284.631C43.2698 285.667 43.2698 286.705 43.3254 287.741C43.3272 288.793 43.3847 289.844 43.4975 290.891L43.8923 294.07C44.1252 295.12 44.358 296.18 44.5808 297.24C44.8035 298.3 45.249 299.32 45.5932 300.37C45.9374 301.42 46.4436 302.42 46.9903 303.37C49.1164 307.26 52.427 310.9 57.0234 312.37H57.0841H156.129H187.514H187.858L187.767 312.04C186.805 308.66 185.853 305.32 184.912 301.99C184.432 300.33 183.963 298.664 183.504 296.99C182.991 295.378 182.599 293.73 182.33 292.061C181.844 288.765 182.142 285.403 183.201 282.241C183.693 280.69 184.499 279.255 185.57 278.021C186.603 276.798 188.035 275.967 189.619 275.671L191.695 275.351L189.67 275.181L152.261 272.081H152.373C150.033 270.378 147.177 269.514 144.273 269.631C141.501 269.777 138.813 270.624 136.468 272.091H136.64L104.921 266.191L105.062 266.431C105.422 265.233 105.606 263.991 105.609 262.741C105.647 261.55 105.613 260.358 105.508 259.171C105.329 256.901 105.007 254.643 104.546 252.411V252.531C107.087 247.841 109.416 243.532 111.572 239.592V239.532C112.068 228.002 112.251 218.912 112.16 212.712C112.16 209.612 112.008 207.232 111.846 205.632C111.8 205.026 111.709 204.425 111.572 203.832C111.481 203.432 111.431 203.232 111.431 203.232C111.431 203.232 111.431 203.442 111.532 203.842C111.651 204.436 111.729 205.038 111.765 205.642C111.906 207.242 111.998 209.642 112.008 212.712C112.008 218.912 111.825 228.002 111.289 239.522V239.462C109.132 243.412 106.784 247.691 104.202 252.371V252.431C104.66 254.663 104.981 256.921 105.164 259.191C105.265 260.368 105.296 261.55 105.255 262.731C105.247 263.943 105.067 265.149 104.718 266.311L104.658 266.511H104.86L136.569 272.511H136.65L136.731 272.461C139.008 271.044 141.616 270.231 144.304 270.101C147.09 269.994 149.83 270.83 152.069 272.471H152.13H152.19L189.589 275.611V275.121C187.88 275.423 186.332 276.308 185.215 277.621C184.101 278.909 183.261 280.405 182.745 282.021C181.657 285.256 181.348 288.697 181.844 292.071C182.112 293.764 182.508 295.435 183.029 297.07C183.494 298.724 183.963 300.39 184.436 302.07C185.381 305.404 186.329 308.737 187.281 312.07L187.534 311.74H156.149L57.1044 311.81C54.9495 311.083 52.9876 309.887 51.364 308.31C49.7584 306.765 48.4089 304.98 47.3649 303.02C46.8283 302.02 46.4436 301.02 45.988 300.02C45.5324 299.02 45.2996 297.96 44.9756 296.93C44.6516 295.9 44.52 294.84 44.2872 293.8C44.0543 292.761 44.0239 291.691 43.8923 290.651C43.7764 289.614 43.7156 288.573 43.7101 287.531C43.6545 286.501 43.6545 285.47 43.7101 284.441C43.8012 282.391 43.8721 280.371 44.0239 278.371C44.2737 274.371 44.5234 270.484 44.7731 266.711C45.7855 251.641 46.5854 238.442 47.284 227.542C47.9825 216.642 48.5089 208.062 48.8835 202.182C49.0556 199.262 49.1974 197.003 49.2885 195.473C49.2885 194.723 49.3594 194.153 49.3797 193.753C49.3999 193.353 49.4201 193.363 49.4201 193.363Z" fill="#263238"></path>
<path d="M78.0917 138.874C78.6714 139.276 79.273 139.647 79.8938 139.984C81.5312 140.983 83.0974 142.093 84.5813 143.304C89.4397 147.354 93.5502 152.206 96.7303 157.643C99.8815 163.089 102.59 168.774 104.83 174.643L106.935 179.963L107.523 181.413C107.579 181.585 107.657 181.75 107.755 181.903C107.736 181.721 107.692 181.543 107.624 181.373C107.492 180.983 107.32 180.493 107.128 179.893C106.682 178.613 106.034 176.773 105.174 174.503C103.027 168.566 100.354 162.827 97.1859 157.353C93.9869 151.865 89.8013 146.999 84.8344 142.994C83.3182 141.8 81.7065 140.73 80.0153 139.794C79.4281 139.444 78.9321 139.234 78.6182 139.074C78.4509 138.988 78.2743 138.921 78.0917 138.874Z" fill="#263238"></path>
<g opacity="0.3">
<path d="M117.718 177.063C121.927 186.465 123.868 196.703 123.387 206.972C123.002 217.132 121.767 227.322 122.78 237.452C123.792 247.582 127.346 257.911 134.989 264.721C135.977 265.464 136.815 266.383 137.46 267.431C137.77 267.962 137.891 268.58 137.805 269.187C137.719 269.794 137.43 270.355 136.984 270.781C136.504 271.046 135.975 271.212 135.429 271.269C134.882 271.326 134.33 271.272 133.805 271.111C126.485 269.851 119.074 268.951 111.744 267.701C110.175 267.431 104.9 266.411 104.9 266.411C105.265 264.433 105.414 262.421 105.346 260.411C105.113 258.601 104.394 252.411 104.394 252.411C104.741 251.491 105.214 250.623 105.802 249.832C108.545 245.007 110.59 239.827 111.876 234.442C114.377 229.392 115.5 224.312 116.665 219.592C119.874 206.482 119.783 193.593 117.738 176.983" fill="black"></path>
</g>
<g opacity="0.3">
<path d="M197.972 162.133C197.374 163.633 196.767 165.133 196.17 166.643C196.109 166.88 196 167.101 195.851 167.296C195.701 167.49 195.513 167.652 195.299 167.773C194.398 168.113 193.679 167.023 193.274 166.163C192.408 164.478 191.136 163.029 189.57 161.943C188.004 160.857 186.193 160.167 184.294 159.933C181.257 159.583 178.058 160.463 175.03 159.843C177.651 158.164 180.456 156.785 183.393 155.733C186.355 154.674 189.593 154.643 192.576 155.643C194.047 156.166 195.343 157.081 196.32 158.287C197.298 159.492 197.918 160.941 198.114 162.473" fill="black"></path>
</g>
<g opacity="0.3">
<path d="M172.945 158.343C169.345 158.289 165.75 158.625 162.223 159.343C158.671 160.054 155.448 161.886 153.041 164.563C150.591 167.513 149.68 171.383 148.687 175.063C148.495 175.773 148.151 176.613 147.422 176.693C146.972 176.692 146.538 176.524 146.207 176.223C140.132 171.823 136.144 165.093 133.957 157.993C131.77 150.894 131.264 143.414 131.142 135.994C134.038 141.104 135.293 146.924 137.217 152.463C139.14 158.003 141.945 163.583 146.906 166.783C146.85 166.153 146.922 165.518 147.116 164.916C147.311 164.313 147.625 163.755 148.039 163.273C148.868 162.311 149.866 161.505 150.986 160.893C154.344 158.917 158.083 157.654 161.963 157.184C165.843 156.714 169.779 157.048 173.522 158.163" fill="black"></path>
</g>
<path d="M188.678 276.131H201.08C201.08 276.131 229.053 266.131 234.803 267.131C239.987 267.991 258.95 280.431 262.665 282.901C263.08 283.173 263.395 283.569 263.566 284.031C263.933 285.005 263.902 286.083 263.479 287.035C263.055 287.987 262.273 288.738 261.298 289.131L260.914 289.291L261.076 289.851C261.302 290.575 261.402 291.333 261.369 292.091C261.319 292.658 261.088 293.195 260.71 293.624C260.332 294.054 259.826 294.355 259.264 294.484C258.702 294.612 258.114 294.562 257.583 294.341C257.052 294.119 256.605 293.738 256.307 293.251L257.016 294.511C257.311 295.02 257.448 295.604 257.411 296.19L257.35 297.32C257.316 297.941 257.092 298.536 256.709 299.029C256.326 299.521 255.801 299.888 255.204 300.08C254.634 300.255 254.026 300.263 253.451 300.106C252.877 299.948 252.361 299.63 251.964 299.19C249.554 296.58 244.361 291.351 240.827 290.771C237.019 290.316 233.182 290.126 229.347 290.201C228.565 290.204 227.802 290.439 227.158 290.876C226.513 291.313 226.016 291.931 225.732 292.651C227.818 292.801 242.356 300.29 247.499 302.97C248.296 303.361 248.984 303.938 249.504 304.651C250.025 305.363 250.362 306.19 250.486 307.06C250.678 308.65 249.868 310.31 246.679 309.58C239.845 308 227.544 302.42 227.544 302.42C227.544 302.42 221.207 300.63 217.096 303.49C211.315 307.49 208.663 309 203.702 307.37C200.683 306.364 197.789 305.022 195.076 303.37L185.296 302.37C185.296 302.37 176.033 279.631 188.678 276.131Z" fill="#FFBE9D"></path>
<path d="M225.641 280.791C225.641 280.901 227.666 280.281 230.896 280.071C235.157 279.788 239.427 280.504 243.355 282.16C247.284 283.816 250.761 286.365 253.503 289.601C254.611 290.964 255.648 292.383 256.611 293.851C256.456 293.402 256.249 292.972 255.993 292.571C255.352 291.445 254.617 290.375 253.796 289.371C251.084 286.01 247.568 283.368 243.565 281.682C239.563 279.996 235.198 279.318 230.865 279.711C229.564 279.821 228.274 280.035 227.008 280.351C226.537 280.448 226.079 280.595 225.641 280.791Z" fill="#EB996E"></path>
<path d="M228.577 274.081C231.619 273.14 234.837 272.887 237.991 273.341C241.145 273.794 244.156 274.943 246.801 276.701C250.576 279.1 254.014 281.982 257.026 285.271L259.84 288.191C260.163 288.559 260.522 288.894 260.914 289.191C260.638 288.774 260.33 288.38 259.992 288.011C259.375 287.271 258.464 286.221 257.299 284.951C254.327 281.554 250.873 278.6 247.044 276.181C243.149 273.78 238.623 272.569 234.034 272.701C232.657 272.77 231.295 273.019 229.984 273.441C229.639 273.551 229.301 273.681 228.972 273.831L228.577 274.081Z" fill="#EB996E"></path>
<path d="M363.593 319L397.185 235.712C397.867 234.059 398.127 232.265 397.942 230.489C397.758 228.713 397.134 227.01 396.126 225.528C395.118 224.046 393.756 222.832 392.161 221.992C390.566 221.152 388.787 220.713 386.98 220.712H282.336C280.033 220.713 277.788 221.426 275.915 222.751C274.043 224.076 272.639 225.948 271.898 228.102L243.044 312.1L209.341 312.26C206.608 312.26 204.39 316.26 204.39 318.93L241.485 318.51L363.593 319Z" fill="#263238"></path>
<path d="M362.773 239.942C365.159 239.843 367.519 240.467 369.536 241.732C370.217 242.15 370.836 242.658 371.378 243.242C373.17 245.242 376.369 249.101 375.094 255.141C373.818 261.181 369.88 262.011 368.007 262.211C366.134 262.411 353.307 258.801 353.307 258.801C353.307 258.801 348.649 254.891 350.269 249.751C351.758 245.342 355.888 240.192 362.773 239.942Z" fill="#FFEE33"></path>
<path d="M368.908 260.411C368.908 260.411 368.442 263.641 366.802 264.411C365.162 265.181 362.104 265.081 359.715 264.501C357.326 263.921 353.884 262.601 353.479 260.811C353.139 259.417 353.209 257.957 353.681 256.601C354.983 255.882 356.424 255.44 357.909 255.304C359.395 255.168 360.893 255.341 362.307 255.811C365.002 256.497 367.35 258.133 368.908 260.411Z" fill="#F5F5F5"></path>
<g opacity="0.4">
<path d="M358.49 244.992C358.195 246.158 358.256 247.384 358.666 248.516C359.076 249.648 359.816 250.635 360.794 251.351C361.772 252.067 362.942 252.481 364.158 252.541C365.374 252.6 366.58 252.302 367.624 251.684C368.668 251.066 369.504 250.157 370.025 249.07C370.546 247.984 370.729 246.769 370.551 245.579C370.373 244.39 369.842 243.28 369.025 242.388C368.208 241.497 367.142 240.865 365.962 240.572C364.378 240.181 362.701 240.427 361.301 241.256C359.9 242.084 358.889 243.428 358.49 244.992Z" fill="white"></path>
</g>
<g opacity="0.4">
<path d="M374.031 258.191C372.839 256.735 372.217 254.903 372.279 253.031C372.424 251.198 373.237 249.478 374.567 248.191C375.223 250.173 375.45 252.268 375.236 254.341C375.075 255.686 374.667 256.991 374.031 258.191Z" fill="white"></path>
</g>
<g opacity="0.4">
<path d="M349.966 252.241C351.712 251.517 353.132 250.192 353.965 248.511C354.753 246.928 354.895 245.105 354.36 243.422C352.914 244.821 351.731 246.463 350.867 248.271C349.672 251.061 349.966 252.241 349.966 252.241Z" fill="white"></path>
</g>
<path d="M315.22 273.281C315.218 274.61 315.615 275.911 316.361 277.017C317.108 278.123 318.169 278.986 319.412 279.496C320.655 280.007 322.024 280.141 323.344 279.883C324.664 279.625 325.878 278.986 326.83 278.046C327.783 277.107 328.432 275.909 328.695 274.606C328.958 273.302 328.824 271.95 328.31 270.722C327.795 269.493 326.923 268.443 325.804 267.704C324.685 266.965 323.369 266.571 322.023 266.571C320.22 266.571 318.491 267.278 317.216 268.536C315.94 269.794 315.222 271.5 315.22 273.281Z" fill="#F5F5F5"></path>
</svg>
