<?xml version="1.0" standalone="no"?>
<!DOCTYPE svg PUBLIC "-//W3C//DTD SVG 20010904//EN"
 "http://www.w3.org/TR/2001/REC-SVG-20010904/DTD/svg10.dtd">
<svg version="1.0" xmlns="http://www.w3.org/2000/svg"
 width="1024.000000pt" height="1024.000000pt" viewBox="0 0 1024.000000 1024.000000"
 preserveAspectRatio="xMidYMid meet">

<g transform="translate(0.000000,1024.000000) scale(0.100000,-0.100000)"
fill="#021cb0" stroke="none">
<path d="M4816 9139 c-248 -25 -576 -91 -749 -151 -445 -152 -918 -429 -1257
-738 -417 -379 -663 -701 -889 -1160 -240 -487 -373 -987 -412 -1551 -12 -175
0 -480 26 -669 67 -484 208 -919 420 -1303 76 -136 250 -400 324 -492 31 -38
86 -106 121 -149 271 -335 700 -689 1113 -920 437 -244 931 -398 1432 -446
238 -23 595 -8 850 36 262 44 663 164 885 264 319 144 725 406 1005 649 190
165 477 504 620 733 226 361 387 740 490 1146 78 311 106 545 106 897 1 418
-29 642 -137 1020 -102 360 -290 777 -487 1077 -30 46 -59 93 -65 104 -14 26
-188 258 -250 334 -25 30 -105 115 -176 188 -242 247 -457 422 -736 598 -435
274 -898 442 -1440 520 -126 18 -661 27 -794 13z m684 -244 c336 -38 602 -102
900 -218 160 -62 316 -137 418 -200 48 -30 94 -56 102 -59 8 -4 -19 -6 -60 -6
-91 1 -117 -4 -237 -43 -94 -31 -170 -75 -258 -148 -60 -50 -139 -77 -268 -91
-222 -25 -271 -51 -300 -157 -32 -112 -15 -213 48 -297 40 -51 78 -74 179
-106 134 -44 226 7 226 124 0 34 0 35 32 25 18 -5 55 -9 82 -9 44 0 53 4 91
43 51 51 70 108 61 185 -11 94 39 162 159 218 230 106 441 44 579 -170 63 -97
170 -199 245 -234 40 -18 77 -26 143 -30 80 -4 95 -9 136 -36 85 -57 244 -268
296 -394 15 -35 36 -112 46 -170 11 -59 37 -167 60 -241 54 -182 69 -262 76
-404 7 -129 -9 -252 -58 -467 l-22 -95 -14 50 c-8 28 -15 62 -15 77 0 15 -3
25 -7 23 -4 -2 -22 49 -40 115 -57 210 -103 280 -182 280 -32 0 -46 -6 -69
-31 -44 -47 -43 -81 7 -260 19 -70 46 -177 59 -239 26 -124 61 -190 138 -255
l39 -34 -7 -68 c-18 -179 -58 -329 -131 -500 -82 -189 -94 -225 -119 -350 -20
-104 -60 -214 -84 -233 -3 -3 -7 -10 -8 -16 -1 -7 -15 -34 -31 -60 -67 -117
-97 -234 -73 -291 16 -39 74 -76 130 -83 42 -5 48 -4 44 11 -7 24 33 107 94
201 28 43 60 97 72 120 28 59 67 209 87 336 16 106 31 146 98 272 46 84 129
422 151 610 20 168 33 225 90 394 47 138 63 232 67 381 1 87 11 -134 23 -535
9 -306 9 -306 92 -297 30 3 63 13 73 22 18 16 19 15 26 -20 12 -66 -3 -561
-21 -675 -36 -233 -126 -594 -187 -750 -22 -58 -53 -139 -68 -180 -56 -153
-189 -406 -308 -590 -149 -230 -497 -592 -742 -774 -212 -157 -538 -344 -745
-426 -378 -151 -605 -214 -940 -259 -260 -35 -432 -44 -628 -32 -399 25 -678
88 -1087 248 -230 90 -555 270 -792 440 -250 178 -571 498 -760 753 -309 420
-500 841 -607 1340 -47 217 -63 366 -68 652 -7 366 19 630 92 927 33 135 55
201 152 473 l39 107 39 -112 c50 -144 92 -237 189 -422 89 -170 120 -219 185
-291 25 -28 66 -76 91 -108 56 -70 155 -146 246 -187 38 -17 96 -43 129 -57
80 -36 141 -84 261 -202 67 -66 113 -121 135 -163 l34 -62 7 -290 c4 -199 11
-311 21 -356 30 -131 102 -258 252 -443 131 -162 165 -207 208 -281 55 -94 80
-165 122 -352 20 -87 45 -194 56 -238 43 -171 140 -367 245 -496 119 -145 413
-410 512 -461 80 -41 194 -12 227 58 27 58 16 121 -46 248 -49 101 -53 114
-57 196 -7 147 21 247 129 463 120 238 147 332 174 597 26 257 28 264 111 490
63 173 79 248 71 340 -7 81 -30 130 -89 186 -54 52 -112 81 -256 128 -121 39
-228 97 -288 155 -21 20 -95 113 -166 208 -139 187 -210 254 -340 319 -97 49
-172 64 -323 64 -115 0 -141 -3 -240 -31 -102 -29 -115 -31 -178 -21 -37 6
-75 16 -84 23 -26 22 -61 84 -93 164 -70 176 -133 224 -278 212 -67 -5 -112
-31 -155 -89 -18 -24 -18 -27 -2 -58 9 -17 15 -33 13 -35 -2 -1 -30 -6 -64
-10 l-61 -7 -20 49 c-47 110 -56 153 -50 237 13 195 128 382 261 421 62 19 63
19 149 -2 55 -13 66 -19 47 -23 -53 -12 -78 -128 -45 -207 21 -49 39 -69 103
-110 89 -57 151 -74 297 -80 197 -8 242 16 231 121 -11 99 -54 121 -214 110
l-97 -7 -33 110 c-43 145 -49 200 -28 253 22 55 77 133 181 255 47 55 101 130
120 166 19 37 40 71 47 76 7 6 112 61 233 123 121 61 243 129 272 151 187 145
242 414 110 536 -53 49 -152 108 -209 124 -77 22 -64 29 56 29 128 0 163 10
207 56 21 22 24 35 23 97 0 40 -2 80 -5 89 -4 16 30 17 472 22 522 5 528 5
550 64 17 43 5 111 -25 141 l-26 26 -418 3 c-448 3 -572 -4 -744 -43 -112 -25
-298 -103 -412 -173 -68 -42 -69 -42 -165 -42 -97 0 -141 6 -141 20 0 9 312
172 318 166 2 -3 -5 -17 -16 -33 -10 -15 -23 -39 -26 -53 -4 -14 -10 -34 -13
-44 -4 -16 2 -14 35 12 22 18 86 52 142 77 134 58 180 88 180 119 0 35 10 56
26 56 8 0 40 9 72 19 112 38 458 100 667 120 152 14 489 12 635 -4z m-1280
-454 c0 -11 -154 -28 -185 -21 -12 3 119 27 158 29 15 0 27 -3 27 -8z m-881
-82 c-15 -29 -3 -81 24 -107 33 -31 71 -42 142 -42 54 0 238 29 298 46 16 5
17 1 11 -43 -14 -106 25 -161 179 -253 105 -62 134 -91 142 -142 9 -52 -9
-101 -51 -138 -20 -17 -117 -72 -217 -122 -210 -105 -274 -143 -337 -202 -25
-24 -60 -49 -78 -56 -29 -11 -92 -71 -92 -88 0 -4 -7 -41 -16 -82 -35 -169
-130 -245 -367 -296 -38 -8 -89 -14 -115 -14 -136 -1 -329 -78 -411 -164 -26
-29 -50 -58 -53 -66 -3 -8 -7 -13 -9 -10 -28 33 -156 409 -164 480 -4 30 -11
68 -15 83 -8 23 -4 39 17 80 52 104 221 336 312 430 53 55 62 59 176 96 150
49 288 71 441 71 98 0 125 3 160 21 72 34 106 123 69 176 -25 36 -78 46 -191
40 l-102 -7 -36 36 c-28 28 -42 35 -62 31 l-26 -5 28 24 c84 70 152 120 245
178 57 36 105 66 107 66 1 0 -2 -9 -9 -21z m702 -2883 c37 -8 84 -23 105 -34
58 -30 144 -124 217 -239 82 -128 197 -249 301 -317 106 -70 146 -90 253 -125
115 -38 143 -51 171 -75 33 -30 30 -91 -12 -190 -106 -249 -128 -328 -146
-526 -32 -367 -31 -363 -144 -590 -151 -304 -173 -385 -162 -585 9 -148 10
-158 21 -175 5 -8 -10 -1 -33 16 -23 16 -42 35 -42 42 0 6 -6 11 -12 10 -7 -2
-12 3 -10 10 1 8 -2 11 -9 7 -6 -4 -24 6 -41 21 -67 65 -198 269 -198 310 0 9
-4 12 -10 9 -6 -3 -7 1 -4 9 3 9 1 16 -4 16 -9 0 -18 16 -29 55 -47 168 -66
243 -88 355 -53 272 -122 435 -241 570 -143 161 -236 284 -278 369 -81 160
-109 336 -87 546 19 173 51 273 125 390 76 119 188 156 357 121z"/>
<path d="M4459 8385 c-14 -8 -32 -28 -39 -45 -22 -53 15 -106 107 -154 69 -35
243 -30 328 10 73 35 108 127 69 182 -15 22 -19 22 -227 22 -164 -1 -218 -4
-238 -15z"/>
<path d="M6305 7493 c-11 -2 -61 -18 -112 -34 -144 -47 -240 -119 -273 -204
-34 -88 -29 -226 10 -308 19 -40 20 -41 1 -61 -60 -68 -162 -252 -206 -374
-40 -110 -83 -302 -95 -427 -18 -167 -8 -437 18 -536 56 -209 193 -351 392
-405 54 -15 107 -18 305 -19 269 0 266 0 344 -75 55 -54 97 -144 122 -262 28
-137 42 -482 29 -737 -15 -317 -39 -505 -95 -756 -53 -237 -61 -309 -42 -376
20 -69 81 -135 133 -145 68 -13 99 1 251 112 379 275 721 581 779 695 50 100
66 210 40 274 -14 34 -17 35 -67 35 -46 0 -55 -4 -83 -33 -17 -18 -49 -66 -71
-107 -82 -151 -320 -380 -590 -570 -49 -35 -103 -74 -118 -87 -16 -13 -32 -23
-36 -23 -9 0 29 188 55 275 21 71 70 365 89 525 18 159 20 533 4 713 -38 439
-157 651 -423 755 -34 13 -87 16 -311 16 -241 1 -275 3 -313 20 -126 55 -191
243 -179 515 10 231 65 456 156 642 100 202 205 309 355 359 127 43 168 89
146 163 -6 22 -25 54 -41 70 -34 33 -21 33 -239 3 -52 -7 -97 -12 -99 -10 -10
8 59 56 163 113 102 56 118 69 136 106 11 23 20 51 20 63 0 74 -67 115 -155
95z"/>
<path d="M6653 7288 c-55 -14 -88 -86 -67 -143 8 -19 82 -58 144 -73 52 -14
293 -66 560 -122 251 -52 277 -53 315 -13 51 55 20 148 -58 177 -23 9 -148 36
-277 62 -129 25 -291 59 -359 75 -165 39 -220 47 -258 37z"/>
<path d="M6906 6840 c-66 -20 -85 -75 -46 -137 33 -55 78 -70 410 -138 96 -20
242 -52 323 -72 158 -38 202 -38 238 -2 39 39 15 145 -40 174 -17 8 -66 22
-108 30 -43 8 -152 30 -243 50 -253 54 -494 105 -500 104 -3 0 -18 -5 -34 -9z"/>
</g>
</svg>
