<?xml version="1.0" standalone="no"?>
<!DOCTYPE svg PUBLIC "-//W3C//DTD SVG 20010904//EN"
 "http://www.w3.org/TR/2001/REC-SVG-20010904/DTD/svg10.dtd">
<svg version="1.0" xmlns="http://www.w3.org/2000/svg"
 width="1024.000000pt" height="1024.000000pt" viewBox="0 0 1024.000000 1024.000000"
 preserveAspectRatio="xMidYMid meet">

<g transform="translate(0.000000,1024.000000) scale(0.100000,-0.100000)"
fill="#021cb0" stroke="none">
<path d="M6025 8420 c-33 -5 -85 -18 -116 -29 -72 -27 -185 -96 -181 -111 1
-6 -2 -9 -7 -6 -5 3 -21 -4 -35 -15 -21 -17 -24 -24 -15 -35 9 -12 9 -13 -3
-9 -13 5 -68 -51 -68 -70 0 -4 -9 -19 -21 -33 -14 -18 -18 -34 -14 -52 4 -18
3 -21 -4 -10 -8 11 -12 9 -21 -15 -47 -119 -63 -261 -50 -425 12 -149 23 -203
58 -294 l30 -75 -1307 -4 c-1440 -4 -1316 1 -1601 -68 -192 -47 -469 -157
-454 -180 4 -8 3 -9 -4 -5 -6 4 -26 -1 -44 -10 -45 -23 -151 -95 -160 -108 -4
-6 -8 -7 -8 -2 0 5 -7 3 -15 -4 -8 -7 -12 -17 -8 -23 3 -5 2 -7 -4 -4 -19 12
-161 -124 -266 -255 -50 -62 -132 -205 -174 -302 -47 -110 -99 -319 -112 -451
-15 -155 -16 -2082 -1 -2190 17 -121 58 -298 92 -394 32 -93 127 -281 190
-375 147 -221 366 -423 591 -544 197 -106 368 -142 684 -142 147 0 183 -3 175
-12 -11 -15 -111 -189 -256 -448 -54 -96 -118 -209 -142 -250 -90 -157 -103
-212 -65 -274 23 -36 74 -66 113 -66 26 0 97 31 136 59 59 42 922 519 1607
888 127 68 234 130 239 137 7 9 17 8 50 -8 41 -21 47 -21 1711 -24 1847 -3
1756 -5 1935 62 346 130 631 401 789 750 29 63 64 159 79 213 l26 98 4 1145
c3 1163 0 1305 -34 1510 -32 192 -91 361 -186 535 -51 95 -182 276 -241 335
l-35 35 67 36 c86 47 123 97 129 176 3 48 0 64 -20 92 -13 19 -38 44 -57 54
-32 20 -58 20 -1160 18 l-1126 -2 -61 -28 c-76 -35 -173 -101 -324 -217 -63
-49 -132 -101 -152 -116 l-36 -27 -128 147 c-136 155 -267 332 -306 410 -20
41 -23 62 -22 157 0 100 4 120 37 220 50 145 98 246 115 240 8 -3 636 -5 1396
-5 l1383 0 41 -87 c23 -49 45 -103 48 -120 l7 -33 74 0 75 0 -7 63 c-11 102
-33 176 -77 256 -75 137 -202 245 -348 299 l-75 27 -1135 1 c-624 1 -1162 -2
-1195 -6z m-219 -1542 c12 -39 115 -202 152 -241 56 -59 106 -81 182 -82 123
0 238 80 350 245 21 32 47 65 56 75 16 15 87 17 983 14 l966 -2 65 -33 c131
-65 213 -148 316 -322 103 -172 165 -355 194 -570 7 -56 11 -434 12 -1195 1
-1016 -1 -1121 -17 -1217 -20 -121 -50 -213 -108 -325 -142 -275 -413 -507
-707 -607 -167 -56 -215 -57 -2011 -57 l-1623 0 -101 -52 c-55 -28 -147 -77
-205 -109 -58 -31 -132 -72 -165 -90 -33 -18 -163 -89 -289 -158 -127 -68
-246 -131 -265 -139 -20 -9 -55 -28 -78 -43 l-41 -28 30 51 c17 29 61 97 98
152 66 98 156 233 232 349 21 32 36 61 33 65 -4 3 -286 6 -628 7 -606 0 -624
1 -700 22 -155 43 -369 173 -483 293 -183 195 -310 442 -356 697 l-23 127 0
1090 c0 1197 -1 1185 61 1357 31 86 91 210 128 264 14 20 22 42 19 47 -3 6 -1
7 5 3 12 -7 55 48 44 58 -4 4 -2 6 4 4 6 -2 45 32 87 75 42 42 80 77 83 77 4
0 27 15 53 33 83 60 204 119 301 145 l95 27 1610 5 c886 3 1615 6 1622 8 6 1
15 -8 19 -20z"/>
</g>
</svg>
