<svg width="755" height="270" viewBox="0 0 755 270" fill="none" xmlns="http://www.w3.org/2000/svg">
<path d="M74.6692 229.192C74.6692 229.192 59.9285 131.064 77.5207 129.341C95.1129 127.618 99.3659 128.688 92.5675 227.311L74.6692 229.192Z" fill="#F5F5F5"/>
<path d="M54 218.111H111.883L107.05 244H58.833L54 218.111Z" fill="#F5F5F5"/>
<path d="M85.2394 167.159C85.2394 167.159 102.368 168.24 102.884 167.159C103.401 166.079 103.401 142.669 110.665 144.06C117.93 145.451 114.745 173.605 110.665 176.883C106.585 180.162 85.2394 182 85.2394 182C85.2394 182 82.4507 171.543 85.2394 167.159Z" fill="#F5F5F5"/>
<path d="M662 236.5C709.5 231.5 740.5 209.5 747.5 184C747.5 155.833 703.273 138 655.5 138C607.727 138 569 160.833 569 189C569 217.167 614.227 236.5 662 236.5Z" fill="#F5F5F5"/>
<path d="M377.5 256C585.987 256 755 250.627 755 244C755 237.373 585.987 232 377.5 232C169.012 232 0 237.373 0 244C0 250.627 169.012 256 377.5 256Z" fill="#F5F5F5"/>
<path d="M710.219 48.2793C728.429 58.7893 754.799 83.6693 754.799 128.549C754.799 173.429 733.549 206.799 692.929 221.729C671.199 229.729 636.379 230.119 613.989 222.129C591.179 210.459 575.809 198.449 567.439 176.659C558.819 151.339 574.219 124.859 595.219 109.729C616.219 94.5993 613.689 77.3493 628.519 59.4493C636.519 49.8193 648.229 41.5793 662.519 39.9893C678.219 38.2393 696.309 40.2693 710.219 48.2793Z" fill="#5E8EFF"/>
<path opacity="0.6" d="M710.219 48.2793C728.429 58.7893 754.799 83.6693 754.799 128.549C754.799 173.429 733.549 206.799 692.929 221.729C671.199 229.729 636.379 230.119 613.989 222.129C591.179 210.459 575.809 198.449 567.439 176.659C558.819 151.339 574.219 124.859 595.219 109.729C616.219 94.5993 613.689 77.3493 628.519 59.4493C636.519 49.8193 648.229 41.5793 662.519 39.9893C678.219 38.2393 696.309 40.2693 710.219 48.2793Z" fill="white"/>
<path opacity="0.3" d="M701.109 149.339C701.109 149.339 705.109 144.689 708.059 134.829C712.949 118.409 713.059 87.9293 707.869 72.4793C700.359 50.0893 668.949 49.0293 668.949 49.0293C668.949 49.0293 647.559 46.7193 635.829 77.1793C624.099 107.639 621.479 115.829 607.969 123.309C602.389 126.389 595.779 127.749 590.609 131.449C587.73 133.472 585.32 136.091 583.544 139.129C581.767 142.167 580.666 145.551 580.315 149.053C579.964 152.554 580.371 156.09 581.509 159.42C582.647 162.749 584.489 165.795 586.909 168.349C590.639 172.289 595.829 175.229 597.729 180.349C599.089 184.019 598.439 188.099 597.779 191.959C596.839 197.399 595.896 202.839 594.949 208.279C594.819 209.069 594.679 209.869 594.579 210.679C600.772 214.954 607.258 218.787 613.989 222.149C618.326 223.664 622.772 224.845 627.289 225.679C628.049 219.839 629.079 214.029 630.369 208.289C630.839 206.289 631.619 203.869 633.619 203.289C635.909 202.569 638.129 204.659 639.239 206.789C640.759 209.699 642.739 211.899 646.239 212.479C650.859 213.239 654.429 210.179 657.039 206.719C661.239 201.159 659.669 193.509 657.799 187.369C656.949 184.589 656.369 181.589 657.129 178.789C658.739 172.899 668.199 170.669 673.079 168.479C680.169 165.299 687.269 162.099 694.489 159.209C715.879 150.629 728.909 156.809 728.909 156.809C728.909 156.809 716.559 146.299 701.109 149.339Z" fill="#5E8EFF"/>
<path opacity="0.3" d="M623.739 224.899C649.739 227.899 676.949 221.539 698.299 207.019C730.979 184.779 745.129 149.529 738.129 107.759C731.949 70.8692 713.509 50.5592 694.989 42.1492C699.101 43.2239 703.097 44.701 706.919 46.5592C721.919 57.4992 735.249 76.9392 740.349 107.389C747.499 150.079 733.019 186.119 699.559 208.879C682.986 219.963 663.761 226.438 643.859 227.639C637.09 227.271 630.361 226.355 623.739 224.899Z" fill="#5E8EFF"/>
<path d="M638.409 170.99C641.089 172.25 643.579 169.769 646.409 171.129C648.387 172.057 649.918 173.728 650.669 175.779C650.964 176.846 651.426 177.858 652.039 178.779C652.919 179.779 653.819 180.78 654.689 181.87C656.109 183.49 657.635 185.014 659.259 186.43C663.169 189.97 664.459 195.669 664.179 200.779C664.039 203.459 662.879 204.309 661.739 206.729C660.959 208.379 659.429 210.389 657.429 210.409C655.429 210.429 653.789 208.889 652.669 207.409C651.299 205.589 651.499 204.67 650.619 202.62C649.739 200.57 648.449 197.619 646.619 196.419C645.092 195.339 643.623 194.177 642.219 192.939C639.553 190.773 636.936 188.569 634.369 186.329L633.589 185.65C631.029 183.65 619.849 178.409 619.849 178.409L627.219 160.729L638.409 170.99Z" fill="#C8856A"/>
<path d="M647.219 170.549C648.491 170.326 649.8 170.556 650.919 171.199C652.268 172.988 653.247 175.028 653.799 177.199C654.629 180.199 655.019 181.409 656.949 182.809C659.6 184.483 661.836 186.736 663.489 189.399C664.801 191.457 665.642 193.779 665.951 196.199C666.261 198.619 666.031 201.078 665.279 203.399C663.519 209.349 661.569 210.699 660.039 211.399C658.684 211.833 657.25 211.962 655.839 211.779L647.219 170.549Z" fill="#263238"/>
<path d="M637.329 170.009L638.409 171.009C639.042 171.487 639.637 172.011 640.189 172.579C642.409 175.039 642.059 180.499 641.909 181.969C641.433 181.893 640.945 181.921 640.48 182.053C640.016 182.184 639.585 182.415 639.219 182.729C637.459 183.969 634.609 186.389 634.849 187.379C635.089 188.369 641.619 192.039 644.929 195.849C648.239 199.659 648.689 201.759 649.819 205.639C650.619 208.409 653.039 212.999 657.049 211.559C659.149 210.829 664.199 206.559 664.109 197.459C664.039 189.399 658.319 185.769 655.349 183.589C652.379 181.409 651.989 179.099 650.349 174.999C649.629 173.209 649.199 171.779 647.189 170.579C644.539 169.819 641.889 170.519 639.939 170.309C638.369 170.109 637.789 169.179 637.329 170.009Z" fill="#37474F"/>
<path d="M641.909 181.949C641.803 182.368 641.849 182.811 642.039 183.199C642.273 183.558 642.568 183.872 642.909 184.129C643.549 184.659 644.159 185.179 644.779 185.719C646.029 186.779 647.249 187.859 648.429 188.979C649.609 190.094 650.728 191.273 651.779 192.509C652.831 193.756 653.743 195.114 654.499 196.559C654 194.976 653.236 193.488 652.239 192.159C651.265 190.813 650.167 189.561 648.959 188.419C647.764 187.278 646.502 186.209 645.179 185.219C644.529 184.729 643.839 184.219 643.179 183.799C642.837 183.601 642.524 183.355 642.249 183.069C642.02 182.742 641.901 182.349 641.909 181.949Z" fill="#263238"/>
<path d="M654.579 194.959C652.489 195.429 647.949 198.339 648.019 200.359L648.269 200.889C647.777 200.533 647.424 200.017 647.269 199.429C646.949 198.369 649.269 195.319 653.879 193.909C654.569 193.999 655.219 194.729 654.579 194.959Z" fill="#FAFAFA"/>
<path d="M651.979 191.639C649.869 191.989 645.629 194.549 645.579 196.559L645.869 196.929C645.603 196.837 645.368 196.672 645.191 196.453C645.014 196.234 644.903 195.969 644.869 195.689C644.619 194.619 646.709 191.689 651.369 190.539C652.019 190.729 652.589 191.479 651.979 191.639Z" fill="#FAFAFA"/>
<path d="M649.029 188.499C646.969 189.019 642.779 191.769 642.919 193.799L643.349 194.179C643.091 194.106 642.85 193.978 642.644 193.806C642.437 193.634 642.269 193.421 642.149 193.179C641.699 192.129 643.829 188.969 648.329 187.439C648.989 187.519 649.619 188.289 649.029 188.499Z" fill="#FAFAFA"/>
<path d="M646.369 185.929C644.369 186.449 639.819 189.349 639.969 191.369L640.409 191.749C639.865 191.573 639.41 191.193 639.139 190.689C638.699 189.629 641.139 186.409 645.659 184.879C646.319 184.959 646.959 185.729 646.369 185.929Z" fill="#FAFAFA"/>
<path d="M642.529 112.049C642.259 112.771 641.822 113.419 641.253 113.941C640.685 114.462 640.002 114.842 639.259 115.049C632.499 116.699 614.949 120.979 605.009 124.629C590.239 130.059 586.329 132.139 583.009 138.079C581.868 140.101 581.198 142.354 581.047 144.67C580.897 146.986 581.27 149.307 582.139 151.459C583.349 154.749 588.009 160.919 596.769 166.059C610.589 174.149 618.849 178.699 627.329 182.719C627.329 182.719 634.859 174.659 635.669 167.719L623.359 156.499L652.429 142.799L689.619 109.009L642.529 112.049Z" fill="#455A64"/>
<path d="M622.839 154.529C619.008 157.165 616.354 161.19 615.439 165.749C614.939 168.089 614.229 172.289 613.669 175.749C618.669 178.489 622.979 180.699 627.329 182.749C627.329 182.749 634.859 174.689 635.669 167.749L623.359 156.529L625.049 155.729L622.839 154.529Z" fill="#37474F"/>
<path d="M652.429 142.789L644.429 118.059L641.429 123.599C642.039 130.079 643.019 132.599 644.329 135.649C644.329 135.649 629.919 146.539 628.329 147.529C622.329 151.259 621.499 150.749 618.109 148.309C616.339 147.009 614.282 146.154 612.111 145.817C609.941 145.479 607.721 145.669 605.639 146.369C614.039 145.769 616.099 149.249 623.399 156.489L652.469 142.789H652.429Z" fill="#37474F"/>
<path d="M626.689 232.579C627.289 235.199 629.219 238.859 628.439 242.219C628.178 243.379 627.691 244.475 627.004 245.444C626.318 246.414 625.446 247.238 624.439 247.87C623.372 248.443 622.398 249.174 621.549 250.039C620.679 251.219 619.799 252.419 618.889 253.599C617.439 255.489 616.269 256.439 615.089 258.509C612.239 263.509 606.469 266.239 600.959 267.159C598.227 267.682 595.418 267.648 592.699 267.059C590.749 266.619 588.239 265.459 587.749 263.329C587.259 261.199 588.509 259.089 589.829 257.549C591.439 255.649 593.829 254.549 595.779 253.129C597.941 251.5 599.848 249.559 601.439 247.37C603.129 244.99 608.229 239.949 609.989 231.229C610.789 227.229 613.059 209.979 613.059 209.979L633.249 211.109C633.249 211.109 626.079 229.959 626.689 232.579Z" fill="#FFBE9D"/>
<path d="M629.219 242.909C629.753 244.214 629.817 245.663 629.399 247.009C627.803 248.876 625.847 250.403 623.649 251.499C620.649 253.109 619.449 253.809 618.409 256.199C617.369 258.589 616.709 261.089 613.409 264.199C610.109 267.309 604.709 269.439 596.879 269.199C590.109 268.999 587.879 266.499 587.309 265.819C586.52 264.662 586.039 263.324 585.909 261.929L629.219 242.909Z" fill="#263238"/>
<path d="M626.819 230.799C626.695 231.534 626.609 232.275 626.559 233.019C626.453 234.031 626.017 234.98 625.319 235.719C623.089 238.159 618.959 239.059 617.319 239.249C616.957 238.231 616.21 237.395 615.239 236.919C612.149 235.159 608.609 234.349 607.609 234.839C606.609 235.329 604.989 241.019 601.719 245.459C598.449 249.899 595.369 251.779 591.109 254.599C588.479 256.339 584.019 259.259 586.499 263.199C587.769 265.269 594.349 268.199 604.019 265.969C612.599 263.969 615.659 258.399 617.279 254.709C618.899 251.019 621.279 250.059 625.279 247.329C627.019 246.129 628.439 245.329 629.279 242.909C629.459 239.909 628.079 236.189 627.839 234.059C627.609 232.329 627.809 231.089 626.819 230.799Z" fill="#37474F"/>
<path d="M617.349 239.249C616.879 239.266 616.426 239.429 616.052 239.713C615.678 239.998 615.401 240.391 615.259 240.839C614.741 241.892 614.157 242.911 613.509 243.889C610.613 248.29 607.153 252.294 603.219 255.799C607.939 253.029 611.059 248.919 613.879 244.399C614.565 243.322 615.164 242.192 615.669 241.019C615.743 240.591 615.942 240.195 616.241 239.88C616.54 239.565 616.926 239.346 617.349 239.249Z" fill="#263238"/>
<path d="M605.089 254.939C603.179 251.639 598.909 250.109 596.779 250.659L596.279 251.049C596.545 250.449 597.012 249.961 597.599 249.669C598.659 249.079 603.469 249.409 606.059 253.969C606.119 254.729 605.449 255.539 605.089 254.939Z" fill="#FAFAFA"/>
<path d="M609.139 251.729C607.509 248.559 602.489 246.829 600.329 247.249L599.959 247.669C600.008 247.358 600.138 247.066 600.337 246.822C600.535 246.578 600.795 246.39 601.089 246.279C602.179 245.749 608.039 246.719 610.159 250.819C610.219 251.499 609.449 252.309 609.139 251.729Z" fill="#FAFAFA"/>
<path d="M612.099 247.899C610.929 245.199 605.099 242.899 603.009 243.509L602.669 244.089C602.697 243.788 602.783 243.495 602.924 243.228C603.065 242.96 603.257 242.723 603.489 242.529C604.489 241.809 610.769 243.179 613.059 246.909C613.129 247.629 612.469 248.479 612.099 247.899Z" fill="#FAFAFA"/>
<path d="M614.059 244.429C613.059 241.429 607.059 239.549 604.899 240.179L604.469 240.919C604.474 240.63 604.542 240.345 604.668 240.084C604.794 239.823 604.976 239.593 605.199 239.409C606.199 238.689 612.309 238.979 615.009 243.409C615.079 244.139 614.429 245.009 614.059 244.429Z" fill="#FAFAFA"/>
<path d="M640.269 116.259L644.819 111.729L699.719 118.9C699.809 124.26 697.639 135.54 695.489 141.27C693.489 146.52 691.019 152.129 678.569 158.779C666.119 165.429 651.219 172.179 648.219 173.889C643.869 176.339 642.219 177.439 641.899 185.189C641.639 191.689 637.719 203.38 635.189 210.37L629.529 226.059C627.289 228.999 613.939 228.47 610.529 224.24C610.529 224.24 615.429 177.709 617.019 169.529C617.919 164.959 618.789 160.849 624.269 155.689C628.959 151.259 647.159 135.74 647.159 135.74C642.985 130.071 640.587 123.292 640.269 116.259Z" fill="#455A64"/>
<path d="M689.429 123.379C690.019 134.779 690.429 141.649 674.819 149.599C670.129 151.989 665.259 154.269 660.549 156.469C646.549 162.999 637.059 170.089 636.329 175.279C636.039 177.279 635.879 179.619 635.689 182.349C635.096 190.233 633.736 198.04 631.629 205.659C629.539 213.409 627.789 218.979 626.259 224.169C626.749 224.119 627.259 224.049 627.659 223.969C629.189 218.779 630.849 213.489 632.869 205.969C634.998 198.268 636.371 190.377 636.969 182.409C637.159 179.699 637.319 177.409 637.599 175.409C638.239 170.909 648.599 163.409 661.099 157.579C665.819 155.379 670.699 153.099 675.399 150.689C691.699 142.369 691.309 134.769 690.719 123.259C690.659 122.169 690.609 121.039 690.559 119.869L689.259 119.619C689.309 120.949 689.369 122.189 689.429 123.379Z" fill="#37474F"/>
<path d="M679.739 148.039C679.539 147.899 674.959 144.459 677.079 136.159C679.399 127.109 679.169 122.869 678.589 116.699L679.869 116.579C680.719 123.248 680.195 130.021 678.329 136.479C676.419 143.939 680.449 146.969 680.489 146.999L679.739 148.039Z" fill="#37474F"/>
<path d="M610.679 219.029C612.569 222.209 624.309 225.369 630.889 222.519L628.939 228.259C623.939 231.259 614.619 230.259 610.119 225.539L610.679 219.029Z" fill="#37474F"/>
<path d="M664.989 50.9893C661.35 50.6066 657.673 51.1378 654.291 52.5347C650.908 53.9316 647.928 56.1501 645.619 58.9893C640.499 64.9893 632.619 73.5593 625.959 82.1693L603.379 76.2393L600.219 88.4493C600.219 88.4493 619.679 96.2293 626.529 98.4493C631.669 100.149 634.369 98.2493 638.589 94.7593C644.119 90.2093 655.469 79.1293 655.469 79.1293L664.989 50.9893Z" fill="#FFBE9D"/>
<path d="M664.689 50.7294C659.369 50.1694 655.509 51.0994 652.039 53.2594C648.569 55.4194 646.579 57.1494 639.349 65.7894L635.119 70.4794C635.119 70.4794 637.709 77.3494 642.119 81.2894C646.529 85.2294 649.339 86.1694 649.339 86.1694L660.099 76.1694L664.689 50.7294Z" fill="#5E8EFF"/>
<path d="M677.349 52.4694C685.229 53.7894 688.929 54.9395 698.449 58.7995C700.449 61.0995 702.449 70.3694 701.869 79.9394C700.999 94.4194 702.869 100.799 700.709 118.329C700.063 124.479 698.98 130.574 697.469 136.569C679.619 140.149 640.299 127.329 639.529 114.909C642.409 111.349 644.029 101.249 647.149 75.1095C648.989 59.7195 658.639 50.2795 664.689 50.6795C667.679 50.8995 672.289 51.6194 677.349 52.4694Z" fill="#263238"/>
<path d="M658.499 21.5994C657.055 20.4692 656.005 18.9118 655.499 17.1494C654.922 15.2038 654.788 13.1533 655.109 11.1494C655.233 10.4491 655.469 9.77363 655.809 9.14937C656.105 8.81738 656.472 8.55542 656.882 8.38247C657.292 8.20951 657.735 8.12989 658.179 8.14937L659.849 8.05938C658.855 6.97934 658.086 5.71109 657.589 4.32938C657.291 3.26408 657.308 2.13499 657.639 1.07938C657.712 0.791222 657.856 0.526228 658.059 0.309375C658.337 0.126086 658.659 0.020191 658.991 0.00261262C659.323 -0.0149658 659.654 0.056403 659.949 0.209369C663.752 1.44136 667.732 2.03934 671.729 1.97937C674.889 2.03937 676.489 1.76937 680.839 1.67937C685.189 1.58937 692.749 4.11937 693.489 12.3694C699.219 13.7294 699.219 23.1094 697.299 26.9294C693.729 33.9294 690.469 38.5494 688.549 43.6594C688.269 43.4194 669.689 30.7994 665.469 27.3294L660.729 23.4194C659.969 22.7894 659.219 22.2194 658.499 21.5994Z" fill="#263238"/>
<path d="M694.569 38.7293C690.939 41.0593 688.869 38.4393 688.869 38.4393L687.809 55.0093C680.019 63.7993 660.809 60.9593 669.809 52.1593L670.019 48.9893C668.248 48.9577 666.484 48.7602 664.749 48.3993C663.675 48.1309 662.659 47.6701 661.749 47.0393C659.755 45.6299 658.389 43.4993 657.939 41.0993C657.094 36.9154 656.838 32.634 657.179 28.3793C657.509 23.2693 658.479 16.6993 660.399 13.3793C663.649 10.8893 672.769 11.2493 680.279 13.9593C680.279 15.8793 679.979 17.5393 681.369 19.7493C682.088 20.7846 683.036 21.6402 684.139 22.2493C684.089 25.9793 684.139 26.9893 684.749 28.6793C685.059 29.6793 685.749 31.1193 687.659 30.5593C688.579 30.2993 689.369 28.3693 690.379 27.1193C691.739 25.4393 695.699 24.8693 697.329 28.8193C698.028 30.5441 698.135 32.4515 697.636 34.2441C697.137 36.0366 696.059 37.6136 694.569 38.7293Z" fill="#FFBE9D"/>
<path d="M669.969 48.9593C673.869 48.8293 680.859 47.8393 682.969 45.6093C685.079 43.3793 687.039 38.0393 687.039 38.0393C687.039 38.0393 685.859 44.1093 684.169 46.6693C682.479 49.2293 679.059 50.0693 676.569 50.6693C674.324 51.0692 672.05 51.2866 669.769 51.3193L669.969 48.9593Z" fill="#E19872"/>
<path d="M673.559 23.7793L677.559 23.2893C677.48 22.7478 677.194 22.2581 676.761 21.9226C676.329 21.5871 675.784 21.4318 675.239 21.4893C674.978 21.5283 674.727 21.6186 674.501 21.7551C674.275 21.8915 674.078 22.0714 673.922 22.2843C673.766 22.4972 673.654 22.7389 673.591 22.9955C673.529 23.2521 673.518 23.5185 673.559 23.7793Z" fill="#263238"/>
<path d="M664.419 20.4194L660.559 21.6194C660.41 21.0943 660.47 20.5321 660.725 20.0496C660.98 19.5672 661.411 19.2018 661.929 19.0294C662.184 18.9549 662.451 18.9318 662.715 18.9616C662.979 18.9913 663.234 19.0733 663.466 19.2026C663.697 19.332 663.901 19.5062 664.065 19.7151C664.228 19.924 664.349 20.1634 664.419 20.4194Z" fill="#263238"/>
<path d="M673.409 37.3193L669.089 38.6493C669.284 39.2297 669.696 39.7126 670.238 39.9976C670.78 40.2825 671.411 40.3476 671.999 40.1793C672.283 40.0894 672.546 39.9429 672.772 39.7488C672.998 39.5547 673.182 39.317 673.314 39.0499C673.446 38.7827 673.522 38.4917 673.538 38.1943C673.555 37.897 673.511 37.5993 673.409 37.3193Z" fill="#874C4C"/>
<path d="M673.219 38.1894C672.644 38.1504 672.076 38.3377 671.637 38.7113C671.198 39.085 670.923 39.6154 670.869 40.1894C671.241 40.2789 671.628 40.2789 671.999 40.1894C672.42 40.0576 672.791 39.8019 673.064 39.4558C673.337 39.1096 673.499 38.6892 673.529 38.2494L673.219 38.1894Z" fill="#FFA8A7"/>
<path d="M670.549 23.1594L668.519 35.1594L662.439 32.1094L670.549 23.1594Z" fill="#E19872"/>
<path d="M676.659 27.7294C676.643 28.0576 676.53 28.3735 676.334 28.6372C676.138 28.9009 675.868 29.1005 675.558 29.2108C675.249 29.3211 674.914 29.337 674.595 29.2566C674.276 29.1762 673.989 29.003 673.769 28.7591C673.549 28.5152 673.406 28.2114 673.359 27.8863C673.311 27.5612 673.361 27.2293 673.503 26.9327C673.644 26.6361 673.87 26.3882 674.153 26.2203C674.435 26.0523 674.761 25.972 675.089 25.9894C675.307 25.9996 675.52 26.0529 675.717 26.146C675.914 26.2392 676.091 26.3705 676.237 26.5322C676.383 26.694 676.495 26.8831 676.568 27.0886C676.64 27.294 676.671 27.5118 676.659 27.7294Z" fill="#263238"/>
<path d="M664.099 26.4393C664.081 26.7646 663.967 27.0771 663.772 27.3377C663.576 27.5982 663.308 27.7951 663.001 27.9035C662.694 28.0119 662.361 28.0269 662.046 27.9467C661.73 27.8665 661.445 27.6947 661.227 27.4529C661.009 27.211 660.867 26.91 660.819 26.5878C660.772 26.2655 660.821 25.9364 660.96 25.642C661.1 25.3475 661.323 25.1009 661.602 24.9331C661.881 24.7654 662.204 24.684 662.529 24.6993C662.747 24.7096 662.96 24.7628 663.157 24.856C663.354 24.9491 663.531 25.0804 663.677 25.2422C663.823 25.4039 663.935 25.593 664.008 25.7985C664.08 26.004 664.111 26.2218 664.099 26.4393Z" fill="#263238"/>
<path d="M587.519 53.5894L589.039 52.5894C589.263 52.4768 589.509 52.4182 589.759 52.4182C590.009 52.4182 590.256 52.4768 590.479 52.5894L629.679 68.6594C630.407 68.9952 631.053 69.486 631.571 70.0975C632.089 70.709 632.467 71.4264 632.679 72.1994L639.679 104.489C639.777 104.759 639.792 105.051 639.722 105.329C639.653 105.607 639.502 105.858 639.289 106.049L637.719 107.099C637.496 107.218 637.247 107.279 636.994 107.279C636.742 107.279 636.493 107.218 636.269 107.099L597.059 91.0294C596.334 90.6902 595.69 90.1983 595.172 89.5873C594.655 88.9763 594.275 88.2607 594.059 87.4894C592.699 81.1394 588.469 61.5494 587.109 55.1994C586.879 54.3994 587.079 53.8394 587.519 53.5894Z" fill="#455A64"/>
<path d="M629.649 70.7294C630.347 71.4143 630.848 72.2743 631.099 73.2194L638.099 105.489C638.191 105.752 638.208 106.036 638.148 106.308C638.088 106.58 637.953 106.83 637.759 107.029L639.229 106.029C639.445 105.842 639.599 105.593 639.671 105.317C639.742 105.04 639.728 104.748 639.629 104.479L632.629 72.1894C632.401 71.3024 631.942 70.4916 631.299 69.8394L629.649 70.7294Z" fill="#263238"/>
<path d="M638.049 105.519L631.099 73.2294C630.884 72.4581 630.504 71.7424 629.986 71.1314C629.468 70.5204 628.825 70.0285 628.099 69.6894L588.919 53.6294C587.579 53.0794 586.749 53.7794 587.049 55.1894C588.409 61.5394 592.639 81.1294 593.999 87.4794C594.215 88.2507 594.595 88.9663 595.112 89.5773C595.63 90.1883 596.274 90.6802 596.999 91.0194L636.219 107.089C637.519 107.629 638.359 106.929 638.049 105.519Z" fill="#37474F"/>
<path d="M628.129 69.7294L618.979 66.1195L609.869 62.4295L591.639 55.0494L589.369 54.1094C589.019 53.9404 588.649 53.8129 588.269 53.7294C588.111 53.6919 587.945 53.7002 587.791 53.7533C587.637 53.8064 587.501 53.9022 587.399 54.0294C587.009 54.5794 587.349 55.4495 587.489 56.2395L587.999 58.6394L589.999 68.2594L591.999 77.8794L593.949 87.5195L591.759 77.9295L589.649 68.3294L587.539 58.7294L587.009 56.3294C586.919 55.9194 586.829 55.5395 586.749 55.1195C586.645 54.6547 586.724 54.1675 586.969 53.7594C587.12 53.5632 587.322 53.4127 587.554 53.3244C587.785 53.2362 588.036 53.2137 588.279 53.2594C588.701 53.3413 589.111 53.4756 589.499 53.6594L591.779 54.5894L609.949 62.1195L619.029 65.8894L628.129 69.7294Z" fill="#455A64"/>
<path d="M630.289 79.7293L628.979 73.7293C628.942 73.5853 628.874 73.4514 628.779 73.3372C628.684 73.2231 628.564 73.1315 628.429 73.0693L625.729 71.9693C625.479 71.8693 625.319 71.9693 625.379 72.2593C625.629 73.4493 626.379 77.1193 626.679 78.2593C626.72 78.4028 626.792 78.5359 626.888 78.6497C626.985 78.7635 627.104 78.8554 627.239 78.9193L629.939 80.0193C630.219 80.1193 630.339 79.9893 630.289 79.7293Z" fill="#455A64"/>
<path d="M628.679 75.0494C628.572 74.6911 628.39 74.3596 628.146 74.0768C627.901 73.7941 627.599 73.5666 627.259 73.4094C626.609 73.1494 626.199 73.4594 626.339 74.0994C626.443 74.4592 626.624 74.7921 626.869 75.0752C627.114 75.3584 627.418 75.585 627.759 75.7394C628.409 75.9994 628.819 75.7294 628.679 75.0494Z" fill="#263238"/>
<path d="M629.299 78.0993C629.195 77.7398 629.014 77.4072 628.769 77.1242C628.523 76.8411 628.22 76.6143 627.879 76.4593C627.229 76.1893 626.819 76.4593 626.959 77.1393C627.062 77.4997 627.242 77.8332 627.488 78.1165C627.733 78.3998 628.037 78.626 628.379 78.7793C629.029 79.0493 629.439 78.7293 629.299 78.0993Z" fill="#263238"/>
<path d="M588.399 74.2393C587.129 72.2393 587.269 72.0093 588.059 71.0693C588.654 70.3239 589.418 69.7311 590.287 69.3398C591.157 68.9485 592.107 68.77 593.059 68.8193C594.739 68.9593 596.439 69.0093 597.279 69.4993C598.119 69.9893 597.279 71.7793 595.069 72.1593C591.579 72.7493 591.549 73.6893 591.549 73.6893C593.039 73.4302 594.541 73.25 596.049 73.1493C597.74 73.3454 599.413 73.6798 601.049 74.1493C602.499 74.4493 602.689 76.3493 600.179 76.8593L602.829 77.4293C604.679 77.8293 605.269 78.8493 603.739 79.9293C603.241 80.3025 602.631 80.4963 602.009 80.4793C602.009 80.4793 604.009 80.5793 604.009 81.2493C604.009 83.1493 602.769 83.5793 598.689 84.5393C594.799 85.4493 593.899 87.4693 594.589 88.9393C594.589 88.9393 593.089 87.9393 591.769 86.9393C590.769 86.1993 589.979 85.3693 590.519 83.8193C590.519 83.8193 588.329 83.7493 588.259 82.3893C588.281 81.3911 588.517 80.4091 588.949 79.5093C588.566 79.2685 588.26 78.923 588.066 78.5137C587.873 78.1043 587.801 77.6482 587.859 77.1993C587.898 76.3388 588.221 75.5156 588.779 74.8593L588.399 74.2393Z" fill="#FFBE9D"/>
<path d="M600.219 76.8893C599.434 76.681 598.63 76.5503 597.819 76.4993C596.995 76.5831 596.188 76.7956 595.429 77.1293C593.924 77.6693 592.469 78.3385 591.079 79.1293C592.646 78.7999 594.181 78.3382 595.669 77.7493C596.376 77.4373 597.109 77.1896 597.859 77.0093C598.609 76.9693 599.449 76.9993 600.219 76.8893Z" fill="#C48767"/>
<path d="M602.069 80.5093C601.231 80.2217 600.334 80.1461 599.459 80.2893C598.594 80.4313 597.744 80.6522 596.919 80.9493C595.283 81.5166 593.711 82.2539 592.229 83.1493C593.894 82.7239 595.537 82.2133 597.149 81.6193C598.705 80.9447 600.374 80.5681 602.069 80.5093Z" fill="#C48767"/>
<path d="M669.939 85.2594C666.789 82.5894 665.179 81.5294 663.659 80.9994C662.139 80.4694 656.869 77.8794 654.829 77.2294C653.529 76.8194 652.829 78.8794 654.459 80.4294C655.679 81.6094 658.939 83.2794 660.369 84.1794C661.799 85.0794 664.459 88.7694 664.459 88.7694L669.939 85.2594Z" fill="#E19872"/>
<path d="M712.219 71.0393C709.379 63.8393 706.589 61.6893 699.219 59.2793C691.289 66.0993 695.729 85.0093 695.729 85.0093L700.479 104.929C700.479 104.929 684.479 99.4193 682.299 97.8493C680.119 96.2793 674.539 89.4493 672.649 87.3893C670.069 84.5893 668.649 84.8493 667.279 84.9793C662.669 85.3793 661.649 85.6993 660.639 86.2493C660.342 86.4319 660.095 86.6857 659.92 86.9877C659.746 87.2898 659.649 87.6306 659.639 87.9793C658.419 88.0493 656.639 87.8993 656.249 89.8793C656.12 90.399 656.063 90.934 656.079 91.4693C655.771 91.5032 655.484 91.6449 655.269 91.8693C654.179 92.9793 655.659 97.1293 656.699 98.1793C657.429 98.9293 658.519 99.0793 659.979 98.9693C661.219 98.8793 660.729 97.5993 660.729 97.5993L662.439 97.8093C665.989 100.669 665.849 105.909 670.689 107.369C672.704 107.701 674.686 108.213 676.609 108.899C686.959 113.109 700.189 124.899 709.559 126.339C718.699 127.699 719.879 122.339 719.819 116.709C719.689 107.729 715.069 78.2193 712.219 71.0393Z" fill="#FFBE9D"/>
<path d="M699.849 102.429L700.449 104.929C704.569 106.269 708.899 109.559 709.759 111.929C709.219 108.239 707.099 104.859 699.849 102.429Z" fill="#E19872"/>
<path d="M659.609 87.9792L665.429 87.7892L659.769 87.2393C659.673 87.4748 659.619 87.7252 659.609 87.9792Z" fill="#C48767"/>
<path d="M656.049 91.4692L662.339 91.0493L656.089 90.7393C656.05 90.9805 656.037 91.2252 656.049 91.4692Z" fill="#C48767"/>
<path d="M656.699 94.2693C656.886 94.6 657.164 94.8706 657.499 95.0493C657.81 95.2397 658.147 95.3845 658.499 95.4793L658.419 95.4193C658.569 95.7493 658.729 96.0793 658.889 96.4193L659.029 96.2593C658.859 96.2209 658.682 96.2179 658.51 96.2506C658.338 96.2833 658.174 96.3509 658.029 96.4493C657.757 96.6423 657.551 96.9147 657.439 97.2293C657.605 96.9628 657.836 96.7427 658.109 96.5893C658.375 96.4553 658.679 96.4165 658.969 96.4793L659.209 96.5493L659.109 96.3293C658.959 95.9893 658.809 95.6593 658.649 95.3293H658.599C658.255 95.246 657.92 95.1287 657.599 94.9793C657.248 94.8155 656.94 94.5725 656.699 94.2693Z" fill="#AF6152"/>
<path d="M658.309 95.1694C659.053 95.3149 659.804 95.415 660.559 95.4694C660.651 95.9451 660.881 96.3832 661.219 96.7294C661.581 97.115 661.965 97.4789 662.369 97.8194L660.659 97.6094C660.443 97.29 660.162 97.0193 659.835 96.8144C659.507 96.6095 659.141 96.475 658.759 96.4194L658.309 95.1694Z" fill="#C48767"/>
<path d="M698.449 58.7993C703.699 60.4393 707.359 61.9693 709.789 65.3293C712.219 68.6893 713.049 72.1793 714.729 78.5393C716.409 84.8993 717.279 90.6493 717.279 90.6493C717.279 90.6493 715.729 93.5793 709.509 95.0593C705.524 95.9364 701.395 95.9364 697.409 95.0593C697.409 95.0593 694.809 84.2593 693.959 80.2593C693.109 76.2593 691.769 64.3193 698.449 58.7993Z" fill="#5E8EFF"/>
<path d="M68.8727 183.577C68.8727 183.577 60.2164 185.204 56.5186 183.577C52.8207 181.949 54.2074 158.258 50.4255 157.8C41.7412 156.667 43.226 188.11 46.9238 194.729C50.6216 201.348 69.6571 198.539 69.6571 198.539L68.8727 183.577Z" fill="#6A8EF3"/>
<path opacity="0.2" d="M68.8727 183.577C68.8727 183.577 60.2164 185.204 56.5186 183.577C52.8207 181.949 54.2074 158.258 50.4255 157.8C41.7412 156.667 43.226 188.11 46.9238 194.729C50.6216 201.348 69.6571 198.539 69.6571 198.539L68.8727 183.577Z" fill="white"/>
<path d="M69.587 227.269C69.587 227.269 56.7707 122.21 72.0663 120.365C87.3618 118.521 91.0597 119.666 85.1487 225.255L69.587 227.269Z" fill="#6A8EF3"/>
<path opacity="0.3" d="M69.587 227.269C69.587 227.269 56.7707 122.21 72.0663 120.365C87.3618 118.521 91.0597 119.666 85.1487 225.255L69.587 227.269Z" fill="white"/>
<path d="M51.6161 215.405H101.943L97.741 243.123H55.8182L51.6161 215.405Z" fill="#263238"/>
<path d="M84.7846 162.14C84.7846 162.14 98.7215 163.189 99.1417 162.14C99.5619 161.091 99.5619 138.365 105.473 139.716C111.384 141.066 108.792 168.398 105.473 171.58C102.153 174.763 84.7846 176.548 84.7846 176.548C84.7846 176.548 82.5154 166.396 84.7846 162.14Z" fill="#6A8EF3"/>
<path opacity="0.4" d="M84.7846 162.14C84.7846 162.14 98.7215 163.189 99.1417 162.14C99.5619 161.091 99.5619 138.365 105.473 139.716C111.384 141.066 108.792 168.398 105.473 171.58C102.153 174.763 84.7846 176.548 84.7846 176.548C84.7846 176.548 82.5154 166.396 84.7846 162.14Z" fill="white"/>
<path d="M75.9462 212.609C74.9283 205.013 73.9945 197.41 73.1448 189.798C72.295 182.186 71.59 174.551 71.0298 166.891C70.4415 159.259 70.0353 151.616 69.9232 143.984C69.9232 140.15 69.9232 136.316 70.1753 132.482C70.2981 130.551 70.5459 128.627 70.9177 126.719C71.1064 125.737 71.4018 124.772 71.8001 123.838C72.0145 123.32 72.3321 122.839 72.7386 122.415C72.8737 122.294 73.0188 122.181 73.1728 122.077C73.3871 121.963 73.6249 121.886 73.8732 121.848C74.1198 121.839 74.3655 121.879 74.5914 121.965C74.8172 122.051 75.0172 122.18 75.1758 122.343C75.8743 123.212 76.3516 124.198 76.5765 125.236C76.8566 126.189 77.0807 127.141 77.2628 128.094C77.627 129.986 77.9072 131.903 78.1313 133.808C78.5935 137.618 78.9157 141.44 79.1818 145.262C79.6954 152.906 80.0456 160.541 80.2323 168.169C80.4191 175.797 80.5311 183.432 80.5685 191.076C80.5685 198.72 80.5124 206.355 80.4004 213.983C80.2883 206.339 80.1156 198.704 79.8821 191.076C79.7 183.432 79.4759 175.788 79.1538 168.169C78.8316 160.549 78.4954 152.893 77.9212 145.262C77.627 141.452 77.2908 137.642 76.8006 133.857C76.5625 131.964 76.2823 130.083 75.9042 128.214C75.7221 127.286 75.498 126.357 75.2318 125.453C75.0471 124.596 74.6713 123.777 74.1253 123.042C74.0132 122.909 73.9572 122.946 73.9992 122.921L73.8311 123.054C73.5341 123.378 73.2978 123.74 73.1308 124.127C72.7617 124.987 72.4896 125.875 72.3184 126.779C71.9449 128.639 71.6923 130.514 71.562 132.398C71.2819 136.195 71.2258 140.005 71.2539 143.815C71.2539 151.447 71.7301 159.078 72.1643 166.722C72.5985 174.366 73.2148 181.973 73.8732 189.629C74.5315 197.285 75.1618 205.001 75.9462 212.609Z" fill="#6A8EF3"/>
<path d="M86.5354 167.53C88.3423 167.385 90.1352 167.277 91.9281 167.108C93.721 166.939 95.4999 166.794 97.2647 166.541C98.1286 166.415 98.9841 166.25 99.828 166.047C100.612 165.902 101.551 165.42 101.229 165.348C101.154 164.545 101.154 163.739 101.229 162.936C101.229 162.153 101.341 161.381 101.425 160.597C101.747 157.499 102.167 154.412 102.727 151.338C103.22 148.255 103.902 145.196 104.772 142.175C104.576 143.719 104.422 145.262 104.282 146.817L103.792 151.447L102.811 160.706C102.625 162.204 102.531 163.709 102.531 165.215V165.384C102.538 165.488 102.538 165.593 102.531 165.697C102.482 165.88 102.381 166.05 102.237 166.192C102.042 166.404 101.786 166.57 101.495 166.674C101.049 166.864 100.579 167.01 100.094 167.108C99.1728 167.296 98.2364 167.425 97.2928 167.494C93.7142 167.759 90.1163 167.772 86.5354 167.53Z" fill="#6A8EF3"/>
<path d="M86.5354 172.774L92.4884 171.641C94.4633 171.279 96.4523 170.918 98.4133 170.508C100.348 170.151 102.252 169.684 104.114 169.109C104.24 169.064 104.358 169.003 104.464 168.928C104.56 168.784 104.635 168.63 104.688 168.47C104.839 168.076 104.956 167.673 105.039 167.265C105.221 166.433 105.347 165.577 105.459 164.721C105.935 161.285 106.159 157.8 106.453 154.316L106.859 149.096L107.322 143.875C107.56 147.372 107.588 150.868 107.532 154.364C107.476 157.861 107.294 161.357 106.859 164.853C106.733 165.733 106.593 166.614 106.383 167.494C106.281 167.948 106.14 168.395 105.963 168.832C105.869 169.092 105.732 169.34 105.557 169.567C105.329 169.817 105.023 170.006 104.674 170.11C102.708 170.696 100.682 171.124 98.6234 171.388C94.6174 172.015 90.5834 172.485 86.5354 172.774Z" fill="#6A8EF3"/>
<path d="M64.5585 187.965C60.9665 188.116 57.3702 187.757 53.9133 186.904C53.4529 186.77 53.0113 186.592 52.5966 186.374C52.3364 186.248 52.1153 186.07 51.9523 185.855C51.7986 185.674 51.676 185.475 51.5881 185.265C51.2475 184.516 50.9941 183.741 50.8317 182.95C50.5181 181.429 50.2937 179.896 50.1594 178.356C49.8793 175.294 49.7672 172.232 49.7952 169.181C49.8232 166.131 49.9213 163.069 50.2434 160.019L50.5936 164.588L50.8738 169.157C51.0979 172.195 51.2519 175.185 51.5461 178.26C51.6861 179.767 51.8542 181.274 52.1344 182.745C52.2532 183.461 52.4454 184.167 52.7087 184.855C52.7711 185.006 52.8508 185.151 52.9468 185.289C53.0223 185.39 53.1227 185.477 53.2409 185.542C53.578 185.737 53.9342 185.906 54.3054 186.048C55.9225 186.602 57.6035 187.006 59.3199 187.254C61.0428 187.543 62.8077 187.748 64.5585 187.965Z" fill="#6A8EF3"/>
<path d="M47.6662 162.876C47.8623 164.66 47.9883 166.493 48.1704 168.217L48.5906 173.57C48.8848 177.187 49.1229 180.683 49.445 184.228C49.6131 186 49.7812 187.784 50.0473 189.521C50.1423 190.362 50.3299 191.193 50.6076 192.004C50.8317 192.703 51.6581 193.101 52.5266 193.487C54.4193 194.137 56.3936 194.594 58.4095 194.849C60.4405 195.187 62.4995 195.392 64.5585 195.597C60.3582 195.812 56.1461 195.404 52.1064 194.391C51.5804 194.208 51.0782 193.977 50.6076 193.704C50.0907 193.419 49.697 192.995 49.4871 192.498C49.1284 191.611 48.8796 190.694 48.7447 189.762C48.4085 187.965 48.2404 186.145 48.0584 184.397C47.7502 180.78 47.5681 177.247 47.5121 173.678C47.4561 170.11 47.4981 166.457 47.6662 162.876Z" fill="#6A8EF3"/>
</svg>
