<svg width="749" height="295" viewBox="0 0 749 295" fill="none" xmlns="http://www.w3.org/2000/svg">
<path d="M145.546 264C89.1317 258.061 52.3137 231.929 44 201.64C44 168.183 96.5278 147 153.266 147C210.004 147 256 174.122 256 207.579C256 241.035 202.285 264 145.546 264Z" fill="#F5F5F5"/>
<path d="M374.5 285C167.669 285 0 279.627 0 273C0 266.373 167.669 261 374.5 261C581.331 261 749 266.373 749 273C749 279.627 581.331 285 374.5 285Z" fill="#F5F5F5"/>
<path d="M87.8479 52.7627C66.2607 64.2486 35 91.439 35 140.487C35 189.534 60.1911 226.003 108.345 242.319C134.105 251.062 175.383 251.489 201.925 242.757C228.965 230.003 247.186 216.878 257.108 193.064C267.327 165.393 249.071 136.454 224.176 119.919C199.281 103.384 202.281 84.5321 184.7 64.9699C175.217 54.4457 161.335 45.4405 144.395 43.7028C125.783 41.7903 104.338 44.0088 87.8479 52.7627Z" fill="#5E8EFF"/>
<path opacity="0.6" d="M87.8479 52.7627C66.2607 64.2486 35 91.439 35 140.487C35 189.534 60.1911 226.003 108.345 242.319C134.105 251.062 175.383 251.489 201.925 242.757C228.965 230.003 247.186 216.878 257.108 193.064C267.327 165.393 249.071 136.454 224.176 119.919C199.281 103.384 202.281 84.5321 184.7 64.9699C175.217 54.4457 161.335 45.4405 144.395 43.7028C125.783 41.7903 104.338 44.0088 87.8479 52.7627Z" fill="white"/>
<path opacity="0.3" d="M98.6476 163.207C98.6476 163.207 93.9057 158.125 90.4086 147.35C84.6117 129.405 84.4813 96.0947 90.6339 79.21C99.5367 54.7408 136.772 53.5824 136.772 53.5824C136.772 53.5824 162.129 51.0579 176.035 84.3464C189.94 117.635 193.046 126.585 209.062 134.76C215.676 138.126 223.512 139.612 229.641 143.656C233.055 145.867 235.911 148.729 238.017 152.049C240.123 155.369 241.429 159.067 241.845 162.894C242.261 166.72 241.778 170.585 240.429 174.224C239.08 177.863 236.897 181.191 234.027 183.983C229.606 188.288 223.453 191.501 221.201 197.097C219.588 201.108 220.359 205.567 221.141 209.785C222.256 215.73 223.374 221.675 224.496 227.621C224.65 228.484 224.816 229.358 224.935 230.243C217.594 234.915 209.905 239.104 201.925 242.779C196.784 244.434 191.513 245.724 186.158 246.636C185.257 240.254 184.036 233.905 182.507 227.631C181.95 225.446 181.025 222.801 178.654 222.167C175.94 221.38 173.308 223.664 171.992 225.992C170.19 229.172 167.843 231.577 163.694 232.211C158.217 233.041 153.985 229.697 150.891 225.916C145.912 219.839 147.773 211.479 149.99 204.769C150.998 201.731 151.685 198.452 150.784 195.392C148.876 188.955 137.661 186.518 131.876 184.125C123.471 180.649 115.054 177.152 106.495 173.994C81.1383 164.617 65.6917 171.371 65.6917 171.371C65.6917 171.371 80.3322 159.885 98.6476 163.207Z" fill="#5E8EFF"/>
<path opacity="0.3" d="M190.367 245.784C159.545 249.063 127.288 242.112 101.979 226.244C63.2378 201.938 46.4635 163.415 54.7617 117.766C62.0879 77.4505 83.9478 55.2544 105.903 46.0635C101.028 47.238 96.2911 48.8523 91.76 50.883C73.9781 62.8389 58.1759 84.0841 52.13 117.362C43.6539 164.016 60.8194 203.403 100.485 228.276C120.133 240.389 142.922 247.465 166.515 248.778C174.54 248.376 182.517 247.374 190.367 245.784Z" fill="#5E8EFF"/>
<path d="M172.976 186.868C169.799 188.245 166.847 185.534 163.492 187.021C161.148 188.034 159.333 189.861 158.442 192.102C158.093 193.268 157.545 194.374 156.818 195.381C155.775 196.474 154.708 197.567 153.677 198.758C151.994 200.529 150.184 202.194 148.259 203.741C143.624 207.61 142.095 213.839 142.427 219.424C142.593 222.353 143.968 223.282 145.319 225.926C146.244 227.73 148.058 229.926 150.429 229.948C152.799 229.97 154.744 228.287 156.071 226.67C157.695 224.681 157.458 223.675 158.502 221.435C159.545 219.194 161.074 215.97 163.243 214.659C165.054 213.478 166.795 212.208 168.459 210.856C171.621 208.488 174.723 206.08 177.765 203.632L178.69 202.889C181.725 200.703 194.978 194.977 194.978 194.977L186.241 175.655L172.976 186.868Z" fill="#C8856A"/>
<path d="M162.532 186.387C161.025 186.143 159.472 186.394 158.146 187.097C156.546 189.052 155.386 191.281 154.732 193.654C153.748 196.933 153.285 198.255 150.997 199.785C147.856 201.614 145.205 204.077 143.245 206.987C141.689 209.236 140.693 211.773 140.326 214.418C139.959 217.063 140.231 219.751 141.123 222.287C143.209 228.79 145.521 230.265 147.334 231.03C148.941 231.504 150.641 231.645 152.313 231.445L162.532 186.387Z" fill="#263238"/>
<path d="M174.256 185.797L172.976 186.89C172.226 187.411 171.521 187.985 170.866 188.605C168.234 191.294 168.649 197.261 168.827 198.867C169.392 198.784 169.97 198.815 170.521 198.958C171.072 199.102 171.582 199.354 172.016 199.698C174.102 201.053 177.481 203.698 177.196 204.78C176.912 205.862 169.171 209.873 165.247 214.036C161.323 218.2 160.79 220.495 159.45 224.735C158.502 227.763 155.633 232.779 150.879 231.205C148.39 230.407 142.403 225.741 142.51 215.796C142.593 206.987 149.374 203.02 152.894 200.638C156.415 198.255 156.877 195.731 158.822 191.25C159.675 189.294 160.185 187.731 162.568 186.42C165.709 185.589 168.851 186.354 171.162 186.125C173.023 185.906 173.711 184.89 174.256 185.797Z" fill="#37474F"/>
<path d="M168.827 198.846C168.953 199.303 168.899 199.788 168.673 200.212C168.396 200.603 168.047 200.947 167.642 201.228C166.883 201.807 166.16 202.376 165.425 202.966C163.943 204.124 162.497 205.305 161.098 206.529C159.699 207.747 158.373 209.035 157.127 210.386C155.88 211.749 154.799 213.233 153.902 214.812C154.494 213.082 155.4 211.456 156.581 210.004C157.736 208.532 159.038 207.164 160.47 205.917C161.886 204.669 163.382 203.501 164.951 202.419C165.721 201.884 166.539 201.327 167.322 200.868C167.728 200.65 168.099 200.382 168.424 200.07C168.695 199.711 168.837 199.283 168.827 198.846Z" fill="#263238"/>
<path d="M153.807 213.063C156.285 213.577 161.667 216.757 161.584 218.964L161.287 219.544C161.871 219.154 162.29 218.59 162.473 217.948C162.852 216.79 160.102 213.456 154.637 211.916C153.819 212.014 153.049 212.812 153.807 213.063Z" fill="#FAFAFA"/>
<path d="M156.889 209.436C159.391 209.818 164.417 212.616 164.476 214.812L164.133 215.217C164.448 215.116 164.727 214.936 164.936 214.696C165.146 214.457 165.278 214.167 165.318 213.862C165.614 212.692 163.137 209.49 157.612 208.233C156.842 208.441 156.166 209.261 156.889 209.436Z" fill="#FAFAFA"/>
<path d="M160.386 206.004C162.828 206.572 167.796 209.578 167.63 211.796L167.12 212.212C167.426 212.131 167.711 211.992 167.956 211.804C168.201 211.616 168.401 211.382 168.542 211.119C169.076 209.971 166.551 206.518 161.216 204.846C160.434 204.933 159.687 205.775 160.386 206.004Z" fill="#FAFAFA"/>
<path d="M163.54 203.195C165.911 203.763 171.305 206.932 171.127 209.14L170.605 209.555C171.25 209.362 171.789 208.947 172.111 208.397C172.632 207.238 169.74 203.719 164.381 202.047C163.599 202.135 162.84 202.976 163.54 203.195Z" fill="#FAFAFA"/>
<path d="M168.092 122.454C168.413 123.243 168.931 123.951 169.605 124.521C170.278 125.091 171.088 125.506 171.968 125.733C179.982 127.536 200.787 132.213 212.571 136.202C230.08 142.137 234.715 144.41 238.651 150.901C240.003 153.111 240.798 155.573 240.977 158.104C241.155 160.636 240.713 163.172 239.682 165.524C238.248 169.119 232.723 175.862 222.339 181.48C205.956 190.321 196.164 195.293 186.111 199.687C186.111 199.687 177.185 190.878 176.224 183.294L190.817 171.032L156.356 156.06L112.269 119.132L168.092 122.454Z" fill="#455A64"/>
<path d="M191.434 168.879C195.975 171.76 199.122 176.158 200.206 181.141C200.799 183.698 201.64 188.288 202.304 192.069C196.377 195.064 191.268 197.479 186.111 199.719C186.111 199.719 177.184 190.911 176.224 183.327L190.817 171.065L188.814 170.19L191.434 168.879Z" fill="#37474F"/>
<path d="M156.356 156.049L165.84 129.022L169.396 135.077C168.673 142.159 167.511 144.913 165.958 148.246C165.958 148.246 183.041 160.147 184.925 161.229C192.038 165.305 193.022 164.748 197.041 162.082C199.14 160.661 201.579 159.726 204.151 159.357C206.724 158.988 209.356 159.196 211.824 159.961C201.866 159.306 199.424 163.109 190.77 171.021L156.308 156.049H156.356Z" fill="#37474F"/>
<path d="M186.87 254.177C186.158 257.04 183.87 261.04 184.795 264.712C185.104 265.979 185.682 267.177 186.496 268.237C187.31 269.297 188.344 270.197 189.537 270.887C190.802 271.514 191.957 272.313 192.963 273.259C193.994 274.548 195.037 275.86 196.116 277.149C197.835 279.215 199.222 280.253 200.621 282.515C204 287.979 210.84 290.963 217.372 291.968C220.61 292.539 223.941 292.502 227.163 291.859C229.475 291.378 232.451 290.11 233.032 287.783C233.612 285.455 232.131 283.149 230.566 281.466C228.657 279.39 225.824 278.187 223.512 276.635C220.95 274.855 218.689 272.733 216.803 270.341C214.799 267.74 208.753 262.232 206.667 252.702C205.718 248.33 203.027 229.479 203.027 229.479L179.093 230.713C179.093 230.713 187.593 251.314 186.87 254.177Z" fill="#FFBE9D"/>
<path d="M183.87 265.466C183.237 266.891 183.162 268.475 183.657 269.947C185.55 271.987 187.868 273.655 190.474 274.853C194.03 276.613 195.452 277.378 196.685 279.99C197.918 282.602 198.701 285.334 202.613 288.733C206.525 292.132 212.926 294.459 222.208 294.197C230.234 293.979 232.878 291.246 233.553 290.503C234.488 289.239 235.06 287.776 235.213 286.252L183.87 265.466Z" fill="#263238"/>
<path d="M186.716 252.232C186.862 253.035 186.965 253.845 187.024 254.658C187.15 255.764 187.666 256.8 188.494 257.609C191.137 260.275 196.033 261.259 197.978 261.467C198.407 260.354 199.292 259.44 200.443 258.92C204.106 256.997 208.303 256.112 209.488 256.647C210.674 257.183 212.594 263.401 216.471 268.253C220.347 273.106 223.998 275.16 229.048 278.242C232.166 280.144 237.453 283.335 234.513 287.641C233.008 289.903 225.208 293.105 213.744 290.668C203.573 288.482 199.945 282.395 198.025 278.362C196.105 274.33 193.283 273.28 188.541 270.297C186.479 268.986 184.795 268.111 183.799 265.466C183.586 262.188 185.222 258.122 185.506 255.795C185.779 253.904 185.542 252.549 186.716 252.232Z" fill="#37474F"/>
<path d="M197.942 261.466C198.499 261.485 199.036 261.662 199.479 261.973C199.923 262.284 200.251 262.714 200.42 263.204C201.034 264.354 201.727 265.468 202.494 266.537C205.928 271.347 210.029 275.723 214.693 279.553C209.097 276.526 205.399 272.034 202.056 267.095C201.242 265.918 200.533 264.682 199.934 263.401C199.846 262.933 199.61 262.5 199.255 262.156C198.901 261.811 198.444 261.572 197.942 261.466Z" fill="#263238"/>
<path d="M212.476 278.614C214.74 275.007 219.802 273.335 222.327 273.936L222.92 274.362C222.605 273.707 222.051 273.173 221.355 272.854C220.098 272.209 214.396 272.57 211.326 277.553C211.255 278.384 212.049 279.269 212.476 278.614Z" fill="#FAFAFA"/>
<path d="M207.675 275.105C209.607 271.641 215.558 269.75 218.119 270.209L218.557 270.668C218.499 270.329 218.345 270.009 218.11 269.742C217.874 269.475 217.567 269.271 217.218 269.149C215.925 268.57 208.979 269.63 206.465 274.111C206.394 274.854 207.307 275.739 207.675 275.105Z" fill="#FAFAFA"/>
<path d="M204.166 270.92C205.553 267.969 212.464 265.455 214.941 266.122L215.345 266.756C215.312 266.427 215.209 266.107 215.043 265.814C214.876 265.522 214.648 265.262 214.372 265.051C213.187 264.264 205.742 265.761 203.028 269.838C202.945 270.625 203.727 271.553 204.166 270.92Z" fill="#FAFAFA"/>
<path d="M201.842 267.127C203.028 263.849 210.14 261.794 212.701 262.482L213.211 263.291C213.205 262.975 213.124 262.663 212.975 262.378C212.825 262.093 212.61 261.842 212.345 261.641C211.16 260.854 203.917 261.171 200.716 266.012C200.633 266.81 201.403 267.761 201.842 267.127Z" fill="#FAFAFA"/>
<path d="M170.771 127.055L165.377 122.104L100.295 129.94C100.189 135.798 102.761 148.126 105.31 154.388C107.681 160.125 110.609 166.256 125.368 173.524C140.127 180.791 157.79 188.168 161.347 190.037C166.503 192.714 168.459 193.916 168.839 202.386C169.147 209.49 173.794 222.265 176.793 229.904L183.503 247.051C186.158 250.264 201.984 249.685 206.027 245.062C206.027 245.062 200.218 194.211 198.333 185.272C197.266 180.278 196.235 175.786 189.738 170.147C184.179 165.305 162.603 148.344 162.603 148.344C167.552 142.15 170.394 134.74 170.771 127.055Z" fill="#455A64"/>
<path d="M112.494 134.837C111.794 147.295 111.308 154.803 129.813 163.492C135.373 166.103 141.146 168.595 146.73 170.999C163.327 178.136 174.577 185.884 175.442 191.556C175.786 193.742 175.975 196.299 176.201 199.283C176.904 207.898 178.516 216.43 181.014 224.757C183.491 233.227 185.566 239.314 187.38 244.986C186.799 244.932 186.194 244.855 185.72 244.768C183.906 239.096 181.938 233.314 179.544 225.096C177.02 216.68 175.392 208.056 174.683 199.348C174.458 196.387 174.268 193.884 173.936 191.698C173.178 186.78 160.896 178.584 146.078 172.213C140.483 169.808 134.698 167.317 129.126 164.683C109.803 155.59 110.265 147.284 110.965 134.706C111.036 133.514 111.095 132.279 111.154 131.001L112.695 130.728C112.636 132.181 112.565 133.536 112.494 134.837Z" fill="#37474F"/>
<path d="M123.981 161.787C124.218 161.634 129.647 157.874 127.134 148.803C124.384 138.913 124.657 134.279 125.344 127.536L123.827 127.405C122.819 134.693 123.441 142.095 125.652 149.153C127.917 157.306 123.139 160.617 123.092 160.65L123.981 161.787Z" fill="#37474F"/>
<path d="M205.849 239.369C203.608 242.844 189.691 246.297 181.891 243.183L184.202 249.456C190.13 252.734 201.178 251.641 206.513 246.483L205.849 239.369Z" fill="#37474F"/>
<path d="M141.466 55.7246C145.781 55.3064 150.14 55.8869 154.149 57.4135C158.159 58.9401 161.692 61.3646 164.429 64.4675C170.498 71.0247 179.84 80.3905 187.735 89.8L214.503 83.3194L218.249 96.6632C218.249 96.6632 195.18 105.166 187.059 107.592C180.966 109.45 177.765 107.373 172.763 103.559C166.207 98.5866 152.752 86.4777 152.752 86.4777L141.466 55.7246Z" fill="#FFBE9D"/>
<path d="M141.822 55.4401C148.129 54.8281 152.705 55.8444 156.818 58.205C160.932 60.5656 163.291 62.4562 171.862 71.8986L176.876 77.0241C176.876 77.0241 173.806 84.532 168.578 88.8379C163.35 93.1438 160.019 94.1711 160.019 94.1711L147.263 83.2425L141.822 55.4401Z" fill="#5E8EFF"/>
<path d="M126.814 57.3416C117.473 58.7842 113.086 60.041 101.801 64.2595C99.4299 66.773 97.059 76.9039 97.7466 87.3625C98.7779 103.187 96.5611 110.16 99.1217 129.318C99.8882 136.038 101.172 142.699 102.963 149.251C124.123 153.164 170.736 139.153 171.648 125.58C168.234 121.689 166.314 110.651 162.615 82.084C160.434 65.2649 148.994 54.9483 141.822 55.3854C138.278 55.6259 132.813 56.4127 126.814 57.3416Z" fill="#263238"/>
<path d="M149.16 23.6051C150.872 22.3701 152.117 20.668 152.717 18.7419C153.401 16.6157 153.559 14.3748 153.179 12.1847C153.033 11.4195 152.753 10.6812 152.349 9.999C151.998 9.63618 151.564 9.34989 151.078 9.16087C150.592 8.97186 150.066 8.88485 149.54 8.90614L147.56 8.80778C148.739 7.62745 149.65 6.24143 150.239 4.73141C150.593 3.56719 150.572 2.33325 150.18 1.17961C150.094 0.864696 149.923 0.575094 149.682 0.338104C149.353 0.137795 148.972 0.022066 148.578 0.00285523C148.184 -0.0163556 147.792 0.0616407 147.441 0.228812C142.933 1.5752 138.215 2.22872 133.477 2.16318C129.73 2.22875 127.834 1.93368 122.677 1.83532C117.52 1.73696 108.558 4.50191 107.681 13.518C100.888 15.0043 100.888 25.2553 103.164 29.4301C107.396 37.0801 111.261 42.1291 113.537 47.7136C113.869 47.4514 135.895 33.6595 140.898 29.8672L146.517 25.5941C147.418 24.9056 148.307 24.2827 149.16 23.6051Z" fill="#263238"/>
<path d="M106.4 42.3256C110.704 44.872 113.158 42.0087 113.158 42.0087L114.414 60.1174C123.649 69.7236 146.422 66.6199 135.752 57.0027L135.504 53.5384C137.603 53.5039 139.695 53.288 141.751 52.8936C143.024 52.6003 144.229 52.0967 145.307 51.4073C147.671 49.8671 149.291 47.5386 149.824 44.9157C150.826 40.3433 151.129 35.6643 150.725 31.0145C150.334 25.43 149.184 18.2498 146.908 14.6215C143.055 11.9003 132.243 12.2938 123.341 15.2554C123.341 17.3537 123.696 19.1679 122.048 21.5831C121.197 22.7146 120.073 23.6496 118.765 24.3152C118.824 28.3916 118.765 29.4954 118.042 31.3423C117.674 32.4352 116.856 34.0089 114.592 33.3969C113.501 33.1128 112.565 31.0035 111.367 29.6375C109.755 27.8015 105.061 27.1785 103.129 31.4953C102.301 33.3803 102.173 35.4649 102.765 37.4239C103.357 39.3829 104.635 41.1064 106.4 42.3256Z" fill="#FFBE9D"/>
<path d="M135.563 53.5063C130.94 53.3642 122.653 52.2823 120.152 49.8452C117.65 47.4082 115.327 41.5723 115.327 41.5723C115.327 41.5723 116.726 48.2059 118.729 51.0037C120.733 53.8014 124.787 54.7194 127.739 55.3751C130.401 55.8122 133.096 56.0497 135.8 56.0855L135.563 53.5063Z" fill="#E19872"/>
<path d="M131.307 25.9876L126.565 25.4521C126.66 24.8604 126.999 24.3252 127.511 23.9585C128.024 23.5919 128.67 23.4222 129.316 23.485C129.625 23.5276 129.923 23.6263 130.19 23.7755C130.458 23.9246 130.692 24.1211 130.877 24.3538C131.062 24.5865 131.195 24.8507 131.269 25.1311C131.343 25.4115 131.356 25.7026 131.307 25.9876Z" fill="#263238"/>
<path d="M142.142 22.3155L146.718 23.6269C146.895 23.0531 146.824 22.4386 146.522 21.9113C146.219 21.3841 145.708 20.9847 145.094 20.7964C144.792 20.715 144.475 20.6898 144.163 20.7223C143.85 20.7548 143.548 20.8443 143.273 20.9857C142.998 21.1271 142.757 21.3175 142.562 21.5458C142.368 21.7741 142.225 22.0357 142.142 22.3155Z" fill="#263238"/>
<path d="M131.485 40.7852L136.606 42.2387C136.375 42.873 135.887 43.4007 135.245 43.7121C134.602 44.0235 133.854 44.0946 133.156 43.9107C132.82 43.8124 132.508 43.6524 132.24 43.4403C131.973 43.2281 131.754 42.9683 131.598 42.6764C131.442 42.3844 131.351 42.0664 131.332 41.7414C131.313 41.4164 131.365 41.0912 131.485 40.7852Z" fill="#874C4C"/>
<path d="M131.71 41.7355C132.392 41.6929 133.065 41.8976 133.585 42.3059C134.106 42.7143 134.433 43.2939 134.496 43.9212C134.056 44.0191 133.597 44.0191 133.156 43.9212C132.658 43.7772 132.218 43.4977 131.894 43.1195C131.571 42.7412 131.378 42.2817 131.343 41.8011L131.71 41.7355Z" fill="#FFA8A7"/>
<path d="M134.875 25.3096L137.282 38.4239L144.489 35.0907L134.875 25.3096Z" fill="#E19872"/>
<path d="M127.632 30.304C127.651 30.6627 127.786 31.0079 128.018 31.2961C128.25 31.5843 128.57 31.8025 128.937 31.923C129.304 32.0435 129.701 32.0609 130.079 31.973C130.457 31.8852 130.798 31.696 131.059 31.4294C131.319 31.1628 131.489 30.8308 131.545 30.4755C131.601 30.1202 131.541 29.7575 131.374 29.4334C131.206 29.1092 130.938 28.8383 130.603 28.6548C130.268 28.4712 129.882 28.3834 129.493 28.4025C129.235 28.4136 128.982 28.4718 128.749 28.5736C128.515 28.6754 128.306 28.8189 128.133 28.9957C127.96 29.1725 127.826 29.3791 127.74 29.6037C127.655 29.8282 127.618 30.0663 127.632 30.304Z" fill="#263238"/>
<path d="M142.522 28.8948C142.543 29.2502 142.678 29.5918 142.91 29.8766C143.142 30.1613 143.46 30.3765 143.824 30.4949C144.188 30.6134 144.582 30.6298 144.956 30.5421C145.33 30.4545 145.668 30.2667 145.927 30.0024C146.185 29.7381 146.353 29.4092 146.41 29.057C146.466 28.7048 146.408 28.3452 146.243 28.0234C146.078 27.7016 145.813 27.432 145.482 27.2487C145.151 27.0654 144.768 26.9765 144.383 26.9932C144.125 27.0044 143.872 27.0626 143.638 27.1644C143.405 27.2662 143.195 27.4096 143.022 27.5864C142.849 27.7632 142.716 27.9699 142.63 28.1944C142.544 28.419 142.507 28.657 142.522 28.8948Z" fill="#263238"/>
<path d="M233.304 58.5655L231.502 57.4727C231.238 57.3497 230.945 57.2856 230.649 57.2856C230.352 57.2856 230.06 57.3497 229.795 57.4727L183.325 75.035C182.462 75.402 181.697 75.9384 181.083 76.6067C180.468 77.2749 180.02 78.0589 179.769 78.9037L171.471 114.192C171.355 114.487 171.337 114.806 171.42 115.11C171.502 115.413 171.681 115.688 171.933 115.897L173.794 117.045C174.059 117.174 174.354 117.241 174.653 117.241C174.953 117.241 175.248 117.174 175.513 117.045L221.995 99.4823C222.855 99.1116 223.618 98.574 224.232 97.9063C224.846 97.2386 225.296 96.4565 225.551 95.6136C227.164 88.6739 232.178 67.2647 233.79 60.3251C234.063 59.4508 233.826 58.8388 233.304 58.5655Z" fill="#455A64"/>
<path d="M183.361 77.2969C182.533 78.0454 181.94 78.9853 181.642 80.0181L173.344 115.285C173.235 115.572 173.215 115.882 173.286 116.179C173.357 116.476 173.517 116.749 173.747 116.968L172.004 115.875C171.748 115.67 171.566 115.399 171.481 115.096C171.396 114.793 171.413 114.474 171.53 114.181L179.828 78.8925C180.099 77.9231 180.643 77.0371 181.405 76.3242L183.361 77.2969Z" fill="#263238"/>
<path d="M173.403 115.318L181.642 80.029C181.897 79.1861 182.347 78.404 182.961 77.7363C183.575 77.0686 184.338 76.531 185.198 76.1603L231.645 58.6089C233.233 58.0079 234.217 58.7729 233.861 60.3138C232.249 67.2535 227.235 88.6626 225.622 95.6023C225.367 96.4452 224.917 97.2273 224.303 97.8951C223.689 98.5628 222.926 99.1004 222.066 99.4711L175.572 117.033C174.031 117.623 173.035 116.858 173.403 115.318Z" fill="#37474F"/>
<path d="M185.163 76.2044L196.01 72.2592L206.809 68.2265L228.42 60.1612L231.111 59.1339C231.527 58.9491 231.964 58.8098 232.415 58.7186C232.603 58.6776 232.8 58.6866 232.982 58.7446C233.165 58.8027 233.326 58.9073 233.447 59.0464C233.909 59.6475 233.506 60.5983 233.34 61.4617L232.735 64.0845L230.364 74.5979L227.993 85.1112L225.682 95.6464L228.278 85.1659L230.779 74.6744L233.281 64.1829L233.909 61.56C234.016 61.112 234.122 60.6967 234.217 60.2377C234.341 59.7298 234.248 59.1974 233.956 58.7514C233.777 58.537 233.538 58.3724 233.264 58.276C232.989 58.1795 232.692 58.1549 232.403 58.2049C231.903 58.2944 231.417 58.4412 230.957 58.6421L228.254 59.6584L206.714 67.8877L195.95 72.0078L185.163 76.2044Z" fill="#455A64"/>
<path d="M182.602 87.1331L184.155 80.5759C184.199 80.4186 184.28 80.2722 184.393 80.1475C184.505 80.0227 184.647 79.9226 184.807 79.8546L188.008 78.6525C188.304 78.5432 188.494 78.6525 188.423 78.9694C188.126 80.2699 187.237 84.2807 186.882 85.5266C186.833 85.6834 186.748 85.8288 186.634 85.9532C186.52 86.0776 186.378 86.1781 186.218 86.2479L183.017 87.45C182.685 87.5593 182.543 87.4172 182.602 87.1331Z" fill="#455A64"/>
<path d="M184.511 82.0184C184.638 81.6267 184.853 81.2644 185.143 80.9555C185.434 80.6465 185.792 80.3978 186.194 80.2261C186.965 79.9419 187.451 80.2807 187.285 80.9801C187.161 81.3733 186.947 81.7372 186.656 82.0466C186.366 82.356 186.006 82.6037 185.601 82.7724C184.831 83.0566 184.345 82.7615 184.511 82.0184Z" fill="#263238"/>
<path d="M183.776 85.3515C183.9 84.9587 184.114 84.5952 184.405 84.2858C184.695 83.9765 185.055 83.7287 185.459 83.5593C186.229 83.2642 186.716 83.5593 186.55 84.3024C186.428 84.6962 186.214 85.0607 185.923 85.3703C185.632 85.6799 185.272 85.9271 184.866 86.0947C184.096 86.3898 183.61 86.04 183.776 85.3515Z" fill="#263238"/>
<path d="M232.261 81.1332C233.767 78.9475 233.601 78.6961 232.664 77.6689C231.959 76.8543 231.054 76.2064 230.023 75.7787C228.992 75.3511 227.866 75.1561 226.737 75.2099C224.745 75.3629 222.73 75.4176 221.734 75.9531C220.738 76.4886 221.734 78.4448 224.354 78.8601C228.491 79.5049 228.527 80.5322 228.527 80.5322C226.761 80.249 224.981 80.052 223.192 79.942C221.188 80.1563 219.205 80.5218 217.265 81.0349C215.546 81.3628 215.321 83.4392 218.296 83.9965L215.155 84.6195C212.962 85.0566 212.262 86.1713 214.076 87.3516C214.667 87.7594 215.389 87.9712 216.127 87.9527C216.127 87.9527 213.756 88.062 213.756 88.7942C213.756 90.8706 215.226 91.3406 220.063 92.3897C224.674 93.3842 225.741 95.5918 224.923 97.1983C224.923 97.1983 226.701 96.1054 228.266 95.0126C229.452 94.2039 230.388 93.2968 229.748 91.6028C229.748 91.6028 232.344 91.5264 232.427 90.0401C232.401 88.9491 232.122 87.876 231.609 86.8926C232.064 86.6295 232.427 86.2519 232.656 85.8046C232.885 85.3572 232.97 84.8587 232.901 84.3681C232.856 83.4277 232.472 82.528 231.811 81.8108L232.261 81.1332Z" fill="#FFBE9D"/>
<path d="M218.249 84.0288C219.18 83.8011 220.133 83.6583 221.094 83.6025C222.072 83.6941 223.028 83.9264 223.927 84.291C225.711 84.8813 227.437 85.6126 229.084 86.4768C227.227 86.1168 225.407 85.6123 223.643 84.9686C222.805 84.6277 221.937 84.357 221.047 84.1599C220.157 84.1162 219.162 84.149 218.249 84.0288Z" fill="#C48767"/>
<path d="M216.056 87.9855C217.05 87.6712 218.113 87.5885 219.15 87.7451C220.175 87.9002 221.183 88.1416 222.161 88.4664C224.1 89.0863 225.964 89.8921 227.721 90.8707C225.747 90.4058 223.8 89.8477 221.888 89.1986C220.044 88.4613 218.065 88.0498 216.056 87.9855Z" fill="#C48767"/>
<path d="M135.598 93.1763C139.333 90.2583 141.241 89.0999 143.043 88.5206C144.845 87.9414 151.092 85.1109 153.511 84.4006C155.052 83.9525 155.882 86.2038 153.949 87.8977C152.503 89.1873 148.639 91.0124 146.943 91.996C145.248 92.9796 142.095 97.0122 142.095 97.0122L135.598 93.1763Z" fill="#E19872"/>
<path d="M85.4771 77.6358C88.8438 69.7672 92.1512 67.4175 100.888 64.7837C110.289 72.237 105.025 92.903 105.025 92.903L99.3944 114.673C99.3944 114.673 118.362 108.651 120.946 106.935C123.53 105.22 130.145 97.7553 132.386 95.504C135.444 92.444 137.128 92.7282 138.752 92.8702C144.217 93.3074 145.426 93.6571 146.623 94.2582C146.976 94.4577 147.269 94.7351 147.476 95.0652C147.682 95.3953 147.797 95.7677 147.809 96.1488C149.255 96.2253 151.365 96.0614 151.827 98.2253C151.98 98.7933 152.048 99.3779 152.029 99.9629C152.395 100 152.735 100.155 152.989 100.4C154.281 101.613 152.527 106.149 151.294 107.296C150.429 108.116 149.136 108.28 147.406 108.159C145.936 108.061 146.517 106.662 146.517 106.662L144.489 106.892C140.281 110.017 140.447 115.744 134.709 117.339C132.32 117.702 129.972 118.262 127.691 119.012C115.422 123.612 99.7382 136.497 88.6304 138.071C77.7953 139.557 76.3964 133.7 76.4675 127.547C76.6216 117.733 82.0985 85.4825 85.4771 77.6358Z" fill="#FFBE9D"/>
<path d="M100.141 111.941L99.4299 114.673C94.5458 116.138 89.4127 119.733 88.3932 122.323C89.0334 118.29 91.5466 114.597 100.141 111.941Z" fill="#E19872"/>
<path d="M147.844 96.149L140.945 95.9414L147.655 95.3403C147.768 95.5977 147.832 95.8714 147.844 96.149Z" fill="#C48767"/>
<path d="M152.064 99.9633L144.608 99.5043L152.017 99.1655C152.063 99.4292 152.079 99.6966 152.064 99.9633Z" fill="#C48767"/>
<path d="M151.294 103.024C151.072 103.385 150.743 103.681 150.346 103.876C149.977 104.084 149.578 104.243 149.16 104.346L149.255 104.281C149.077 104.641 148.887 105.002 148.698 105.374L148.532 105.199C148.734 105.157 148.944 105.154 149.148 105.189C149.352 105.225 149.546 105.299 149.717 105.406C150.04 105.617 150.284 105.915 150.417 106.259C150.22 105.968 149.947 105.727 149.622 105.559C149.308 105.413 148.948 105.37 148.603 105.439L148.318 105.516L148.437 105.275C148.615 104.904 148.793 104.543 148.982 104.182H149.042C149.449 104.091 149.847 103.963 150.227 103.8C150.643 103.621 151.008 103.355 151.294 103.024Z" fill="#AF6152"/>
<path d="M149.385 104.007C148.504 104.166 147.614 104.276 146.718 104.335C146.609 104.855 146.337 105.334 145.936 105.712C145.507 106.134 145.052 106.531 144.572 106.903L146.6 106.674C146.856 106.325 147.189 106.029 147.577 105.805C147.965 105.581 148.399 105.434 148.852 105.373L149.385 104.007Z" fill="#C48767"/>
<path d="M101.801 64.2598C95.5772 66.0521 91.2384 67.7241 88.3577 71.3962C85.477 75.0682 84.4931 78.8822 82.5015 85.8328C80.5099 92.7834 79.4786 99.0674 79.4786 99.0674C79.4786 99.0674 81.3161 102.269 88.6896 103.887C93.4145 104.845 98.3089 104.845 103.034 103.887C103.034 103.887 106.116 92.084 107.124 87.7126C108.131 83.3411 109.72 70.2924 101.801 64.2598Z" fill="#5E8EFF"/>
<path d="M699.97 254.192C699.97 254.192 714.594 156.064 697.142 154.341C679.689 152.618 675.47 153.688 682.214 252.311L699.97 254.192Z" fill="#F5F5F5"/>
<path d="M720.475 243.111H663.052L667.847 269H715.681L720.475 243.111Z" fill="#F5F5F5"/>
<path d="M689.484 192.159C689.484 192.159 672.492 193.24 671.98 192.159C671.467 191.079 671.467 167.669 664.261 169.06C657.054 170.451 660.213 198.605 664.261 201.883C668.308 205.162 689.484 207 689.484 207C689.484 207 692.251 196.543 689.484 192.159Z" fill="#F5F5F5"/>
<path d="M705.721 213.577C705.721 213.577 714.308 215.204 717.977 213.577C721.645 211.949 720.27 188.259 724.021 187.8C732.637 186.667 731.164 218.11 727.495 224.729C723.827 231.348 704.943 228.539 704.943 228.539L705.721 213.577Z" fill="#6A8EF3"/>
<path opacity="0.2" d="M705.721 213.577C705.721 213.577 714.308 215.204 717.977 213.577C721.645 211.949 720.27 188.259 724.021 187.8C732.637 186.667 731.164 218.11 727.495 224.729C723.827 231.348 704.943 228.539 704.943 228.539L705.721 213.577Z" fill="white"/>
<path d="M705.012 257.269C705.012 257.269 717.727 152.21 702.553 150.365C687.379 148.521 683.71 149.666 689.574 255.255L705.012 257.269Z" fill="#6A8EF3"/>
<path opacity="0.3" d="M705.012 257.269C705.012 257.269 717.727 152.21 702.553 150.365C687.379 148.521 683.71 149.666 689.574 255.255L705.012 257.269Z" fill="white"/>
<path d="M722.84 245.405H672.913L677.082 273.123H718.672L722.84 245.405Z" fill="#263238"/>
<path d="M689.935 192.14C689.935 192.14 676.109 193.189 675.692 192.14C675.276 191.091 675.276 168.365 669.412 169.716C663.548 171.066 666.118 198.398 669.412 201.58C672.705 204.763 689.935 206.548 689.935 206.548C689.935 206.548 692.187 196.396 689.935 192.14Z" fill="#6A8EF3"/>
<path opacity="0.4" d="M689.935 192.14C689.935 192.14 676.109 193.189 675.692 192.14C675.276 191.091 675.276 168.365 669.412 169.716C663.548 171.066 666.118 198.398 669.412 201.58C672.705 204.763 689.935 206.548 689.935 206.548C689.935 206.548 692.187 196.396 689.935 192.14Z" fill="white"/>
<path d="M698.704 242.609C699.713 235.013 700.64 227.41 701.483 219.798C702.326 212.186 703.025 204.551 703.581 196.891C704.165 189.259 704.568 181.616 704.679 173.984C704.679 170.15 704.679 166.316 704.429 162.482C704.307 160.551 704.061 158.627 703.692 156.719C703.505 155.737 703.212 154.772 702.817 153.838C702.604 153.32 702.289 152.839 701.886 152.415C701.752 152.294 701.608 152.181 701.455 152.077C701.242 151.963 701.006 151.886 700.76 151.848C700.515 151.839 700.272 151.879 700.048 151.965C699.824 152.051 699.625 152.18 699.468 152.343C698.775 153.212 698.301 154.198 698.078 155.236C697.8 156.189 697.578 157.141 697.397 158.094C697.036 159.986 696.758 161.903 696.536 163.808C696.077 167.618 695.758 171.44 695.494 175.262C694.984 182.906 694.637 190.541 694.452 198.169C694.266 205.797 694.155 213.432 694.118 221.076C694.118 228.72 694.174 236.355 694.285 243.983C694.396 236.339 694.567 228.704 694.799 221.076C694.98 213.432 695.202 205.788 695.521 198.169C695.841 190.549 696.175 182.893 696.744 175.262C697.036 171.452 697.37 167.642 697.856 163.857C698.092 161.964 698.37 160.083 698.745 158.214C698.926 157.286 699.148 156.357 699.412 155.453C699.596 154.596 699.968 153.777 700.51 153.042C700.621 152.909 700.677 152.946 700.635 152.921L700.802 153.054C701.097 153.378 701.331 153.74 701.497 154.127C701.863 154.987 702.133 155.875 702.303 156.779C702.673 158.639 702.924 160.514 703.053 162.398C703.331 166.195 703.386 170.005 703.359 173.815C703.359 181.447 702.886 189.078 702.455 196.722C702.025 204.366 701.413 211.973 700.76 219.629C700.107 227.285 699.482 235.001 698.704 242.609Z" fill="#6A8EF3"/>
<path d="M688.199 197.53C686.406 197.385 684.627 197.277 682.849 197.108C681.07 196.939 679.305 196.794 677.555 196.541C676.698 196.415 675.849 196.25 675.012 196.047C674.234 195.902 673.303 195.42 673.622 195.348C673.696 194.545 673.696 193.739 673.622 192.936C673.622 192.153 673.511 191.381 673.428 190.597C673.108 187.499 672.691 184.412 672.135 181.338C671.647 178.255 670.97 175.196 670.107 172.175C670.301 173.719 670.454 175.262 670.593 176.817L671.079 181.447L672.052 190.706C672.237 192.204 672.33 193.709 672.33 195.215V195.384C672.323 195.488 672.323 195.593 672.33 195.697C672.378 195.88 672.479 196.05 672.622 196.192C672.816 196.404 673.069 196.57 673.358 196.674C673.801 196.864 674.267 197.01 674.748 197.108C675.662 197.296 676.591 197.425 677.527 197.494C681.077 197.759 684.646 197.772 688.199 197.53Z" fill="#6A8EF3"/>
<path d="M688.199 202.774L682.293 201.641C680.334 201.279 678.361 200.917 676.415 200.507C674.496 200.151 672.607 199.684 670.76 199.109C670.634 199.064 670.517 199.003 670.412 198.928C670.317 198.784 670.243 198.63 670.19 198.47C670.04 198.076 669.924 197.673 669.842 197.264C669.662 196.432 669.537 195.576 669.426 194.72C668.953 191.284 668.731 187.8 668.439 184.316L668.036 179.095L667.578 173.875C667.341 177.371 667.313 180.868 667.369 184.364C667.425 187.86 667.605 191.357 668.036 194.853C668.161 195.733 668.3 196.613 668.509 197.493C668.61 197.948 668.75 198.395 668.925 198.832C669.019 199.092 669.155 199.34 669.328 199.567C669.554 199.817 669.858 200.006 670.204 200.11C672.155 200.695 674.165 201.123 676.207 201.388C680.181 202.015 684.183 202.485 688.199 202.774Z" fill="#6A8EF3"/>
<path d="M710.001 217.965C713.564 218.116 717.132 217.757 720.561 216.904C721.018 216.77 721.456 216.592 721.867 216.374C722.126 216.248 722.345 216.07 722.507 215.855C722.659 215.674 722.781 215.475 722.868 215.265C723.206 214.516 723.457 213.741 723.618 212.95C723.929 211.429 724.152 209.896 724.285 208.356C724.563 205.294 724.674 202.232 724.647 199.181C724.619 196.131 724.522 193.069 724.202 190.019L723.855 194.588L723.577 199.157C723.354 202.195 723.201 205.185 722.91 208.26C722.771 209.767 722.604 211.274 722.326 212.745C722.208 213.461 722.017 214.167 721.756 214.855C721.694 215.006 721.615 215.151 721.52 215.289C721.445 215.39 721.346 215.477 721.228 215.542C720.894 215.737 720.541 215.906 720.172 216.048C718.568 216.602 716.9 217.006 715.198 217.254C713.488 217.543 711.738 217.748 710.001 217.965Z" fill="#6A8EF3"/>
<path d="M726.759 192.876C726.564 194.66 726.439 196.493 726.259 198.217L725.842 203.57C725.55 207.187 725.314 210.683 724.994 214.228C724.827 216 724.661 217.784 724.397 219.521C724.302 220.362 724.116 221.193 723.841 222.004C723.618 222.703 722.799 223.101 721.937 223.487C720.059 224.137 718.101 224.594 716.101 224.849C714.086 225.187 712.043 225.392 710.001 225.597C714.168 225.812 718.346 225.404 722.354 224.391C722.876 224.208 723.374 223.977 723.841 223.704C724.354 223.419 724.744 222.995 724.952 222.498C725.308 221.611 725.555 220.694 725.689 219.762C726.022 217.965 726.189 216.145 726.37 214.397C726.675 210.78 726.856 207.247 726.912 203.678C726.967 200.11 726.925 196.457 726.759 192.876Z" fill="#6A8EF3"/>
</svg>
