<svg width="225" height="295" viewBox="0 0 225 295" fill="none" xmlns="http://www.w3.org/2000/svg">
<path d="M109.546 260C53.1317 254.061 16.3137 227.929 8 197.64C8 164.183 60.5277 143 117.266 143C174.004 143 220 170.122 220 203.579C220 237.035 166.285 260 109.546 260Z" fill="#F5F5F5"/>
<path d="M52.8479 52.7627C31.2607 64.2486 1.9042e-05 91.439 1.9042e-05 140.487C1.9042e-05 189.534 25.1911 226.003 73.3446 242.319C99.1047 251.062 140.383 251.489 166.925 242.757C193.965 230.003 212.186 216.878 222.108 193.064C232.327 165.393 214.071 136.454 189.176 119.919C164.281 103.384 167.281 84.5321 149.7 64.9699C140.217 54.4457 126.335 45.4405 109.395 43.7028C90.7828 41.7903 69.3377 44.0088 52.8479 52.7627Z" fill="#5E8EFF"/>
<path opacity="0.6" d="M52.8479 52.7627C31.2607 64.2486 1.9042e-05 91.439 1.9042e-05 140.487C1.9042e-05 189.534 25.1911 226.003 73.3446 242.319C99.1047 251.062 140.383 251.489 166.925 242.757C193.965 230.003 212.186 216.878 222.108 193.064C232.327 165.393 214.071 136.454 189.176 119.919C164.281 103.384 167.281 84.5321 149.7 64.9699C140.217 54.4457 126.335 45.4405 109.395 43.7028C90.7828 41.7903 69.3377 44.0088 52.8479 52.7627Z" fill="white"/>
<path opacity="0.3" d="M63.6476 163.207C63.6476 163.207 58.9057 158.125 55.4086 147.35C49.6117 129.405 49.4813 96.0947 55.6339 79.21C64.5367 54.7408 101.772 53.5824 101.772 53.5824C101.772 53.5824 127.129 51.0579 141.035 84.3464C154.94 117.635 158.046 126.585 174.062 134.76C180.676 138.126 188.512 139.612 194.641 143.656C198.055 145.867 200.911 148.729 203.017 152.049C205.123 155.369 206.429 159.067 206.845 162.894C207.261 166.72 206.778 170.585 205.429 174.224C204.08 177.863 201.897 181.191 199.027 183.983C194.606 188.288 188.453 191.501 186.201 197.097C184.588 201.108 185.359 205.567 186.141 209.785C187.256 215.73 188.374 221.675 189.496 227.621C189.65 228.484 189.816 229.358 189.935 230.243C182.594 234.915 174.905 239.104 166.925 242.779C161.784 244.434 156.513 245.724 151.158 246.636C150.257 240.254 149.036 233.905 147.507 227.631C146.95 225.446 146.025 222.801 143.654 222.167C140.94 221.38 138.308 223.664 136.992 225.992C135.19 229.172 132.843 231.577 128.694 232.211C123.217 233.041 118.985 229.697 115.891 225.916C110.912 219.839 112.773 211.479 114.99 204.769C115.998 201.731 116.685 198.452 115.784 195.392C113.876 188.955 102.661 186.518 96.8761 184.125C88.4712 180.649 80.0544 177.152 71.4954 173.994C46.1383 164.617 30.6917 171.371 30.6917 171.371C30.6917 171.371 45.3322 159.885 63.6476 163.207Z" fill="#5E8EFF"/>
<path opacity="0.3" d="M155.367 245.784C124.545 249.063 92.2884 242.112 66.9787 226.244C28.2378 201.938 11.4635 163.415 19.7617 117.766C27.0879 77.4505 48.9478 55.2544 70.9026 46.0635C66.0282 47.238 61.2911 48.8523 56.76 50.883C38.9781 62.8389 23.1759 84.0841 17.13 117.362C8.65394 164.016 25.8194 203.403 65.485 228.276C85.1326 240.389 107.922 247.465 131.515 248.778C139.54 248.376 147.517 247.374 155.367 245.784Z" fill="#5E8EFF"/>
<path d="M137.976 186.868C134.799 188.245 131.847 185.534 128.492 187.021C126.148 188.034 124.333 189.861 123.442 192.102C123.093 193.268 122.545 194.374 121.818 195.381C120.775 196.474 119.708 197.567 118.677 198.758C116.994 200.529 115.184 202.194 113.259 203.741C108.624 207.61 107.095 213.839 107.427 219.424C107.593 222.353 108.968 223.282 110.319 225.926C111.244 227.73 113.058 229.926 115.429 229.948C117.799 229.97 119.744 228.287 121.071 226.67C122.695 224.681 122.458 223.675 123.502 221.435C124.545 219.194 126.074 215.97 128.243 214.659C130.054 213.478 131.795 212.208 133.459 210.856C136.621 208.488 139.723 206.08 142.765 203.632L143.69 202.889C146.725 200.703 159.978 194.977 159.978 194.977L151.241 175.655L137.976 186.868Z" fill="#C8856A"/>
<path d="M127.532 186.387C126.025 186.143 124.472 186.394 123.146 187.097C121.546 189.052 120.386 191.281 119.732 193.654C118.748 196.933 118.285 198.255 115.997 199.785C112.856 201.614 110.205 204.077 108.245 206.987C106.689 209.236 105.693 211.773 105.326 214.418C104.959 217.063 105.231 219.751 106.123 222.287C108.209 228.79 110.521 230.265 112.334 231.03C113.941 231.504 115.641 231.645 117.313 231.445L127.532 186.387Z" fill="#263238"/>
<path d="M139.256 185.797L137.976 186.89C137.226 187.411 136.521 187.985 135.866 188.605C133.234 191.294 133.649 197.261 133.827 198.867C134.392 198.784 134.97 198.815 135.521 198.958C136.072 199.102 136.582 199.354 137.016 199.698C139.102 201.053 142.481 203.698 142.196 204.78C141.912 205.862 134.171 209.873 130.247 214.036C126.323 218.2 125.79 220.495 124.45 224.735C123.502 227.763 120.633 232.779 115.879 231.205C113.39 230.407 107.403 225.741 107.51 215.796C107.593 206.987 114.374 203.02 117.894 200.638C121.415 198.255 121.877 195.731 123.822 191.25C124.675 189.294 125.185 187.731 127.568 186.42C130.709 185.589 133.851 186.354 136.162 186.125C138.023 185.906 138.711 184.89 139.256 185.797Z" fill="#37474F"/>
<path d="M133.827 198.846C133.953 199.303 133.899 199.788 133.673 200.212C133.396 200.603 133.047 200.947 132.642 201.228C131.883 201.807 131.16 202.376 130.425 202.966C128.943 204.124 127.497 205.305 126.098 206.529C124.699 207.747 123.373 209.035 122.127 210.386C120.88 211.749 119.799 213.233 118.902 214.812C119.494 213.082 120.4 211.456 121.581 210.004C122.736 208.532 124.038 207.164 125.47 205.917C126.886 204.669 128.382 203.501 129.951 202.419C130.721 201.884 131.539 201.327 132.322 200.868C132.728 200.65 133.099 200.382 133.424 200.07C133.695 199.711 133.837 199.283 133.827 198.846Z" fill="#263238"/>
<path d="M118.807 213.063C121.285 213.577 126.667 216.757 126.584 218.964L126.287 219.544C126.871 219.154 127.29 218.59 127.473 217.948C127.852 216.79 125.102 213.456 119.637 211.916C118.819 212.014 118.049 212.812 118.807 213.063Z" fill="#FAFAFA"/>
<path d="M121.889 209.436C124.391 209.818 129.417 212.616 129.476 214.812L129.133 215.217C129.448 215.116 129.727 214.936 129.936 214.696C130.146 214.457 130.278 214.167 130.318 213.862C130.614 212.692 128.137 209.49 122.612 208.233C121.842 208.441 121.166 209.261 121.889 209.436Z" fill="#FAFAFA"/>
<path d="M125.386 206.004C127.828 206.572 132.796 209.578 132.63 211.796L132.12 212.212C132.426 212.131 132.711 211.992 132.956 211.804C133.201 211.616 133.401 211.382 133.542 211.119C134.076 209.971 131.551 206.518 126.216 204.846C125.434 204.933 124.687 205.775 125.386 206.004Z" fill="#FAFAFA"/>
<path d="M128.54 203.195C130.911 203.763 136.305 206.932 136.127 209.14L135.605 209.555C136.25 209.362 136.789 208.947 137.111 208.397C137.632 207.238 134.74 203.719 129.381 202.047C128.599 202.135 127.84 202.976 128.54 203.195Z" fill="#FAFAFA"/>
<path d="M133.092 122.454C133.413 123.243 133.931 123.951 134.605 124.521C135.278 125.091 136.088 125.506 136.968 125.733C144.982 127.536 165.787 132.213 177.571 136.202C195.08 142.137 199.715 144.41 203.651 150.901C205.003 153.111 205.798 155.573 205.977 158.104C206.155 160.636 205.713 163.172 204.682 165.524C203.248 169.119 197.723 175.862 187.339 181.48C170.956 190.321 161.164 195.293 151.111 199.687C151.111 199.687 142.185 190.878 141.224 183.294L155.817 171.032L121.356 156.06L77.2686 119.132L133.092 122.454Z" fill="#455A64"/>
<path d="M156.434 168.879C160.975 171.76 164.122 176.158 165.206 181.141C165.799 183.698 166.64 188.288 167.304 192.069C161.377 195.064 156.268 197.479 151.111 199.719C151.111 199.719 142.184 190.911 141.224 183.327L155.817 171.065L153.814 170.19L156.434 168.879Z" fill="#37474F"/>
<path d="M121.356 156.049L130.84 129.022L134.396 135.077C133.673 142.159 132.511 144.913 130.958 148.246C130.958 148.246 148.041 160.147 149.925 161.229C157.038 165.305 158.022 164.748 162.041 162.082C164.14 160.661 166.579 159.726 169.151 159.357C171.724 158.988 174.356 159.196 176.824 159.961C166.866 159.306 164.424 163.109 155.77 171.021L121.308 156.049H121.356Z" fill="#37474F"/>
<path d="M151.87 254.177C151.158 257.04 148.87 261.04 149.795 264.712C150.104 265.979 150.682 267.177 151.496 268.237C152.31 269.297 153.344 270.197 154.537 270.887C155.802 271.514 156.957 272.313 157.963 273.259C158.994 274.548 160.037 275.86 161.116 277.149C162.835 279.215 164.222 280.253 165.621 282.515C169 287.979 175.84 290.963 182.372 291.968C185.61 292.539 188.941 292.502 192.163 291.859C194.475 291.378 197.451 290.11 198.032 287.783C198.612 285.455 197.131 283.149 195.566 281.466C193.657 279.39 190.824 278.187 188.512 276.635C185.95 274.855 183.689 272.733 181.803 270.341C179.799 267.74 173.753 262.232 171.667 252.702C170.718 248.33 168.027 229.479 168.027 229.479L144.093 230.713C144.093 230.713 152.593 251.314 151.87 254.177Z" fill="#FFBE9D"/>
<path d="M148.87 265.466C148.237 266.891 148.162 268.475 148.657 269.947C150.55 271.987 152.868 273.655 155.474 274.853C159.03 276.613 160.452 277.378 161.685 279.99C162.918 282.602 163.701 285.334 167.613 288.733C171.525 292.132 177.926 294.459 187.208 294.197C195.234 293.979 197.878 291.246 198.553 290.503C199.488 289.239 200.06 287.776 200.213 286.252L148.87 265.466Z" fill="#263238"/>
<path d="M151.716 252.232C151.862 253.035 151.965 253.845 152.024 254.658C152.15 255.764 152.666 256.8 153.494 257.609C156.137 260.275 161.033 261.259 162.978 261.467C163.407 260.354 164.292 259.44 165.443 258.92C169.106 256.997 173.303 256.112 174.488 256.647C175.674 257.183 177.594 263.401 181.471 268.253C185.347 273.106 188.998 275.16 194.048 278.242C197.166 280.144 202.453 283.335 199.513 287.641C198.008 289.903 190.208 293.105 178.744 290.668C168.573 288.482 164.945 282.395 163.025 278.362C161.105 274.33 158.283 273.28 153.541 270.297C151.479 268.986 149.795 268.111 148.799 265.466C148.586 262.188 150.222 258.122 150.506 255.795C150.779 253.904 150.542 252.549 151.716 252.232Z" fill="#37474F"/>
<path d="M162.942 261.466C163.499 261.485 164.036 261.662 164.479 261.973C164.923 262.284 165.251 262.714 165.42 263.204C166.034 264.354 166.727 265.468 167.494 266.537C170.928 271.347 175.029 275.723 179.693 279.553C174.097 276.526 170.399 272.034 167.056 267.095C166.242 265.918 165.533 264.682 164.934 263.401C164.846 262.933 164.61 262.5 164.255 262.156C163.901 261.811 163.444 261.572 162.942 261.466Z" fill="#263238"/>
<path d="M177.476 278.614C179.74 275.007 184.802 273.335 187.327 273.936L187.92 274.362C187.605 273.707 187.051 273.173 186.355 272.854C185.098 272.209 179.396 272.57 176.326 277.553C176.255 278.384 177.049 279.269 177.476 278.614Z" fill="#FAFAFA"/>
<path d="M172.675 275.105C174.607 271.641 180.558 269.75 183.119 270.209L183.557 270.668C183.499 270.329 183.345 270.009 183.11 269.742C182.874 269.475 182.567 269.271 182.218 269.149C180.925 268.57 173.979 269.63 171.465 274.111C171.394 274.854 172.307 275.739 172.675 275.105Z" fill="#FAFAFA"/>
<path d="M169.166 270.92C170.553 267.969 177.464 265.455 179.941 266.122L180.345 266.756C180.312 266.427 180.209 266.107 180.043 265.814C179.876 265.522 179.648 265.262 179.372 265.051C178.187 264.264 170.742 265.761 168.028 269.838C167.945 270.625 168.727 271.553 169.166 270.92Z" fill="#FAFAFA"/>
<path d="M166.842 267.127C168.028 263.849 175.14 261.794 177.701 262.482L178.211 263.291C178.205 262.975 178.124 262.663 177.975 262.378C177.825 262.093 177.61 261.842 177.345 261.641C176.16 260.854 168.917 261.171 165.716 266.012C165.633 266.81 166.403 267.761 166.842 267.127Z" fill="#FAFAFA"/>
<path d="M135.771 127.055L130.377 122.104L65.2953 129.94C65.1886 135.798 67.7611 148.126 70.3098 154.388C72.6808 160.125 75.6088 166.256 90.3678 173.524C105.127 180.791 122.79 188.168 126.347 190.037C131.503 192.714 133.459 193.916 133.839 202.386C134.147 209.49 138.794 222.265 141.793 229.904L148.503 247.051C151.158 250.264 166.984 249.685 171.027 245.062C171.027 245.062 165.218 194.211 163.333 185.272C162.266 180.278 161.235 175.786 154.738 170.147C149.179 165.305 127.603 148.344 127.603 148.344C132.552 142.15 135.394 134.74 135.771 127.055Z" fill="#455A64"/>
<path d="M77.4938 134.837C76.7944 147.295 76.3084 154.803 94.8134 163.492C100.373 166.103 106.146 168.595 111.73 170.999C128.327 178.136 139.577 185.884 140.442 191.556C140.786 193.742 140.975 196.299 141.201 199.283C141.904 207.898 143.516 216.43 146.014 224.757C148.491 233.227 150.566 239.314 152.38 244.986C151.799 244.932 151.194 244.855 150.72 244.768C148.906 239.096 146.938 233.314 144.544 225.096C142.02 216.68 140.392 208.056 139.683 199.348C139.458 196.387 139.268 193.884 138.936 191.698C138.178 186.78 125.896 178.584 111.078 172.213C105.483 169.808 99.6976 167.317 94.1259 164.683C74.8028 155.59 75.2652 147.284 75.9646 134.706C76.0357 133.514 76.095 132.279 76.1543 131.001L77.6954 130.728C77.6361 132.181 77.565 133.536 77.4938 134.837Z" fill="#37474F"/>
<path d="M88.9809 161.787C89.218 161.634 94.6474 157.874 92.1342 148.803C89.3839 138.913 89.6566 134.279 90.3441 127.536L88.8267 127.405C87.8194 134.693 88.4407 142.095 90.6524 149.153C92.9166 157.306 88.1392 160.617 88.0918 160.65L88.9809 161.787Z" fill="#37474F"/>
<path d="M170.849 239.369C168.608 242.844 154.691 246.297 146.891 243.183L149.202 249.456C155.13 252.734 166.178 251.641 171.513 246.483L170.849 239.369Z" fill="#37474F"/>
<path d="M106.466 55.7246C110.781 55.3064 115.14 55.8869 119.149 57.4135C123.159 58.9401 126.692 61.3646 129.429 64.4675C135.498 71.0247 144.84 80.3905 152.735 89.8L179.503 83.3194L183.249 96.6632C183.249 96.6632 160.18 105.166 152.059 107.592C145.966 109.45 142.765 107.373 137.763 103.559C131.207 98.5866 117.752 86.4777 117.752 86.4777L106.466 55.7246Z" fill="#FFBE9D"/>
<path d="M106.822 55.4401C113.129 54.8281 117.705 55.8444 121.818 58.205C125.932 60.5656 128.291 62.4562 136.862 71.8986L141.876 77.0241C141.876 77.0241 138.806 84.532 133.578 88.8379C128.35 93.1438 125.019 94.1711 125.019 94.1711L112.263 83.2425L106.822 55.4401Z" fill="#5E8EFF"/>
<path d="M91.8141 57.3416C82.4727 58.7842 78.0864 60.041 66.8008 64.2595C64.4299 66.773 62.059 76.9039 62.7466 87.3625C63.7779 103.187 61.5611 110.16 64.1217 129.318C64.8882 136.038 66.1717 142.699 67.9626 149.251C89.1231 153.164 135.736 139.153 136.648 125.58C133.234 121.689 131.314 110.651 127.615 82.084C125.434 65.2649 113.994 54.9483 106.822 55.3854C103.278 55.6259 97.8125 56.4127 91.8141 57.3416Z" fill="#263238"/>
<path d="M114.16 23.6051C115.872 22.3701 117.117 20.668 117.717 18.7419C118.401 16.6157 118.559 14.3748 118.179 12.1847C118.033 11.4195 117.753 10.6812 117.349 9.999C116.998 9.63618 116.564 9.34989 116.078 9.16087C115.592 8.97186 115.066 8.88485 114.54 8.90614L112.56 8.80778C113.739 7.62745 114.65 6.24143 115.239 4.73141C115.593 3.56719 115.572 2.33325 115.18 1.17961C115.094 0.864696 114.923 0.575094 114.682 0.338104C114.353 0.137795 113.972 0.022066 113.578 0.00285523C113.184 -0.0163556 112.792 0.0616407 112.441 0.228812C107.933 1.5752 103.215 2.22872 98.4765 2.16318C94.7305 2.22875 92.8338 1.93368 87.677 1.83532C82.5202 1.73696 73.5581 4.50191 72.6809 13.518C65.8882 15.0043 65.8882 25.2553 68.1643 29.4301C72.3964 37.0801 76.261 42.1291 78.5371 47.7136C78.869 47.4514 100.895 33.6595 105.898 29.8672L111.517 25.5941C112.418 24.9056 113.307 24.2827 114.16 23.6051Z" fill="#263238"/>
<path d="M71.4004 42.3256C75.7036 44.872 78.1575 42.0087 78.1575 42.0087L79.4141 60.1174C88.6489 69.7236 111.422 66.6199 100.752 57.0027L100.504 53.5384C102.603 53.5039 104.695 53.288 106.751 52.8936C108.024 52.6003 109.229 52.0967 110.307 51.4073C112.671 49.8671 114.291 47.5386 114.824 44.9157C115.826 40.3433 116.129 35.6643 115.725 31.0145C115.334 25.43 114.184 18.2498 111.908 14.6215C108.055 11.9003 97.2435 12.2938 88.3406 15.2554C88.3406 17.3537 88.6963 19.1679 87.0485 21.5831C86.1965 22.7146 85.0728 23.6496 83.7647 24.3152C83.824 28.3916 83.7648 29.4954 83.0416 31.3423C82.6741 32.4352 81.8562 34.0089 79.5919 33.3969C78.5013 33.1128 77.5648 31.0035 76.3675 29.6375C74.7552 27.8015 70.0608 27.1785 68.1285 31.4953C67.3008 33.3803 67.1729 35.4649 67.7648 37.4239C68.3566 39.3829 69.6349 41.1064 71.4004 42.3256Z" fill="#FFBE9D"/>
<path d="M100.563 53.5063C95.9395 53.3642 87.6531 52.2823 85.1518 49.8452C82.6505 47.4082 80.327 41.5723 80.327 41.5723C80.327 41.5723 81.7258 48.2059 83.7292 51.0037C85.7327 53.8014 89.787 54.7194 92.7388 55.3751C95.4006 55.8122 98.0965 56.0497 100.8 56.0855L100.563 53.5063Z" fill="#E19872"/>
<path d="M96.3072 25.9876L91.5653 25.4521C91.6597 24.8604 91.9986 24.3252 92.5112 23.9585C93.0238 23.5919 93.6704 23.4222 94.3156 23.485C94.6252 23.5276 94.9225 23.6263 95.1905 23.7755C95.4585 23.9246 95.6918 24.1211 95.8769 24.3538C96.0621 24.5865 96.1954 24.8507 96.2693 25.1311C96.3431 25.4115 96.356 25.7026 96.3072 25.9876Z" fill="#263238"/>
<path d="M107.142 22.3155L111.718 23.6269C111.895 23.0531 111.824 22.4386 111.522 21.9113C111.219 21.3841 110.708 20.9847 110.094 20.7964C109.792 20.715 109.475 20.6898 109.163 20.7223C108.85 20.7548 108.548 20.8443 108.273 20.9857C107.998 21.1271 107.757 21.3175 107.562 21.5458C107.368 21.7741 107.225 22.0357 107.142 22.3155Z" fill="#263238"/>
<path d="M96.4849 40.7852L101.606 42.2387C101.375 42.873 100.887 43.4007 100.245 43.7121C99.6022 44.0235 98.8543 44.0946 98.1564 43.9107C97.8198 43.8124 97.5083 43.6524 97.2405 43.4403C96.9727 43.2281 96.7542 42.9683 96.598 42.6764C96.4419 42.3844 96.3514 42.0664 96.332 41.7414C96.3125 41.4164 96.3645 41.0912 96.4849 40.7852Z" fill="#874C4C"/>
<path d="M96.7101 41.7355C97.392 41.6929 98.0649 41.8976 98.5854 42.3059C99.1058 42.7143 99.4326 43.2939 99.496 43.9212C99.0558 44.0191 98.5966 44.0191 98.1564 43.9212C97.6577 43.7772 97.2178 43.4977 96.8942 43.1195C96.5706 42.7412 96.3784 42.2817 96.3426 41.8011L96.7101 41.7355Z" fill="#FFA8A7"/>
<path d="M99.8752 25.3096L102.282 38.4239L109.489 35.0907L99.8752 25.3096Z" fill="#E19872"/>
<path d="M92.6321 30.304C92.6514 30.6627 92.7857 31.0079 93.018 31.2961C93.2503 31.5843 93.5702 31.8025 93.9371 31.923C94.304 32.0435 94.7014 32.0609 95.0791 31.973C95.4567 31.8852 95.7976 31.696 96.0585 31.4294C96.3195 31.1628 96.4887 30.8308 96.5448 30.4755C96.601 30.1202 96.5415 29.7575 96.3738 29.4334C96.2062 29.1092 95.938 28.8383 95.6033 28.6548C95.2685 28.4712 94.8822 28.3834 94.4932 28.4025C94.2352 28.4136 93.9822 28.4718 93.7487 28.5736C93.5152 28.6754 93.3059 28.8189 93.1328 28.9957C92.9598 29.1725 92.8264 29.3791 92.7405 29.6037C92.6545 29.8282 92.6177 30.0663 92.6321 30.304Z" fill="#263238"/>
<path d="M107.522 28.8948C107.543 29.2502 107.678 29.5918 107.91 29.8766C108.142 30.1613 108.46 30.3765 108.824 30.4949C109.188 30.6134 109.582 30.6298 109.956 30.5421C110.33 30.4545 110.668 30.2667 110.927 30.0024C111.185 29.7381 111.353 29.4092 111.41 29.057C111.466 28.7048 111.408 28.3452 111.243 28.0234C111.078 27.7016 110.813 27.432 110.482 27.2487C110.151 27.0654 109.768 26.9765 109.383 26.9932C109.125 27.0044 108.872 27.0626 108.638 27.1644C108.405 27.2662 108.195 27.4096 108.022 27.5864C107.849 27.7632 107.716 27.9699 107.63 28.1944C107.544 28.419 107.507 28.657 107.522 28.8948Z" fill="#263238"/>
<path d="M198.304 58.5655L196.502 57.4727C196.238 57.3497 195.945 57.2856 195.649 57.2856C195.352 57.2856 195.06 57.3497 194.795 57.4727L148.325 75.035C147.462 75.402 146.697 75.9384 146.083 76.6067C145.468 77.2749 145.02 78.0589 144.769 78.9037L136.471 114.192C136.355 114.487 136.337 114.806 136.42 115.11C136.502 115.413 136.681 115.688 136.933 115.897L138.794 117.045C139.059 117.174 139.354 117.241 139.653 117.241C139.953 117.241 140.248 117.174 140.513 117.045L186.995 99.4823C187.855 99.1116 188.618 98.574 189.232 97.9063C189.846 97.2386 190.296 96.4565 190.551 95.6136C192.164 88.6739 197.178 67.2647 198.79 60.3251C199.063 59.4508 198.826 58.8388 198.304 58.5655Z" fill="#455A64"/>
<path d="M148.361 77.2969C147.533 78.0454 146.94 78.9853 146.642 80.0181L138.344 115.285C138.235 115.572 138.215 115.882 138.286 116.179C138.357 116.476 138.517 116.749 138.747 116.968L137.004 115.875C136.748 115.67 136.566 115.399 136.481 115.096C136.396 114.793 136.413 114.474 136.53 114.181L144.828 78.8925C145.099 77.9231 145.643 77.0371 146.405 76.3242L148.361 77.2969Z" fill="#263238"/>
<path d="M138.403 115.318L146.642 80.029C146.897 79.1861 147.347 78.404 147.961 77.7363C148.575 77.0686 149.338 76.531 150.198 76.1603L196.645 58.6089C198.233 58.0079 199.217 58.7729 198.861 60.3138C197.249 67.2535 192.235 88.6626 190.622 95.6023C190.367 96.4452 189.917 97.2273 189.303 97.8951C188.689 98.5628 187.926 99.1004 187.066 99.4711L140.572 117.033C139.031 117.623 138.035 116.858 138.403 115.318Z" fill="#37474F"/>
<path d="M150.163 76.2044L161.01 72.2592L171.809 68.2265L193.42 60.1612L196.111 59.1339C196.527 58.9491 196.964 58.8098 197.415 58.7186C197.603 58.6776 197.8 58.6866 197.982 58.7446C198.165 58.8027 198.326 58.9073 198.447 59.0464C198.909 59.6475 198.506 60.5983 198.34 61.4617L197.735 64.0845L195.364 74.5979L192.993 85.1112L190.682 95.6464L193.278 85.1659L195.779 74.6744L198.281 64.1829L198.909 61.56C199.016 61.112 199.122 60.6967 199.217 60.2377C199.341 59.7298 199.248 59.1974 198.956 58.7514C198.777 58.537 198.538 58.3724 198.264 58.276C197.989 58.1795 197.692 58.1549 197.403 58.2049C196.903 58.2944 196.417 58.4412 195.957 58.6421L193.254 59.6584L171.714 67.8877L160.95 72.0078L150.163 76.2044Z" fill="#455A64"/>
<path d="M147.602 87.1331L149.155 80.5759C149.199 80.4186 149.28 80.2722 149.393 80.1475C149.505 80.0227 149.647 79.9226 149.807 79.8546L153.008 78.6525C153.304 78.5432 153.494 78.6525 153.423 78.9694C153.126 80.2699 152.237 84.2807 151.882 85.5266C151.833 85.6834 151.748 85.8288 151.634 85.9532C151.52 86.0776 151.378 86.1781 151.218 86.2479L148.017 87.45C147.685 87.5593 147.543 87.4172 147.602 87.1331Z" fill="#455A64"/>
<path d="M149.511 82.0184C149.638 81.6267 149.853 81.2644 150.143 80.9555C150.434 80.6465 150.792 80.3978 151.194 80.2261C151.965 79.9419 152.451 80.2807 152.285 80.9801C152.161 81.3733 151.947 81.7372 151.656 82.0466C151.366 82.356 151.006 82.6037 150.601 82.7724C149.831 83.0566 149.345 82.7615 149.511 82.0184Z" fill="#263238"/>
<path d="M148.776 85.3515C148.9 84.9587 149.114 84.5952 149.405 84.2858C149.695 83.9765 150.055 83.7287 150.459 83.5593C151.229 83.2642 151.716 83.5593 151.55 84.3024C151.428 84.6962 151.214 85.0607 150.923 85.3703C150.632 85.6799 150.272 85.9271 149.866 86.0947C149.096 86.3898 148.61 86.04 148.776 85.3515Z" fill="#263238"/>
<path d="M197.261 81.1332C198.767 78.9475 198.601 78.6961 197.664 77.6689C196.959 76.8543 196.054 76.2064 195.023 75.7787C193.992 75.3511 192.866 75.1561 191.737 75.2099C189.745 75.3629 187.73 75.4176 186.734 75.9531C185.738 76.4886 186.734 78.4448 189.354 78.8601C193.491 79.5049 193.527 80.5322 193.527 80.5322C191.761 80.249 189.981 80.052 188.192 79.942C186.188 80.1563 184.205 80.5218 182.265 81.0349C180.546 81.3628 180.321 83.4392 183.296 83.9965L180.155 84.6195C177.962 85.0566 177.262 86.1713 179.076 87.3516C179.667 87.7594 180.389 87.9712 181.127 87.9527C181.127 87.9527 178.756 88.062 178.756 88.7942C178.756 90.8706 180.226 91.3406 185.063 92.3897C189.674 93.3842 190.741 95.5918 189.923 97.1983C189.923 97.1983 191.701 96.1054 193.266 95.0126C194.452 94.2039 195.388 93.2968 194.748 91.6028C194.748 91.6028 197.344 91.5264 197.427 90.0401C197.401 88.9491 197.122 87.876 196.609 86.8926C197.064 86.6295 197.427 86.2519 197.656 85.8046C197.885 85.3572 197.97 84.8587 197.901 84.3681C197.856 83.4277 197.472 82.528 196.811 81.8108L197.261 81.1332Z" fill="#FFBE9D"/>
<path d="M183.249 84.0288C184.18 83.8011 185.133 83.6583 186.094 83.6025C187.072 83.6941 188.028 83.9264 188.927 84.291C190.711 84.8813 192.437 85.6126 194.084 86.4768C192.227 86.1168 190.407 85.6123 188.643 84.9686C187.805 84.6277 186.937 84.357 186.047 84.1599C185.157 84.1162 184.162 84.149 183.249 84.0288Z" fill="#C48767"/>
<path d="M181.056 87.9855C182.05 87.6712 183.113 87.5885 184.15 87.7451C185.175 87.9002 186.183 88.1416 187.161 88.4664C189.1 89.0863 190.964 89.8921 192.721 90.8707C190.747 90.4058 188.8 89.8477 186.888 89.1986C185.044 88.4613 183.065 88.0498 181.056 87.9855Z" fill="#C48767"/>
<path d="M100.598 93.1763C104.333 90.2583 106.241 89.0999 108.043 88.5206C109.845 87.9414 116.092 85.1109 118.511 84.4006C120.052 83.9525 120.882 86.2038 118.949 87.8977C117.503 89.1873 113.639 91.0124 111.943 91.996C110.248 92.9796 107.095 97.0122 107.095 97.0122L100.598 93.1763Z" fill="#E19872"/>
<path d="M50.4771 77.6358C53.8438 69.7672 57.1512 67.4175 65.8881 64.7837C75.2888 72.237 70.0253 92.903 70.0253 92.903L64.3944 114.673C64.3944 114.673 83.3618 108.651 85.9461 106.935C88.5304 105.22 95.1453 97.7553 97.3858 95.504C100.444 92.444 102.128 92.7282 103.752 92.8702C109.217 93.3074 110.426 93.6571 111.623 94.2582C111.976 94.4577 112.269 94.7351 112.476 95.0652C112.682 95.3953 112.797 95.7677 112.809 96.1488C114.255 96.2253 116.365 96.0614 116.827 98.2253C116.98 98.7933 117.048 99.3779 117.029 99.9629C117.395 100 117.735 100.155 117.989 100.4C119.281 101.613 117.527 106.149 116.294 107.296C115.429 108.116 114.136 108.28 112.406 108.159C110.936 108.061 111.517 106.662 111.517 106.662L109.489 106.892C105.281 110.017 105.447 115.744 99.7093 117.339C97.3204 117.702 94.9717 118.262 92.6914 119.012C80.4218 123.612 64.7382 136.497 53.6304 138.071C42.7953 139.557 41.3964 133.7 41.4675 127.547C41.6216 117.733 47.0985 85.4825 50.4771 77.6358Z" fill="#FFBE9D"/>
<path d="M65.1412 111.941L64.4299 114.673C59.5458 116.138 54.4127 119.733 53.3932 122.323C54.0334 118.29 56.5466 114.597 65.1412 111.941Z" fill="#E19872"/>
<path d="M112.844 96.149L105.945 95.9414L112.655 95.3403C112.768 95.5977 112.832 95.8714 112.844 96.149Z" fill="#C48767"/>
<path d="M117.064 99.9633L109.608 99.5043L117.017 99.1655C117.063 99.4292 117.079 99.6966 117.064 99.9633Z" fill="#C48767"/>
<path d="M116.294 103.024C116.072 103.385 115.743 103.681 115.346 103.876C114.977 104.084 114.578 104.243 114.16 104.346L114.255 104.281C114.077 104.641 113.887 105.002 113.698 105.374L113.532 105.199C113.734 105.157 113.944 105.154 114.148 105.189C114.352 105.225 114.546 105.299 114.717 105.406C115.04 105.617 115.284 105.915 115.417 106.259C115.22 105.968 114.947 105.727 114.622 105.559C114.308 105.413 113.948 105.37 113.603 105.439L113.318 105.516L113.437 105.275C113.615 104.904 113.793 104.543 113.982 104.182H114.042C114.449 104.091 114.847 103.963 115.227 103.8C115.643 103.621 116.008 103.355 116.294 103.024Z" fill="#AF6152"/>
<path d="M114.385 104.007C113.504 104.166 112.614 104.276 111.718 104.335C111.609 104.855 111.337 105.334 110.936 105.712C110.507 106.134 110.052 106.531 109.572 106.903L111.6 106.674C111.856 106.325 112.189 106.029 112.577 105.805C112.965 105.581 113.399 105.434 113.852 105.373L114.385 104.007Z" fill="#C48767"/>
<path d="M66.8009 64.2598C60.5772 66.0521 56.2384 67.7241 53.3577 71.3962C50.477 75.0682 49.4931 78.8822 47.5015 85.8328C45.5099 92.7834 44.4786 99.0674 44.4786 99.0674C44.4786 99.0674 46.3161 102.269 53.6896 103.887C58.4145 104.845 63.3089 104.845 68.0337 103.887C68.0337 103.887 71.116 92.084 72.1236 87.7126C73.1313 83.3411 74.7197 70.2924 66.8009 64.2598Z" fill="#5E8EFF"/>
</svg>
