<svg width="191" height="270" viewBox="0 0 191 270" fill="none" xmlns="http://www.w3.org/2000/svg">
<path d="M146 48.55C164.21 59.06 190.58 83.94 190.58 128.82C190.58 173.7 169.33 207.07 128.71 222C106.98 230 72.16 230.39 49.77 222.4C26.96 210.73 11.59 198.72 3.22004 176.93C-5.39996 151.61 10 125.13 31 110C52 94.87 49.47 77.62 64.3 59.72C72.3 50.09 84.01 41.85 98.3 40.26C114 38.51 132.09 40.54 146 48.55Z" fill="#5E8EFF"/>
<path opacity="0.6" d="M146 48.55C164.21 59.06 190.58 83.94 190.58 128.82C190.58 173.7 169.33 207.07 128.71 222C106.98 230 72.16 230.39 49.77 222.4C26.96 210.73 11.59 198.72 3.22004 176.93C-5.39996 151.61 10 125.13 31 110C52 94.87 49.47 77.62 64.3 59.72C72.3 50.09 84.01 41.85 98.3 40.26C114 38.51 132.09 40.54 146 48.55Z" fill="white"/>
<path opacity="0.3" d="M136.89 149.61C136.89 149.61 140.89 144.96 143.84 135.1C148.73 118.68 148.84 88.2001 143.65 72.7501C136.14 50.3601 104.73 49.3001 104.73 49.3001C104.73 49.3001 83.34 46.9901 71.61 77.4501C59.88 107.91 57.26 116.1 43.75 123.58C38.17 126.66 31.56 128.02 26.39 131.72C23.5106 133.743 21.1007 136.362 19.3243 139.4C17.5479 142.437 16.4467 145.822 16.0956 149.323C15.7446 152.825 16.1518 156.361 17.2898 159.69C18.4277 163.02 20.2695 166.066 22.69 168.62C26.42 172.56 31.61 175.5 33.51 180.62C34.87 184.29 34.22 188.37 33.56 192.23C32.62 197.67 31.6767 203.11 30.73 208.55C30.6 209.34 30.46 210.14 30.36 210.95C36.5526 215.225 43.0386 219.057 49.77 222.42C54.1065 223.935 58.5529 225.115 63.07 225.95C63.83 220.11 64.86 214.3 66.15 208.56C66.62 206.56 67.4 204.14 69.4 203.56C71.69 202.84 73.91 204.93 75.02 207.06C76.54 209.97 78.52 212.17 82.02 212.75C86.64 213.51 90.21 210.45 92.82 206.99C97.02 201.43 95.45 193.78 93.58 187.64C92.73 184.86 92.15 181.86 92.91 179.06C94.52 173.17 103.98 170.94 108.86 168.75C115.95 165.57 123.05 162.37 130.27 159.48C151.66 150.9 164.69 157.08 164.69 157.08C164.69 157.08 152.34 146.57 136.89 149.61Z" fill="#5E8EFF"/>
<path opacity="0.3" d="M59.52 225.17C85.52 228.17 112.73 221.81 134.08 207.29C166.76 185.05 180.91 149.8 173.91 108.03C167.73 71.14 149.29 50.83 130.77 42.42C134.882 43.4948 138.878 44.9719 142.7 46.83C157.7 57.77 171.03 77.21 176.13 107.66C183.28 150.35 168.8 186.39 135.34 209.15C118.766 220.234 99.5422 226.709 79.64 227.91C72.8704 227.542 66.1417 226.625 59.52 225.17Z" fill="#5E8EFF"/>
<path d="M74.1901 171.26C76.8701 172.52 79.3601 170.04 82.1901 171.4C84.1679 172.327 85.6991 173.999 86.4501 176.05C86.7448 177.116 87.2072 178.129 87.8201 179.05C88.7001 180.05 89.6001 181.05 90.4701 182.14C91.8894 183.761 93.4162 185.284 95.0401 186.7C98.9501 190.24 100.24 195.94 99.9601 201.05C99.8201 203.73 98.6601 204.58 97.5201 207C96.7401 208.65 95.2101 210.66 93.2101 210.68C91.2101 210.7 89.5701 209.16 88.4501 207.68C87.0801 205.86 87.2801 204.94 86.4001 202.89C85.5201 200.84 84.2301 197.89 82.4001 196.69C80.8725 195.609 79.4037 194.448 78.0001 193.21C75.3335 191.043 72.7168 188.84 70.1501 186.6L69.3701 185.92C66.8101 183.92 55.6301 178.68 55.6301 178.68L63.0001 161L74.1901 171.26Z" fill="#C8856A"/>
<path d="M83.0001 170.82C84.2715 170.597 85.581 170.827 86.7001 171.47C88.0493 173.259 89.0283 175.298 89.5801 177.47C90.4101 180.47 90.8001 181.68 92.7301 183.08C95.3806 184.754 97.6167 187.007 99.2701 189.67C100.582 191.727 101.423 194.049 101.732 196.47C102.042 198.89 101.812 201.349 101.06 203.67C99.3001 209.62 97.3501 210.97 95.8201 211.67C94.4649 212.103 93.031 212.233 91.6201 212.05L83.0001 170.82Z" fill="#263238"/>
<path d="M73.1101 170.28L74.1901 171.28C74.8226 171.757 75.4177 172.282 75.9701 172.85C78.1901 175.31 77.8401 180.77 77.6901 182.24C77.2134 182.163 76.7258 182.192 76.2612 182.323C75.7966 182.454 75.3662 182.685 75.0001 183C73.2401 184.24 70.3901 186.66 70.6301 187.65C70.8701 188.64 77.4001 192.31 80.7101 196.12C84.0201 199.93 84.4701 202.03 85.6001 205.91C86.4001 208.68 88.8201 213.27 92.8301 211.83C94.9301 211.1 99.9801 206.83 99.8901 197.73C99.8201 189.67 94.1001 186.04 91.1301 183.86C88.1601 181.68 87.7701 179.37 86.1301 175.27C85.4101 173.48 84.9801 172.05 82.9701 170.85C80.3201 170.09 77.6701 170.79 75.7201 170.58C74.1501 170.38 73.5701 169.45 73.1101 170.28Z" fill="#37474F"/>
<path d="M77.6901 182.22C77.5837 182.639 77.6297 183.082 77.8201 183.47C78.054 183.828 78.3484 184.143 78.6901 184.4C79.3301 184.93 79.9401 185.45 80.5601 185.99C81.8101 187.05 83.0301 188.13 84.2101 189.25C85.3901 190.365 86.5084 191.543 87.5601 192.78C88.6115 194.027 89.5235 195.385 90.2801 196.83C89.7807 195.246 89.0166 193.758 88.0201 192.43C87.0462 191.083 85.9481 189.831 84.7401 188.69C83.5454 187.549 82.2831 186.48 80.9601 185.49C80.3101 185 79.6201 184.49 78.9601 184.07C78.6175 183.871 78.3044 183.626 78.0301 183.34C77.8011 183.012 77.6821 182.62 77.6901 182.22Z" fill="#263238"/>
<path d="M90.36 195.23C88.27 195.7 83.73 198.61 83.8 200.63L84.05 201.16C83.5581 200.803 83.2047 200.288 83.05 199.7C82.73 198.64 85.0501 195.59 89.6601 194.18C90.3501 194.27 91 195 90.36 195.23Z" fill="#FAFAFA"/>
<path d="M87.7601 191.91C85.6501 192.26 81.4101 194.82 81.3601 196.83L81.6501 197.2C81.3838 197.108 81.1488 196.943 80.9719 196.724C80.7951 196.504 80.6835 196.24 80.6501 195.96C80.4001 194.89 82.4901 191.96 87.1501 190.81C87.8001 191 88.3701 191.75 87.7601 191.91Z" fill="#FAFAFA"/>
<path d="M84.8101 188.77C82.7501 189.29 78.5601 192.04 78.7001 194.07L79.1301 194.45C78.8714 194.376 78.6311 194.249 78.4244 194.077C78.2178 193.905 78.0494 193.691 77.9301 193.45C77.4801 192.4 79.6101 189.24 84.1101 187.71C84.7701 187.79 85.4001 188.56 84.8101 188.77Z" fill="#FAFAFA"/>
<path d="M82.1501 186.2C80.1501 186.72 75.6002 189.62 75.7502 191.64L76.1902 192.02C75.6461 191.843 75.1911 191.464 74.9202 190.96C74.4802 189.9 76.9202 186.68 81.4402 185.15C82.1002 185.23 82.7401 186 82.1501 186.2Z" fill="#FAFAFA"/>
<path d="M78.3101 112.32C78.0395 113.042 77.6024 113.69 77.0342 114.211C76.466 114.733 75.7828 115.113 75.0401 115.32C68.2801 116.97 50.7301 121.25 40.7901 124.9C26.0201 130.33 22.1101 132.41 18.7901 138.35C17.6493 140.372 16.9786 142.624 16.828 144.941C16.6773 147.257 17.0507 149.578 17.9201 151.73C19.1301 155.02 23.7901 161.19 32.5501 166.33C46.3701 174.42 54.6301 178.97 63.1101 182.99C63.1101 182.99 70.6401 174.93 71.4501 167.99L59.1401 156.77L88.2101 143.07L125.4 109.28L78.3101 112.32Z" fill="#455A64"/>
<path d="M58.6201 154.8C54.7888 157.436 52.1347 161.46 51.2201 166.02C50.7201 168.36 50.0101 172.56 49.4501 176.02C54.4501 178.76 58.76 180.97 63.11 183.02C63.11 183.02 70.6401 174.96 71.4501 168.02L59.1401 156.8L60.83 156L58.6201 154.8Z" fill="#37474F"/>
<path d="M88.2101 143.06L80.2101 118.33L77.2101 123.87C77.8201 130.35 78.8001 132.87 80.1101 135.92C80.1101 135.92 65.7001 146.81 64.1101 147.8C58.1101 151.53 57.2802 151.02 53.8902 148.58C52.1197 147.28 50.0624 146.425 47.892 146.087C45.7216 145.75 43.5019 145.939 41.4202 146.64C49.8202 146.04 51.8801 149.52 59.1801 156.76L88.2502 143.06H88.2101Z" fill="#37474F"/>
<path d="M62.4701 232.85C63.0701 235.47 65.0001 239.13 64.2201 242.49C63.9593 243.649 63.4716 244.745 62.7851 245.715C62.0985 246.685 61.2268 247.509 60.2201 248.14C59.1527 248.713 58.1783 249.445 57.3301 250.31C56.4601 251.49 55.5801 252.69 54.6701 253.87C53.2201 255.76 52.0501 256.71 50.8701 258.78C48.0201 263.78 42.2501 266.51 36.7401 267.43C34.008 267.952 31.1987 267.918 28.4801 267.33C26.5301 266.89 24.0201 265.73 23.5301 263.6C23.0401 261.47 24.2901 259.36 25.6101 257.82C27.2201 255.92 29.6101 254.82 31.5601 253.4C33.7214 251.771 35.6288 249.83 37.2201 247.64C38.9101 245.26 44.0101 240.22 45.7701 231.5C46.5701 227.5 48.8401 210.25 48.8401 210.25L69.0301 211.38C69.0301 211.38 61.8601 230.23 62.4701 232.85Z" fill="#C8856A"/>
<path d="M65.0001 243.18C65.5343 244.484 65.5979 245.934 65.1801 247.28C63.5836 249.147 61.6282 250.674 59.4301 251.77C56.4301 253.38 55.2301 254.08 54.1901 256.47C53.1501 258.86 52.4901 261.36 49.1901 264.47C45.8901 267.58 40.4901 269.71 32.6601 269.47C25.8901 269.27 23.6601 266.77 23.0901 266.09C22.3012 264.933 21.8194 263.594 21.6901 262.2L65.0001 243.18Z" fill="#263238"/>
<path d="M62.6001 231.07C62.4764 231.805 62.3896 232.546 62.3401 233.29C62.2339 234.302 61.7982 235.25 61.1001 235.99C58.8701 238.43 54.7401 239.33 53.1001 239.52C52.7376 238.502 51.9911 237.665 51.0201 237.19C47.9301 235.43 44.3901 234.62 43.3901 235.11C42.3901 235.6 40.7701 241.29 37.5001 245.73C34.2301 250.17 31.1501 252.05 26.8901 254.87C24.2601 256.61 19.8001 259.53 22.2801 263.47C23.5501 265.54 30.1301 268.47 39.8001 266.24C48.3801 264.24 51.4401 258.67 53.0601 254.98C54.6801 251.29 57.0601 250.33 61.0601 247.6C62.8001 246.4 64.2201 245.6 65.0601 243.18C65.2401 240.18 63.8601 236.46 63.6201 234.33C63.3901 232.6 63.5901 231.36 62.6001 231.07Z" fill="#37474F"/>
<path d="M53.1301 239.52C52.6603 239.537 52.2074 239.699 51.8332 239.984C51.4591 240.269 51.1821 240.662 51.0401 241.11C50.5219 242.163 49.9374 243.181 49.2901 244.16C46.3935 248.561 42.9342 252.565 39.0001 256.07C43.7201 253.3 46.8401 249.19 49.6601 244.67C50.3462 243.593 50.9448 242.463 51.4501 241.29C51.5242 240.862 51.7233 240.466 52.0222 240.151C52.3212 239.836 52.7067 239.616 53.1301 239.52Z" fill="#263238"/>
<path d="M40.8701 255.21C38.9601 251.91 34.6901 250.38 32.5601 250.93L32.0601 251.32C32.3255 250.72 32.7925 250.232 33.3801 249.94C34.4401 249.35 39.2501 249.68 41.8401 254.24C41.9001 255 41.2301 255.81 40.8701 255.21Z" fill="#FAFAFA"/>
<path d="M44.9201 252C43.2901 248.83 38.2701 247.1 36.1101 247.52L35.7401 247.94C35.7888 247.629 35.919 247.337 36.1175 247.093C36.316 246.848 36.5757 246.661 36.8701 246.55C37.9601 246.02 43.8201 246.99 45.9401 251.09C46.0001 251.77 45.2301 252.58 44.9201 252Z" fill="#FAFAFA"/>
<path d="M47.8801 248.17C46.7101 245.47 40.8801 243.17 38.7901 243.78L38.4501 244.36C38.4775 244.059 38.564 243.766 38.7047 243.498C38.8454 243.231 39.0375 242.993 39.2701 242.8C40.2701 242.08 46.5501 243.45 48.8401 247.18C48.9101 247.9 48.2501 248.75 47.8801 248.17Z" fill="#FAFAFA"/>
<path d="M49.8401 244.7C48.8401 241.7 42.8401 239.82 40.6801 240.45L40.2501 241.19C40.2552 240.901 40.3231 240.616 40.4492 240.355C40.5752 240.094 40.7564 239.864 40.9801 239.68C41.9801 238.96 48.0901 239.25 50.7901 243.68C50.8601 244.41 50.2101 245.28 49.8401 244.7Z" fill="#FAFAFA"/>
<path d="M76.05 116.53L80.6001 112L135.5 119.17C135.59 124.53 133.42 135.81 131.27 141.54C129.27 146.79 126.8 152.4 114.35 159.05C101.9 165.7 87.0001 172.45 84.0001 174.16C79.6501 176.61 78.0001 177.71 77.6801 185.46C77.4201 191.96 73.5001 203.65 70.9701 210.64L65.3101 226.33C63.0701 229.27 49.7201 228.74 46.3101 224.51C46.3101 224.51 51.21 177.98 52.8 169.8C53.7 165.23 54.57 161.12 60.05 155.96C64.74 151.53 82.9401 136.01 82.9401 136.01C78.7659 130.342 76.368 123.562 76.05 116.53Z" fill="#455A64"/>
<path d="M125.21 123.65C125.8 135.05 126.21 141.92 110.6 149.87C105.91 152.26 101.04 154.54 96.33 156.74C82.33 163.27 72.84 170.36 72.11 175.55C71.82 177.55 71.66 179.89 71.47 182.62C70.8763 190.503 69.5166 198.31 67.41 205.93C65.32 213.68 63.57 219.25 62.04 224.44C62.53 224.39 63.04 224.32 63.44 224.24C64.97 219.05 66.63 213.76 68.65 206.24C70.7791 198.539 72.1522 190.648 72.75 182.68C72.94 179.97 73.1 177.68 73.38 175.68C74.02 171.18 84.38 163.68 96.88 157.85C101.6 155.65 106.48 153.37 111.18 150.96C127.48 142.64 127.09 135.04 126.5 123.53C126.44 122.44 126.39 121.31 126.34 120.14L125.04 119.89C125.09 121.22 125.15 122.46 125.21 123.65Z" fill="#37474F"/>
<path d="M115.52 148.31C115.32 148.17 110.74 144.73 112.86 136.43C115.18 127.38 114.95 123.14 114.37 116.97L115.65 116.85C116.5 123.519 115.976 130.291 114.11 136.75C112.2 144.21 116.23 147.24 116.27 147.27L115.52 148.31Z" fill="#37474F"/>
<path d="M46.4601 219.3C48.3501 222.48 60.0902 225.64 66.6702 222.79L64.7202 228.53C59.7202 231.53 50.4001 230.53 45.9001 225.81L46.4601 219.3Z" fill="#37474F"/>
<path d="M100.77 51.26C97.1307 50.8774 93.4535 51.4085 90.0712 52.8054C86.689 54.2023 83.7086 56.4208 81.4 59.26C76.28 65.26 68.4 73.83 61.74 82.44L39.16 76.51L36 88.72C36 88.72 55.46 96.5 62.31 98.72C67.45 100.42 70.15 98.52 74.37 95.03C79.9 90.48 91.25 79.4 91.25 79.4L100.77 51.26Z" fill="#C8856A"/>
<path d="M100.47 51C95.15 50.44 91.29 51.37 87.82 53.53C84.35 55.69 82.36 57.42 75.13 66.06L70.9 70.75C70.9 70.75 73.49 77.62 77.9 81.56C82.31 85.5 85.12 86.44 85.12 86.44L95.88 76.44L100.47 51Z" fill="#5E8EFF"/>
<path d="M113.13 52.74C121.01 54.06 124.71 55.21 134.23 59.07C136.23 61.37 138.23 70.64 137.65 80.21C136.78 94.69 138.65 101.07 136.49 118.6C135.843 124.749 134.761 130.844 133.25 136.84C115.4 140.42 76.0801 127.6 75.3101 115.18C78.1901 111.62 79.8101 101.52 82.9301 75.38C84.7701 59.99 94.4201 50.55 100.47 50.95C103.46 51.17 108.07 51.89 113.13 52.74Z" fill="#263238"/>
<path d="M94.28 21.87C92.8361 20.7399 91.7861 19.1824 91.28 17.42C90.7023 15.4744 90.569 13.424 90.89 11.42C91.0133 10.7198 91.2497 10.0443 91.59 9.42C91.8862 9.08801 92.2525 8.82605 92.6624 8.6531C93.0723 8.48014 93.5155 8.40052 93.96 8.42L95.63 8.33001C94.6353 7.24997 93.8668 5.98172 93.37 4.60001C93.0715 3.53471 93.0889 2.40562 93.42 1.35001C93.4924 1.06185 93.6369 0.796858 93.84 0.580005C94.1177 0.396716 94.4392 0.290821 94.7714 0.273243C95.1037 0.255664 95.4346 0.327033 95.73 0.479999C99.5331 1.71199 103.513 2.30997 107.51 2.25C110.67 2.31 112.27 2.04 116.62 1.95C120.97 1.86 128.53 4.39 129.27 12.64C135 14 135 23.38 133.08 27.2C129.51 34.2 126.25 38.82 124.33 43.93C124.05 43.69 105.47 31.07 101.25 27.6L96.51 23.69C95.75 23.06 95 22.49 94.28 21.87Z" fill="#263238"/>
<path d="M130.35 39C126.72 41.33 124.65 38.71 124.65 38.71L123.59 55.28C115.8 64.07 96.59 61.23 105.59 52.43L105.8 49.26C104.029 49.2285 102.264 49.031 100.53 48.67C99.456 48.4017 98.4396 47.9409 97.53 47.31C95.5359 45.9007 94.1693 43.7701 93.72 41.37C92.8749 37.1862 92.6191 32.9047 92.9599 28.65C93.2899 23.54 94.26 16.97 96.18 13.65C99.43 11.16 108.55 11.52 116.06 14.23C116.06 16.15 115.76 17.81 117.15 20.02C117.869 21.0554 118.817 21.9109 119.92 22.52C119.87 26.25 119.92 27.26 120.53 28.95C120.84 29.95 121.53 31.39 123.44 30.83C124.36 30.57 125.15 28.64 126.16 27.39C127.52 25.71 131.48 25.14 133.11 29.09C133.808 30.8148 133.916 32.7222 133.417 34.5148C132.918 36.3074 131.839 37.8844 130.35 39Z" fill="#C8856A"/>
<path d="M105.75 49.2301C109.65 49.1001 116.64 48.1101 118.75 45.8801C120.86 43.6501 122.82 38.3101 122.82 38.3101C122.82 38.3101 121.64 44.3801 119.95 46.9401C118.26 49.5001 114.84 50.3401 112.35 50.9401C110.105 51.34 107.831 51.5574 105.55 51.5901L105.75 49.2301Z" fill="#AF6152"/>
<path d="M109.34 24.05L113.34 23.56C113.26 23.0185 112.975 22.5288 112.542 22.1933C112.11 21.8578 111.564 21.7026 111.02 21.76C110.759 21.799 110.508 21.8894 110.282 22.0258C110.056 22.1623 109.859 22.3421 109.703 22.555C109.547 22.7679 109.434 23.0096 109.372 23.2662C109.31 23.5228 109.299 23.7892 109.34 24.05Z" fill="#263238"/>
<path d="M100.2 20.69L96.34 21.89C96.1911 21.365 96.2504 20.8027 96.5055 20.3202C96.7607 19.8378 97.1921 19.4724 97.71 19.3C97.9647 19.2255 98.2318 19.2025 98.4955 19.2322C98.7593 19.262 99.0145 19.3439 99.2462 19.4733C99.478 19.6027 99.6817 19.7769 99.8454 19.9858C100.009 20.1947 100.13 20.4341 100.2 20.69Z" fill="#263238"/>
<path d="M109.19 37.59L104.87 38.92C105.065 39.5004 105.476 39.9832 106.018 40.2682C106.56 40.5531 107.191 40.6182 107.78 40.45C108.064 40.36 108.327 40.2136 108.553 40.0195C108.779 39.8254 108.963 39.5876 109.095 39.3205C109.226 39.0533 109.303 38.7623 109.319 38.465C109.335 38.1676 109.292 37.87 109.19 37.59Z" fill="#874C4C"/>
<path d="M109 38.46C108.425 38.421 107.857 38.6083 107.418 38.982C106.979 39.3556 106.703 39.886 106.65 40.46C107.021 40.5496 107.409 40.5496 107.78 40.46C108.201 40.3282 108.572 40.0725 108.845 39.7264C109.118 39.3803 109.28 38.9598 109.31 38.52L109 38.46Z" fill="#FFA8A7"/>
<path d="M106.33 23.4299L104.3 35.4299L98.22 32.3799L106.33 23.4299Z" fill="#AF6152"/>
<path d="M112.44 28C112.424 28.3282 112.31 28.6441 112.114 28.9078C111.918 29.1715 111.649 29.3712 111.339 29.4814C111.03 29.5917 110.694 29.6076 110.376 29.5272C110.057 29.4468 109.77 29.2737 109.55 29.0297C109.33 28.7858 109.187 28.482 109.139 28.1569C109.092 27.8318 109.142 27.4999 109.284 27.2033C109.425 26.9068 109.651 26.6588 109.934 26.4909C110.216 26.323 110.542 26.2426 110.87 26.26C111.088 26.2702 111.301 26.3235 111.498 26.4167C111.695 26.5098 111.872 26.6411 112.018 26.8029C112.164 26.9646 112.276 27.1537 112.349 27.3592C112.421 27.5647 112.452 27.7825 112.44 28Z" fill="#263238"/>
<path d="M99.88 26.71C99.8619 27.0352 99.7479 27.3478 99.5524 27.6083C99.3569 27.8689 99.0887 28.0657 98.7816 28.1741C98.4744 28.2825 98.142 28.2975 97.8263 28.2173C97.5106 28.1372 97.2257 27.9653 97.0075 27.7235C96.7893 27.4816 96.6475 27.1806 96.6001 26.8584C96.5527 26.5361 96.6017 26.207 96.741 25.9126C96.8803 25.6182 97.1036 25.3715 97.3828 25.2038C97.662 25.036 97.9846 24.9547 98.31 24.97C98.5276 24.9802 98.7411 25.0334 98.9381 25.1266C99.135 25.2198 99.3116 25.351 99.4576 25.5128C99.6035 25.6746 99.716 25.8636 99.7885 26.0691C99.861 26.2746 99.8921 26.4924 99.88 26.71Z" fill="#263238"/>
<path d="M23.3001 53.86L24.8201 52.86C25.0434 52.7475 25.29 52.6888 25.5401 52.6888C25.7902 52.6888 26.0368 52.7475 26.2601 52.86L65.4601 68.93C66.1879 69.2658 66.8335 69.7566 67.3517 70.3681C67.8699 70.9796 68.2482 71.697 68.4601 72.47L75.4601 104.76C75.5576 105.029 75.5726 105.322 75.5031 105.6C75.4336 105.877 75.2829 106.128 75.0701 106.32L73.5001 107.37C73.2767 107.488 73.0278 107.55 72.7751 107.55C72.5223 107.55 72.2734 107.488 72.0501 107.37L32.8401 91.3C32.1146 90.9608 31.4709 90.4689 30.9531 89.8579C30.4354 89.2469 30.0557 88.5313 29.8401 87.76C28.4801 81.41 24.2501 61.82 22.8901 55.47C22.6601 54.67 22.8601 54.11 23.3001 53.86Z" fill="#455A64"/>
<path d="M65.4301 71C66.128 71.6849 66.6289 72.5449 66.8801 73.49L73.8801 105.76C73.972 106.023 73.9888 106.306 73.9288 106.578C73.8687 106.85 73.7341 107.1 73.5401 107.3L75.0101 106.3C75.226 106.113 75.3799 105.864 75.4514 105.587C75.5228 105.31 75.5084 105.018 75.4101 104.75L68.4101 72.46C68.1818 71.573 67.723 70.7622 67.08 70.11L65.4301 71Z" fill="#263238"/>
<path d="M73.8301 105.79L66.8801 73.5C66.6645 72.7287 66.2848 72.013 65.767 71.4021C65.2492 70.7911 64.6056 70.2992 63.8801 69.96L24.7001 53.9C23.3601 53.35 22.5301 54.05 22.8301 55.46C24.1901 61.81 28.4201 81.4 29.7801 87.75C29.9957 88.5213 30.3754 89.2369 30.8931 89.8479C31.4109 90.4589 32.0546 90.9508 32.7801 91.29L72.0001 107.36C73.3001 107.9 74.1401 107.2 73.8301 105.79Z" fill="#37474F"/>
<path d="M63.9101 69.9999L54.7601 66.39L45.65 62.7L27.4201 55.32L25.15 54.38C24.7994 54.2109 24.4302 54.0834 24.05 53.9999C23.8915 53.9624 23.7256 53.9707 23.5716 54.0238C23.4175 54.0769 23.2817 54.1727 23.18 54.2999C22.79 54.8499 23.13 55.72 23.27 56.51L23.78 58.91L25.78 68.5299L27.78 78.1499L29.7301 87.79L27.5401 78.2L25.43 68.6L23.3201 58.9999L22.7901 56.6C22.7001 56.19 22.61 55.81 22.53 55.39C22.4256 54.9252 22.5044 54.4381 22.7501 54.0299C22.9009 53.8338 23.1032 53.6832 23.3344 53.5949C23.5657 53.5067 23.8168 53.4842 24.06 53.5299C24.4818 53.6118 24.8917 53.7461 25.28 53.9299L27.56 54.8599L45.7301 62.39L54.81 66.16L63.9101 69.9999Z" fill="#455A64"/>
<path d="M66.0701 80.0001L64.7601 74.0001C64.7232 73.8561 64.6547 73.7222 64.5596 73.608C64.4644 73.4938 64.345 73.4023 64.2101 73.3401L61.5101 72.24C61.2601 72.14 61.1001 72.2401 61.1601 72.5301C61.4101 73.7201 62.1601 77.3901 62.4601 78.5301C62.5011 78.6736 62.5723 78.8066 62.6689 78.9204C62.7655 79.0342 62.8852 79.1262 63.0201 79.1901L65.7201 80.2901C66.0001 80.3901 66.1201 80.2601 66.0701 80.0001Z" fill="#455A64"/>
<path d="M64.4601 75.32C64.353 74.9617 64.1711 74.6302 63.9263 74.3475C63.6815 74.0647 63.3794 73.8372 63.0401 73.68C62.3901 73.42 61.9801 73.73 62.1201 74.37C62.2241 74.7298 62.4049 75.0627 62.6501 75.3459C62.8952 75.629 63.1989 75.8556 63.5401 76.0101C64.1901 76.2701 64.6001 76 64.4601 75.32Z" fill="#263238"/>
<path d="M65.08 78.37C64.9754 78.0105 64.7944 77.6778 64.5493 77.3948C64.3042 77.1117 64.0009 76.885 63.6601 76.73C63.0101 76.46 62.6 76.73 62.74 77.41C62.8429 77.7703 63.0233 78.1038 63.2686 78.3871C63.5138 78.6704 63.8181 78.8966 64.1601 79.0499C64.8101 79.3199 65.22 79 65.08 78.37Z" fill="#263238"/>
<path d="M24.18 74.5101C22.91 72.5101 23.0501 72.28 23.8401 71.34C24.4347 70.5947 25.1985 70.0018 26.068 69.6105C26.9375 69.2192 27.8878 69.0408 28.8401 69.09C30.5201 69.23 32.2201 69.28 33.0601 69.77C33.9001 70.26 33.0601 72.05 30.8501 72.43C27.3601 73.02 27.33 73.96 27.33 73.96C28.8195 73.7009 30.3216 73.5207 31.83 73.4201C33.5212 73.6161 35.1935 73.9506 36.83 74.4201C38.28 74.7201 38.47 76.62 35.96 77.13L38.61 77.7001C40.46 78.1001 41.05 79.1201 39.52 80.2001C39.0219 80.5732 38.4122 80.767 37.7901 80.75C37.7901 80.75 39.7901 80.85 39.7901 81.52C39.7901 83.42 38.5501 83.85 34.4701 84.81C30.5801 85.72 29.68 87.74 30.37 89.21C30.37 89.21 28.87 88.21 27.55 87.21C26.55 86.47 25.76 85.64 26.3 84.09C26.3 84.09 24.1101 84.02 24.0401 82.66C24.062 81.6618 24.2973 80.6798 24.7301 79.78C24.3468 79.5393 24.0404 79.1938 23.8472 78.7844C23.6541 78.3751 23.5822 77.919 23.6401 77.47C23.6785 76.6095 24.0021 75.7863 24.5601 75.13L24.18 74.5101Z" fill="#C8856A"/>
<path d="M36.0001 77.16C35.2148 76.9517 34.411 76.8211 33.6001 76.77C32.7754 76.8538 31.969 77.0664 31.2101 77.4C29.7052 77.9401 28.2498 78.6092 26.8601 79.4C28.4264 79.0706 29.9619 78.609 31.4501 78.02C32.1564 77.7081 32.8894 77.4604 33.6401 77.28C34.3901 77.24 35.2301 77.27 36.0001 77.16Z" fill="#AF6152"/>
<path d="M37.85 80.78C37.0115 80.4924 36.1148 80.4168 35.24 80.56C34.3749 80.702 33.5247 80.9229 32.7 81.2201C31.064 81.7873 29.4921 82.5247 28.01 83.4201C29.6751 82.9947 31.3173 82.484 32.93 81.8901C34.4861 81.2154 36.155 80.8389 37.85 80.78Z" fill="#AF6152"/>
<path d="M105.72 85.53C102.57 82.86 100.96 81.8 99.4401 81.27C97.9201 80.74 92.6501 78.15 90.6101 77.5C89.3101 77.09 88.6101 79.15 90.2401 80.7C91.4601 81.88 94.7201 83.55 96.1501 84.45C97.5801 85.35 100.24 89.04 100.24 89.04L105.72 85.53Z" fill="#AF6152"/>
<path d="M148 71.3101C145.16 64.1101 142.37 61.96 135 59.55C127.07 66.37 131.51 85.2801 131.51 85.2801L136.26 105.2C136.26 105.2 120.26 99.6901 118.08 98.1201C115.9 96.5501 110.32 89.7201 108.43 87.6601C105.85 84.8601 104.43 85.1201 103.06 85.2501C98.45 85.6501 97.4301 85.9701 96.4201 86.5201C96.1228 86.7027 95.8757 86.9564 95.7011 87.2585C95.5265 87.5605 95.4299 87.9013 95.4201 88.2501C94.2001 88.3201 92.42 88.1701 92.03 90.1501C91.901 90.6698 91.8438 91.2048 91.86 91.7401C91.5514 91.774 91.2646 91.9156 91.05 92.1401C89.96 93.2501 91.4401 97.4001 92.4801 98.4501C93.2101 99.2001 94.3001 99.3501 95.7601 99.2401C97.0001 99.1501 96.5101 97.8701 96.5101 97.8701L98.22 98.08C101.77 100.94 101.63 106.18 106.47 107.64C108.485 107.972 110.467 108.484 112.39 109.17C122.74 113.38 135.97 125.17 145.34 126.61C154.48 127.97 155.66 122.61 155.6 116.98C155.47 108 150.85 78.4901 148 71.3101Z" fill="#C8856A"/>
<path d="M135.63 102.7L136.23 105.2C140.35 106.54 144.68 109.83 145.54 112.2C145 108.51 142.88 105.13 135.63 102.7Z" fill="#AF6152"/>
<path d="M95.3901 88.25L101.21 88.06L95.5501 87.51C95.4542 87.7455 95.4001 87.9959 95.3901 88.25Z" fill="#AF6152"/>
<path d="M91.8301 91.74L98.1201 91.32L91.8701 91.01C91.831 91.2512 91.8176 91.4959 91.8301 91.74Z" fill="#AF6152"/>
<path d="M92.4801 94.54C92.6673 94.8708 92.9447 95.1413 93.2801 95.32C93.5911 95.5105 93.9279 95.6553 94.2801 95.75L94.2001 95.69C94.3501 96.02 94.5101 96.35 94.6701 96.69L94.8101 96.53C94.6393 96.4916 94.4624 96.4887 94.2904 96.5214C94.1184 96.554 93.9549 96.6217 93.8101 96.72C93.5378 96.913 93.3317 97.1855 93.2201 97.5C93.3859 97.2336 93.6164 97.0134 93.8901 96.86C94.1557 96.726 94.4593 96.6872 94.7501 96.75L94.9901 96.82L94.8901 96.6C94.7401 96.26 94.5901 95.93 94.4301 95.6H94.3801C94.036 95.5167 93.701 95.3995 93.3801 95.25C93.0292 95.0863 92.7211 94.8432 92.4801 94.54Z" fill="#AF6152"/>
<path d="M94.0901 95.4401C94.8333 95.5855 95.5847 95.6857 96.3401 95.7401C96.4318 96.2157 96.6613 96.6539 97.0001 97.0001C97.3618 97.3856 97.7458 97.7495 98.1501 98.0901L96.4401 97.8801C96.2234 97.5607 95.9425 97.2899 95.6154 97.0851C95.2882 96.8802 94.9221 96.7456 94.5401 96.6901L94.0901 95.4401Z" fill="#AF6152"/>
<path d="M134.23 59.0701C139.48 60.7101 143.14 62.2401 145.57 65.6001C148 68.9601 148.83 72.4501 150.51 78.8101C152.19 85.1701 153.06 90.9201 153.06 90.9201C153.06 90.9201 151.51 93.85 145.29 95.33C141.304 96.2071 137.176 96.2071 133.19 95.33C133.19 95.33 130.59 84.5301 129.74 80.5301C128.89 76.5301 127.55 64.5901 134.23 59.0701Z" fill="#5E8EFF"/>
</svg>
