<svg width="749" height="116" viewBox="0 0 749 116" fill="none" xmlns="http://www.w3.org/2000/svg">
<path d="M374.5 116C167.669 116 0 110.627 0 104C0 97.3726 167.669 92 374.5 92C581.331 92 749 97.3726 749 104C749 110.627 581.331 116 374.5 116Z" fill="#F5F5F5"/>
<path d="M696.156 88.1135C696.156 88.1135 709.539 5.12836 693.567 3.67131C677.595 2.21426 673.733 3.11897 679.906 86.5231L696.156 88.1135Z" fill="#F5F5F5"/>
<path d="M714.921 78.7422H662.369L666.757 100.636H710.533L714.921 78.7422Z" fill="#F5F5F5"/>
<path d="M686.559 35.6531C686.559 35.6531 671.008 36.5669 670.539 35.6531C670.07 34.7394 670.07 14.942 663.475 16.1183C656.88 17.2946 659.771 41.104 663.475 43.8767C667.179 46.6494 686.559 48.2038 686.559 48.2038C686.559 48.2038 689.091 39.3606 686.559 35.6531Z" fill="#F5F5F5"/>
<path d="M701.418 53.7658C701.418 53.7658 709.277 55.1423 712.634 53.7658C715.992 52.3894 714.733 32.3546 718.166 31.9672C726.051 31.0088 724.703 57.5995 721.345 63.197C717.988 68.7945 700.706 66.4189 700.706 66.4189L701.418 53.7658Z" fill="#6A8EF3"/>
<path opacity="0.2" d="M701.418 53.7658C701.418 53.7658 709.277 55.1423 712.634 53.7658C715.992 52.3894 714.733 32.3546 718.166 31.9672C726.051 31.0088 724.703 57.5995 721.345 63.197C717.988 68.7945 700.706 66.4189 700.706 66.4189L701.418 53.7658Z" fill="white"/>
<path d="M700.77 90.7154C700.77 90.7154 712.406 1.86884 698.519 0.308879C684.632 -1.25108 681.275 -0.28248 686.641 89.0127L700.77 90.7154Z" fill="#6A8EF3"/>
<path opacity="0.3" d="M700.77 90.7154C700.77 90.7154 712.406 1.86884 698.519 0.308879C684.632 -1.25108 681.275 -0.28248 686.641 89.0127L700.77 90.7154Z" fill="white"/>
<path d="M717.085 80.6826H671.394L675.209 104.123H713.27L717.085 80.6826Z" fill="#263238"/>
<path d="M686.972 35.6372C686.972 35.6372 674.319 36.5242 673.937 35.6372C673.556 34.7501 673.556 15.531 668.189 16.6729C662.823 17.8149 665.175 40.9288 668.189 43.6205C671.203 46.3123 686.972 47.8212 686.972 47.8212C686.972 47.8212 689.032 39.2363 686.972 35.6372Z" fill="#6A8EF3"/>
<path opacity="0.4" d="M686.972 35.6372C686.972 35.6372 674.319 36.5242 673.937 35.6372C673.556 34.7501 673.556 15.531 668.189 16.6729C662.823 17.8149 665.175 40.9288 668.189 43.6205C671.203 46.3123 686.972 47.8212 686.972 47.8212C686.972 47.8212 689.032 39.2363 686.972 35.6372Z" fill="white"/>
<path d="M694.996 78.3173C695.92 71.894 696.768 65.4638 697.54 59.0268C698.311 52.5898 698.951 46.1325 699.46 39.6547C699.994 33.2007 700.363 26.7366 700.464 20.2826C700.464 17.0403 700.464 13.7981 700.236 10.5558C700.124 8.92248 699.899 7.29542 699.562 5.6822C699.39 4.85161 699.122 4.03575 698.76 3.24538C698.566 2.80768 698.277 2.40055 697.908 2.04228C697.786 1.93961 697.654 1.84421 697.514 1.75679C697.32 1.66028 697.104 1.59453 696.878 1.56307C696.654 1.55544 696.431 1.58916 696.226 1.66164C696.021 1.73412 695.84 1.84343 695.696 1.9811C695.061 2.71584 694.628 3.54971 694.424 4.4281C694.17 5.23357 693.966 6.03904 693.801 6.84451C693.47 8.44525 693.216 10.0664 693.012 11.6773C692.593 14.8992 692.3 18.1313 692.059 21.3634C691.592 27.8275 691.274 34.2849 691.105 40.7355C690.935 47.186 690.834 53.6434 690.8 60.1076C690.8 66.5717 690.851 73.0291 690.952 79.4797C691.054 73.0155 691.211 66.5581 691.423 60.1076C691.588 53.6434 691.792 47.1792 692.084 40.7355C692.377 34.2917 692.682 27.8173 693.203 21.3634C693.47 18.1415 693.775 14.9196 694.221 11.7181C694.437 10.1174 694.691 8.52683 695.034 6.94647C695.2 6.16139 695.403 5.3763 695.645 4.61162C695.813 3.88631 696.154 3.19387 696.649 2.57245C696.751 2.46029 696.802 2.49088 696.764 2.47048L696.916 2.58265C697.186 2.85667 697.401 3.16284 697.552 3.49007C697.887 4.21705 698.134 4.96822 698.29 5.73316C698.629 7.30542 698.858 8.89165 698.977 10.4844C699.231 13.6961 699.282 16.918 699.256 20.1399C699.256 26.5939 698.824 33.0478 698.43 39.512C698.036 45.9761 697.476 52.4097 696.878 58.8841C696.281 65.3584 695.708 71.8838 694.996 78.3173Z" fill="#6A8EF3"/>
<path d="M685.382 40.1953C683.742 40.0729 682.114 39.9812 680.486 39.8384C678.859 39.6957 677.244 39.5733 675.641 39.3592C674.857 39.2524 674.08 39.1129 673.314 38.9412C672.602 38.8189 671.75 38.411 672.042 38.3498C672.11 37.6712 672.11 36.9893 672.042 36.3107C672.042 35.6479 671.941 34.9954 671.864 34.3327C671.572 31.7123 671.19 29.1022 670.682 26.5023C670.235 23.8947 669.615 21.3081 668.825 18.7534C669.003 20.0585 669.143 21.3636 669.27 22.6788L669.715 26.594L670.605 34.4244C670.775 35.691 670.86 36.9639 670.86 38.2377V38.3804C670.854 38.4687 670.854 38.5572 670.86 38.6455C670.904 38.8005 670.996 38.9441 671.127 39.0635C671.304 39.2433 671.536 39.3837 671.801 39.4714C672.206 39.6324 672.632 39.7555 673.072 39.8384C673.909 39.9979 674.759 40.1069 675.616 40.1647C678.865 40.3895 682.131 40.3997 685.382 40.1953Z" fill="#6A8EF3"/>
<path d="M685.382 44.6299L679.978 43.6714C678.185 43.3656 676.379 43.0597 674.598 42.713C672.842 42.4115 671.113 42.0164 669.423 41.5303C669.308 41.4921 669.201 41.4405 669.105 41.3774C669.018 41.2552 668.95 41.1251 668.901 40.9899C668.764 40.6568 668.658 40.316 668.583 39.9704C668.418 39.2668 668.304 38.543 668.202 37.819C667.769 34.9132 667.566 31.9666 667.299 29.02L666.93 24.6052L666.511 20.1904C666.294 23.1472 666.269 26.104 666.32 29.0608C666.371 32.0176 666.536 34.9744 666.93 37.9312C667.045 38.6755 667.172 39.4198 667.363 40.1641C667.456 40.5482 667.583 40.9264 667.744 41.2958C667.83 41.5161 667.954 41.7255 668.113 41.9178C668.319 42.1293 668.597 42.2886 668.914 42.3766C670.7 42.872 672.539 43.2338 674.408 43.4573C678.045 43.9875 681.707 44.3852 685.382 44.6299Z" fill="#6A8EF3"/>
<path d="M705.335 57.4767C708.596 57.604 711.861 57.3009 715 56.5795C715.418 56.4659 715.818 56.3154 716.195 56.1309C716.431 56.0247 716.632 55.8743 716.78 55.6925C716.919 55.5395 717.031 55.3712 717.111 55.1929C717.42 54.5602 717.65 53.9044 717.797 53.2353C718.082 51.9494 718.286 50.6529 718.408 49.3506C718.662 46.7609 718.764 44.1712 718.738 41.5916C718.713 39.0121 718.624 36.4223 718.331 33.8428L718.014 37.707L717.759 41.5712C717.556 44.1406 717.416 46.6691 717.149 49.2691C717.022 50.5436 716.869 51.818 716.615 53.0619C716.507 53.6679 716.332 54.2649 716.093 54.8462C716.037 54.974 715.964 55.097 715.877 55.2132C715.809 55.2993 715.717 55.3724 715.61 55.4274C715.304 55.5923 714.981 55.7356 714.644 55.8556C713.175 56.3241 711.649 56.6659 710.091 56.8752C708.527 57.1199 706.924 57.2932 705.335 57.4767Z" fill="#6A8EF3"/>
<path d="M720.671 36.2593C720.493 37.7683 720.379 39.318 720.214 40.776L719.832 45.303C719.565 48.3617 719.349 51.3185 719.056 54.3161C718.904 55.8149 718.751 57.3239 718.51 58.7921C718.423 59.5035 718.253 60.2068 718.001 60.8924C717.797 61.4838 717.047 61.8202 716.259 62.1465C714.54 62.6958 712.748 63.0825 710.918 63.2986C709.074 63.5841 707.204 63.7574 705.335 63.9308C709.148 64.1129 712.972 63.768 716.64 62.9112C717.118 62.7558 717.574 62.5611 718.001 62.33C718.47 62.0888 718.828 61.7305 719.018 61.3105C719.344 60.5601 719.57 59.7843 719.692 58.996C719.997 57.4768 720.15 55.9373 720.315 54.4589C720.595 51.4001 720.76 48.4127 720.811 45.3947C720.862 42.3768 720.824 39.2874 720.671 36.2593Z" fill="#6A8EF3"/>
</svg>
