<svg width="47" height="103" viewBox="0 0 47 103" fill="none" xmlns="http://www.w3.org/2000/svg">
<path d="M18.26 52.83C18.26 52.83 12.08 54.18 9.43996 52.83C6.79996 51.48 7.78995 31.8301 5.08995 31.4501C-1.11005 30.5101 -0.0500462 56.59 2.58995 62.08C5.22995 67.57 18.82 65.2401 18.82 65.2401L18.26 52.83Z" fill="#6A8EF3"/>
<path opacity="0.2" d="M18.26 52.83C18.26 52.83 12.08 54.18 9.43996 52.83C6.79996 51.48 7.78995 31.8301 5.08995 31.4501C-1.11005 30.5101 -0.0500462 56.59 2.58995 62.08C5.22995 67.57 18.82 65.2401 18.82 65.2401L18.26 52.83Z" fill="white"/>
<path d="M18.7699 89.07C18.7699 89.07 9.61994 1.92999 20.5399 0.399992C31.4599 -1.13001 34.0999 -0.180008 29.8799 87.4L18.7699 89.07Z" fill="#6A8EF3"/>
<path opacity="0.3" d="M18.7699 89.07C18.7699 89.07 9.61994 1.92999 20.5399 0.399992C31.4599 -1.13001 34.0999 -0.180008 29.8799 87.4L18.7699 89.07Z" fill="white"/>
<path d="M5.93994 79.23H41.8699L38.8699 102.22H8.93994L5.93994 79.23Z" fill="#263238"/>
<path d="M29.6199 35.0501C29.6199 35.0501 39.5699 35.9201 39.8699 35.0501C40.1699 34.1801 40.1699 15.3301 44.3899 16.4501C48.6099 17.5701 46.7599 40.2401 44.3899 42.8801C42.0199 45.5201 29.6199 47.0001 29.6199 47.0001C29.6199 47.0001 27.9999 38.5801 29.6199 35.0501Z" fill="#6A8EF3"/>
<path opacity="0.4" d="M29.6199 35.0501C29.6199 35.0501 39.5699 35.9201 39.8699 35.0501C40.1699 34.1801 40.1699 15.3301 44.3899 16.4501C48.6099 17.5701 46.7599 40.2401 44.3899 42.8801C42.0199 45.5201 29.6199 47.0001 29.6199 47.0001C29.6199 47.0001 27.9999 38.5801 29.6199 35.0501Z" fill="white"/>
<path d="M23.31 76.9099C22.5833 70.6099 21.9167 64.3033 21.31 57.9899C20.7033 51.6766 20.2 45.3433 19.8 38.9899C19.38 32.6599 19.09 26.3199 19.01 19.9899C19.01 16.8099 19.01 13.63 19.19 10.45C19.2776 8.848 19.4546 7.25219 19.72 5.66995C19.8547 4.85532 20.0657 4.05513 20.35 3.27994C20.503 2.85065 20.7298 2.45134 21.02 2.09995C21.1164 1.99926 21.2201 1.90568 21.33 1.81995C21.483 1.72529 21.6527 1.6608 21.83 1.62994C22.0061 1.62246 22.1815 1.65553 22.3428 1.72662C22.504 1.79771 22.6468 1.90492 22.76 2.03995C23.2587 2.76057 23.5995 3.57843 23.76 4.43994C23.96 5.22994 24.12 6.01994 24.25 6.80994C24.51 8.37994 24.71 9.96993 24.87 11.5499C25.2 14.7099 25.43 17.8799 25.62 21.0499C25.9867 27.3899 26.2367 33.7233 26.37 40.0499C26.5033 46.3766 26.5833 52.7099 26.61 59.0499C26.61 65.3899 26.57 71.7233 26.49 78.0499C26.41 71.7099 26.2867 65.3766 26.12 59.0499C25.99 52.7099 25.83 46.3699 25.6 40.0499C25.37 33.7299 25.13 27.3799 24.72 21.0499C24.51 17.8899 24.27 14.7299 23.92 11.5899C23.75 10.0199 23.55 8.45994 23.28 6.90994C23.15 6.13994 22.99 5.36993 22.8 4.61993C22.6681 3.90856 22.3998 3.22942 22.01 2.61993C21.93 2.50993 21.89 2.53993 21.92 2.51993L21.8 2.62994C21.5879 2.8987 21.4192 3.19899 21.3 3.51993C21.0365 4.23294 20.8423 4.96969 20.72 5.71994C20.4533 7.262 20.273 8.81776 20.18 10.3799C19.98 13.5299 19.94 16.6899 19.96 19.8499C19.96 26.1799 20.3 32.5099 20.61 38.8499C20.92 45.1899 21.36 51.4999 21.83 57.8499C22.3 64.1999 22.75 70.5999 23.31 76.9099Z" fill="#6A8EF3"/>
<path d="M30.87 39.52C32.16 39.4 33.44 39.31 34.72 39.17C36 39.03 37.27 38.91 38.53 38.7C39.1467 38.5952 39.7575 38.4584 40.36 38.29C40.92 38.17 41.59 37.77 41.36 37.71C41.3065 37.0444 41.3065 36.3756 41.36 35.71C41.36 35.06 41.44 34.42 41.5 33.77C41.73 31.2 42.03 28.64 42.43 26.09C42.7815 23.5326 43.2688 20.9956 43.89 18.49C43.75 19.77 43.64 21.05 43.54 22.34L43.19 26.18L42.49 33.86C42.3567 35.1022 42.29 36.3507 42.29 37.6V37.74C42.2948 37.8266 42.2948 37.9134 42.29 38C42.2551 38.152 42.1829 38.2929 42.08 38.41C41.9403 38.5863 41.7579 38.724 41.55 38.81C41.2316 38.9679 40.896 39.0887 40.55 39.17C39.8922 39.3264 39.2237 39.4333 38.55 39.49C35.9951 39.7105 33.4265 39.7205 30.87 39.52Z" fill="#6A8EF3"/>
<path d="M30.87 43.87L35.12 42.93C36.53 42.63 37.95 42.33 39.35 41.99C40.7309 41.6943 42.0906 41.3067 43.42 40.83C43.5102 40.7925 43.5944 40.742 43.67 40.68C43.7383 40.5602 43.792 40.4326 43.83 40.3C43.9378 39.9733 44.0213 39.639 44.08 39.3C44.21 38.61 44.3 37.9 44.38 37.19C44.72 34.34 44.88 31.45 45.09 28.56L45.38 24.23L45.71 19.9C45.88 22.8 45.9 25.7 45.86 28.6C45.82 31.5 45.69 34.4 45.38 37.3C45.29 38.03 45.19 38.76 45.04 39.49C44.9667 39.8667 44.8665 40.2377 44.74 40.6C44.6727 40.8161 44.575 41.0214 44.45 41.21C44.2876 41.4175 44.0689 41.5737 43.82 41.66C42.4158 42.146 40.9696 42.5008 39.5 42.72C36.64 43.24 33.76 43.63 30.87 43.87Z" fill="#6A8EF3"/>
<path d="M15.1799 56.47C12.6155 56.5949 10.048 56.2976 7.57995 55.59C7.2513 55.4786 6.93603 55.331 6.63994 55.15C6.45417 55.0459 6.29634 54.8984 6.17994 54.72C6.07025 54.57 5.98269 54.405 5.91994 54.23C5.67679 53.6095 5.4959 52.9663 5.37994 52.31C5.15605 51.0489 4.99585 49.7773 4.89995 48.5C4.69995 45.96 4.61994 43.42 4.63994 40.89C4.65994 38.36 4.72994 35.82 4.95994 33.29L5.20994 37.08L5.40995 40.87C5.56995 43.39 5.67994 45.87 5.88994 48.42C5.98994 49.67 6.10994 50.92 6.30994 52.14C6.39479 52.7343 6.532 53.3199 6.71994 53.89C6.7645 54.0154 6.82144 54.136 6.88994 54.25C6.94387 54.3344 7.01553 54.4061 7.09994 54.46C7.34062 54.6218 7.59491 54.7623 7.85994 54.88C9.01439 55.3395 10.2145 55.6747 11.4399 55.88C12.6699 56.12 13.9299 56.29 15.1799 56.47Z" fill="#6A8EF3"/>
<path d="M3.11999 35.6599C3.25999 37.1399 3.34999 38.6599 3.47999 40.0899L3.77999 44.5299C3.98999 47.5299 4.15999 50.4299 4.38999 53.3699C4.50999 54.8399 4.62999 56.3199 4.81999 57.7599C4.88779 58.4577 5.02172 59.1475 5.21999 59.8199C5.37999 60.3999 5.96998 60.7299 6.58998 61.0499C7.94126 61.5886 9.3508 61.9679 10.79 62.1799C12.24 62.4599 13.71 62.6299 15.18 62.7999C12.1812 62.9785 9.17412 62.6402 6.28999 61.7999C5.91451 61.6475 5.55591 61.4565 5.21999 61.2299C4.85093 60.9933 4.56984 60.6419 4.41998 60.2299C4.16392 59.494 3.98627 58.7331 3.88999 57.9599C3.64999 56.4699 3.52999 54.9599 3.39999 53.5099C3.17999 50.5099 3.04999 47.5799 3.00999 44.6199C2.96999 41.6599 2.99999 38.6299 3.11999 35.6599Z" fill="#6A8EF3"/>
</svg>
