<svg width="52" height="99" viewBox="0 0 52 99" fill="none" xmlns="http://www.w3.org/2000/svg">
<path d="M39 85.16L48.09 79.9C48.09 79.9 53.5 57.42 51.34 37.19C48.34 8.74998 29.59 -1.95002 22.47 0.49998C15.35 2.94998 13.29 11.23 25.07 28.17C32 38.17 40.56 59 39 85.16Z" fill="#5E8EFF"/>
<g opacity="0.3">
<path d="M39 85.16L48.09 79.9C48.09 79.9 53.5 57.42 51.34 37.19C48.34 8.74998 29.59 -1.95002 22.47 0.49998C15.35 2.94998 13.29 11.23 25.07 28.17C32 38.17 40.56 59 39 85.16Z" fill="white"/>
</g>
<path d="M42.77 74.11H42.68C42.5978 74.0957 42.5194 74.065 42.4494 74.0197C42.3794 73.9744 42.3193 73.9154 42.2726 73.8463C42.226 73.7772 42.1937 73.6994 42.1778 73.6176C42.1618 73.5358 42.1626 73.4516 42.18 73.37C47.18 47.14 38 17.66 26.65 5.37001C26.5904 5.3102 26.5434 5.23902 26.5119 5.16072C26.4804 5.08241 26.4649 4.99857 26.4664 4.91417C26.4679 4.82976 26.4864 4.74655 26.5207 4.66942C26.555 4.59228 26.6044 4.52281 26.6661 4.46516C26.7278 4.40751 26.8004 4.36284 26.8796 4.33381C26.9589 4.30478 27.0432 4.292 27.1275 4.29619C27.2118 4.30037 27.2944 4.32143 27.3705 4.35817C27.4465 4.3949 27.5143 4.44655 27.57 4.51002C39.13 17 48.47 47 43.42 73.6C43.3912 73.7491 43.3097 73.8828 43.1902 73.9765C43.0708 74.0702 42.9216 74.1176 42.77 74.11Z" fill="white"/>
<path d="M16.12 98.36C14.76 99.06 11.12 95.96 10.12 95.21C8.39777 93.9106 7.04057 92.1883 6.17995 90.21C5.20936 87.9606 4.96806 85.4636 5.48996 83.07C5.75979 81.8056 6.12073 80.5623 6.56995 79.35C6.98995 78.15 7.39996 76.94 7.80996 75.74C8.29955 74.5826 8.54467 73.3365 8.52995 72.08C8.33995 69.56 6.20995 67.69 4.25995 66.08C2.10995 64.3 -0.100045 61.97 0.0599551 58.96C0.34833 56.6276 1.40363 54.4572 3.05996 52.79C4.58996 51.03 6.37995 49.51 7.77995 47.65C8.88318 46.3488 9.50158 44.7056 9.52995 43C9.44937 41.9508 9.1532 40.9295 8.65995 40C7.65995 38 6.37995 36.11 5.74995 34C5.11995 31.89 5.35996 29.24 7.07996 27.81C8.49996 26.65 10.51 26.57 12.33 26.81C14.0332 27.1009 15.6515 27.7632 17.07 28.75C21.72 31.65 24.16 37.45 29.13 39.75C31.1134 40.4798 33.1407 41.0844 35.2 41.56C37.2 42.21 39.2 43.35 40.09 45.29C41.77 49.1 38.09 53.51 39.19 57.53C40.19 61.08 43.5 62.59 45.25 65.84C45.957 67.2702 46.1883 68.889 45.91 70.46C45.6133 73.1277 44.8268 75.7178 43.59 78.1C42.2055 80.5448 40.6726 82.9025 39 85.16C39 85.16 16.33 98.26 16.12 98.36Z" fill="#5E8EFF"/>
<g opacity="0.65">
<path d="M16.12 98.36C14.76 99.06 11.12 95.96 10.12 95.21C8.39777 93.9106 7.04057 92.1883 6.17995 90.21C5.20936 87.9606 4.96806 85.4636 5.48996 83.07C5.75979 81.8056 6.12073 80.5623 6.56995 79.35C6.98995 78.15 7.39996 76.94 7.80996 75.74C8.29955 74.5826 8.54467 73.3365 8.52995 72.08C8.33995 69.56 6.20995 67.69 4.25995 66.08C2.10995 64.3 -0.100045 61.97 0.0599551 58.96C0.34833 56.6276 1.40363 54.4572 3.05996 52.79C4.58996 51.03 6.37995 49.51 7.77995 47.65C8.88318 46.3488 9.50158 44.7056 9.52995 43C9.44937 41.9508 9.1532 40.9295 8.65995 40C7.65995 38 6.37995 36.11 5.74995 34C5.11995 31.89 5.35996 29.24 7.07996 27.81C8.49996 26.65 10.51 26.57 12.33 26.81C14.0332 27.1009 15.6515 27.7632 17.07 28.75C21.72 31.65 24.16 37.45 29.13 39.75C31.1134 40.4798 33.1407 41.0844 35.2 41.56C37.2 42.21 39.2 43.35 40.09 45.29C41.77 49.1 38.09 53.51 39.19 57.53C40.19 61.08 43.5 62.59 45.25 65.84C45.957 67.2702 46.1883 68.889 45.91 70.46C45.6133 73.1277 44.8268 75.7178 43.59 78.1C42.2055 80.5448 40.6726 82.9025 39 85.16C39 85.16 16.33 98.26 16.12 98.36Z" fill="white"/>
</g>
<path d="M29.2799 91.51C29.1226 91.4923 28.978 91.4152 28.8757 91.2943C28.7734 91.1735 28.7213 91.018 28.7299 90.86C30.9099 67.26 21.0899 40.6 13.3699 32.61C13.2594 32.4961 13.1975 32.3437 13.1975 32.185C13.1975 32.0263 13.2594 31.8738 13.3699 31.76C13.4257 31.704 13.4919 31.6596 13.5648 31.6294C13.6378 31.5991 13.716 31.5835 13.7949 31.5835C13.8739 31.5835 13.9521 31.5991 14.025 31.6294C14.098 31.6596 14.1642 31.704 14.2199 31.76C22.0799 39.93 32.1099 67 29.8999 91C29.8778 91.1466 29.8023 91.2798 29.6878 91.3739C29.5733 91.4681 29.428 91.5166 29.2799 91.51Z" fill="white"/>
<path d="M26.93 62.41H26.76C21.2416 60.5876 15.5414 59.3704 9.75998 58.7799C9.60243 58.7647 9.45728 58.6879 9.35614 58.5661C9.25499 58.4444 9.20606 58.2876 9.21998 58.13C9.22337 58.0504 9.24338 57.9725 9.27873 57.9011C9.31408 57.8298 9.36398 57.7667 9.42522 57.7158C9.48645 57.6649 9.55767 57.6274 9.63427 57.6058C9.71087 57.5841 9.79116 57.5787 9.86998 57.5899C15.7609 58.1882 21.5688 59.4289 27.19 61.29C27.2638 61.3155 27.3317 61.3558 27.3896 61.4083C27.4475 61.4608 27.4942 61.5244 27.5269 61.5954C27.5596 61.6664 27.5776 61.7432 27.5799 61.8213C27.5821 61.8994 27.5685 61.9772 27.54 62.0499C27.4938 62.17 27.4084 62.2708 27.2977 62.3362C27.1869 62.4015 27.0574 62.4276 26.93 62.41Z" fill="white"/>
</svg>
