<svg width="323" height="410" viewBox="0 0 323 410" fill="none" xmlns="http://www.w3.org/2000/svg">
<path d="M300.47 34.77H296.47C296.473 35.2237 296.384 35.6733 296.21 36.0922C296.036 36.5111 295.78 36.8908 295.456 37.2088C295.133 37.5268 294.748 37.7766 294.327 37.9435C293.905 38.1103 293.454 38.1907 293 38.18C292.33 38.204 291.67 38.0185 291.11 37.6492C290.551 37.2799 290.121 36.7453 289.88 36.12C289.669 35.5992 289.585 35.036 289.634 34.4764C289.682 33.9167 289.863 33.3766 290.16 32.9C290.84 31.78 292.32 30.77 295 31.24V22.24H291.07V27.5C289.457 27.9747 288.045 28.9655 287.05 30.3204C286.054 31.6752 285.531 33.3191 285.56 35C285.56 40.82 290.78 42.17 293.02 42.17C294.73 42.21 300.55 41.8 300.47 34.77Z" fill="#FF92B7"/>
<path d="M291.04 20.42H295.03V16.69H291.04V20.42Z" fill="#FF92B7"/>
<path d="M322.28 29.45C322.293 29.2803 322.293 29.1097 322.28 28.94C322.28 28.58 322.28 28.09 322.28 27.46C322.28 27.14 322.28 26.77 322.23 26.37C322.18 25.97 322.12 25.53 322.05 25.07C321.98 24.61 321.91 24.07 321.83 23.54L321.41 21.84C320.667 18.9124 319.451 16.1257 317.81 13.59C315.427 9.8348 312.215 6.67603 308.42 4.3565C304.625 2.03697 300.349 0.618462 295.92 0.210005C294.59 0.0925428 293.254 0.0658163 291.92 0.130007C291.25 0.130007 290.56 0.130004 289.92 0.260004L287.86 0.570005C285.034 1.09534 282.298 2.02841 279.74 3.34001C277.069 4.75328 274.614 6.5414 272.45 8.65001C270.234 10.8958 268.382 13.4735 266.96 16.29C265.43 19.1937 264.428 22.346 264 25.6C263.875 26.4245 263.805 27.2563 263.79 28.09C263.723 28.9249 263.707 29.7631 263.74 30.6C263.958 35.9645 265.634 41.1679 268.59 45.65V45.34C267.2 48.81 265.83 52.22 264.49 55.54L264.25 56.15L264.88 55.97L275.78 52.97L275.52 52.91C279.191 55.6891 283.468 57.5601 288 58.37C290.103 58.7619 292.245 58.8929 294.38 58.76C295.409 58.7447 296.436 58.6477 297.45 58.47L298.94 58.24C299.43 58.15 299.94 58 300.38 57.89C307.097 56.1879 312.989 52.1502 317 46.5C318.496 44.4185 319.698 42.1403 320.57 39.73C320.76 39.2 320.94 38.73 321.11 38.21C321.28 37.69 321.37 37.21 321.48 36.76C321.59 36.31 321.71 35.85 321.81 35.43C321.91 35.01 321.94 34.6 322 34.21C322.09 33.44 322.23 32.76 322.26 32.21C322.29 31.66 322.26 31.13 322.26 30.71C322.26 30.29 322.26 30.03 322.26 29.8C322.26 29.57 322.26 29.49 322.26 29.49C322.245 29.5928 322.245 29.6972 322.26 29.8C322.26 30.03 322.26 30.33 322.19 30.71C322.12 31.09 322.13 31.62 322.09 32.2C322.05 32.78 321.9 33.46 321.78 34.2C320.826 39.7346 318.286 44.8732 314.467 48.9916C310.649 53.11 305.717 56.0311 300.27 57.4C299.8 57.51 299.33 57.65 298.85 57.74L297.38 57.96C296.388 58.1256 295.385 58.2158 294.38 58.23C292.285 58.3405 290.183 58.2028 288.12 57.82C283.694 57.0054 279.519 55.1664 275.93 52.45L275.81 52.35H275.66L264.75 55.35L265.13 55.78L269.24 45.59L269.3 45.43L269.21 45.28C267.241 42.3008 265.844 38.9808 265.09 35.49C264.745 33.8705 264.537 32.2246 264.47 30.57C264.437 29.7531 264.453 28.9349 264.52 28.12C264.526 27.3062 264.593 26.4939 264.72 25.69C265.104 22.5122 266.049 19.4278 267.51 16.58C268.9 13.8274 270.704 11.3047 272.86 9.1C274.978 7.02995 277.383 5.27531 280 3.89001C282.501 2.58904 285.18 1.66249 287.95 1.14001L289.95 0.830008C290.62 0.730008 291.29 0.740004 291.95 0.690004C293.254 0.62799 294.56 0.651373 295.86 0.760004C300.216 1.14133 304.428 2.51024 308.176 4.76279C311.924 7.01534 315.109 10.0923 317.49 13.76C319.14 16.2514 320.376 18.9936 321.15 21.88L321.6 23.56C321.69 24.09 321.77 24.56 321.85 25.06C321.93 25.56 321.99 25.96 322.06 26.36C322.13 26.76 322.11 27.12 322.14 27.44C322.14 28.06 322.22 28.55 322.25 28.91C322.231 29.0905 322.241 29.2728 322.28 29.45Z" fill="#263238"/>
<path d="M24.0701 147.38H81.8201C81.8201 147.38 81.8201 98.89 132.21 98.03C158.38 97.57 171.95 114.72 177.47 127.85C183.87 143.1 181.93 160.48 173.35 174.63C163.56 190.78 142.46 207.01 103.54 200.15L103.17 328.82H160.28V252.54C160.28 252.54 240.37 231.84 240.37 143.54C240.37 59.09 172.08 40.85 135.37 39.67C114.95 39.02 107.55 38.14 82.2901 41.73C50.1001 46.33 23.3901 83.71 24.0701 147.38Z" fill="#FF92B7"/>
<path d="M160.97 355.64H103.01V409.77H160.97V355.64Z" fill="#FF92B7"/>
<path opacity="0.1" d="M160.97 355.64H103.01V409.77H160.97V355.64Z" fill="black"/>
<path opacity="0.1" d="M24.0701 147.38H81.8201C81.8201 147.38 81.8201 98.89 132.21 98.03C158.38 97.57 171.95 114.72 177.47 127.85C183.87 143.1 181.93 160.48 173.35 174.63C163.56 190.78 142.46 207.01 103.54 200.15L103.17 328.82H160.28V252.54C160.28 252.54 240.37 231.84 240.37 143.54C240.37 59.09 172.08 40.85 135.37 39.67C114.95 39.02 107.55 38.14 82.2901 41.73C50.1001 46.33 23.3901 83.71 24.0701 147.38Z" fill="black"/>
<path d="M0.140092 147.38H57.9001C57.9001 147.38 57.9001 98.89 108.29 98.03C134.46 97.57 148.03 114.72 153.54 127.85C159.95 143.1 158.01 160.48 149.43 174.63C139.64 190.78 118.17 205.46 79.2501 198.63V328.82H136.36V252.54C136.36 252.54 216.45 231.84 216.45 143.54C216.45 59.09 140.71 39.48 108.3 39.48C83.5101 39.51 -0.949908 45.5 0.140092 147.38Z" fill="#FF7EAA"/>
<path opacity="0.3" d="M0.140092 147.38H57.9001C57.9001 147.38 57.9001 98.89 108.29 98.03C134.46 97.57 148.03 114.72 153.54 127.85C159.95 143.1 158.01 160.48 149.43 174.63C139.64 190.78 118.17 205.46 79.2501 198.63V328.82H136.36V252.54C136.36 252.54 216.45 231.84 216.45 143.54C216.45 59.09 140.71 39.48 108.3 39.48C83.5101 39.51 -0.949908 45.5 0.140092 147.38Z" fill="black"/>
<path d="M137.05 355.64H79.0901V409.77H137.05V355.64Z" fill="#FF7EAA"/>
<path opacity="0.3" d="M137.05 355.64H79.0901V409.77H137.05V355.64Z" fill="black"/>
<path d="M114.81 98.29C114.524 98.3147 114.236 98.3147 113.95 98.29C113.38 98.29 112.56 98.1 111.49 98.09C108.465 97.9414 105.432 98.0686 102.43 98.47C97.9781 99.0336 93.5975 100.063 89.3602 101.54C86.8623 102.413 84.4295 103.462 82.0802 104.68C79.5407 105.949 77.1495 107.495 74.9502 109.29C72.7659 111.101 70.8084 113.169 69.1202 115.45C67.5199 117.558 66.0601 119.77 64.7502 122.07C62.5632 125.987 60.8287 130.141 59.5802 134.45C58.7336 137.358 58.1513 140.337 57.8402 143.35C57.7202 144.41 57.6902 145.25 57.6602 145.81C57.6608 146.099 57.634 146.387 57.5802 146.67C57.5543 146.384 57.5543 146.096 57.5802 145.81C57.5802 145.24 57.5802 144.4 57.6702 143.33C57.9001 140.285 58.4327 137.27 59.2602 134.33C60.4628 129.971 62.1746 125.769 64.3602 121.81C65.6727 119.485 67.1393 117.25 68.7502 115.12C70.4526 112.802 72.4342 110.703 74.6502 108.87C76.8762 107.05 79.2977 105.484 81.8702 104.2C84.2341 102.96 86.6837 101.891 89.2002 101C93.476 99.5282 97.8983 98.5224 102.39 98C105.412 97.6287 108.464 97.5583 111.5 97.79C112.325 97.8428 113.147 97.9429 113.96 98.09C114.248 98.1367 114.532 98.2035 114.81 98.29Z" fill="#263238"/>
<path d="M201.83 88C201.83 88 201.76 87.93 201.64 87.78C201.52 87.63 201.34 87.37 201.14 87.08L199.23 84.38C198.82 83.8 198.38 83.13 197.86 82.44L196.06 80.25L194 77.72C193.25 76.84 192.37 75.99 191.49 75.06C190.61 74.13 189.71 73.14 188.69 72.19C187.67 71.24 186.58 70.27 185.46 69.27C184.9 68.77 184.35 68.27 183.75 67.74L181.89 66.27C180.62 65.27 179.36 64.27 177.99 63.27C172.019 58.9976 165.684 55.2567 159.06 52.09L153.79 49.71L148.56 47.71C146.85 47 145.11 46.5 143.43 45.94C141.75 45.38 140.11 44.81 138.43 44.42L133.65 43.17C132.1 42.76 130.56 42.51 129.09 42.17C127.62 41.83 126.2 41.53 124.81 41.36L120.81 40.78C118.28 40.35 115.96 40.26 113.94 40.06C112.94 39.98 111.94 39.87 111.11 39.83L108.73 39.77L105.43 39.66H104.57H104.28C104.376 39.645 104.474 39.645 104.57 39.66H105.43H108.73H111.12C111.99 39.66 112.94 39.78 113.96 39.85C115.96 40.02 118.32 40.09 120.85 40.5L124.85 41.04C126.24 41.2 127.66 41.56 129.14 41.83C130.62 42.1 132.14 42.38 133.73 42.83L138.53 44.07C140.19 44.45 141.83 45.07 143.53 45.58C145.23 46.09 146.96 46.58 148.67 47.34L153.93 49.34L159.23 51.73C165.889 54.9039 172.248 58.6725 178.23 62.99C179.61 63.99 180.87 65.06 182.14 66.05L184 67.4C184.6 67.9 185.15 68.4 185.71 68.94L188.93 71.94C189.93 72.94 190.83 73.94 191.72 74.85C192.61 75.76 193.46 76.65 194.21 77.54L196.21 80.09L197.99 82.31C198.5 83.01 198.93 83.69 199.33 84.31C200.11 85.48 200.72 86.4 201.15 87.06L201.62 87.79C201.699 87.8506 201.769 87.9212 201.83 88Z" fill="#263238"/>
<path d="M195.81 212C195.691 212.216 195.547 212.418 195.38 212.6L194 214.23C193.43 214.96 192.71 215.83 191.82 216.8C190.93 217.77 189.98 218.91 188.82 220.09C187.66 221.27 186.42 222.59 185.01 223.92C183.6 225.25 182.07 226.65 180.44 228.11C173.291 234.35 165.454 239.755 157.08 244.22C155.14 245.22 153.31 246.22 151.54 246.99C149.77 247.76 148.12 248.55 146.6 249.19C145.08 249.83 143.68 250.36 142.46 250.83C141.24 251.3 140.17 251.68 139.29 251.96L137.29 252.61C137.058 252.702 136.817 252.769 136.57 252.81C136.786 252.687 137.014 252.586 137.25 252.51L139.25 251.77C140.12 251.46 141.17 251.06 142.38 250.56C143.59 250.06 144.99 249.56 146.49 248.85C147.99 248.14 149.65 247.47 151.38 246.6C153.11 245.73 154.96 244.81 156.89 243.8C160.7 241.7 164.81 239.24 168.96 236.4C173.11 233.56 176.84 230.57 180.16 227.75C181.79 226.31 183.35 224.96 184.74 223.6C186.13 222.24 187.43 221.01 188.58 219.83C189.73 218.65 190.74 217.56 191.64 216.6C192.54 215.64 193.28 214.8 193.88 214.1L195.28 212.51C195.443 212.326 195.62 212.155 195.81 212Z" fill="#263238"/>
<path d="M135.35 324.28C135.2 324.28 135.08 308.22 135.08 288.41C135.08 268.6 135.2 252.53 135.35 252.53C135.5 252.53 135.61 268.59 135.61 288.41C135.61 308.23 135.49 324.28 135.35 324.28Z" fill="#263238"/>
<path d="M137.55 406.1C137.4 406.1 137.29 394.83 137.29 380.93C137.29 367.03 137.4 355.75 137.55 355.75C137.7 355.75 137.81 367.02 137.81 380.93C137.81 394.84 137.69 406.1 137.55 406.1Z" fill="#263238"/>
<path d="M194.4 139.71C193.4 141.71 197.13 143.35 199.28 144C201.474 144.538 203.744 144.694 205.99 144.46C208.99 144.3 212.06 144.02 214.65 142.54C216.918 141.135 218.731 139.103 219.87 136.69C220.993 134.285 221.88 131.776 222.52 129.2C222.52 129.2 198.89 130.74 194.4 139.71Z" fill="#FF92B7"/>
<g opacity="0.4">
<path d="M194.4 139.71C193.4 141.71 197.13 143.35 199.28 144C201.474 144.538 203.744 144.694 205.99 144.46C208.99 144.3 212.06 144.02 214.65 142.54C216.918 141.135 218.731 139.103 219.87 136.69C220.993 134.285 221.88 131.776 222.52 129.2C222.52 129.2 198.89 130.74 194.4 139.71Z" fill="black"/>
</g>
<path d="M261.14 133.31C265.036 136.073 269.704 137.536 274.48 137.49C276.77 137.618 279.027 136.906 280.83 135.49C281.6 134.78 282.18 133.88 282.97 133.2C283.51 132.74 284.14 132.39 284.65 131.9C284.919 131.668 285.127 131.373 285.254 131.042C285.382 130.71 285.425 130.352 285.38 130C285.183 129.131 284.696 128.356 284 127.8C281.29 126.26 278.05 126.32 274.93 126.39C271.808 126.525 268.723 127.129 265.78 128.18C263.36 129 260.83 130.18 259.6 132.38" fill="#FF92B7"/>
<g opacity="0.4">
<path d="M285.38 130C285.027 129.157 284.404 128.453 283.61 128C280.9 126.46 278.05 126.32 274.93 126.39C271.808 126.525 268.723 127.129 265.78 128.18C263.36 129 260.83 130.18 259.6 132.38L261.14 133.31C265.036 136.073 269.704 137.536 274.48 137.49C276.77 137.618 279.027 136.907 280.83 135.49C281.6 134.78 282.18 133.88 282.97 133.2C283.51 132.74 284.14 132.39 284.65 131.9C284.919 131.668 285.127 131.373 285.254 131.042C285.382 130.71 285.425 130.352 285.38 130Z" fill="black"/>
</g>
<path d="M215 169.2L264.85 169.86C264.952 169.86 265.052 169.836 265.142 169.79C265.233 169.744 265.311 169.678 265.371 169.596C265.432 169.514 265.472 169.42 265.489 169.32C265.506 169.22 265.5 169.117 265.47 169.02L259.62 150.78C259.62 150.78 260.48 141.66 261.67 130.7C263.48 114.05 265.89 93.12 265.92 93.18C262.51 83.62 242.39 82 242.39 82L219.46 83.36L218.66 82.01L212.06 85.08C210.621 85.7497 209.236 86.5321 207.92 87.42C203.56 90.33 193.06 97.02 191.14 104.47C186.71 121.72 194.21 140.97 194.21 140.97L199.03 137.2C200.244 136.264 201.521 135.413 202.85 134.65L212.51 160.54C211.935 160.902 211.448 161.389 211.085 161.963C210.722 162.537 210.491 163.185 210.41 163.86C210.33 165.96 211.41 168.48 215 169.2Z" fill="#FF92B7"/>
<g opacity="0.3">
<path d="M236.39 138.68C237.97 130.18 237.14 121.44 236.29 112.84C233.53 119.84 233.63 127.84 230.7 134.78C230.341 135.513 230.079 136.289 229.92 137.09C229.844 137.492 229.864 137.906 229.978 138.299C230.093 138.692 230.299 139.052 230.58 139.35C231.38 140.08 232.58 139.68 233.64 139.56C234.589 139.379 235.512 139.083 236.39 138.68Z" fill="black"/>
</g>
<g opacity="0.4">
<path d="M218 158.36C222 159.75 226.26 157.16 230.49 156.7C233.29 156.4 236.09 157.04 238.87 157.49C244.492 158.399 250.211 158.541 255.87 157.91C256.738 157.862 257.588 157.641 258.37 157.26C258.774 156.985 259.104 156.615 259.333 156.183C259.561 155.75 259.68 155.269 259.68 154.78C250.26 153.78 240.85 153.24 231.43 152.27C229.085 151.87 226.684 151.948 224.37 152.5C221.53 153.38 219.37 155.61 217.37 157.82" fill="black"/>
</g>
<path d="M283.94 126.72C279.87 117.55 265.52 92.19 265.52 92.19L254.41 106.12L257 133.47C257 133.47 262.87 126.92 279.28 126.79C280.473 126.838 281.64 127.152 282.695 127.709C283.751 128.266 284.668 129.052 285.38 130.01L283.94 126.72Z" fill="#FF92B7"/>
<path d="M217.23 121.87C216.438 119.926 215.809 117.919 215.35 115.87C214.729 113.874 214.274 111.831 213.99 109.76C214.771 111.707 215.397 113.714 215.86 115.76C216.481 117.756 216.94 119.8 217.23 121.87Z" fill="#263238"/>
<path d="M253.57 104.27C253.932 104.526 254.267 104.817 254.57 105.14C255.454 105.993 256.282 106.902 257.05 107.86C259.636 111.021 261.453 114.738 262.36 118.72C262.831 120.921 262.935 123.185 262.67 125.42C262.42 127.47 262.03 129.27 261.77 130.79C261.51 132.31 261.35 133.55 261.27 134.41C261.268 134.857 261.221 135.302 261.13 135.74C261.059 135.294 261.039 134.841 261.07 134.39C261.114 133.165 261.228 131.943 261.41 130.73C261.62 129.2 261.97 127.38 262.2 125.37C262.431 123.185 262.313 120.978 261.85 118.83C260.954 114.923 259.217 111.257 256.76 108.09C254.93 105.63 253.49 104.35 253.57 104.27Z" fill="#263238"/>
<path d="M243.39 167C243.043 167.155 242.676 167.262 242.3 167.32C241.873 167.433 241.439 167.516 241 167.57C240.49 167.64 239.91 167.75 239.26 167.78C237.737 167.92 236.203 167.92 234.68 167.78C232.816 167.588 230.974 167.22 229.18 166.68C227.395 166.106 225.667 165.366 224.02 164.47C222.685 163.725 221.417 162.865 220.23 161.9C219.71 161.5 219.29 161.08 218.91 160.73C218.582 160.435 218.272 160.121 217.98 159.79C217.702 159.533 217.463 159.236 217.27 158.91C217.34 158.84 218.41 160.04 220.46 161.61C221.658 162.521 222.925 163.337 224.25 164.05C225.879 164.906 227.578 165.618 229.33 166.18C231.094 166.711 232.901 167.086 234.73 167.3C236.224 167.461 237.729 167.508 239.23 167.44C241.8 167.3 243.37 166.92 243.39 167Z" fill="#263238"/>
<path d="M258.78 161.32C259.015 161.772 259.149 162.271 259.17 162.78C259.33 163.999 259.238 165.238 258.9 166.42C258.556 167.629 257.86 168.709 256.9 169.52C256.17 170.13 255.61 170.32 255.58 170.27C255.55 170.22 256.02 169.89 256.65 169.27C257.459 168.426 258.046 167.396 258.36 166.27C259.16 163.63 258.59 161.33 258.78 161.32Z" fill="#263238"/>
<path d="M256.07 164.84C256.287 165.868 256.2 166.938 255.82 167.918C255.44 168.898 254.784 169.746 253.93 170.36C253.82 170.25 254.75 169.26 255.33 167.73C255.91 166.2 255.92 164.85 256.07 164.84Z" fill="#263238"/>
<path d="M247.15 131.94C246.62 132.836 246.025 133.691 245.37 134.5C244.853 135.403 244.268 136.266 243.62 137.08C243.812 136.025 244.266 135.034 244.94 134.2C245.473 133.271 246.234 132.494 247.15 131.94Z" fill="#263238"/>
<path d="M212.93 107.72C212.168 107.273 211.43 106.785 210.72 106.26C207.164 103.923 203.127 102.416 198.91 101.85C198.027 101.786 197.149 101.669 196.28 101.5C197.166 101.378 198.064 101.378 198.95 101.5C203.282 101.87 207.432 103.415 210.95 105.97C211.688 106.459 212.354 107.048 212.93 107.72Z" fill="#263238"/>
<path d="M265.52 91.86C263.73 93.3013 262.059 94.8829 260.52 96.59C259.104 98.4118 257.836 100.345 256.73 102.37C256.849 101.689 257.082 101.033 257.42 100.43C258.144 98.9305 259.051 97.5265 260.12 96.25C261.192 94.976 262.422 93.8436 263.78 92.88C264.297 92.4423 264.886 92.0972 265.52 91.86Z" fill="#263238"/>
<path d="M244.94 83.62C245.031 83.7642 245.105 83.9186 245.16 84.08C245.355 84.5329 245.512 85.0011 245.63 85.48C246.052 87.2621 246.052 89.1179 245.63 90.9C245.008 93.5603 243.584 95.9653 241.55 97.79C238.984 99.9643 235.713 101.13 232.35 101.07C228.984 101.082 225.704 100.005 223 98C220.846 96.3549 219.097 94.2372 217.89 91.81C217.077 90.1848 216.504 88.45 216.19 86.66C216.098 86.1778 216.038 85.6901 216.01 85.2C215.982 85.0278 215.982 84.8522 216.01 84.68C216.01 84.68 216.12 85.38 216.4 86.62C216.789 88.3595 217.404 90.0405 218.23 91.62C219.45 93.9741 221.183 96.0245 223.3 97.62C225.906 99.5496 229.058 100.6 232.3 100.62C235.542 100.68 238.697 99.5723 241.19 97.5C243.155 95.7422 244.548 93.4366 245.19 90.88C245.635 89.1543 245.697 87.352 245.37 85.6C245.18 84.28 244.88 83.64 244.94 83.62Z" fill="#263238"/>
<g opacity="0.3">
<path d="M248.44 133.71C248.44 133.21 248.36 132.62 247.92 132.37C247.781 132.3 247.626 132.263 247.47 132.263C247.314 132.263 247.16 132.3 247.02 132.37C246.74 132.521 246.493 132.725 246.29 132.97C245.114 134.193 244.205 135.647 243.62 137.24L248.52 136.81C248.49 135.8 248.47 134.74 248.44 133.71Z" fill="black"/>
</g>
<g opacity="0.3">
<path d="M264.71 123.4C264.218 120.596 262.989 117.973 261.15 115.8C263.27 122.72 262.56 126.63 261.37 131.37L261.63 130.71C263 127.94 265.08 126.2 264.71 123.4Z" fill="black"/>
</g>
<path d="M254.92 355.86L251.93 400.71L232.43 400.48L229.36 353.85L254.92 355.86Z" fill="#FFBE9D"/>
<path d="M252.48 394.81V396.11C252.48 396.11 274.48 404.95 274.69 409.11L231 408.87L231.68 394.34C238.19 397.39 245 397.77 252.48 394.81Z" fill="#FF92B7"/>
<path d="M236.11 399C235.695 399.125 235.341 399.398 235.112 399.766C234.884 400.134 234.798 400.573 234.87 401C234.977 401.427 235.245 401.795 235.618 402.028C235.991 402.261 236.44 402.341 236.87 402.25C237.315 402.117 237.695 401.823 237.935 401.426C238.175 401.028 238.259 400.556 238.17 400.1C238.012 399.668 237.691 399.315 237.277 399.115C236.862 398.915 236.387 398.885 235.95 399.03" fill="white"/>
<path d="M231 408.87L231.16 405.38L273 406.9C273 406.9 274.94 407.76 274.71 409.12L231 408.87Z" fill="#263238"/>
<path d="M252.64 396.23C252.64 396.44 251.56 396.53 250.51 397.23C249.46 397.93 248.89 398.8 248.7 398.72C248.51 398.64 248.83 397.4 250.12 396.6C251.41 395.8 252.69 396 252.64 396.23Z" fill="#263238"/>
<path d="M257.21 398.15C257.26 398.36 256.33 398.71 255.6 399.61C254.87 400.51 254.66 401.46 254.44 401.45C254.22 401.44 254.1 400.23 255.03 399.14C255.96 398.05 257.2 398 257.21 398.15Z" fill="#263238"/>
<path d="M259.78 403.65C259.58 403.65 259.29 402.65 259.85 401.46C260.41 400.27 261.4 399.84 261.49 400.01C261.58 400.18 260.96 400.81 260.49 401.78C260.02 402.75 260 403.63 259.78 403.65Z" fill="#263238"/>
<path d="M251.36 27.85C252.49 25.05 251.12 21.66 248.69 19.85C246.129 18.1641 243.006 17.5568 240 18.16C237.034 18.7818 234.163 19.7905 231.46 21.16C230.203 19.8924 228.619 18.999 226.884 18.5798C225.148 18.1605 223.331 18.2318 221.634 18.7857C219.937 19.3397 218.427 20.3544 217.273 21.7166C216.12 23.0788 215.367 24.7349 215.1 26.5C214.019 26.2278 212.884 26.2552 211.817 26.5792C210.75 26.9032 209.792 27.5116 209.045 28.339C208.297 29.1665 207.79 30.1818 207.576 31.276C207.362 32.3702 207.45 33.502 207.83 34.55L221.35 39.3L236.11 65.3C238.292 67.161 241.076 68.1649 243.943 68.1243C246.81 68.0837 249.564 67.0013 251.692 65.0792C253.82 63.1571 255.176 60.5265 255.506 57.6783C255.837 54.83 255.121 51.9587 253.49 49.6C254.317 48.8645 255.02 48 255.57 47.04C256.75 46.3425 257.779 45.4175 258.598 44.3188C259.417 43.2201 260.009 41.9696 260.34 40.64C261.65 34.85 257.17 28.53 251.36 27.85Z" fill="#263238"/>
<path d="M242.41 82C241.57 77.77 240.99 74.87 241 74.9C241.01 74.93 249 71.8 248.42 60.67C248.14 55.13 246.03 46.4 244.07 39.32C242.31 32.94 236.36 25.91 230.07 27.94L211 37.24C209.09 37.86 208.76 39.66 209.21 41.61V42.61L216.62 73.27L219.75 86.97C220.417 89.7831 222.113 92.2445 224.505 93.8695C226.896 95.4945 229.809 96.1654 232.67 95.75C234.233 95.5302 235.734 94.9934 237.081 94.1726C238.429 93.3517 239.595 92.2641 240.507 90.9765C241.419 89.6889 242.058 88.2284 242.385 86.6848C242.713 85.1412 242.721 83.547 242.41 82Z" fill="#FFBE9D"/>
<path d="M244 46.72C244.08 47.0748 244.021 47.4469 243.835 47.7595C243.649 48.0721 243.35 48.3013 243 48.4C242.823 48.4493 242.639 48.4624 242.457 48.4384C242.275 48.4145 242.1 48.354 241.942 48.2605C241.784 48.1671 241.647 48.0427 241.538 47.8948C241.429 47.7469 241.352 47.5786 241.31 47.4C241.23 47.0464 241.289 46.6757 241.476 46.3647C241.662 46.0538 241.961 45.8265 242.31 45.73C242.486 45.679 242.671 45.6645 242.853 45.6871C243.034 45.7098 243.21 45.7693 243.368 45.8619C243.526 45.9545 243.664 46.0784 243.772 46.2259C243.881 46.3734 243.958 46.5415 244 46.72Z" fill="#263238"/>
<path d="M243.13 44.59C242.99 44.81 241.78 44.26 240.3 44.59C238.82 44.92 237.88 45.88 237.68 45.73C237.48 45.58 237.68 45.3 238.09 44.86C238.64 44.2786 239.356 43.8806 240.14 43.72C240.914 43.5532 241.72 43.6409 242.44 43.97C243 44.2 243.19 44.5 243.13 44.59Z" fill="#263238"/>
<path d="M229.48 50C229.56 50.3535 229.501 50.7243 229.314 51.0352C229.128 51.3462 228.829 51.5735 228.48 51.67C228.307 51.7202 228.126 51.7358 227.948 51.7156C227.769 51.6955 227.596 51.6401 227.439 51.5527C227.282 51.4653 227.143 51.3476 227.032 51.2063C226.921 51.0651 226.838 50.9032 226.79 50.73C226.71 50.3752 226.769 50.0031 226.955 49.6905C227.141 49.3779 227.44 49.1486 227.79 49.05C227.963 48.9999 228.145 48.9848 228.324 49.0056C228.503 49.0263 228.677 49.0826 228.834 49.171C228.991 49.2594 229.129 49.3782 229.24 49.5206C229.351 49.6629 229.433 49.8259 229.48 50Z" fill="#263238"/>
<path d="M228.75 48.12C228.62 48.34 227.4 47.78 225.92 48.12C224.44 48.46 223.5 49.4 223.3 49.26C223.1 49.12 223.3 48.83 223.71 48.38C224.263 47.8038 224.978 47.4097 225.76 47.25C226.533 47.0857 227.338 47.1697 228.06 47.49C228.59 47.73 228.82 48 228.75 48.12Z" fill="#263238"/>
<path d="M236.28 57.52C237.013 57.1155 237.792 56.8 238.6 56.58C238.97 56.46 239.32 56.31 239.33 56.04C239.278 55.6423 239.107 55.2694 238.84 54.97L237.11 52.31C234.69 48.52 232.85 45.38 233 45.31C233.15 45.24 235.24 48.21 237.66 52L239.35 54.68C239.682 55.0901 239.862 55.6023 239.86 56.13C239.83 56.2738 239.769 56.4093 239.681 56.5269C239.593 56.6444 239.48 56.7411 239.35 56.81C239.155 56.9136 238.946 56.9909 238.73 57.04C237.939 57.3108 237.115 57.4723 236.28 57.52Z" fill="#263238"/>
<path d="M241 74.9C235.942 76.0431 230.666 75.7593 225.76 74.08C225.76 74.08 231 80.92 241.57 77.65L241 74.9Z" fill="#EB996E"/>
<path d="M229 46C228.9 46.43 227.37 46.42 225.63 46.85C223.89 47.28 222.51 47.93 222.23 47.59C222.11 47.43 222.31 47.01 222.84 46.59C223.545 45.9968 224.382 45.5817 225.28 45.38C226.171 45.1686 227.099 45.1686 227.99 45.38C228.7 45.51 229.07 45.8 229 46Z" fill="#263238"/>
<path d="M242.56 39.87C242.32 40.27 241.04 40.17 239.56 40.46C238.08 40.75 236.91 41.25 236.56 40.96C236.4 40.81 236.56 40.43 236.99 39.96C237.65 39.4047 238.449 39.0384 239.3 38.9C240.138 38.7312 241.005 38.7935 241.81 39.08C242.42 39.36 242.66 39.67 242.56 39.87Z" fill="#263238"/>
<path d="M215.71 30.08C215.931 31.1633 216.389 32.1845 217.049 33.0712C217.71 33.9579 218.557 34.6883 219.532 35.2104C220.506 35.7325 221.584 36.0337 222.688 36.0923C223.792 36.151 224.896 35.9659 225.92 35.55C227.5 34.91 229.14 33.71 230.74 34.29C232.34 34.87 233 37.15 234.53 38C236.78 39.26 239.53 37.08 242.04 37.3C244.04 37.47 245.55 39 247.1 40.3C248.65 41.6 250.79 42.58 252.54 41.64C252.139 39.97 251.545 38.3524 250.77 36.82C249.988 35.2772 248.694 34.0541 247.11 33.36C246.23 33.01 245.28 32.89 244.44 32.46C242.63 31.54 241.82 29.46 240.51 27.89C239.65 26.9006 238.566 26.1305 237.349 25.6436C236.131 25.1567 234.815 24.9669 233.51 25.09C231.35 25.31 229.3 26.4 227.12 26.31C225.51 26.24 223.97 25.52 222.36 25.55C219.23 25.55 216.88 28.35 215.14 30.96" fill="#263238"/>
<path d="M226.25 32.37C224.81 32.26 221.87 31.96 220.9 30.94C219.915 29.8378 218.657 29.0138 217.253 28.5505C215.849 28.0872 214.348 28.0008 212.9 28.3C211.463 28.7283 210.202 29.6066 209.302 30.8056C208.402 32.0045 207.91 33.4608 207.9 34.96C206.15 35.387 204.548 36.2786 203.264 37.5406C201.979 38.8026 201.058 40.3883 200.6 42.13C200.135 43.9533 200.119 45.8625 200.554 47.6932C200.99 49.5239 201.863 51.2215 203.1 52.64C203.701 53.3912 204.249 54.1831 204.74 55.01C204.062 55.8512 203.466 56.7553 202.96 57.71C200.67 62.77 206.88 64.71 206.88 64.71C206.88 68.11 210.03 68.09 212.04 68.08C214.05 68.07 215.16 73.44 216.73 73.23L215.14 56.66C215.373 56.7505 215.62 56.798 215.87 56.8C219.66 56.87 218.67 49.69 217.45 47.8C218.579 46.3943 219.533 44.8563 220.29 43.22C220.977 40.7185 221.025 38.0849 220.43 35.56C221.7 35.4 226.87 32.41 226.25 32.37Z" fill="#263238"/>
<path d="M215.64 57.54C215.511 57.0134 215.251 56.5282 214.883 56.1295C214.516 55.7308 214.054 55.4317 213.539 55.2599C213.025 55.0882 212.476 55.0495 211.943 55.1474C211.409 55.2453 210.91 55.4767 210.49 55.82C209.49 56.68 208.96 58.12 209.56 60.53C211.18 66.97 217.31 64.02 217.27 63.84C217.23 63.66 216.34 60.2 215.64 57.54Z" fill="#FFBE9D"/>
<path d="M214.69 61.89C214.69 61.89 214.6 62 214.43 62.13C214.194 62.3113 213.896 62.3938 213.6 62.36C212.86 62.28 212.01 61.36 211.69 60.19C211.538 59.6433 211.507 59.0699 211.6 58.51C211.61 58.2925 211.673 58.0808 211.783 57.8927C211.892 57.7046 212.046 57.5459 212.23 57.43C212.352 57.3646 212.492 57.3437 212.627 57.3711C212.762 57.3986 212.884 57.4725 212.97 57.58C213.1 57.73 213.09 57.87 213.13 57.88C213.17 57.89 213.24 57.73 213.13 57.48C213.053 57.3317 212.931 57.2124 212.78 57.14C212.568 57.0544 212.332 57.0544 212.12 57.14C211.869 57.2593 211.652 57.4401 211.489 57.6656C211.327 57.8911 211.224 58.1541 211.19 58.43C211.06 59.0598 211.084 59.7115 211.26 60.33C211.372 60.9107 211.652 61.4455 212.067 61.8672C212.482 62.2888 213.011 62.5786 213.59 62.7C213.778 62.7077 213.966 62.673 214.139 62.5986C214.312 62.5242 214.466 62.4119 214.59 62.27C214.72 62.05 214.72 61.9 214.69 61.89Z" fill="#EB996E"/>
<path d="M250.17 48.55C250.17 48.55 250.76 48.1 251.58 47.1C252.712 45.6591 253.406 43.9238 253.58 42.1C253.712 40.855 253.59 39.5961 253.22 38.4C252.793 37.028 252.001 35.7976 250.93 34.84C249.693 33.7597 248.195 33.0215 246.585 32.6988C244.975 32.376 243.308 32.4799 241.75 33C241.45 33.1 241.17 33.25 240.89 33.37C240.61 33.49 240.36 33.67 240.1 33.82L239.7 34.04V33.6C239.691 32.8254 239.404 32.0798 238.89 31.5C238.364 30.9373 237.718 30.4999 237 30.22C235.642 29.654 234.137 29.5418 232.71 29.9C229.95 30.53 227.61 31.79 225.4 32.05C223.667 32.3512 221.884 31.9946 220.4 31.05C220.008 30.7806 219.669 30.4416 219.4 30.05C219.24 29.78 219.16 29.63 219.18 29.62C219.542 30.1138 219.985 30.5431 220.49 30.89C221.95 31.7328 223.665 32.0204 225.32 31.7C226.472 31.4834 227.597 31.1482 228.68 30.7C229.951 30.192 231.254 29.7677 232.58 29.43C233.319 29.2511 234.08 29.1737 234.84 29.2C235.642 29.2424 236.431 29.4252 237.17 29.74C237.935 30.0667 238.618 30.5584 239.17 31.18C239.761 31.857 240.094 32.7213 240.11 33.62L239.71 33.4L240.54 32.92C240.85 32.8 241.14 32.64 241.46 32.53C243.102 31.9677 244.863 31.8501 246.565 32.1891C248.267 32.5281 249.849 33.3116 251.15 34.46C252.275 35.4782 253.098 36.7858 253.53 38.24C253.979 39.7813 254.039 41.4097 253.706 42.98C253.373 44.5504 252.656 46.0138 251.62 47.24C251.291 47.6159 250.918 47.9515 250.51 48.24C250.41 48.3567 250.296 48.4608 250.17 48.55Z" fill="#455A64"/>
<path d="M248.87 25.94C248.214 25.6067 247.513 25.3677 246.79 25.23C245.963 25.117 245.122 25.1956 244.33 25.46C243.305 25.7736 242.414 26.4213 241.8 27.3L241.55 27.65L241.4 27.25C240.878 26.0207 240.038 24.9529 238.965 24.1566C237.893 23.3604 236.628 22.8644 235.3 22.72C233.215 22.6415 231.16 23.2377 229.44 24.42C227.975 25.375 226.417 26.1791 224.79 26.82C223.668 27.2443 222.46 27.3884 221.27 27.24C220.953 27.1814 220.642 27.0944 220.34 26.98C220.14 26.89 220.03 26.84 220.04 26.82C220.05 26.8 220.49 26.95 221.3 27.03C222.451 27.1018 223.602 26.9139 224.67 26.48C226.251 25.7905 227.767 24.9605 229.2 24C230.085 23.4504 231.023 22.9915 232 22.63C233.074 22.2383 234.222 22.0914 235.36 22.2C236.778 22.3548 238.128 22.8914 239.266 23.7525C240.403 24.6135 241.286 25.767 241.82 27.09H241.43C242.118 26.1502 243.1 25.4674 244.22 25.15C245.071 24.9032 245.969 24.8587 246.84 25.02C247.392 25.1247 247.92 25.328 248.4 25.62C248.571 25.7037 248.73 25.8115 248.87 25.94Z" fill="#455A64"/>
<path d="M235.7 60.48C235.467 60.2847 235.195 60.141 234.902 60.0583C234.609 59.9755 234.301 59.9557 234 60C233.648 60.0752 233.316 60.2235 233.025 60.4354C232.733 60.6473 232.49 60.918 232.31 61.23C232.31 61.23 232.26 61.28 232.25 61.31C232.113 61.5384 232.05 61.8041 232.07 62.07C232.114 62.3597 232.228 62.6342 232.402 62.8696C232.576 63.105 232.806 63.294 233.07 63.42C233.493 63.6343 233.971 63.7128 234.44 63.6447C234.909 63.5767 235.346 63.3655 235.69 63.04C236.017 62.6946 236.2 62.2375 236.202 61.762C236.204 61.2864 236.024 60.828 235.7 60.48Z" fill="#FF92B7"/>
<path d="M236.2 63.59C236.12 63.59 236.03 63.29 235.76 62.88C235.435 62.3303 234.949 61.8937 234.368 61.629C233.787 61.3643 233.138 61.2844 232.51 61.4C232.02 61.47 231.72 61.61 231.69 61.54C231.66 61.47 231.89 61.23 232.43 61.04C233.137 60.8125 233.903 60.8553 234.58 61.16C235.263 61.4642 235.804 62.019 236.09 62.71C236.3 63.23 236.27 63.58 236.2 63.59Z" fill="#263238"/>
<path d="M215.79 64.83C215.79 64.83 216.08 65.33 215.7 66.09C215.485 66.5448 215.107 66.9018 214.64 67.09C214.349 67.1942 214.038 67.2295 213.73 67.1931C213.423 67.1567 213.129 67.0495 212.87 66.88C212.607 66.72 212.384 66.5014 212.22 66.2412C212.055 65.981 211.952 65.6863 211.92 65.38C211.89 64.8861 212.035 64.3973 212.33 64C212.85 63.34 213.43 63.32 213.43 63.38C213.43 63.44 212.99 63.61 212.64 64.21C212.438 64.5461 212.353 64.9404 212.4 65.33C212.438 65.5582 212.524 65.7757 212.653 65.9673C212.783 66.1589 212.952 66.3202 213.15 66.44C213.345 66.5649 213.565 66.6472 213.794 66.6817C214.023 66.7161 214.257 66.7019 214.48 66.64C214.849 66.5079 215.168 66.263 215.39 65.94C215.78 65.32 215.71 64.83 215.79 64.83Z" fill="#FF92B7"/>
<path d="M212.42 64.44C212.47 64.44 212.42 64.78 211.95 65C211.719 65.096 211.466 65.1238 211.219 65.0803C210.973 65.0368 210.745 64.9237 210.56 64.7544C210.376 64.5851 210.245 64.3666 210.181 64.1249C210.117 63.8831 210.124 63.6281 210.2 63.39C210.298 63.1196 210.485 62.8904 210.73 62.74C211.14 62.49 211.45 62.59 211.44 62.65C211.43 62.71 211.2 62.78 210.95 63.03C210.827 63.1837 210.752 63.3703 210.735 63.5664C210.717 63.7624 210.758 63.9593 210.852 64.1323C210.946 64.3053 211.089 64.4467 211.263 64.5388C211.437 64.6309 211.634 64.6696 211.83 64.65C212.17 64.58 212.35 64.4 212.42 64.44Z" fill="#FF92B7"/>
<path d="M223.41 153.25C223.41 153.25 248.17 154.69 262.81 154.82C274.14 154.93 279.2 151.92 281.46 144.63C283.36 138.52 279.28 126.79 279.28 126.79C271.61 126.79 266.88 127.89 261.95 130.2L263.26 135.56L223.34 139L223.41 153.25Z" fill="#FFBE9D"/>
<path d="M271.58 141.28C270.506 139.884 269.252 138.636 267.85 137.57C266.346 136.65 264.725 135.937 263.03 135.45C263.564 135.373 264.108 135.421 264.62 135.59C265.878 135.887 267.071 136.413 268.14 137.14C269.211 137.87 270.137 138.792 270.87 139.86C271.43 140.68 271.64 141.25 271.58 141.28Z" fill="#EB996E"/>
<path d="M214.35 130.16C214.35 130.16 206.69 132 201.06 135.76L207.06 152.02C209.06 157.36 215.17 160.02 220.06 157.22C227.59 152.91 230.25 140.35 230.25 140.35L238.52 104.47L224.81 95.88L214.4 130.16" fill="#FFBE9D"/>
<path d="M224.76 95.88L225.32 84.08L222.25 72.08C222.08 71.42 222 70.59 222.54 70.19C222.808 69.9847 223.139 69.8784 223.476 69.8894C223.813 69.9003 224.136 70.0278 224.39 70.25C225.22 71.11 229.22 81.6 229.22 81.6C229.22 81.6 235.29 77.96 236.37 77.78C237.45 77.6 238.8 80.87 238.89 81.12C238.93 81.8528 238.93 82.5872 238.89 83.32C238.89 83.32 242.64 83.43 242.98 83.94C243.253 84.9819 243.397 86.0531 243.41 87.13C243.41 87.13 245 87.64 245.25 88.84C245.5 90.04 246.02 92.02 245.25 92.46C244.48 92.9 242.92 93.76 242.92 93.76C242.92 93.76 242.29 99.88 242.12 100.44C241.95 101 238.44 104.44 238.44 104.44L224.76 95.88Z" fill="#FFBE9D"/>
<path d="M212 157.46C212 157.46 212.37 157.68 213.15 157.93C214.291 158.288 215.497 158.384 216.68 158.21C218.58 157.939 220.36 157.119 221.8 155.85C223.703 154.123 225.311 152.096 226.56 149.85C227.295 148.53 227.914 147.148 228.41 145.72C228.93 144.149 229.361 142.55 229.7 140.93C230.48 137.56 231.33 133.93 232.23 130.07C234.03 122.36 236.05 113.74 238.23 104.45V104.38H238.28C238.97 103.7 239.66 103.01 240.35 102.29C240.69 101.93 241.03 101.57 241.35 101.2C241.51 101.01 241.68 100.82 241.81 100.63C241.911 100.442 241.969 100.233 241.98 100.02C242.25 98.02 242.46 95.95 242.68 93.86V93.73L242.8 93.67L244.71 92.6C244.85 92.51 245.07 92.41 245.16 92.33C245.256 92.2435 245.319 92.1272 245.34 92C245.387 91.6683 245.387 91.3317 245.34 91C245.243 90.2666 245.093 89.5414 244.89 88.83C244.55 88.2079 243.979 87.7445 243.3 87.54L243.13 87.48V87.31C243.13 86.73 243.07 86.13 243 85.54C242.973 85.2445 242.929 84.9507 242.87 84.66C242.847 84.5318 242.806 84.4074 242.75 84.29C242.75 84.22 242.75 84.29 242.69 84.23C242.636 84.2015 242.579 84.178 242.52 84.16C241.317 83.8979 240.091 83.7605 238.86 83.75H238.6V83.49C238.6 82.87 238.6 82.18 238.6 81.49C238.559 81.2546 238.478 81.028 238.36 80.82C238.26 80.58 238.14 80.35 238.02 80.11C237.786 79.6468 237.512 79.2051 237.2 78.79C237.059 78.5965 236.886 78.4276 236.69 78.29C236.617 78.2287 236.528 78.1903 236.434 78.1796C236.34 78.1689 236.244 78.1864 236.16 78.23C235.676 78.4153 235.205 78.6324 234.75 78.88C232.89 79.88 231.07 80.88 229.29 81.96L229.03 82.12L228.92 81.84C227.98 79.47 227.04 77.13 226.12 74.84C225.66 73.69 225.21 72.54 224.75 71.41C224.679 71.1568 224.538 70.9288 224.344 70.7519C224.149 70.5751 223.909 70.4566 223.65 70.41C223.411 70.3307 223.152 70.335 222.916 70.4222C222.68 70.5094 222.48 70.6744 222.35 70.89C222.225 71.1045 222.173 71.3534 222.2 71.6C222.2 71.82 222.34 72.16 222.4 72.43C222.56 73.01 222.71 73.58 222.86 74.15C223.16 75.3 223.45 76.43 223.75 77.55C224.337 79.8033 224.913 82.0033 225.48 84.15V84.22C225.28 88.3266 225.09 92.26 224.91 96.02V96L215.8 125.64L213.23 133.89C212.93 134.82 212.7 135.55 212.54 136.06C212.38 136.57 212.28 136.79 212.28 136.79C212.28 136.79 212.33 136.53 212.47 136.04L213.1 133.85C213.68 131.92 214.51 129.13 215.56 125.57C217.72 118.41 220.79 108.19 224.5 95.87V95.92C224.673 92.1733 224.85 88.24 225.03 84.12V84.19C224.46 82.04 223.87 79.84 223.28 77.6L222.38 74.2C222.23 73.63 222.08 73.05 221.92 72.48C221.834 72.1806 221.764 71.8768 221.71 71.57C221.673 71.2229 221.747 70.8729 221.92 70.57C222.105 70.258 222.391 70.0183 222.73 69.89C223.066 69.7918 223.421 69.7806 223.762 69.8576C224.103 69.9346 224.419 70.0971 224.68 70.33C224.931 70.5654 225.117 70.8616 225.22 71.19L226.59 74.62C227.52 76.92 228.45 79.26 229.4 81.62L229.03 81.49C230.82 80.43 232.62 79.37 234.52 78.38C235 78.129 235.494 77.9053 236 77.71C236.158 77.6443 236.33 77.6202 236.5 77.64C236.671 77.6647 236.835 77.7261 236.98 77.82C237.221 77.9928 237.433 78.2019 237.61 78.44C237.944 78.8776 238.236 79.3464 238.48 79.84C238.61 80.09 238.73 80.33 238.84 80.58C238.982 80.8448 239.077 81.1324 239.12 81.43C239.12 82.14 239.12 82.8 239.12 83.43L238.87 83.16C240.155 83.1686 241.436 83.3161 242.69 83.6C242.776 83.63 242.86 83.6668 242.94 83.71C243.05 83.7698 243.14 83.8601 243.2 83.97C243.278 84.1323 243.335 84.3036 243.37 84.48C243.43 84.8 243.47 85.1 243.51 85.41C243.57 86.02 243.61 86.62 243.64 87.22L243.46 86.98C243.869 87.0999 244.249 87.3019 244.578 87.5735C244.906 87.8452 245.176 88.1808 245.37 88.56C245.589 89.3199 245.75 90.0955 245.85 90.88C245.919 91.2803 245.919 91.6896 245.85 92.09C245.806 92.3325 245.679 92.552 245.49 92.71C245.326 92.8198 245.156 92.9199 244.98 93.01L243.08 94L243.21 93.81C242.98 95.9 242.77 97.95 242.49 99.98L242.43 100.37C242.407 100.528 242.341 100.677 242.24 100.8C242.093 101.019 241.929 101.226 241.75 101.42C241.41 101.8 241.07 102.17 240.75 102.53C240.06 103.25 239.37 103.94 238.67 104.62L238.74 104.5C236.54 113.78 234.5 122.4 232.67 130.11C231.76 133.96 230.89 137.59 230.09 140.95C229.748 142.582 229.307 144.191 228.77 145.77C228.255 147.211 227.62 148.606 226.87 149.94C225.593 152.215 223.947 154.263 222 156C220.517 157.277 218.691 158.091 216.75 158.34C215.542 158.502 214.312 158.379 213.16 157.98C212.867 157.872 212.583 157.742 212.31 157.59L212 157.46Z" fill="#EB996E"/>
<path d="M238.9 83.35C238.9 83.42 238.56 83.46 238.03 83.48C237.357 83.4928 236.687 83.5732 236.03 83.72C235.396 83.8758 234.811 84.1888 234.33 84.63C233.97 84.97 233.81 85.26 233.73 85.23C233.65 85.2 233.73 84.84 234.06 84.38C234.526 83.7977 235.174 83.3891 235.9 83.22C236.6 83.0475 237.327 83.0135 238.04 83.12C238.58 83.19 238.9 83.28 238.9 83.35Z" fill="#EB996E"/>
<path d="M236 83.46C235.87 83.41 235.86 83.1 236 82.77C236.14 82.44 236.34 82.21 236.47 82.26C236.6 82.31 236.62 82.62 236.47 82.95C236.32 83.28 236.1 83.51 236 83.46Z" fill="#EB996E"/>
<path d="M243.58 87.09C242.609 87.3903 241.596 87.5288 240.58 87.5C240.26 87.4893 239.943 87.5555 239.654 87.6929C239.365 87.8304 239.113 88.0351 238.92 88.29C238.66 88.7 238.75 89.04 238.67 89.06C238.59 89.08 238.35 88.73 238.6 88.13C238.738 87.7922 238.989 87.5128 239.31 87.34C239.68 87.1369 240.089 87.0142 240.51 86.98C241.531 86.8236 242.573 86.861 243.58 87.09Z" fill="#EB996E"/>
<path d="M242.92 90.69C243.06 90.69 243.14 91.43 243.1 92.34C243.06 93.25 242.91 93.97 242.77 93.97C242.63 93.97 242.54 93.22 242.58 92.31C242.62 91.4 242.77 90.68 242.92 90.69Z" fill="#EB996E"/>
<path d="M247.07 117.62L247.96 114.56C248.001 114.42 248.077 114.293 248.182 114.191C248.287 114.09 248.416 114.017 248.557 113.981C248.699 113.945 248.847 113.946 248.988 113.984C249.128 114.023 249.257 114.097 249.36 114.2L250.53 115.39L251.25 112.5C251.292 112.333 251.385 112.183 251.515 112.071C251.646 111.958 251.808 111.888 251.979 111.871C252.15 111.853 252.323 111.889 252.473 111.973C252.624 112.057 252.745 112.185 252.82 112.34L254.45 115.76L247.07 117.62Z" fill="white"/>
<path d="M254.47 117.07C253.351 117.611 252.164 117.994 250.94 118.21C249.757 118.597 248.524 118.812 247.28 118.85C249.582 117.925 252.002 117.326 254.47 117.07Z" fill="white"/>
<path d="M195 100C195 100 194.63 100.38 194.11 101.19C193.412 102.344 192.953 103.626 192.76 104.96C192.475 106.947 192.415 108.96 192.58 110.96C192.69 113.23 192.87 115.71 193.15 118.31C193.624 122.75 194.328 127.163 195.26 131.53C195.61 133.21 195.93 134.53 196.15 135.53C196.25 135.95 196.34 136.3 196.41 136.6C196.48 136.9 196.49 136.98 196.49 136.98C196.49 136.98 196.44 136.86 196.37 136.62C196.3 136.38 196.19 135.96 196.08 135.55C195.83 134.62 195.49 133.28 195.08 131.6C194.108 127.234 193.384 122.817 192.91 118.37C192.63 115.77 192.46 113.28 192.36 111.01C192.209 109.008 192.282 106.995 192.58 105.01C192.795 103.658 193.285 102.365 194.02 101.21C194.291 100.764 194.621 100.357 195 100Z" fill="white"/>
<path d="M216.05 86.38L215.82 86.5L215.16 86.82C214.59 87.09 213.76 87.49 212.77 88.04C210.189 89.4793 207.683 91.048 205.26 92.74C202.4 94.74 199.87 96.56 198.02 97.88L195.83 99.43L195.22 99.84C195.152 99.8944 195.078 99.9413 195 99.98C195.057 99.9128 195.125 99.8554 195.2 99.81L195.78 99.37L197.93 97.76C199.76 96.41 202.28 94.53 205.14 92.57C207.567 90.8707 210.091 89.3147 212.7 87.91C213.7 87.38 214.54 87 215.13 86.75L215.8 86.47C216 86.4 216 86.37 216.05 86.38Z" fill="white"/>
<path d="M263.74 92.89C263.677 92.8553 263.62 92.8115 263.57 92.76L263.12 92.37C262.563 91.8996 261.979 91.4621 261.37 91.06C259.34 89.7657 257.186 88.677 254.94 87.81C252.701 86.9231 250.414 86.1619 248.09 85.53C247.19 85.28 246.47 85.1 245.96 84.98L245.39 84.83C245.321 84.8157 245.253 84.7921 245.19 84.76H245.4L245.98 84.87C246.49 84.97 247.22 85.13 248.12 85.36C250.466 85.9523 252.771 86.6972 255.02 87.59C257.279 88.4567 259.436 89.5701 261.45 90.91C262.289 91.4777 263.057 92.1423 263.74 92.89Z" fill="white"/>
<path d="M216.33 169.22C216.195 169.196 216.063 169.152 215.94 169.09C215.593 168.937 215.258 168.757 214.94 168.55C214.402 168.227 213.932 167.801 213.558 167.297C213.184 166.792 212.913 166.219 212.76 165.61C212.486 164.38 212.623 163.094 213.15 161.95C213.303 161.595 213.497 161.259 213.73 160.95C213.89 160.74 214 160.64 214.01 160.65C213.737 161.076 213.494 161.521 213.28 161.98C212.815 163.104 212.707 164.343 212.97 165.53C213.257 166.702 213.97 167.725 214.97 168.4C215.8 169 216.35 169.18 216.33 169.22Z" fill="white"/>
<path d="M213.15 158.39C213.363 158.787 213.521 159.211 213.62 159.65C213.777 160.071 213.871 160.512 213.9 160.96C213.673 160.572 213.511 160.15 213.42 159.71C213.256 159.288 213.165 158.842 213.15 158.39Z" fill="white"/>
<path d="M226.67 382.6L257.17 382.45L256.62 277L256.33 169.73L215 169.2L207.57 183.2C204.53 188.828 202.592 194.985 201.86 201.34C201.36 206.2 205 222 206.26 226L217.63 262.06L226.67 382.6Z" fill="#263238"/>
<path d="M265.28 169.86L298.8 261.23C300.786 267.117 301.446 273.37 300.732 279.542C300.018 285.714 297.948 291.652 294.67 296.93L255.75 372.93L233.87 345.55L266.43 277.55L237.73 231L242.56 170L256.08 169.78L265.28 169.86Z" fill="#263238"/>
<path d="M253.55 200.47C253.55 200.47 253.55 200.63 253.55 200.94C253.55 201.25 253.6 201.73 253.64 202.32C253.71 203.55 253.8 205.32 253.92 207.61C254.15 212.24 254.47 218.89 254.92 227.1C255.37 235.31 255.75 245.1 256.25 256C256.49 261.44 256.75 267.15 257.01 273.07C257.2 276.07 257.12 279.07 257.15 282.07C257.18 285.07 257.15 288.23 257.15 291.37C257.15 316.5 257.23 339.25 257.26 355.74C257.26 363.96 257.26 370.62 257.26 375.25C257.26 377.54 257.26 379.32 257.26 380.56C257.26 381.14 257.26 381.56 257.26 381.94C257.26 382.32 257.26 382.41 257.26 382.41C257.26 382.41 257.26 382.25 257.26 381.94V380.56C257.26 379.32 257.26 377.56 257.2 375.25C257.2 370.62 257.12 363.97 257.06 355.75C256.99 339.26 256.9 316.51 256.8 291.38C256.8 288.24 256.8 285.14 256.8 282.08C256.8 279.02 256.86 276 256.67 273.08C256.42 267.17 256.17 261.46 255.94 256.02C255.48 245.14 255.06 235.35 254.72 227.11C254.38 218.87 254.13 212.25 253.94 207.62C253.86 205.34 253.8 203.56 253.76 202.32C253.76 201.73 253.76 201.32 253.76 200.94C253.76 200.56 253.55 200.47 253.55 200.47Z" fill="#455A64"/>
<path d="M252.78 171.66C252.897 171.982 252.968 172.318 252.99 172.66C253.1 173.3 253.22 174.23 253.36 175.39C253.62 177.7 253.9 180.91 254.06 184.46C254.22 188.01 254.23 191.23 254.18 193.56C254.18 194.72 254.11 195.67 254.06 196.32C254.07 196.657 254.03 196.995 253.94 197.32C253.814 196.071 253.771 194.815 253.81 193.56C253.81 191.23 253.7 188.03 253.54 184.48C253.38 180.93 253.16 177.74 252.99 175.48C252.848 174.212 252.778 172.936 252.78 171.66Z" fill="#455A64"/>
<path d="M246.06 173.72C246.11 173.79 245.54 174.05 245.38 174.86C245.335 175.08 245.348 175.307 245.416 175.521C245.484 175.735 245.606 175.927 245.77 176.08C245.968 176.264 246.215 176.387 246.481 176.435C246.747 176.483 247.021 176.453 247.27 176.35C247.51 176.227 247.71 176.038 247.848 175.807C247.986 175.575 248.056 175.309 248.05 175.04C248.041 174.816 247.975 174.598 247.857 174.408C247.74 174.217 247.576 174.059 247.38 173.95C246.973 173.753 246.52 173.673 246.07 173.72C246.07 173.72 246.17 173.59 246.43 173.51C246.805 173.418 247.2 173.457 247.55 173.62C247.829 173.736 248.071 173.928 248.247 174.173C248.424 174.419 248.529 174.708 248.55 175.01C248.59 175.382 248.512 175.758 248.327 176.083C248.142 176.409 247.86 176.668 247.52 176.825C247.18 176.982 246.799 177.028 246.431 176.957C246.064 176.886 245.728 176.702 245.47 176.43C245.258 176.219 245.107 175.953 245.035 175.662C244.962 175.371 244.971 175.066 245.06 174.78C245.161 174.406 245.387 174.077 245.7 173.85C245.9 173.71 246.05 173.69 246.06 173.72Z" fill="#455A64"/>
<path d="M230.06 171.91C230.207 172.225 230.299 172.564 230.33 172.91C230.491 173.808 230.521 174.724 230.42 175.63C230.276 176.979 229.887 178.291 229.27 179.5C228.525 181.004 227.423 182.302 226.059 183.28C224.696 184.258 223.113 184.886 221.45 185.11C220.119 185.309 218.763 185.258 217.45 184.96C216.562 184.767 215.707 184.447 214.91 184.01C214.609 183.868 214.332 183.679 214.09 183.45C215.195 183.947 216.348 184.333 217.53 184.6C218.952 184.896 220.421 184.893 221.842 184.593C223.263 184.293 224.607 183.701 225.788 182.856C226.969 182.01 227.962 180.928 228.704 179.68C229.447 178.431 229.922 177.042 230.1 175.6C230.218 174.372 230.204 173.135 230.06 171.91Z" fill="#455A64"/>
<path d="M269.3 180.67C268.648 180.745 267.987 180.666 267.37 180.44C265.859 179.964 264.503 179.094 263.44 177.92C262.368 176.751 261.632 175.313 261.31 173.76C261.153 173.126 261.153 172.464 261.31 171.83C261.4 171.83 261.41 172.56 261.71 173.68C262.115 175.127 262.852 176.46 263.863 177.573C264.873 178.685 266.129 179.547 267.53 180.09C268.57 180.5 269.31 180.57 269.3 180.67Z" fill="#455A64"/>
<path d="M281.21 279.17C280.709 279.742 280.109 280.219 279.44 280.58C278.738 281.025 277.973 281.363 277.17 281.58C276.16 281.848 275.095 281.82 274.1 281.5C272.354 280.841 270.857 279.652 269.82 278.1C269.344 277.517 268.95 276.871 268.65 276.18C269.19 276.695 269.679 277.261 270.11 277.87C271.172 279.278 272.606 280.362 274.25 281C275.089 281.224 275.966 281.275 276.825 281.149C277.685 281.024 278.51 280.725 279.25 280.27C279.882 279.866 280.536 279.499 281.21 279.17Z" fill="#455A64"/>
<path d="M273.57 285C272.388 283.776 271.333 282.436 270.42 281C269.369 279.663 268.451 278.226 267.68 276.71C268.87 277.93 269.929 279.27 270.84 280.71C271.9 282.039 272.815 283.477 273.57 285Z" fill="#455A64"/>
<path d="M222.33 204C222.19 204.05 221.84 203.48 221.53 202.71C221.22 201.94 221.09 201.29 221.22 201.23C221.35 201.17 221.71 201.75 222.01 202.52C222.31 203.29 222.46 204 222.33 204Z" fill="#FAFAFA"/>
<path d="M241.69 206.78C241.54 206.78 241.43 206.29 241.43 205.68C241.43 205.07 241.54 204.57 241.69 204.57C241.84 204.57 241.95 205.07 241.95 205.68C241.95 206.29 241.83 206.78 241.69 206.78Z" fill="#FAFAFA"/>
<path d="M233.73 217.3C233.59 217.3 233.43 216.7 233.38 215.93C233.33 215.16 233.38 214.54 233.54 214.53C233.7 214.52 233.85 215.13 233.9 215.9C233.95 216.67 233.87 217.29 233.73 217.3Z" fill="#FAFAFA"/>
<path d="M219.19 225C219.07 225.09 218.66 224.72 218.12 224.34C217.58 223.96 217.12 223.67 217.12 223.53C217.12 223.39 217.78 223.47 218.39 223.91C219 224.35 219.31 225 219.19 225Z" fill="#FAFAFA"/>
<path d="M244.82 234.81C244.7 234.73 244.82 234.3 245.16 233.81C245.5 233.32 245.81 233.04 245.93 233.12C246.05 233.2 245.93 233.64 245.59 234.12C245.25 234.6 244.94 234.89 244.82 234.81Z" fill="#FAFAFA"/>
<path d="M229 237.58C228.86 237.58 228.74 236.75 228.74 235.74C228.74 234.73 228.86 233.89 229 233.89C229.14 233.89 229.26 234.72 229.26 235.74C229.26 236.76 229.11 237.58 229 237.58Z" fill="#FAFAFA"/>
<path d="M223.82 248.8C223.74 248.91 223.22 248.68 222.66 248.27C222.1 247.86 221.66 247.44 221.79 247.32C221.92 247.2 222.4 247.44 222.96 247.85C223.52 248.26 223.91 248.68 223.82 248.8Z" fill="#FAFAFA"/>
<path d="M239.84 252.7C239.9 252.83 239.58 253.1 239.12 253.31C238.66 253.52 238.24 253.57 238.18 253.44C238.12 253.31 238.45 253.04 238.91 252.83C239.37 252.62 239.79 252.57 239.84 252.7Z" fill="#FAFAFA"/>
<path d="M229 271C228.88 271.06 228.36 270.29 227.85 269.27C227.34 268.25 227.03 267.37 227.16 267.27C227.29 267.17 227.81 267.98 228.31 269C228.81 270.02 229.09 270.89 229 271Z" fill="#FAFAFA"/>
<path d="M246.67 269.3C246.54 269.23 246.77 268.56 247.17 267.79C247.57 267.02 248.02 266.46 248.17 266.53C248.32 266.6 248.07 267.27 247.66 268.04C247.25 268.81 246.79 269.37 246.67 269.3Z" fill="#FAFAFA"/>
<path d="M238.92 284.79C238.77 284.79 238.79 283.98 238.63 283.04C238.47 282.1 238.23 281.35 238.37 281.28C238.51 281.21 238.99 281.92 239.15 282.96C239.31 284 239.06 284.82 238.92 284.79Z" fill="#FAFAFA"/>
<path d="M230.62 293.64C230.52 293.74 230.02 293.36 229.51 292.8C229 292.24 228.67 291.71 228.78 291.61C228.89 291.51 229.38 291.89 229.89 292.45C230.4 293.01 230.73 293.54 230.62 293.64Z" fill="#FAFAFA"/>
<path d="M250.76 297C250.66 296.9 251.03 296.36 251.59 295.79C252.15 295.22 252.67 294.85 252.78 294.95C252.89 295.05 252.51 295.6 251.96 296.16C251.41 296.72 250.87 297.1 250.76 297Z" fill="#FAFAFA"/>
<path d="M239.18 310.25C239.04 310.25 239.04 309.46 239.18 308.54C239.32 307.62 239.54 306.9 239.69 306.92C239.84 306.94 239.83 307.7 239.69 308.62C239.55 309.54 239.32 310.27 239.18 310.25Z" fill="#FAFAFA"/>
<path d="M231.39 316.68C231.26 316.75 230.82 316.23 230.39 315.52C229.96 314.81 229.74 314.18 229.86 314.11C229.98 314.04 230.42 314.55 230.86 315.26C231.3 315.97 231.51 316.6 231.39 316.68Z" fill="#FAFAFA"/>
<path d="M250.16 324.79C250.25 324.91 249.74 325.42 249.02 325.93C248.3 326.44 247.67 326.76 247.58 326.64C247.49 326.52 248.01 326.01 248.72 325.5C249.43 324.99 250.08 324.68 250.16 324.79Z" fill="#FAFAFA"/>
<path d="M234.52 335.32C234.38 335.27 234.52 334.47 234.65 333.47C234.78 332.47 234.7 331.65 234.85 331.63C235 331.61 235.26 332.45 235.16 333.52C235.06 334.59 234.65 335.38 234.52 335.32Z" fill="#FAFAFA"/>
<path d="M240.77 350.44C240.65 350.53 240.23 350.19 239.82 349.68C239.41 349.17 239.18 348.68 239.29 348.59C239.4 348.5 239.82 348.84 240.23 349.35C240.64 349.86 240.88 350.35 240.77 350.44Z" fill="#FAFAFA"/>
<path d="M233.94 360.58C233.82 360.66 233.27 360.07 232.71 359.25C232.15 358.43 231.8 357.71 231.91 357.63C232.02 357.55 232.58 358.14 233.14 358.96C233.7 359.78 234.06 360.5 233.94 360.58Z" fill="#FAFAFA"/>
<path d="M252.75 347.85C252.62 347.8 252.63 347.43 252.75 347.03C252.87 346.63 253.14 346.33 253.28 346.38C253.42 346.43 253.4 346.8 253.28 347.21C253.16 347.62 252.89 347.91 252.75 347.85Z" fill="#FAFAFA"/>
<path d="M244.45 372C244.32 371.93 244.57 371.22 244.77 370.33C244.97 369.44 245.04 368.69 245.19 368.68C245.34 368.67 245.49 369.48 245.28 370.44C245.07 371.4 244.57 372.08 244.45 372Z" fill="#FAFAFA"/>
<path d="M249.85 217.46C249.72 217.52 249.4 217.12 249.14 216.56C248.88 216 248.77 215.5 248.9 215.44C249.03 215.38 249.35 215.78 249.61 216.34C249.87 216.9 250 217.4 249.85 217.46Z" fill="#FAFAFA"/>
<path d="M236 186.32C236.08 186.44 235.38 187 234.63 187.8C233.88 188.6 233.37 189.34 233.24 189.27C233.11 189.2 233.45 188.27 234.24 187.45C235.03 186.63 235.9 186.19 236 186.32Z" fill="#FAFAFA"/>
<path d="M248.33 186C248.18 186 247.95 185.43 247.6 184.75C247.25 184.07 246.93 183.51 247.04 183.41C247.15 183.31 247.69 183.75 248.04 184.51C248.39 185.27 248.46 185.92 248.33 186Z" fill="#FAFAFA"/>
<path d="M209.83 196.11C209.7 196.05 209.83 195.39 210.14 194.63C210.45 193.87 210.79 193.28 210.93 193.34C211.07 193.4 210.93 194.05 210.62 194.82C210.31 195.59 210 196.16 209.83 196.11Z" fill="#FAFAFA"/>
<path d="M211.08 211.21C210.98 211.32 210.41 211 209.8 210.49C209.19 209.98 208.8 209.49 208.86 209.37C208.92 209.25 209.53 209.58 210.14 210.09C210.75 210.6 211.17 211.1 211.08 211.21Z" fill="#FAFAFA"/>
<path d="M236.34 174.33C236.21 174.33 235.93 174.01 235.73 173.5C235.53 172.99 235.47 172.5 235.6 172.5C235.73 172.5 236.01 172.82 236.21 173.33C236.41 173.84 236.47 174.28 236.34 174.33Z" fill="#FAFAFA"/>
<path d="M260.53 181.71C260.39 181.71 260.4 181.08 260.53 180.37C260.66 179.66 260.92 179.1 261.06 179.13C261.2 179.16 261.19 179.77 261.06 180.48C260.93 181.19 260.67 181.74 260.53 181.71Z" fill="#FAFAFA"/>
<path d="M266.21 193.14C266.08 193.08 266.26 192.34 266.62 191.47C266.98 190.6 267.37 189.95 267.5 190C267.63 190.05 267.5 190.8 267.1 191.67C266.7 192.54 266.35 193.19 266.21 193.14Z" fill="#FAFAFA"/>
<path d="M262.16 202.36C262.03 202.42 261.55 201.73 261.09 200.82C260.63 199.91 260.37 199.1 260.5 199.04C260.63 198.98 261.1 199.67 261.56 200.58C262.02 201.49 262.29 202.29 262.16 202.36Z" fill="#FAFAFA"/>
<path d="M270.82 211.58C270.69 211.53 270.82 210.95 271.04 210.29C271.26 209.63 271.61 209.13 271.75 209.18C271.89 209.23 271.75 209.81 271.53 210.47C271.31 211.13 271 211.63 270.82 211.58Z" fill="#FAFAFA"/>
<path d="M263.08 220.61C262.96 220.69 262.65 220.42 262.4 220.02C262.15 219.62 262.03 219.22 262.16 219.14C262.29 219.06 262.58 219.33 262.84 219.74C263.1 220.15 263.2 220.54 263.08 220.61Z" fill="#FAFAFA"/>
<path d="M264.73 239.25C264.63 239.34 264 238.85 263.34 238.13C262.68 237.41 262.23 236.76 262.34 236.66C262.45 236.56 263.07 237.06 263.73 237.78C264.39 238.5 264.84 239.15 264.73 239.25Z" fill="#FAFAFA"/>
<path d="M274.88 228.54C274.77 228.63 274.22 228.13 273.66 227.41C273.1 226.69 272.74 226.05 272.85 225.96C272.96 225.87 273.51 226.38 274.07 227.09C274.63 227.8 275 228.46 274.88 228.54Z" fill="#FAFAFA"/>
<path d="M280.45 243.31C280.32 243.25 280.55 242.5 280.96 241.64C281.37 240.78 281.8 240.12 281.96 240.18C282.12 240.24 281.87 241 281.46 241.86C281.05 242.72 280.58 243.38 280.45 243.31Z" fill="#FAFAFA"/>
<path d="M268.61 255.47C268.48 255.54 268.02 254.99 267.38 254.4C266.74 253.81 266.15 253.4 266.21 253.25C266.27 253.1 267.03 253.37 267.73 254.02C268.43 254.67 268.73 255.4 268.61 255.47Z" fill="#FAFAFA"/>
<path d="M269.35 268C269.35 268.14 268.85 268.26 268.24 268.26C267.63 268.26 267.14 268.14 267.14 268C267.14 267.86 267.63 267.74 268.24 267.74C268.85 267.74 269.35 267.86 269.35 268Z" fill="#FAFAFA"/>
<path d="M281.52 264.5C281.39 264.43 281.65 263.8 281.84 263.02C282.03 262.24 282.11 261.56 282.26 261.55C282.41 261.54 282.57 262.27 282.35 263.14C282.13 264.01 281.63 264.58 281.52 264.5Z" fill="#FAFAFA"/>
<path d="M293.61 268.71C293.48 268.76 293.11 268.05 292.79 267.14C292.47 266.23 292.32 265.45 292.45 265.41C292.58 265.37 292.96 266.06 293.28 266.97C293.6 267.88 293.75 268.66 293.61 268.71Z" fill="#FAFAFA"/>
<path d="M291.68 285.91C291.56 285.84 291.87 285 292.37 284.03C292.87 283.06 293.37 282.33 293.52 282.4C293.67 282.47 293.34 283.31 292.83 284.27C292.32 285.23 291.81 286 291.68 285.91Z" fill="#FAFAFA"/>
<path d="M280.65 296C280.52 296.05 280.11 295.36 279.73 294.45C279.35 293.54 279.16 292.76 279.3 292.7C279.44 292.64 279.84 293.34 280.21 294.25C280.58 295.16 280.78 296 280.65 296Z" fill="#FAFAFA"/>
<path d="M268.43 299.91C268.43 300.05 268.01 300.17 267.5 300.17C266.99 300.17 266.58 300.05 266.58 299.91C266.58 299.77 267 299.65 267.5 299.65C268 299.65 268.43 299.77 268.43 299.91Z" fill="#FAFAFA"/>
<path d="M275.43 316C275.3 316 275.02 315.45 274.81 314.69C274.6 313.93 274.56 313.27 274.7 313.24C274.84 313.21 275.11 313.79 275.32 314.55C275.53 315.31 275.57 315.92 275.43 316Z" fill="#FAFAFA"/>
<path d="M266.58 310.6C266.46 310.53 266.58 310.06 266.91 309.55C267.24 309.04 267.57 308.69 267.69 308.76C267.81 308.83 267.69 309.31 267.36 309.82C267.03 310.33 266.71 310.68 266.58 310.6Z" fill="#FAFAFA"/>
<path d="M266.4 328.31C266.26 328.31 266.06 327.64 265.96 326.77C265.86 325.9 265.89 325.19 266.03 325.17C266.17 325.15 266.37 325.84 266.47 326.71C266.57 327.58 266.54 328.29 266.4 328.31Z" fill="#FAFAFA"/>
</svg>
