<svg width="408" height="319" viewBox="0 0 408 319" fill="none" xmlns="http://www.w3.org/2000/svg">
<path d="M157.488 191.037C156.845 187.225 154.828 183.754 151.79 181.235C148.752 178.716 144.89 177.311 140.882 177.267C105.035 176.807 13.7661 176.017 8.86747 179.757C2.7649 184.427 -0.473192 186.817 0.0561128 194.227C0.502389 201.027 8.1929 318.517 8.1929 318.517H179.034L157.488 191.037Z" fill="#455A64"/>
<path d="M27.6838 318.577C27.7097 318.461 27.727 318.344 27.7357 318.227C27.7357 317.977 27.7357 317.637 27.8188 317.227C27.8914 316.307 27.9952 314.987 28.1197 313.317C28.2442 311.647 28.3896 309.527 28.4726 307.107C28.5556 304.687 28.7217 301.927 28.7217 298.877C28.7217 297.347 28.7217 295.747 28.7736 294.087C28.8255 292.427 28.7736 290.687 28.7113 288.897C28.7113 285.307 28.4933 281.477 28.3169 277.447C27.8395 269.387 27.0508 260.547 25.7742 251.317C24.4977 242.087 22.7541 233.317 20.9793 225.467C20.0349 221.537 19.1631 217.797 18.1875 214.327C17.7101 212.597 17.2846 210.917 16.8072 209.327C16.3297 207.737 15.8627 206.197 15.4268 204.727C14.5758 201.787 13.6521 199.177 12.9048 196.857C12.1576 194.537 11.4414 192.577 10.8291 190.967C10.2168 189.357 9.79125 188.147 9.45914 187.267L9.08553 186.267C9.0025 186.057 8.9506 185.947 8.9506 185.947C8.96515 186.063 8.99302 186.177 9.03365 186.287L9.35538 187.287C9.65636 188.177 10.0819 189.427 10.6319 191.027C11.182 192.627 11.8877 194.617 12.6039 196.937C13.32 199.257 14.2229 201.877 15.0428 204.817C15.4787 206.287 15.925 207.817 16.392 209.427C16.859 211.037 17.2741 212.717 17.7412 214.427C18.696 217.887 19.5471 221.637 20.4811 225.557C22.2351 233.437 23.8957 242.157 25.2241 251.377C26.5526 260.597 27.2998 269.377 27.8084 277.457C27.9952 281.457 28.2235 285.307 28.2546 288.897C28.2546 290.687 28.3481 292.417 28.3481 294.077C28.3481 295.737 28.3481 297.337 28.3481 298.857C28.3481 301.907 28.2339 304.667 28.1716 307.087C28.1094 309.507 28.016 311.587 27.9226 313.287C27.8292 314.987 27.7669 316.287 27.7254 317.217C27.7254 317.637 27.7254 317.977 27.7254 318.217C27.6995 318.335 27.6856 318.456 27.6838 318.577Z" fill="#263238"/>
<path d="M123.737 236.407C123.737 236.407 123.654 236.407 123.478 236.307C123.216 236.267 122.95 236.267 122.689 236.307C122.192 236.361 121.712 236.515 121.281 236.76C120.85 237.005 120.478 237.334 120.188 237.727C119.758 238.322 119.507 239.019 119.463 239.743C119.419 240.466 119.584 241.188 119.939 241.827C120.322 242.59 120.892 243.252 121.599 243.757C122.38 244.282 123.295 244.59 124.246 244.647C125.21 244.719 126.172 244.476 126.975 243.957C127.346 243.708 127.662 243.391 127.904 243.023C128.147 242.656 128.311 242.246 128.387 241.817C128.514 241.107 128.462 240.378 128.234 239.692C128.007 239.006 127.61 238.383 127.079 237.877C125.159 236.297 123.467 236.247 123.498 236.397C123.529 236.547 123.592 236.397 123.758 236.397C124.007 236.456 124.25 236.536 124.484 236.637C125.346 236.977 126.134 237.469 126.809 238.087C127.269 238.562 127.607 239.134 127.796 239.757C127.986 240.38 128.021 241.038 127.899 241.677C127.83 242.042 127.686 242.39 127.476 242.701C127.265 243.011 126.993 243.279 126.674 243.487C125.97 243.936 125.129 244.144 124.287 244.077C123.435 244.028 122.613 243.755 121.91 243.287C121.26 242.846 120.735 242.255 120.385 241.567C120.056 241.001 119.893 240.36 119.913 239.711C119.933 239.063 120.136 238.433 120.499 237.887C121.015 237.151 121.808 236.638 122.71 236.457C123.051 236.42 123.394 236.403 123.737 236.407Z" fill="#263238"/>
<path d="M96.95 221.477C96.95 221.587 98.7144 221.277 101.537 221.527C105.22 221.841 108.752 223.085 111.777 225.134C114.802 227.183 117.212 229.964 118.766 233.197C119.98 235.667 120.271 237.357 120.385 237.337C120.372 236.934 120.306 236.534 120.188 236.147C119.945 235.084 119.598 234.046 119.15 233.047C117.647 229.697 115.209 226.816 112.106 224.724C109.004 222.631 105.359 221.41 101.579 221.197C100.447 221.126 99.3111 221.156 98.1851 221.287C97.7665 221.298 97.3513 221.361 96.95 221.477Z" fill="#263238"/>
<path d="M146.497 252.047C146.403 251.747 146.267 251.461 146.092 251.197C145.664 250.457 145.159 249.76 144.587 249.117C142.707 246.945 140.242 245.313 137.464 244.399C134.685 243.486 131.699 243.326 128.833 243.937C127.973 244.118 127.132 244.375 126.321 244.707C126.016 244.814 125.727 244.958 125.46 245.137C125.46 245.237 126.747 244.667 128.906 244.297C131.708 243.804 134.594 244.01 137.29 244.895C139.986 245.781 142.402 247.317 144.307 249.357C145.771 250.917 146.404 252.097 146.497 252.047Z" fill="#263238"/>
<path d="M113.442 256.137C114.092 255.825 114.684 255.413 115.196 254.917C116.501 253.786 117.642 252.491 118.589 251.067C119.54 249.648 120.284 248.11 120.8 246.497C121.065 245.843 121.209 245.149 121.225 244.447C120.399 246.65 119.356 248.773 118.112 250.787C116.726 252.702 115.163 254.493 113.442 256.137Z" fill="#263238"/>
<path d="M66.0532 237.797C66.0532 237.797 65.9702 237.747 65.7937 237.697C65.5324 237.657 65.2662 237.657 65.0049 237.697C64.5086 237.753 64.0299 237.909 63.5992 238.153C63.1686 238.398 62.7955 238.726 62.5037 239.117C62.0797 239.714 61.8317 240.41 61.786 241.132C61.7404 241.854 61.8987 242.575 62.2442 243.217C62.6319 243.98 63.2051 244.642 63.9152 245.147C64.696 245.672 65.6115 245.98 66.5617 246.037C67.5262 246.109 68.488 245.866 69.2913 245.347C70.0371 244.841 70.5446 244.072 70.7027 243.207C70.844 242.487 70.7996 241.745 70.5734 241.046C70.3472 240.347 69.9461 239.712 69.4054 239.197C67.4854 237.627 65.7937 237.567 65.8248 237.717C65.856 237.867 65.9182 237.717 66.0843 237.767C66.3334 237.826 66.5765 237.906 66.8108 238.007C67.6724 238.347 68.4607 238.839 69.1356 239.457C69.5864 239.936 69.9149 240.51 70.0951 241.133C70.2752 241.757 70.3021 242.412 70.1734 243.047C70.0297 243.782 69.5894 244.433 68.9488 244.857C68.2446 245.306 67.4036 245.514 66.5617 245.447C65.7093 245.398 64.8871 245.125 64.185 244.657C63.5343 244.216 63.0095 243.625 62.6594 242.937C62.3307 242.371 62.1678 241.73 62.1879 241.081C62.208 240.433 62.4104 239.803 62.7735 239.257C63.2891 238.521 64.0822 238.008 64.9842 237.827C65.3395 237.795 65.6966 237.785 66.0532 237.797Z" fill="#263238"/>
<path d="M39.3078 222.867C39.3078 222.977 41.0721 222.667 43.8951 222.917C47.5701 223.23 51.0949 224.47 54.1153 226.511C57.1357 228.553 59.5455 231.324 61.1027 234.547C62.317 237.017 62.6076 238.707 62.7217 238.687C62.709 238.284 62.6428 237.884 62.5245 237.497C62.2824 236.434 61.9348 235.396 61.4867 234.397C59.9858 231.05 57.5506 228.171 54.4521 226.079C51.3536 223.987 47.7135 222.764 43.9366 222.547C42.8049 222.476 41.6688 222.506 40.5428 222.637C40.1224 222.66 39.7071 222.738 39.3078 222.867Z" fill="#263238"/>
<path d="M88.8134 253.437C88.719 253.137 88.5829 252.851 88.4086 252.587C87.9761 251.849 87.4722 251.153 86.9037 250.507C85.0191 248.339 82.5544 246.711 79.7771 245.797C76.9997 244.884 74.0157 244.721 71.1492 245.327C70.2861 245.509 69.442 245.767 68.6272 246.097C68.3215 246.2 68.0343 246.348 67.7761 246.537C67.7761 246.627 69.0631 246.057 71.2218 245.687C74.0222 245.193 76.9071 245.4 79.6014 246.285C82.2957 247.171 84.7097 248.707 86.6132 250.747C88.0869 252.307 88.72 253.487 88.8134 253.437Z" fill="#263238"/>
<path d="M55.7577 257.527C56.4078 257.215 57.0004 256.803 57.5117 256.307C58.8141 255.173 59.9552 253.879 60.9055 252.457C61.8561 251.038 62.5999 249.5 63.1161 247.887C63.3755 247.248 63.5194 246.572 63.5416 245.887C62.7139 248.087 61.6713 250.206 60.4281 252.217C59.0399 254.118 57.4768 255.895 55.7577 257.527Z" fill="#263238"/>
<path d="M380.637 308.407C380.979 308.477 382.442 309.907 380.356 312.177C378.27 314.447 365.691 320.657 363.377 316.947C361.063 313.237 366.646 310.657 366.646 310.657L380.637 308.407Z" fill="#FFBE9D"/>
<path d="M366.823 304.407C366.823 304.407 353.85 303.027 348.557 303.677C342.817 304.387 336.725 301.597 333.113 297.777C330.852 295.243 329.286 292.204 328.557 288.937L320.254 283.377C320.254 283.377 319.362 264.467 332.449 267.517L347.737 268.037C347.737 268.037 377.834 272.837 382.484 276.447C382.484 276.447 388.151 281.757 389.801 283.807C390.424 284.587 390.953 292.377 385.203 295.037C385.203 295.037 388.597 299.207 385.608 301.567L384.207 302.567C384.207 302.567 386.148 306.737 384.321 307.927C382.494 309.117 368.058 313.337 363.958 310.587C359.859 307.837 364.612 304.667 366.781 304.387" fill="#FFBE9D"/>
<path d="M382.993 294.297C382.425 294.321 381.86 294.381 381.301 294.477C380.211 294.607 378.634 294.797 376.672 294.937C375.697 294.997 374.596 295.057 373.475 295.077C372.355 295.097 371.099 295.077 369.781 295.167C368.365 295.205 366.988 295.624 365.806 296.377C365.157 296.795 364.635 297.372 364.294 298.048C363.953 298.725 363.805 299.477 363.865 300.227C363.989 301.007 364.402 301.717 365.027 302.227C365.605 302.696 366.271 303.052 366.989 303.277C368.307 303.672 369.669 303.917 371.047 304.007C373.36 304.176 375.685 304.132 377.99 303.877C379.952 303.677 381.519 303.427 382.598 303.247C383.168 303.183 383.731 303.07 384.28 302.907C383.709 302.914 383.141 302.961 382.577 303.047C381.477 303.167 379.9 303.357 377.949 303.507C375.67 303.699 373.378 303.699 371.099 303.507C369.763 303.407 368.444 303.162 367.165 302.777C366.515 302.569 365.91 302.247 365.38 301.827C364.861 301.398 364.516 300.807 364.405 300.157C364.358 299.5 364.491 298.842 364.792 298.251C365.093 297.659 365.55 297.154 366.117 296.787C367.222 296.089 368.502 295.692 369.822 295.637C371.088 295.527 372.334 295.567 373.486 295.507C374.638 295.447 375.728 295.397 376.714 295.297C378.675 295.117 380.242 294.877 381.332 294.677C381.898 294.605 382.454 294.478 382.993 294.297Z" fill="#EB996E"/>
<path d="M384.051 285.267C383.483 285.284 382.918 285.344 382.36 285.447C381.322 285.587 379.703 285.787 377.762 285.947C375.821 286.107 373.496 286.237 370.912 286.237C369.517 286.129 368.114 286.331 366.812 286.827C366.11 287.166 365.557 287.737 365.256 288.437C364.966 289.149 364.891 289.925 365.038 290.677C365.205 291.398 365.524 292.078 365.976 292.675C366.427 293.272 367.002 293.773 367.664 294.147C368.861 294.847 370.211 295.268 371.607 295.377C373.913 295.47 376.222 295.366 378.509 295.067L383.117 294.617C383.687 294.584 384.253 294.504 384.809 294.377C384.242 294.335 383.673 294.335 383.107 294.377L378.478 294.667C376.214 294.904 373.934 294.967 371.659 294.857C370.342 294.742 369.07 294.334 367.944 293.667C367.348 293.331 366.831 292.88 366.424 292.344C366.017 291.807 365.729 291.195 365.577 290.547C365.419 289.915 365.478 289.25 365.746 288.653C366.014 288.056 366.475 287.559 367.062 287.237C368.285 286.772 369.601 286.581 370.912 286.677C373.517 286.677 375.842 286.487 377.793 286.277C379.744 286.067 381.311 285.807 382.391 285.607C382.953 285.541 383.509 285.427 384.051 285.267Z" fill="#EB996E"/>
<path d="M377.357 286.367C377.81 285.628 378.202 284.855 378.53 284.057C379.015 283.338 379.432 282.578 379.775 281.787C379.671 281.687 378.737 282.507 378.052 283.787C377.543 284.554 377.3 285.458 377.357 286.367Z" fill="#EB996E"/>
<path d="M337.67 268.277L349.937 266.707C349.937 266.707 384.601 259.897 384.944 260.777C385.286 261.657 387.019 261.967 385.712 265.547C384.404 269.127 364.425 272.297 363.533 273.437C362.64 274.577 361.997 281.207 354.192 284.257C346.387 287.307 341.468 286.257 341.468 286.257" fill="#FFBE9D"/>
<path d="M341.427 286.277L341.686 286.347L342.485 286.457C343.521 286.54 344.563 286.54 345.599 286.457C347.223 286.323 348.831 286.049 350.404 285.637C352.502 285.124 354.527 284.365 356.434 283.377C358.736 282.094 360.611 280.208 361.841 277.937C362.487 276.678 363.042 275.379 363.502 274.047C363.567 273.895 363.644 273.748 363.73 273.607C363.835 273.511 363.958 273.436 364.093 273.387C364.433 273.253 364.779 273.136 365.131 273.037C365.858 272.817 366.605 272.627 367.373 272.437C370.424 271.667 373.652 270.927 376.952 269.997C378.602 269.527 380.273 268.997 381.934 268.367C382.779 268.045 383.594 267.657 384.373 267.207C384.781 266.968 385.157 266.683 385.494 266.357C385.667 266.176 385.811 265.97 385.919 265.747C386.034 265.517 386.065 265.307 386.148 265.097C386.473 264.221 386.531 263.273 386.314 262.367C386.157 261.926 385.902 261.523 385.566 261.187C385.433 261.048 385.318 260.893 385.224 260.727C385.224 260.727 385.224 260.727 385.141 260.597C385.091 260.537 385.021 260.495 384.944 260.477C384.868 260.47 384.791 260.47 384.715 260.477H384.352C382.546 260.587 380.834 260.877 379.163 261.137C375.769 261.677 372.51 262.257 369.407 262.827C363.18 263.957 357.638 265.037 352.957 265.967C351.795 266.187 350.674 266.447 349.626 266.617L346.616 267.017L341.811 267.677L338.77 268.117L337.981 268.247L337.711 268.307C337.804 268.322 337.899 268.322 337.991 268.307L338.78 268.237L341.842 267.887L346.668 267.317L349.688 266.947C350.726 266.787 351.857 266.547 353.03 266.337L369.501 263.337C372.614 262.787 375.863 262.207 379.246 261.677C380.938 261.427 382.681 261.137 384.435 261.027H384.747H384.85C384.85 261.027 384.85 260.947 384.902 260.907C384.498 261.047 384.798 260.907 384.705 260.997C384.81 261.216 384.954 261.416 385.131 261.587C385.417 261.872 385.636 262.213 385.774 262.587C385.952 263.393 385.891 264.232 385.598 265.007C385.519 265.4 385.333 265.766 385.058 266.067C384.745 266.359 384.396 266.614 384.02 266.827C383.266 267.258 382.478 267.632 381.664 267.947C380.035 268.587 378.385 269.097 376.734 269.567C373.455 270.507 370.237 271.247 367.186 272.027C366.418 272.227 365.66 272.427 364.924 272.647C364.548 272.75 364.181 272.876 363.823 273.027C363.605 273.103 363.411 273.234 363.263 273.407C363.147 273.572 363.053 273.75 362.983 273.937C362.533 275.258 361.988 276.548 361.353 277.797C360.184 280.009 358.384 281.855 356.164 283.117C354.295 284.11 352.309 284.882 350.248 285.417C348.698 285.848 347.111 286.146 345.505 286.307C344.492 286.411 343.472 286.445 342.454 286.407C342.101 286.407 341.831 286.407 341.655 286.407L341.427 286.277Z" fill="#EB996E"/>
<path d="M370.601 303.817C370.175 303.771 369.743 303.791 369.324 303.877C368.169 304.038 367.043 304.358 365.982 304.827C365.247 305.152 364.55 305.554 363.906 306.027C363.503 306.296 363.16 306.64 362.896 307.038C362.633 307.436 362.454 307.881 362.37 308.347C362.346 308.881 362.477 309.411 362.748 309.878C363.019 310.344 363.421 310.728 363.906 310.987C364.914 311.519 366.063 311.749 367.207 311.647C371.025 311.448 374.815 310.909 378.53 310.037C379.952 309.687 381.083 309.327 381.851 309.037C382.259 308.915 382.652 308.751 383.024 308.547C382.602 308.601 382.188 308.698 381.789 308.837C381 309.057 379.869 309.357 378.447 309.657C374.738 310.419 370.973 310.904 367.186 311.107C366.15 311.204 365.107 311.006 364.187 310.537C363.779 310.329 363.44 310.016 363.208 309.632C362.975 309.249 362.857 308.811 362.869 308.367C363.019 307.559 363.492 306.841 364.187 306.367C364.798 305.896 365.463 305.493 366.169 305.167C367.58 304.535 369.069 304.082 370.601 303.817Z" fill="#EB996E"/>
<path d="M280.359 235.547C280.359 235.547 264.989 211.167 261.533 195.077C258.077 178.987 240.226 153.457 234.424 146.797C228.622 140.137 205.624 132.377 205.624 132.377L197.134 127.957L131.344 122.387C131.344 122.387 87.5783 126.827 74.3249 138.477C61.0715 150.127 50.7241 176.767 50.7241 190.077C50.7241 203.387 37.3462 318.717 37.3462 318.717L199.469 318.517L195.837 261.657C195.837 261.657 215.421 248.897 220.6 237.797C225.779 226.697 222.904 232.247 222.904 232.247C222.904 232.247 241.284 269.897 247.615 274.337C253.946 278.777 327.582 300.547 327.582 300.547L337.659 263.317L280.359 235.547Z" fill="#F9EC75"/>
<path d="M88.9483 143.127C90.723 143.657 112.684 198.307 114.23 203.277C115.777 208.247 114.23 239.567 114.23 239.567L106.965 252.497C106.965 252.497 109.041 261.937 107.484 266.417L139.99 272.417C139.99 272.417 148.241 266.947 155.983 272.417L194.384 275.547C194.384 275.547 183.123 275.667 186.475 292.307C189.755 308.607 192.256 312.187 192.256 312.187L57.491 309.187C57.491 309.187 42.5147 308.467 44.798 280.727C47.0813 252.987 53.5056 176.467 53.5056 176.467C53.5056 176.467 63.3237 135.467 88.9483 143.127Z" fill="#F9EC75"/>
<path d="M114.531 235.197C114.668 234.988 114.776 234.762 114.853 234.527L115.673 232.527C116.026 231.677 116.451 230.627 116.866 229.377C117.282 228.127 117.832 226.737 118.268 225.147C118.703 223.557 119.305 221.827 119.71 219.937C120.115 218.047 120.603 216.027 121.018 213.937C121.86 209.278 122.39 204.571 122.606 199.847C122.764 195.119 122.615 190.386 122.159 185.677C121.89 183.517 121.672 181.457 121.308 179.547C121.142 178.547 121.007 177.667 120.821 176.777C120.634 175.887 120.447 175.057 120.271 174.247C119.939 172.637 119.513 171.247 119.171 169.927C118.828 168.607 118.506 167.587 118.205 166.707C117.904 165.827 117.697 165.207 117.531 164.707C117.453 164.469 117.363 164.235 117.261 164.007C117.284 164.256 117.34 164.501 117.427 164.737C117.572 165.247 117.769 165.927 118.008 166.737C118.247 167.547 118.589 168.737 118.88 169.977C119.171 171.217 119.596 172.677 119.918 174.297C120.084 175.107 120.25 175.947 120.426 176.827C120.603 177.707 120.727 178.627 120.883 179.577C121.225 181.487 121.433 183.577 121.682 185.697C122.601 195.077 122.22 204.533 120.551 213.817C120.146 215.957 119.772 217.987 119.295 219.817C118.818 221.647 118.371 223.437 117.925 225.027C117.479 226.617 116.991 228.027 116.597 229.267C116.202 230.507 115.818 231.577 115.496 232.437L114.77 234.437C114.673 234.685 114.593 234.939 114.531 235.197Z" fill="#263238"/>
<path d="M67.6411 294.467C67.6411 294.467 67.7761 294.347 67.994 294.087L68.8866 292.937C69.2706 292.427 69.748 291.817 70.3292 291.137C70.9104 290.457 71.5435 289.647 72.3218 288.817C73.1002 287.987 73.9202 287.057 74.875 286.127C75.8298 285.197 76.8677 284.207 77.9885 283.197C80.4393 281.038 83.0324 279.033 85.7517 277.197C88.4915 275.396 91.3479 273.766 94.3035 272.317C95.6839 271.677 96.9812 271.047 98.2474 270.557C99.5136 270.067 100.676 269.557 101.755 269.207C102.835 268.857 103.831 268.517 104.713 268.207C105.595 267.897 106.343 267.707 106.965 267.547L108.398 267.137C108.572 267.1 108.739 267.039 108.896 266.957C108.72 266.964 108.546 266.991 108.377 267.037L106.913 267.347C106.28 267.487 105.512 267.667 104.62 267.927C103.727 268.187 102.721 268.447 101.631 268.847C100.541 269.247 99.3268 269.617 98.071 270.137C96.8152 270.657 95.4764 271.237 94.0856 271.867C91.0894 273.297 88.2006 274.928 85.4403 276.747C82.7067 278.595 80.1061 280.62 77.6564 282.807C76.5459 283.807 75.4873 284.807 74.5429 285.807C73.5984 286.807 72.7681 287.697 72.0209 288.557C71.2736 289.417 70.6509 290.237 70.0801 290.937C69.5093 291.637 69.0422 292.277 68.7101 292.797C68.378 293.317 68.1081 293.677 67.8902 294.007C67.7874 294.149 67.7037 294.304 67.6411 294.467Z" fill="#263238"/>
<path d="M56.2974 287.197C56.3804 287.267 57.574 285.957 59.8157 284.197C61.1289 283.17 62.5162 282.234 63.9671 281.397C65.7578 280.387 67.6283 279.514 69.5612 278.787C71.5061 278.095 73.505 277.553 75.5392 277.167C77.2045 276.863 78.89 276.672 80.5832 276.597C83.4788 276.487 85.2742 276.697 85.2846 276.597C84.8753 276.484 84.454 276.417 84.0288 276.397C83.5372 276.326 83.0416 276.282 82.5447 276.267C81.9635 276.267 81.3097 276.197 80.5728 276.267C78.8537 276.295 77.1395 276.452 75.4458 276.737C73.377 277.101 71.3453 277.64 69.3743 278.347C67.4067 279.076 65.5104 279.973 63.7077 281.027C62.2467 281.894 60.8586 282.87 59.5563 283.947C58.9854 284.397 58.5184 284.857 58.1136 285.247C57.7462 285.559 57.3996 285.893 57.0758 286.247C56.7815 286.535 56.5205 286.854 56.2974 287.197Z" fill="#263238"/>
<path d="M68.762 268.907C68.8243 268.997 70.4122 267.777 73.3182 266.397C74.1077 266.02 74.9185 265.686 75.7467 265.397C76.6185 265.037 77.5941 264.767 78.6112 264.457C83.0833 263.217 87.7777 262.907 92.3835 263.547C93.4214 263.717 94.4592 263.857 95.3518 264.097C96.2153 264.286 97.0676 264.519 97.9049 264.797C101.018 265.797 102.721 266.797 102.772 266.677C102.395 266.4 101.988 266.162 101.558 265.967C101.081 265.695 100.585 265.454 100.074 265.247C99.3971 264.945 98.7042 264.678 97.9983 264.447C97.1605 264.144 96.3045 263.89 95.4348 263.687C94.4437 263.429 93.439 263.222 92.425 263.067C87.7515 262.366 82.9744 262.684 78.4452 263.997C77.4598 264.273 76.4928 264.607 75.5495 264.997C74.7137 265.311 73.8992 265.675 73.1106 266.087C72.4544 266.41 71.8169 266.767 71.2009 267.157C70.7215 267.423 70.2635 267.724 69.8309 268.057C69.4418 268.299 69.0831 268.585 68.762 268.907Z" fill="#263238"/>
<path d="M147.577 309.887C147.143 308.054 146.824 306.197 146.622 304.327C146.459 302.292 146.476 300.248 146.674 298.217C146.927 295.73 147.378 293.266 148.023 290.847C148.709 288.457 149.572 286.117 150.607 283.847C151.497 281.99 152.538 280.205 153.721 278.507C154.856 276.973 156.079 275.5 157.384 274.097C156.959 274.399 156.56 274.733 156.191 275.097C155.737 275.508 155.314 275.949 154.925 276.417L154.177 277.267C153.918 277.587 153.679 277.927 153.409 278.267C152.173 279.954 151.097 281.745 150.192 283.617C147.988 288.214 146.639 293.149 146.207 298.197C146.032 300.254 146.052 302.323 146.269 304.377C146.321 304.817 146.373 305.227 146.414 305.627L146.643 306.727C146.74 307.317 146.886 307.899 147.078 308.467C147.206 308.952 147.372 309.427 147.577 309.887Z" fill="#263238"/>
<path d="M170.171 272.357C170.206 272.264 170.227 272.166 170.233 272.067C170.233 271.847 170.316 271.567 170.378 271.217C170.492 270.427 170.658 269.327 170.866 267.927C171.291 265.067 171.842 260.927 172.485 255.787C173.762 245.537 175.287 231.337 176.481 215.617C177.674 199.897 178.297 185.617 178.556 175.307C178.702 170.147 178.774 165.967 178.795 163.077C178.795 161.667 178.795 160.547 178.795 159.757V158.887C178.833 158.879 178.867 158.859 178.889 158.829C178.912 158.799 178.923 158.762 178.919 158.725C178.915 158.688 178.897 158.653 178.868 158.628C178.84 158.604 178.803 158.59 178.764 158.59C178.725 158.59 178.688 158.604 178.66 158.628C178.631 158.653 178.613 158.688 178.609 158.725C178.605 158.762 178.616 158.799 178.639 158.829C178.661 158.859 178.695 158.879 178.733 158.887C178.733 159.117 178.733 159.397 178.733 159.757C178.733 160.547 178.671 161.657 178.619 163.077C178.525 165.997 178.39 170.167 178.224 175.297C177.84 185.617 177.186 199.867 175.972 215.587C174.758 231.307 173.315 245.487 172.132 255.747C171.53 260.847 171.032 264.987 170.69 267.897C170.523 269.307 170.399 270.407 170.306 271.207C170.306 271.557 170.233 271.837 170.212 272.067C170.189 272.162 170.175 272.259 170.171 272.357Z" fill="#263238"/>
<path d="M223.111 232.967C223.385 232.474 223.621 231.963 223.817 231.437C224.232 230.437 224.855 229.007 225.633 227.237C227.19 223.707 229.515 218.897 232.296 213.677C235.078 208.457 237.589 203.827 239.468 200.347C240.371 198.627 241.097 197.237 241.544 196.267C241.816 195.771 242.049 195.257 242.239 194.727C241.901 195.18 241.605 195.662 241.357 196.167L239.105 200.167C237.216 203.547 234.559 208.167 231.778 213.437C228.996 218.707 226.723 223.507 225.249 227.087C224.513 228.877 223.942 230.337 223.589 231.357C223.386 231.88 223.226 232.419 223.111 232.967Z" fill="#263238"/>
<path d="M231.393 214.487C231.715 214.477 232.034 214.419 232.338 214.317C232.929 214.177 233.781 213.937 234.829 213.607C240.271 211.868 245.434 209.404 250.168 206.287C251.071 205.687 251.787 205.177 252.244 204.807C252.505 204.633 252.743 204.428 252.95 204.197C251.911 204.739 250.903 205.333 249.929 205.977C248.082 207.097 245.487 208.567 242.498 209.977C239.509 211.387 236.728 212.497 234.683 213.237C233.566 213.6 232.468 214.017 231.393 214.487Z" fill="#263238"/>
<path d="M245.311 248.637C245.71 248.463 246.086 248.245 246.432 247.987C247.117 247.537 248.134 246.897 249.411 246.157C256.063 242.243 263.428 239.585 271.112 238.327C272.586 238.077 273.779 237.917 274.61 237.817C275.046 237.794 275.477 237.724 275.897 237.607C275.462 237.559 275.023 237.559 274.589 237.607C273.759 237.607 272.513 237.747 271.05 237.947C267.151 238.48 263.323 239.419 259.633 240.747C255.962 242.076 252.448 243.779 249.151 245.827C247.895 246.627 246.909 247.307 246.256 247.827C245.916 248.069 245.6 248.34 245.311 248.637Z" fill="#263238"/>
<path d="M133.098 122.477C133.105 122.748 133.126 123.018 133.161 123.287C133.233 123.867 133.327 124.637 133.441 125.607C133.711 127.607 134.084 130.527 134.718 134.107C135.43 138.305 136.401 142.459 137.624 146.547C139.116 151.567 141.304 156.371 144.131 160.827C145.705 163.217 147.516 165.454 149.538 167.507L149.746 167.727L149.943 167.477C152.537 164.142 155.911 161.446 159.792 159.607C161.45 158.819 163.189 158.202 164.981 157.767C166.529 157.406 168.112 157.202 169.704 157.157C171.983 157.078 174.26 157.386 176.429 158.067C177.934 158.577 178.733 158.957 178.754 158.907C178.572 158.794 178.381 158.697 178.183 158.617C177.636 158.341 177.071 158.101 176.491 157.897C174.313 157.141 172.008 156.778 169.693 156.827C168.072 156.849 166.458 157.037 164.878 157.387C163.051 157.811 161.277 158.421 159.585 159.207C155.615 161.062 152.163 163.805 149.517 167.207H149.922C147.933 165.173 146.147 162.963 144.588 160.607C141.783 156.189 139.595 151.435 138.08 146.467C136.846 142.402 135.841 138.276 135.07 134.107C134.385 130.547 133.96 127.637 133.628 125.637C133.472 124.637 133.337 123.907 133.244 123.337C133.232 123.045 133.183 122.757 133.098 122.477Z" fill="#263238"/>
<path d="M132.216 123.107L142.211 110.337L153.077 110.667L188.385 128.637L132.216 123.107Z" fill="#F9EC75"/>
<path d="M178.774 158.907C178.964 158.929 179.156 158.929 179.345 158.907C179.894 158.854 180.438 158.768 180.975 158.647C182.942 158.154 184.821 157.379 186.548 156.347C187.713 155.642 188.994 155.131 190.336 154.837C191.882 154.516 193.481 154.516 195.027 154.837C196.795 155.223 198.436 156.025 199.803 157.171C201.171 158.318 202.222 159.773 202.863 161.407L203.423 162.867V161.307C203.423 160.917 203.423 160.507 203.423 160.087C203.299 152.207 203.288 145.087 202.956 139.897C202.801 137.317 202.593 135.227 202.365 133.797C202.271 133.077 202.157 132.527 202.074 132.157C202.042 131.966 201.994 131.779 201.929 131.597C201.877 131.597 202.022 132.387 202.157 133.827C202.292 135.267 202.469 137.337 202.572 139.917C202.811 145.077 202.749 152.207 202.884 160.097C202.884 160.517 202.884 160.937 202.884 161.327L203.403 161.227C202.729 159.514 201.623 157.991 200.184 156.795C198.745 155.599 197.019 154.767 195.162 154.377C193.66 154.086 192.113 154.084 190.61 154.371C189.106 154.657 187.677 155.227 186.403 156.047C184.713 157.089 182.883 157.904 180.964 158.467C179.563 158.807 178.764 158.857 178.774 158.907Z" fill="#263238"/>
<path d="M142.211 48.4967V125.197C142.205 129.587 143.812 133.838 146.746 137.197C151.244 142.329 156.657 146.647 162.729 149.947L178.774 158.657L192.059 147.197C193.99 145.531 195.553 143.509 196.657 141.25C197.76 138.991 198.382 136.542 198.483 134.047C198.712 128.467 198.712 122.837 198.712 122.837C198.712 122.837 221.202 121.277 223.319 99.9067C224.357 89.8467 224.627 69.2367 224.679 50.2367C224.703 39.787 220.642 29.7117 213.305 22.016C205.968 14.3204 195.893 9.56872 185.085 8.70673L184.451 8.65674C178.943 8.52847 173.464 9.46492 168.338 11.4108C163.211 13.3567 158.541 16.2726 154.604 19.9863C150.666 23.7 147.541 28.1362 145.413 33.0329C143.284 37.9297 142.195 43.1878 142.211 48.4967Z" fill="#FFBE9D"/>
<path d="M198.774 122.517C198.774 122.517 184.649 122.517 170.503 112.277C170.503 112.277 176.024 128.217 198.348 128.057L198.774 122.517Z" fill="#EB996E"/>
<path d="M217.206 64.5867C217.145 65.3834 216.763 66.1257 216.143 66.656C215.523 67.1863 214.713 67.4627 213.885 67.4267C213.48 67.4255 213.08 67.3465 212.707 67.1943C212.335 67.0421 211.997 66.8198 211.715 66.5404C211.433 66.261 211.211 65.9301 211.064 65.5672C210.916 65.2042 210.845 64.8165 210.854 64.4267C210.913 63.6309 211.292 62.8887 211.91 62.3581C212.529 61.8276 213.338 61.5508 214.165 61.5867C214.571 61.5866 214.972 61.6647 215.346 61.8163C215.72 61.9679 216.058 62.19 216.341 62.4695C216.625 62.7491 216.847 63.0804 216.996 63.444C217.144 63.8076 217.216 64.1961 217.206 64.5867Z" fill="#263238"/>
<path d="M219.012 58.8467C218.586 59.2067 216.334 57.3067 212.92 57.0467C209.505 56.7867 206.859 58.2267 206.527 57.7967C206.361 57.5967 206.817 56.9167 207.98 56.2367C209.549 55.3603 211.363 54.9792 213.169 55.1467C214.944 55.2771 216.628 55.9537 217.974 57.0767C218.929 57.9367 219.22 58.6767 219.012 58.8467Z" fill="#263238"/>
<path d="M184.742 63.2567C184.681 64.0534 184.3 64.7957 183.679 65.326C183.059 65.8563 182.249 66.1327 181.421 66.0967C181.016 66.0955 180.615 66.0165 180.242 65.8644C179.869 65.7124 179.531 65.4902 179.248 65.2109C178.965 64.9317 178.742 64.6009 178.593 64.2379C178.444 63.8749 178.372 63.487 178.38 63.0967C178.441 62.3 178.822 61.5578 179.442 61.0275C180.063 60.4972 180.873 60.2207 181.701 60.2567C182.106 60.258 182.507 60.3369 182.88 60.489C183.253 60.6411 183.591 60.8632 183.874 61.1425C184.157 61.4218 184.38 61.7525 184.529 62.1155C184.678 62.4785 184.75 62.8665 184.742 63.2567Z" fill="#263238"/>
<path d="M185.417 56.7867C184.991 57.1467 182.729 55.2467 179.324 54.9867C175.92 54.7267 173.263 56.1667 172.931 55.7267C172.765 55.5367 173.222 54.8467 174.384 54.1767C175.954 53.3012 177.767 52.9169 179.574 53.0767C181.348 53.2112 183.031 53.8873 184.379 55.0067C185.334 55.8667 185.645 56.6167 185.417 56.7867Z" fill="#263238"/>
<path d="M195.712 82.1967C195.712 82.0067 197.861 81.8167 201.337 81.6667C202.209 81.6667 203.05 81.5567 203.247 80.9967C203.395 80.1342 203.269 79.2485 202.884 78.4567C202.23 76.3567 201.555 74.1667 200.808 71.8567C198.016 62.4667 196.065 54.7767 196.459 54.6767C196.854 54.5767 199.438 62.0967 202.23 71.4767C202.904 73.7967 203.548 75.9967 204.15 78.1067C204.614 79.1626 204.673 80.3429 204.316 81.4367C204.166 81.7243 203.95 81.9749 203.683 82.1691C203.417 82.3633 203.108 82.4959 202.78 82.5567C202.287 82.6448 201.785 82.6717 201.285 82.6367C197.85 82.4967 195.702 82.3367 195.712 82.1967Z" fill="#263238"/>
<path d="M185.468 83.6267C186.029 83.6267 185.728 87.2067 188.686 89.9967C191.644 92.7867 195.608 92.7067 195.598 93.2067C195.598 93.4267 194.654 93.8267 192.983 93.7367C190.812 93.5925 188.765 92.7141 187.202 91.2567C185.692 89.8608 184.81 87.9515 184.742 85.9367C184.732 84.4367 185.219 83.5867 185.468 83.6267Z" fill="#263238"/>
<path d="M187.409 43.9667C186.994 44.8367 183.621 44.1367 179.584 44.2867C175.547 44.4367 172.205 45.2267 171.748 44.3767C171.54 43.9767 172.174 43.1867 173.554 42.3767C175.389 41.4563 177.417 40.95 179.485 40.8963C181.552 40.8426 183.606 41.2428 185.489 42.0667C186.911 42.7967 187.586 43.5567 187.409 43.9667Z" fill="#263238"/>
<path d="M218.576 49.1967C217.912 49.8967 215.629 48.9367 212.806 48.6767C209.983 48.4167 207.544 48.7567 207.056 47.9367C206.848 47.5367 207.284 46.8167 208.395 46.1967C209.866 45.4408 211.545 45.1438 213.2 45.3467C214.858 45.5019 216.423 46.1562 217.673 47.2167C218.607 48.0867 218.856 48.8867 218.576 49.1967Z" fill="#263238"/>
<path d="M168.333 26.9567L168.209 27.0367C164.424 29.4358 161.746 33.1511 160.736 37.4067L160.643 37.8367C159.252 43.8367 158.868 50.0867 157.415 56.1067C155.962 62.1267 156.232 66.7267 149.974 68.1067C148.335 68.4527 146.625 68.312 145.071 67.7033C143.517 67.0945 142.19 66.0463 141.266 64.6967C140.801 63.8143 140.61 62.8212 140.716 61.8367C140.789 47.0167 137.696 41.2567 139.056 25.8367C139.224 23.7734 139.902 21.7786 141.032 20.0184C142.162 18.2582 143.712 16.7834 145.553 15.7167C149.102 13.6667 153.399 11.5967 156.969 13.5867C160.539 15.5767 164.784 22.6767 167.431 25.7567" fill="#263238"/>
<path d="M148.874 58.7667C148.5 58.5867 133.991 53.2067 133.213 67.8767C132.434 82.5467 147.888 80.2567 147.929 79.8767C147.971 79.4967 148.874 58.7667 148.874 58.7667Z" fill="#FFBE9D"/>
<path d="M143.57 74.0567C143.508 74.0067 143.301 74.2267 142.844 74.3967C142.2 74.6261 141.489 74.6046 140.862 74.3367C139.284 73.6967 138.059 71.1667 138.122 68.5167C138.148 67.2579 138.467 66.0208 139.056 64.8967C139.22 64.448 139.494 64.0444 139.856 63.7204C140.217 63.3964 140.655 63.1618 141.131 63.0367C141.44 62.9723 141.763 63.0152 142.042 63.158C142.321 63.3008 142.539 63.5341 142.657 63.8167C142.844 64.2367 142.73 64.5167 142.813 64.5467C142.896 64.5767 143.145 64.3167 143.062 63.7067C142.993 63.34 142.799 63.0058 142.512 62.7567C142.103 62.438 141.584 62.2807 141.059 62.3167C140.428 62.4067 139.832 62.6506 139.327 63.0252C138.822 63.3997 138.425 63.8925 138.174 64.4567C137.465 65.6817 137.077 67.0546 137.042 68.4567C136.98 71.4567 138.402 74.2567 140.571 74.9767C140.974 75.1124 141.404 75.1586 141.828 75.1119C142.252 75.0651 142.66 74.9266 143.02 74.7067C143.529 74.4067 143.622 74.0867 143.57 74.0567Z" fill="#EB996E"/>
<path d="M156.305 15.7967C153.067 9.64674 164.027 2.05673 171.717 0.37673C179.408 -1.30327 188.977 3.00673 196.221 5.98673C200.798 7.86673 205.302 10.3367 210.273 10.5267C213.605 10.6667 216.874 9.75674 220.102 8.93674C223.329 8.11674 226.671 7.37673 229.972 7.86673C233.272 8.35673 236.541 10.3167 237.538 13.3867C238.534 16.4567 236.396 20.3867 233.064 20.5467C237.455 18.6567 243.287 22.0567 243.568 26.6867C243.848 31.3167 238.503 35.3667 233.905 34.0167C236.199 32.6067 239.292 35.4767 238.793 38.0167C238.295 40.5567 235.68 42.2967 233.137 43.1467C226.568 45.3167 219.261 43.8767 212.889 41.2267C206.516 38.5767 200.735 34.7867 194.436 31.9867C188.136 29.1867 177.602 24.2267 170.897 25.9167C165.957 27.1667 162.138 32.4767 159.481 31.0267C158.256 30.2601 157.235 29.2275 156.5 28.0118C155.764 26.7961 155.335 25.4312 155.246 24.0267C155.12 21.224 155.47 18.4203 156.284 15.7267" fill="#263238"/>
<path d="M234.933 20.2867C234.808 20.2067 234.061 21.2867 232.276 22.8867C229.741 25.0754 226.692 26.637 223.392 27.4367C218.535 28.7005 213.359 28.0869 208.965 25.7267C203.994 23.0867 199.957 18.2667 195.235 13.6667C190.512 9.06673 184.804 5.40674 178.847 4.40674C172.89 3.40674 167.244 5.04673 163.923 8.08673C162.608 9.26187 161.552 10.6806 160.819 12.2579C160.086 13.8352 159.691 15.5388 159.657 17.2667C159.668 18.1978 159.811 19.1231 160.083 20.0167C160.311 20.6067 160.456 20.9067 160.508 20.8867C160.323 19.6952 160.236 18.4914 160.249 17.2867C160.522 14.0338 162.092 11.0092 164.628 8.84672C167.742 6.14672 173.077 4.69673 178.598 5.71673C184.119 6.73673 189.568 10.1567 194.166 14.7167C198.763 19.2767 202.956 24.1667 208.281 26.9267C212.213 28.9208 216.706 29.6463 221.098 28.9965C225.49 28.3466 229.55 26.3557 232.68 23.3167C233.342 22.6565 233.936 21.9365 234.455 21.1667C234.818 20.6067 234.974 20.3167 234.933 20.2867Z" fill="#455A64"/>
<path d="M145.055 57.8267C145.106 57.8767 145.75 57.4767 146.424 56.3567C147.322 54.7513 147.739 52.9371 147.628 51.1167C147.701 46.3767 143.809 40.9767 143.82 34.4267C143.69 31.3874 144.538 28.3838 146.248 25.8267C147.728 23.81 149.853 22.317 152.299 21.5767C153.954 21.0572 155.723 20.9675 157.426 21.3167C158.63 21.6067 159.252 21.9267 159.325 21.8167C159.398 21.7067 158.827 21.2567 157.592 20.8167C155.791 20.2208 153.848 20.1547 152.008 20.6267C149.244 21.3045 146.809 22.8841 145.117 25.0967C143.163 27.8532 142.181 31.1415 142.315 34.4767C142.425 37.7258 143.149 40.9283 144.453 43.9267C145.484 46.2548 146.183 48.7073 146.528 51.2167C147.006 55.5267 144.847 57.7367 145.055 57.8267Z" fill="#455A64"/>
<path d="M136.233 66.6161L138.707 64.4071C139.606 63.6037 141.012 63.6553 141.845 64.5222L151.122 74.1676C151.955 75.0345 151.902 76.3885 151.002 77.1919L148.528 79.4009C147.628 80.2042 146.223 80.1527 145.389 79.2858L136.113 69.6403C135.279 68.7734 135.333 67.4194 136.233 66.6161Z" fill="#263238"/>
<path d="M50.6618 193.367C50.6618 193.367 50.6619 193.567 50.5996 193.957C50.5373 194.347 50.5269 194.957 50.4647 195.677C50.3505 197.207 50.1948 199.457 49.9769 202.377C49.5618 208.257 48.939 216.847 48.2021 227.737C47.4653 238.627 46.5727 251.817 45.5349 266.887C45.2858 270.653 45.0228 274.537 44.7461 278.537C44.5904 280.537 44.5074 282.537 44.414 284.637C44.3569 285.673 44.3569 286.711 44.414 287.747C44.4158 288.799 44.4748 289.85 44.5904 290.897L44.9952 294.077C45.2339 295.127 45.4726 296.187 45.7009 297.247C45.9292 298.307 46.3859 299.327 46.7387 300.377C47.0916 301.427 47.6105 302.427 48.171 303.377C50.3505 307.267 53.7443 310.907 58.4561 312.377H58.5184H160.051H192.225H192.578L192.484 312.047C191.498 308.667 190.523 305.327 189.558 301.997C189.066 300.337 188.586 298.67 188.115 296.997C187.589 295.384 187.187 293.736 186.911 292.067C186.413 288.771 186.718 285.409 187.804 282.247C188.308 280.696 189.135 279.26 190.232 278.027C191.292 276.804 192.759 275.973 194.384 275.677L196.511 275.357L194.436 275.187L156.087 272.087H156.201C153.803 270.384 150.874 269.52 147.898 269.637C145.056 269.782 142.301 270.63 139.896 272.097H140.073L107.557 266.197L107.702 266.437C108.07 265.239 108.259 263.996 108.263 262.747C108.301 261.556 108.267 260.364 108.159 259.177C107.975 256.906 107.646 254.648 107.173 252.417V252.537C109.778 247.847 112.165 243.537 114.376 239.597V239.537C114.884 228.007 115.071 218.917 114.978 212.717C114.978 209.617 114.822 207.237 114.656 205.637C114.609 205.031 114.516 204.429 114.376 203.837C114.282 203.437 114.23 203.237 114.23 203.237C114.23 203.237 114.23 203.447 114.334 203.847C114.456 204.441 114.536 205.042 114.573 205.647C114.718 207.247 114.812 209.647 114.822 212.717C114.822 218.917 114.635 228.007 114.085 239.527V239.467C111.874 243.417 109.467 247.697 106.82 252.377V252.437C107.29 254.669 107.619 256.926 107.806 259.197C107.91 260.374 107.941 261.556 107.899 262.737C107.892 263.949 107.707 265.154 107.349 266.317L107.287 266.517H107.495L140 272.517H140.083L140.166 272.467C142.5 271.05 145.174 270.237 147.929 270.107C150.786 269.999 153.594 270.835 155.89 272.477H155.952H156.014L194.353 275.617V275.127C192.6 275.429 191.014 276.314 189.869 277.627C188.727 278.915 187.865 280.411 187.337 282.027C186.221 285.262 185.904 288.703 186.413 292.077C186.687 293.77 187.093 295.442 187.627 297.077C188.105 298.73 188.585 300.397 189.07 302.077C190.038 305.41 191.011 308.743 191.986 312.077L192.246 311.747H160.072L58.5392 311.817C56.3301 311.09 54.3189 309.894 52.6545 308.317C51.0086 306.771 49.6252 304.986 48.555 303.027C48.0049 302.027 47.6105 301.027 47.1435 300.027C46.6765 299.027 46.4378 297.967 46.1057 296.937C45.7736 295.907 45.6386 294.847 45.3999 293.807C45.1612 292.767 45.1301 291.697 44.9952 290.657C44.8763 289.621 44.814 288.579 44.8083 287.537C44.7514 286.507 44.7514 285.476 44.8083 284.447C44.9018 282.397 44.9744 280.377 45.1301 278.377C45.3861 274.377 45.6421 270.49 45.8981 266.717C46.9359 251.647 47.7559 238.447 48.472 227.547C49.1881 216.647 49.7278 208.067 50.1118 202.187C50.2882 199.267 50.4335 197.007 50.5269 195.477C50.5269 194.727 50.5996 194.157 50.6204 193.757C50.6411 193.357 50.6618 193.367 50.6618 193.367Z" fill="#263238"/>
<path d="M80.0539 138.877C80.6482 139.279 81.2648 139.65 81.9012 139.987C83.5798 140.986 85.1853 142.096 86.7065 143.307C91.687 147.357 95.9008 152.209 99.1607 157.647C102.391 163.093 105.167 168.777 107.464 174.647L109.622 179.967L110.224 181.417C110.282 181.589 110.362 181.754 110.463 181.907C110.443 181.725 110.398 181.547 110.328 181.377C110.193 180.987 110.017 180.497 109.819 179.897C109.363 178.617 108.699 176.777 107.816 174.507C105.616 168.569 102.876 162.83 99.6278 157.357C96.3484 151.868 92.0576 147.002 86.966 142.997C85.4116 141.803 83.7595 140.733 82.0258 139.797C81.4238 139.447 80.9153 139.237 80.5936 139.077C80.422 138.991 80.241 138.924 80.0539 138.877Z" fill="#263238"/>
<g opacity="0.3">
<path d="M120.675 177.067C124.99 186.469 126.98 196.708 126.487 206.977C126.093 217.137 124.827 227.327 125.865 237.457C126.903 247.587 130.545 257.917 138.381 264.727C139.394 265.47 140.253 266.389 140.914 267.437C141.231 267.968 141.356 268.586 141.267 269.193C141.179 269.799 140.883 270.361 140.426 270.787C139.934 271.052 139.392 271.218 138.832 271.275C138.271 271.331 137.705 271.278 137.167 271.117C129.663 269.857 122.066 268.957 114.552 267.707C112.943 267.437 107.536 266.417 107.536 266.417C107.909 264.438 108.062 262.427 107.993 260.417C107.754 258.607 107.017 252.417 107.017 252.417C107.372 251.497 107.858 250.629 108.46 249.837C111.272 245.013 113.369 239.832 114.687 234.447C117.251 229.397 118.403 224.317 119.596 219.597C122.886 206.487 122.793 193.597 120.696 176.987" fill="black"/>
</g>
<g opacity="0.3">
<path d="M202.946 162.137C202.334 163.637 201.711 165.137 201.099 166.647C201.036 166.883 200.925 167.105 200.771 167.299C200.618 167.493 200.426 167.656 200.206 167.777C199.282 168.117 198.545 167.027 198.13 166.167C197.242 164.482 195.938 163.033 194.333 161.947C192.728 160.86 190.871 160.17 188.925 159.937C185.811 159.587 182.531 160.467 179.428 159.847C182.114 158.167 184.99 156.788 188.001 155.737C191.037 154.678 194.357 154.646 197.414 155.647C198.922 156.17 200.251 157.085 201.253 158.29C202.255 159.495 202.891 160.944 203.091 162.477" fill="black"/>
</g>
<g opacity="0.3">
<path d="M177.29 158.347C173.6 158.293 169.914 158.628 166.299 159.347C162.658 160.058 159.354 161.89 156.886 164.567C154.375 167.517 153.44 171.387 152.423 175.067C152.226 175.777 151.873 176.617 151.126 176.697C150.665 176.695 150.22 176.528 149.881 176.227C143.654 171.827 139.564 165.097 137.323 157.997C135.081 150.897 134.562 143.417 134.437 135.997C137.406 141.107 138.693 146.927 140.665 152.467C142.636 158.007 145.511 163.587 150.597 166.787C150.54 166.157 150.613 165.522 150.813 164.919C151.012 164.317 151.334 163.759 151.759 163.277C152.609 162.314 153.632 161.508 154.779 160.897C158.222 158.921 162.055 157.657 166.032 157.187C170.01 156.717 174.045 157.051 177.882 158.167" fill="black"/>
</g>
<path d="M193.418 276.137H206.132C206.132 276.137 234.808 266.137 240.703 267.137C246.017 267.997 265.456 280.437 269.265 282.907C269.69 283.179 270.013 283.575 270.188 284.037C270.565 285.011 270.533 286.089 270.099 287.041C269.665 287.993 268.863 288.745 267.864 289.137L267.469 289.297L267.635 289.857C267.868 290.581 267.97 291.339 267.936 292.097C267.884 292.664 267.648 293.201 267.26 293.631C266.873 294.06 266.354 294.361 265.778 294.49C265.203 294.618 264.599 294.569 264.055 294.347C263.511 294.126 263.053 293.744 262.747 293.257L263.473 294.517C263.776 295.027 263.917 295.611 263.878 296.197L263.816 297.327C263.781 297.947 263.552 298.542 263.159 299.035C262.767 299.527 262.229 299.894 261.616 300.087C261.032 300.261 260.408 300.27 259.819 300.112C259.231 299.954 258.701 299.636 258.295 299.197C255.825 296.587 250.5 291.357 246.878 290.777C242.974 290.322 239.041 290.132 235.109 290.207C234.308 290.21 233.526 290.445 232.865 290.882C232.204 291.319 231.695 291.937 231.404 292.657C233.542 292.807 248.445 300.297 253.718 302.977C254.534 303.368 255.24 303.944 255.773 304.657C256.307 305.37 256.652 306.197 256.779 307.067C256.977 308.657 256.146 310.317 252.877 309.587C245.872 308.007 233.262 302.427 233.262 302.427C233.262 302.427 226.765 300.637 222.551 303.497C216.625 307.497 213.906 309.007 208.82 307.377C205.725 306.371 202.758 305.029 199.978 303.377L189.952 302.377C189.952 302.377 180.456 279.637 193.418 276.137Z" fill="#FFBE9D"/>
<path d="M231.31 280.797C231.31 280.907 233.386 280.287 236.697 280.077C241.066 279.794 245.442 280.51 249.47 282.166C253.497 283.822 257.061 286.372 259.872 289.607C261.008 290.971 262.072 292.389 263.058 293.857C262.9 293.408 262.687 292.978 262.425 292.577C261.768 291.452 261.015 290.381 260.173 289.377C257.392 286.016 253.788 283.374 249.685 281.688C245.582 280.002 241.108 279.324 236.666 279.717C235.332 279.827 234.01 280.041 232.712 280.357C232.229 280.454 231.759 280.601 231.31 280.797Z" fill="#EB996E"/>
<path d="M234.32 274.087C237.439 273.146 240.737 272.893 243.971 273.347C247.204 273.8 250.291 274.949 253.002 276.707C256.872 279.106 260.397 281.988 263.484 285.277L266.369 288.197C266.699 288.565 267.068 288.9 267.469 289.197C267.187 288.78 266.871 288.386 266.525 288.017C265.892 287.277 264.958 286.227 263.764 284.957C260.717 281.56 257.176 278.606 253.251 276.187C249.258 273.785 244.619 272.575 239.914 272.707C238.503 272.776 237.107 273.025 235.763 273.447C235.409 273.557 235.063 273.687 234.725 273.837L234.32 274.087Z" fill="#EB996E"/>
<path d="M372.728 319.007L407.164 235.717C407.863 234.064 408.13 232.27 407.941 230.494C407.752 228.718 407.112 227.014 406.079 225.533C405.045 224.051 403.65 222.837 402.015 221.997C400.38 221.157 398.555 220.717 396.703 220.717H289.43C287.069 220.717 284.767 221.43 282.848 222.756C280.929 224.081 279.489 225.952 278.73 228.107L249.151 312.107L214.601 312.267C211.799 312.267 209.526 316.267 209.526 318.937L247.553 318.517L372.728 319.007Z" fill="#263238"/>
<path d="M371.888 239.947C374.334 239.848 376.753 240.472 378.82 241.737C379.518 242.155 380.154 242.663 380.709 243.247C382.546 245.247 385.826 249.107 384.518 255.147C383.211 261.187 379.173 262.017 377.253 262.217C375.333 262.417 362.184 258.807 362.184 258.807C362.184 258.807 357.41 254.897 359.07 249.757C360.596 245.347 364.83 240.197 371.888 239.947Z" fill="#F9EC75"/>
<path d="M378.177 260.417C378.177 260.417 377.7 263.647 376.018 264.417C374.337 265.187 371.203 265.087 368.753 264.507C366.304 263.927 362.775 262.607 362.36 260.817C362.012 259.423 362.084 257.962 362.568 256.607C363.903 255.887 365.379 255.445 366.902 255.309C368.425 255.173 369.961 255.346 371.41 255.817C374.173 256.503 376.58 258.139 378.177 260.417Z" fill="#F5F5F5"/>
<g opacity="0.4">
<path d="M367.497 244.997C367.194 246.163 367.257 247.39 367.677 248.522C368.098 249.654 368.857 250.64 369.859 251.356C370.861 252.073 372.061 252.487 373.308 252.546C374.554 252.605 375.79 252.307 376.861 251.689C377.931 251.072 378.788 250.162 379.322 249.075C379.856 247.989 380.043 246.774 379.861 245.585C379.679 244.395 379.134 243.285 378.297 242.393C377.46 241.502 376.367 240.87 375.157 240.577C373.533 240.186 371.815 240.432 370.379 241.261C368.943 242.089 367.907 243.433 367.497 244.997Z" fill="white"/>
</g>
<g opacity="0.4">
<path d="M383.428 258.197C382.206 256.74 381.569 254.909 381.633 253.037C381.781 251.203 382.615 249.483 383.978 248.197C384.65 250.178 384.883 252.273 384.663 254.347C384.499 255.692 384.08 256.997 383.428 258.197Z" fill="white"/>
</g>
<g opacity="0.4">
<path d="M358.759 252.247C360.549 251.522 362.005 250.197 362.858 248.517C363.667 246.933 363.812 245.111 363.263 243.427C361.781 244.826 360.569 246.469 359.682 248.277C358.458 251.067 358.759 252.247 358.759 252.247Z" fill="white"/>
</g>
<path d="M323.14 273.287C323.138 274.616 323.545 275.916 324.31 277.023C325.075 278.129 326.164 278.992 327.438 279.502C328.712 280.013 330.115 280.147 331.468 279.889C332.822 279.631 334.066 278.991 335.042 278.052C336.018 277.113 336.684 275.915 336.954 274.611C337.224 273.308 337.086 271.956 336.558 270.727C336.031 269.499 335.137 268.449 333.99 267.71C332.843 266.971 331.494 266.577 330.114 266.577C328.266 266.577 326.494 267.283 325.186 268.541C323.878 269.8 323.142 271.506 323.14 273.287Z" fill="#F5F5F5"/>
</svg>
