<svg xmlns="http://www.w3.org/2000/svg" width="38" height="48" viewBox="0 0 38 48" fill="none">
  <path d="M27.2877 37.4399C22.5201 40.0459 16.548 40.1763 11.4985 37.2609C3.79675 32.8143 1.15793 22.9662 5.60454 15.2644C6.06588 14.4654 6.43079 13.6878 6.99998 13V15.6235C6.99998 16.1467 7.57864 16.6037 8.10177 16.6037C8.6249 16.6037 8.99998 16.1777 8.99998 15.6546V11C8.99998 10.4769 8.52311 10 7.99998 10H3.34542C2.82229 10 2.49999 10.4788 2.49999 11.0019C2.49999 11.5251 2.93555 12 3.45868 12H5.60454C5.00869 12.7335 4.45151 13.4727 3.96392 14.3172C-1.00581 22.925 1.94345 33.9319 10.5513 38.9016C16.2818 42.2101 23.0756 42.0089 28.4435 38.965L27.2877 37.4399Z" fill="#0078db"></path>
  <path d="M10.8682 10.6925C15.6346 8.09019 21.6033 7.96142 26.6503 10.8753C34.352 15.3219 36.9908 25.1701 32.5442 32.8718C32.061 33.7088 31.6011 34.486 31 35.2008V32.3982C31 31.8751 30.4887 31.451 29.9656 31.451C29.4425 31.451 29.0184 31.8751 29.0184 32.3982V37.0528C29.0184 37.5759 29.4425 38 29.9656 38H34.6202C35.1433 38 35.5674 37.5759 35.5674 37.0528C35.5674 36.5297 35.1433 36 34.6202 36H32.6215C33.1918 35.2896 33.7153 34.6324 34.1848 33.819C39.1546 25.2112 36.2053 14.2044 27.5975 9.23469C21.8695 5.9276 15.0791 6.12718 9.71232 9.16735L10.8682 10.6925Z" fill="#0078db"></path>
  <path fill-rule="evenodd" clip-rule="evenodd" d="M19 36C25.6274 36 31 30.6274 31 24C31 17.3726 25.6274 12 19 12C12.3726 12 7 17.3726 7 24C7 30.6274 12.3726 36 19 36ZM29.1125 24.9231H26.3471C26.2499 26.1119 25.9667 27.2532 25.5241 28.3282C26.213 28.6679 26.8848 29.0594 27.5373 29.499C28.4031 28.1576 28.9614 26.5991 29.1125 24.9231ZM26.3471 23.0769C26.2499 21.8881 25.9667 20.7468 25.5242 19.6718C26.213 19.3321 26.8848 18.9406 27.5373 18.501C28.4031 19.8424 28.9614 21.4009 29.1125 23.0769H26.3471ZM24.4931 23.0769L19.9231 23.0769V21.2008C21.2626 21.1134 22.5662 20.8371 23.8224 20.3916C24.1731 21.249 24.4016 22.1491 24.4931 23.0769ZM18.0769 24.9231L13.5069 24.9231C13.5984 25.851 13.8269 26.7511 14.1777 27.6084C15.4338 27.163 16.7374 26.8866 18.0769 26.7993V24.9231ZM13.5069 23.0769L18.0769 23.0769V21.2007C16.7374 21.1134 15.4338 20.837 14.1776 20.3916C13.8269 21.2489 13.5984 22.1491 13.5069 23.0769ZM11.6529 23.0769H8.88755C9.03858 21.4009 9.59687 19.8423 10.4627 18.5009C11.1153 18.9405 11.787 19.3321 12.4759 19.6717C12.0333 20.7467 11.7501 21.8881 11.6529 23.0769ZM11.6529 24.9231H8.88755C9.03858 26.5991 9.59688 28.1577 10.4627 29.4991C11.1153 29.0595 11.787 28.668 12.4759 28.3283C12.0333 27.2533 11.7501 26.1119 11.6529 24.9231ZM24.4931 24.9231L19.9231 24.9231V26.7993C21.2626 26.8866 22.5662 27.163 23.8224 27.6084C24.1731 26.751 24.4016 25.8509 24.4931 24.9231ZM26.3962 30.9569C25.8397 30.5884 25.2711 30.2608 24.6918 29.9761C23.7695 31.503 22.5083 32.8521 21.0034 33.9562C23.1093 33.5348 24.9799 32.462 26.3962 30.9569ZM15.0396 29.2643C16.0288 28.9352 17.0434 28.7276 18.0769 28.65V32.46C16.8392 31.5509 15.8098 30.4683 15.0396 29.2643ZM22.9604 29.2642C22.1903 30.4683 21.1609 31.5509 19.9231 32.46V28.65C20.9566 28.7276 21.9712 28.9351 22.9604 29.2642ZM22.9604 18.7358C21.9712 19.0649 20.9566 19.2724 19.9231 19.35V15.54C21.1609 16.4491 22.1903 17.5318 22.9604 18.7358ZM18.0769 19.35V15.54C16.8391 16.4491 15.8098 17.5317 15.0396 18.7358C16.0288 19.0649 17.0434 19.2724 18.0769 19.35ZM11.6039 30.9569C12.1604 30.5885 12.729 30.2609 13.3083 29.9761C14.2305 31.5031 15.4917 32.8521 16.9966 33.9562C14.8908 33.5348 13.0202 32.4621 11.6039 30.9569ZM21.0034 14.0438C23.1093 14.4652 24.9799 15.538 26.3962 17.0431C25.8397 17.4116 25.2711 17.7392 24.6918 18.0239C23.7695 16.497 22.5083 15.1479 21.0034 14.0438ZM16.9966 14.0438C15.4917 15.1479 14.2305 16.4969 13.3082 18.0239C12.729 17.7391 12.1604 17.4116 11.6039 17.0431C13.0202 15.538 14.8908 14.4652 16.9966 14.0438Z" fill="#282828"></path>
</svg>