<?xml version="1.0" standalone="no"?>
<!DOCTYPE svg PUBLIC "-//W3C//DTD SVG 20010904//EN"
 "http://www.w3.org/TR/2001/REC-SVG-20010904/DTD/svg10.dtd">
<svg version="1.0" xmlns="http://www.w3.org/2000/svg" width="1024.000000pt" height="1024.000000pt" viewBox="0 0 1024.000000 1024.000000" preserveAspectRatio="xMidYMid meet">

<g transform="translate(0.000000,1024.000000) scale(0.100000,-0.100000)" fill="#021cb0" stroke="none">
<path d="M1840 8321 c-47 -4 -98 -14 -115 -22 -139 -73 -155 -84 -155 -109 0
-9 -9 -25 -21 -36 -25 -22 -49 -67 -53 -98 -2 -11 -6 -28 -9 -36 -18 -46 -27
-104 -27 -171 0 -42 -3 -79 -7 -83 -10 -10 -4 -4067 6 -4080 4 -6 13 -44 20
-85 6 -41 15 -79 19 -85 3 -6 8 -20 9 -31 2 -11 12 -32 23 -47 11 -15 20 -31
20 -36 0 -24 168 -179 226 -210 49 -26 187 -41 395 -44 l215 -3 32 27 c18 15
41 29 52 33 16 5 20 15 20 52 0 25 -8 58 -17 74 l-17 29 -196 0 c-208 0 -318
11 -331 32 -5 7 -9 10 -9 6 0 -8 -65 18 -88 35 -8 7 -37 34 -64 61 -53 55 -78
119 -78 200 0 25 -5 46 -10 46 -7 0 -9 689 -8 2118 l3 2117 47 60 c60 79 75
92 90 77 17 -17 1246 -17 1281 -1 31 14 47 48 47 99 0 30 -8 48 -31 75 l-31
35 -565 -1 c-310 -1 -567 2 -570 5 -4 3 -9 5 -12 4 -3 0 -44 -4 -91 -7z"></path>
<path d="M3545 8310 c-46 -18 -65 -48 -65 -105 0 -42 5 -60 23 -80 l22 -25
2573 0 2573 0 30 21 c26 18 29 26 29 78 0 60 -13 82 -67 110 -25 13 -5085 14
-5118 1z"></path>
<path d="M3523 7930 l-1633 -5 -25 -27 -25 -27 0 -1850 0 -1850 23 -13 c32
-19 6657 -24 6669 -5 4 6 8 396 8 865 0 940 4 884 -61 918 -42 21 -60 17 -106
-24 l-43 -37 -2 -757 -3 -757 -3121 -1 -3122 0 -7 637 c-8 628 -3 2699 6 2708
4 4 4341 9 5641 6 l607 -1 -1 -660 c-1 -596 1 -661 16 -684 9 -14 25 -30 36
-36 22 -12 64 -4 55 10 -3 5 4 14 15 20 11 6 20 17 20 24 0 8 6 19 14 25 8 7
24 32 35 56 21 44 21 56 21 728 l0 683 -29 29 -30 28 -1663 1 c-915 0 -2398
-1 -3295 -4z"></path>
<path d="M8765 7795 c-22 -8 -41 -15 -42 -15 -17 -1 -21 -159 -19 -732 2 -491
5 -669 14 -685 19 -35 53 -53 99 -53 53 0 108 44 122 98 15 56 9 1310 -6 1343
-12 28 -68 59 -105 59 -12 -1 -41 -7 -63 -15z"></path>
<path d="M8803 6003 c-12 -2 -41 -23 -64 -45 l-42 -41 3 -1111 c4 -1190 5
-1161 -45 -1256 -27 -51 -93 -127 -131 -149 -52 -31 -104 -36 -419 -39 -119
-2 -132 -4 -158 -25 -22 -17 -30 -33 -34 -67 -6 -62 21 -105 74 -115 48 -9
436 -6 443 3 3 4 26 8 52 9 53 3 188 61 188 81 0 6 4 11 9 10 14 -4 71 35 71
47 0 6 13 19 30 28 17 11 27 23 24 31 -3 8 3 17 13 20 22 7 85 136 110 226 16
61 17 138 15 1170 -1 608 -2 1115 -2 1128 0 12 -15 38 -32 57 -33 35 -65 46
-105 38z"></path>
<path d="M3115 3836 c-5 -31 -16 -52 -40 -75 l-33 -31 -511 0 c-371 0 -511 3
-511 11 0 17 -29 -10 -46 -42 -26 -51 -18 -82 31 -128 l44 -41 536 1 c518 0
535 1 545 20 6 10 20 19 31 19 12 0 36 15 55 34 30 30 34 40 34 86 0 63 -27
116 -81 160 -21 16 -40 30 -43 30 -3 0 -8 -20 -11 -44z"></path>
<path d="M4061 3715 c-44 -51 -44 -109 2 -152 l32 -31 495 -5 c272 -3 542 -2
600 3 103 8 105 9 137 44 18 20 33 45 33 56 0 26 -24 85 -39 94 -5 4 -278 6
-605 6 -392 0 -597 3 -601 10 -10 17 -22 12 -54 -25z"></path>
<path d="M5655 3742 c-27 -19 -55 -68 -55 -96 0 -37 30 -90 61 -106 14 -8 62
-11 140 -9 l118 4 35 34 c42 41 47 78 16 128 l-19 32 -128 3 c-70 2 -135 7
-143 11 -8 4 -20 3 -25 -1z"></path>
<path d="M3397 3336 c-35 -32 -45 -90 -23 -130 31 -59 27 -58 437 -64 l376 -5
7 -81 c9 -116 7 -449 -2 -464 -7 -10 -98 -13 -428 -13 -447 -1 -454 -1 -488
-51 -24 -34 -21 -120 5 -144 20 -18 68 -19 1527 -20 829 -1 1727 -2 1995 -3
l488 -1 -3 -82 -3 -83 -2138 -2 c-1509 -2 -2143 -6 -2158 -13 -68 -37 -29
-185 54 -205 12 -3 985 -4 2162 -3 l2140 3 40 22 c22 11 52 34 66 50 30 32 70
106 74 137 1 12 5 36 9 53 17 76 -55 246 -119 281 -16 10 -34 23 -38 30 -4 6
-17 12 -27 12 -10 0 -22 5 -25 10 -4 6 -196 10 -543 10 l-538 0 -2 285 -3 285
180 0 c192 0 221 6 240 47 18 40 14 107 -10 137 l-20 26 -299 0 c-262 0 -299
-2 -304 -16 -3 -9 -6 -184 -6 -390 l0 -374 -172 -2 c-95 -1 -458 -2 -805 -2
l-633 -1 0 393 0 392 -494 0 -493 0 -26 -24z"></path>
</g>
</svg>
